M48
;GenerationSoftware,Autodesk,EAGLE,9.6.2*%
;CreationDate,2023-01-06T21:41:06Z*%
FMAT,2
ICI,OFF
METRIC,TZ,000.000
T3C0.305
T2C0.813
T1C2.100
%
G90
M71
T1
X1829Y41656
X1829Y4572
X32436Y4572
X32436Y41656
T2
X28194Y23241
X28194Y25781
T3
X5359Y11684
X5842Y9779
X7366Y9779
X8890Y9779
X5842Y8509
X7366Y8509
X8890Y8509
X5842Y7239
X7366Y7239
X8890Y7239
X21844Y24155
X16510Y23368
X9804Y37694
X16510Y35179
X16510Y34163
X14224Y36322
X30226Y36525
X30226Y35636
X30226Y34696
X30226Y33833
X23165Y14453
X23546Y18339
X16789Y14453
X20803Y19253
X5359Y33020
X5359Y29159
X5359Y25095
X5359Y21082
X5359Y16510
X16510Y36195
M30