%TF.GenerationSoftware,KiCad,Pcbnew,(6.0.8)*%
%TF.CreationDate,2023-04-06T01:33:44-05:00*%
%TF.ProjectId,ArmPCB_fixed_mosfet_pins,41726d50-4342-45f6-9669-7865645f6d6f,rev?*%
%TF.SameCoordinates,Original*%
%TF.FileFunction,Paste,Top*%
%TF.FilePolarity,Positive*%
%FSLAX46Y46*%
G04 Gerber Fmt 4.6, Leading zero omitted, Abs format (unit mm)*
G04 Created by KiCad (PCBNEW (6.0.8)) date 2023-04-06 01:33:44*
%MOMM*%
%LPD*%
G01*
G04 APERTURE LIST*
G04 Aperture macros list*
%AMRoundRect*
0 Rectangle with rounded corners*
0 $1 Rounding radius*
0 $2 $3 $4 $5 $6 $7 $8 $9 X,Y pos of 4 corners*
0 Add a 4 corners polygon primitive as box body*
4,1,4,$2,$3,$4,$5,$6,$7,$8,$9,$2,$3,0*
0 Add four circle primitives for the rounded corners*
1,1,$1+$1,$2,$3*
1,1,$1+$1,$4,$5*
1,1,$1+$1,$6,$7*
1,1,$1+$1,$8,$9*
0 Add four rect primitives between the rounded corners*
20,1,$1+$1,$2,$3,$4,$5,0*
20,1,$1+$1,$4,$5,$6,$7,0*
20,1,$1+$1,$6,$7,$8,$9,0*
20,1,$1+$1,$8,$9,$2,$3,0*%
G04 Aperture macros list end*
%ADD10RoundRect,0.200000X-0.200000X-0.275000X0.200000X-0.275000X0.200000X0.275000X-0.200000X0.275000X0*%
%ADD11RoundRect,0.225000X-0.250000X0.225000X-0.250000X-0.225000X0.250000X-0.225000X0.250000X0.225000X0*%
%ADD12RoundRect,0.200000X0.200000X0.275000X-0.200000X0.275000X-0.200000X-0.275000X0.200000X-0.275000X0*%
%ADD13R,1.308100X0.355600*%
%ADD14RoundRect,0.200000X-0.275000X0.200000X-0.275000X-0.200000X0.275000X-0.200000X0.275000X0.200000X0*%
%ADD15RoundRect,0.225000X0.250000X-0.225000X0.250000X0.225000X-0.250000X0.225000X-0.250000X-0.225000X0*%
%ADD16RoundRect,0.200000X0.275000X-0.200000X0.275000X0.200000X-0.275000X0.200000X-0.275000X-0.200000X0*%
%ADD17R,1.900000X0.800000*%
G04 APERTURE END LIST*
D10*
%TO.C,R7*%
X100075000Y-73000000D03*
X101725000Y-73000000D03*
%TD*%
D11*
%TO.C,C4*%
X82250000Y-90475000D03*
X82250000Y-92025000D03*
%TD*%
D12*
%TO.C,R4*%
X118575000Y-89712500D03*
X116925000Y-89712500D03*
%TD*%
D13*
%TO.C,IC2*%
X91598050Y-90049999D03*
X91598050Y-90700000D03*
X91598050Y-91350001D03*
X91598050Y-92000000D03*
X91598050Y-92649999D03*
X91598050Y-93300000D03*
X91598050Y-93949999D03*
X97401950Y-93950001D03*
X97401950Y-93300000D03*
X97401950Y-92650001D03*
X97401950Y-92000000D03*
X97401950Y-91350001D03*
X97401950Y-90700000D03*
X97401950Y-90050001D03*
%TD*%
D10*
%TO.C,R6*%
X81925000Y-80000000D03*
X83575000Y-80000000D03*
%TD*%
D13*
%TO.C,IC1*%
X113651950Y-80700001D03*
X113651950Y-80050000D03*
X113651950Y-79399999D03*
X113651950Y-78750000D03*
X113651950Y-78100001D03*
X113651950Y-77450000D03*
X113651950Y-76800001D03*
X107848050Y-76799999D03*
X107848050Y-77450000D03*
X107848050Y-78099999D03*
X107848050Y-78750000D03*
X107848050Y-79399999D03*
X107848050Y-80050000D03*
X107848050Y-80699999D03*
%TD*%
D12*
%TO.C,R10*%
X87825000Y-92000000D03*
X86175000Y-92000000D03*
%TD*%
D14*
%TO.C,R1*%
X120750000Y-78425000D03*
X120750000Y-80075000D03*
%TD*%
D10*
%TO.C,R2*%
X117250000Y-78500000D03*
X118900000Y-78500000D03*
%TD*%
D11*
%TO.C,C2*%
X122500000Y-75325000D03*
X122500000Y-76875000D03*
%TD*%
D15*
%TO.C,C3*%
X82250000Y-95525000D03*
X82250000Y-93975000D03*
%TD*%
D16*
%TO.C,R5*%
X101700000Y-78125000D03*
X101700000Y-76475000D03*
%TD*%
D15*
%TO.C,C1*%
X122500000Y-80025000D03*
X122500000Y-78475000D03*
%TD*%
D17*
%TO.C,NM1*%
X107900000Y-93000000D03*
X104900000Y-92050000D03*
X104900000Y-93950000D03*
%TD*%
D16*
%TO.C,R9*%
X84250000Y-92075000D03*
X84250000Y-90425000D03*
%TD*%
D10*
%TO.C,R8*%
X82005000Y-73000000D03*
X83655000Y-73000000D03*
%TD*%
D16*
%TO.C,R3*%
X102800000Y-95725000D03*
X102800000Y-94075000D03*
%TD*%
D17*
%TO.C,NM3*%
X96400000Y-70300000D03*
X99400000Y-71250000D03*
X99400000Y-69350000D03*
%TD*%
%TO.C,NM2*%
X96400000Y-77300000D03*
X99400000Y-78250000D03*
X99400000Y-76350000D03*
%TD*%
M02*
