M48
; DRILL file {KiCad (6.0.8)} date Thu Apr  6 01:33:38 2023
; FORMAT={-:-/ absolute / metric / decimal}
; #@! TF.CreationDate,2023-04-06T01:33:38-05:00
; #@! TF.GenerationSoftware,Kicad,Pcbnew,(6.0.8)
; #@! TF.FileFunction,MixedPlating,1,2
FMAT,2
METRIC
; #@! TA.AperFunction,Plated,PTH,ViaDrill
T1C0.300
; #@! TA.AperFunction,Plated,PTH,ViaDrill
T2C0.400
; #@! TA.AperFunction,Plated,PTH,ComponentDrill
T3C1.000
; #@! TA.AperFunction,Plated,PTH,ComponentDrill
T4C1.100
; #@! TA.AperFunction,NonPlated,NPTH,ComponentDrill
T5C1.100
; #@! TA.AperFunction,NonPlated,NPTH,ComponentDrill
T6C2.500
%
G90
G05
T1
X123.75Y-76.5
T2
X81.0Y-94.0
X87.0Y-90.25
X88.75Y-90.25
X96.0Y-90.0
X107.5Y-81.75
X116.5Y-80.25
X118.0Y-80.25
T3
X78.42Y-77.25
X78.525Y-70.25
X80.96Y-77.25
X81.065Y-70.25
X83.5Y-77.25
X83.605Y-70.25
X84.975Y-95.0
X87.515Y-95.0
X91.25Y-85.0
X93.79Y-85.0
X96.33Y-85.0
X98.87Y-85.0
X101.41Y-85.0
X105.665Y-85.0
X108.205Y-85.0
X110.745Y-85.0
X113.285Y-85.0
X115.825Y-85.0
X117.0Y-92.75
X117.21Y-75.25
X119.54Y-92.75
X119.75Y-75.25
X122.08Y-92.75
T4
X93.96Y-100.75
X96.5Y-100.75
X96.77Y-62.25
X99.04Y-100.75
X99.31Y-62.25
X105.21Y-62.25
X105.25Y-100.75
X107.75Y-62.25
X107.79Y-100.75
X110.29Y-62.25
T5
X93.96Y-103.29
X96.5Y-103.29
X96.77Y-59.71
X99.04Y-103.29
X99.31Y-59.71
X105.21Y-59.71
X105.25Y-103.29
X107.75Y-59.71
X107.79Y-103.29
X110.29Y-59.71
T6
X80.0Y-62.5
X80.0Y-100.5
X120.75Y-62.5
X120.75Y-100.5
T0
M30
