%TF.GenerationSoftware,KiCad,Pcbnew,(6.0.8)*%
%TF.CreationDate,2023-04-06T01:33:44-05:00*%
%TF.ProjectId,ArmPCB_fixed_mosfet_pins,41726d50-4342-45f6-9669-7865645f6d6f,rev?*%
%TF.SameCoordinates,Original*%
%TF.FileFunction,Copper,L1,Top*%
%TF.FilePolarity,Positive*%
%FSLAX46Y46*%
G04 Gerber Fmt 4.6, Leading zero omitted, Abs format (unit mm)*
G04 Created by KiCad (PCBNEW (6.0.8)) date 2023-04-06 01:33:44*
%MOMM*%
%LPD*%
G01*
G04 APERTURE LIST*
G04 Aperture macros list*
%AMRoundRect*
0 Rectangle with rounded corners*
0 $1 Rounding radius*
0 $2 $3 $4 $5 $6 $7 $8 $9 X,Y pos of 4 corners*
0 Add a 4 corners polygon primitive as box body*
4,1,4,$2,$3,$4,$5,$6,$7,$8,$9,$2,$3,0*
0 Add four circle primitives for the rounded corners*
1,1,$1+$1,$2,$3*
1,1,$1+$1,$4,$5*
1,1,$1+$1,$6,$7*
1,1,$1+$1,$8,$9*
0 Add four rect primitives between the rounded corners*
20,1,$1+$1,$2,$3,$4,$5,0*
20,1,$1+$1,$4,$5,$6,$7,0*
20,1,$1+$1,$6,$7,$8,$9,0*
20,1,$1+$1,$8,$9,$2,$3,0*%
G04 Aperture macros list end*
%TA.AperFunction,ComponentPad*%
%ADD10R,1.700000X1.700000*%
%TD*%
%TA.AperFunction,ComponentPad*%
%ADD11O,1.700000X1.700000*%
%TD*%
%TA.AperFunction,SMDPad,CuDef*%
%ADD12RoundRect,0.200000X-0.200000X-0.275000X0.200000X-0.275000X0.200000X0.275000X-0.200000X0.275000X0*%
%TD*%
%TA.AperFunction,SMDPad,CuDef*%
%ADD13RoundRect,0.225000X-0.250000X0.225000X-0.250000X-0.225000X0.250000X-0.225000X0.250000X0.225000X0*%
%TD*%
%TA.AperFunction,SMDPad,CuDef*%
%ADD14RoundRect,0.200000X0.200000X0.275000X-0.200000X0.275000X-0.200000X-0.275000X0.200000X-0.275000X0*%
%TD*%
%TA.AperFunction,ComponentPad*%
%ADD15R,2.200000X2.200000*%
%TD*%
%TA.AperFunction,ComponentPad*%
%ADD16C,2.200000*%
%TD*%
%TA.AperFunction,SMDPad,CuDef*%
%ADD17R,1.308100X0.355600*%
%TD*%
%TA.AperFunction,SMDPad,CuDef*%
%ADD18RoundRect,0.200000X-0.275000X0.200000X-0.275000X-0.200000X0.275000X-0.200000X0.275000X0.200000X0*%
%TD*%
%TA.AperFunction,SMDPad,CuDef*%
%ADD19RoundRect,0.225000X0.250000X-0.225000X0.250000X0.225000X-0.250000X0.225000X-0.250000X-0.225000X0*%
%TD*%
%TA.AperFunction,SMDPad,CuDef*%
%ADD20RoundRect,0.200000X0.275000X-0.200000X0.275000X0.200000X-0.275000X0.200000X-0.275000X-0.200000X0*%
%TD*%
%TA.AperFunction,SMDPad,CuDef*%
%ADD21R,1.900000X0.800000*%
%TD*%
%TA.AperFunction,ViaPad*%
%ADD22C,0.800000*%
%TD*%
%TA.AperFunction,ViaPad*%
%ADD23C,0.700000*%
%TD*%
%TA.AperFunction,Conductor*%
%ADD24C,0.300000*%
%TD*%
%TA.AperFunction,Conductor*%
%ADD25C,0.500000*%
%TD*%
G04 APERTURE END LIST*
D10*
%TO.P,J5,1,Pin_1*%
%TO.N,S1*%
X117000000Y-92750000D03*
D11*
%TO.P,J5,2,Pin_2*%
%TO.N,5V*%
X119540000Y-92750000D03*
%TO.P,J5,3,Pin_3*%
%TO.N,GND*%
X122080000Y-92750000D03*
%TD*%
D12*
%TO.P,R7,1*%
%TO.N,+3.3V*%
X100075000Y-73000000D03*
%TO.P,R7,2*%
%TO.N,RC2*%
X101725000Y-73000000D03*
%TD*%
D13*
%TO.P,C4,1*%
%TO.N,3.3V*%
X82250000Y-90475000D03*
%TO.P,C4,2*%
%TO.N,GND*%
X82250000Y-92025000D03*
%TD*%
D14*
%TO.P,R4,1*%
%TO.N,5V*%
X118575000Y-89712500D03*
%TO.P,R4,2*%
%TO.N,S1*%
X116925000Y-89712500D03*
%TD*%
D15*
%TO.P,J8,1,Pin_1*%
%TO.N,GND*%
X99310000Y-62250000D03*
D16*
%TO.P,J8,2,Pin_2*%
%TO.N,+5V*%
X96770000Y-62250000D03*
%TD*%
D15*
%TO.P,J1,1,Pin_1*%
%TO.N,GND*%
X105250000Y-100750000D03*
D16*
%TO.P,J1,2,Pin_2*%
%TO.N,5V*%
X107790000Y-100750000D03*
%TD*%
D10*
%TO.P,J3,1,Pin_1*%
%TO.N,MCLR1*%
X115825000Y-85000000D03*
D11*
%TO.P,J3,2,Pin_2*%
%TO.N,+3.3V*%
X113285000Y-85000000D03*
%TO.P,J3,3,Pin_3*%
%TO.N,GND*%
X110745000Y-85000000D03*
%TO.P,J3,4,Pin_4*%
%TO.N,DATA1*%
X108205000Y-85000000D03*
%TO.P,J3,5,Pin_5*%
%TO.N,CLK1*%
X105665000Y-85000000D03*
%TD*%
D17*
%TO.P,IC2,1,VDD*%
%TO.N,3.3V*%
X91598050Y-90049999D03*
%TO.P,IC2,2,RA5*%
%TO.N,RA5_2*%
X91598050Y-90700000D03*
%TO.P,IC2,3,RA4*%
%TO.N,RA4_2*%
X91598050Y-91350001D03*
%TO.P,IC2,4,~{MCLR}/VPP/RA3*%
%TO.N,MCLR2*%
X91598050Y-92000000D03*
%TO.P,IC2,5,RC5*%
%TO.N,unconnected-(IC2-Pad5)*%
X91598050Y-92649999D03*
%TO.P,IC2,6,RC4*%
%TO.N,unconnected-(IC2-Pad6)*%
X91598050Y-93300000D03*
%TO.P,IC2,7,RC3*%
%TO.N,unconnected-(IC2-Pad7)*%
X91598050Y-93949999D03*
%TO.P,IC2,8,RC2*%
%TO.N,RC0*%
X97401950Y-93950001D03*
%TO.P,IC2,9,RC1*%
%TO.N,unconnected-(IC2-Pad9)*%
X97401950Y-93300000D03*
%TO.P,IC2,10,RC0*%
%TO.N,unconnected-(IC2-Pad10)*%
X97401950Y-92650001D03*
%TO.P,IC2,11,RA2*%
%TO.N,unconnected-(IC2-Pad11)*%
X97401950Y-92000000D03*
%TO.P,IC2,12,RA1/ICSPCLK*%
%TO.N,CLK2*%
X97401950Y-91350001D03*
%TO.P,IC2,13,RA0/ICSPDAT*%
%TO.N,DATA2*%
X97401950Y-90700000D03*
%TO.P,IC2,14,VSS*%
%TO.N,GND*%
X97401950Y-90050001D03*
%TD*%
D15*
%TO.P,J9,1,Pin_1*%
%TO.N,RA4*%
X110290000Y-62250000D03*
D16*
%TO.P,J9,2,Pin_2*%
%TO.N,RA5*%
X107750000Y-62250000D03*
%TO.P,J9,3,Pin_3*%
%TO.N,+3.3V*%
X105210000Y-62250000D03*
%TD*%
D12*
%TO.P,R6,1*%
%TO.N,+5V*%
X81925000Y-80000000D03*
%TO.P,R6,2*%
%TO.N,S2*%
X83575000Y-80000000D03*
%TD*%
D17*
%TO.P,IC1,1,VDD*%
%TO.N,+3.3V*%
X113651950Y-80700001D03*
%TO.P,IC1,2,RA5*%
%TO.N,RA5*%
X113651950Y-80050000D03*
%TO.P,IC1,3,RA4*%
%TO.N,RA4*%
X113651950Y-79399999D03*
%TO.P,IC1,4,~{MCLR}/VPP/RA3*%
%TO.N,MCLR1*%
X113651950Y-78750000D03*
%TO.P,IC1,5,RC5*%
%TO.N,unconnected-(IC1-Pad5)*%
X113651950Y-78100001D03*
%TO.P,IC1,6,RC4*%
%TO.N,unconnected-(IC1-Pad6)*%
X113651950Y-77450000D03*
%TO.P,IC1,7,RC3*%
%TO.N,unconnected-(IC1-Pad7)*%
X113651950Y-76800001D03*
%TO.P,IC1,8,RC2*%
%TO.N,RC2*%
X107848050Y-76799999D03*
%TO.P,IC1,9,RC1*%
%TO.N,RC1*%
X107848050Y-77450000D03*
%TO.P,IC1,10,RC0*%
%TO.N,unconnected-(IC1-Pad10)*%
X107848050Y-78099999D03*
%TO.P,IC1,11,RA2*%
%TO.N,unconnected-(IC1-Pad11)*%
X107848050Y-78750000D03*
%TO.P,IC1,12,RA1/ICSPCLK*%
%TO.N,CLK1*%
X107848050Y-79399999D03*
%TO.P,IC1,13,RA0/ICSPDAT*%
%TO.N,DATA1*%
X107848050Y-80050000D03*
%TO.P,IC1,14,VSS*%
%TO.N,GND*%
X107848050Y-80699999D03*
%TD*%
D14*
%TO.P,R10,1*%
%TO.N,MCLR2*%
X87825000Y-92000000D03*
%TO.P,R10,2*%
%TO.N,Net-(JP2-Pad2)*%
X86175000Y-92000000D03*
%TD*%
D18*
%TO.P,R1,1*%
%TO.N,Net-(JP1-Pad2)*%
X120750000Y-78425000D03*
%TO.P,R1,2*%
%TO.N,+3.3V*%
X120750000Y-80075000D03*
%TD*%
D12*
%TO.P,R2,1*%
%TO.N,MCLR1*%
X117250000Y-78500000D03*
%TO.P,R2,2*%
%TO.N,Net-(JP1-Pad2)*%
X118900000Y-78500000D03*
%TD*%
D13*
%TO.P,C2,1*%
%TO.N,Net-(C2-Pad1)*%
X122500000Y-75325000D03*
%TO.P,C2,2*%
%TO.N,GND*%
X122500000Y-76875000D03*
%TD*%
D19*
%TO.P,C3,1*%
%TO.N,Net-(C3-Pad1)*%
X82250000Y-95525000D03*
%TO.P,C3,2*%
%TO.N,GND*%
X82250000Y-93975000D03*
%TD*%
D20*
%TO.P,R5,1*%
%TO.N,+3.3V*%
X101700000Y-78125000D03*
%TO.P,R5,2*%
%TO.N,RC1*%
X101700000Y-76475000D03*
%TD*%
D10*
%TO.P,J7,1,Pin_1*%
%TO.N,S3*%
X83605000Y-70250000D03*
D11*
%TO.P,J7,2,Pin_2*%
%TO.N,+5V*%
X81065000Y-70250000D03*
%TO.P,J7,3,Pin_3*%
%TO.N,GND*%
X78525000Y-70250000D03*
%TD*%
D19*
%TO.P,C1,1*%
%TO.N,+3.3V*%
X122500000Y-80025000D03*
%TO.P,C1,2*%
%TO.N,GND*%
X122500000Y-78475000D03*
%TD*%
D21*
%TO.P,NM1,1,D*%
%TO.N,S1*%
X107900000Y-93000000D03*
%TO.P,NM1,2,G*%
%TO.N,3.3V*%
X104900000Y-92050000D03*
%TO.P,NM1,3,S*%
%TO.N,RC0*%
X104900000Y-93950000D03*
%TD*%
D20*
%TO.P,R9,1*%
%TO.N,Net-(JP2-Pad2)*%
X84250000Y-92075000D03*
%TO.P,R9,2*%
%TO.N,3.3V*%
X84250000Y-90425000D03*
%TD*%
D12*
%TO.P,R8,1*%
%TO.N,+5V*%
X82005000Y-73000000D03*
%TO.P,R8,2*%
%TO.N,S3*%
X83655000Y-73000000D03*
%TD*%
D10*
%TO.P,J4,1,Pin_1*%
%TO.N,MCLR2*%
X91250000Y-85000000D03*
D11*
%TO.P,J4,2,Pin_2*%
%TO.N,3.3V*%
X93790000Y-85000000D03*
%TO.P,J4,3,Pin_3*%
%TO.N,GND*%
X96330000Y-85000000D03*
%TO.P,J4,4,Pin_4*%
%TO.N,DATA2*%
X98870000Y-85000000D03*
%TO.P,J4,5,Pin_5*%
%TO.N,CLK2*%
X101410000Y-85000000D03*
%TD*%
D20*
%TO.P,R3,1*%
%TO.N,3.3V*%
X102800000Y-95725000D03*
%TO.P,R3,2*%
%TO.N,RC0*%
X102800000Y-94075000D03*
%TD*%
D21*
%TO.P,NM3,1,D*%
%TO.N,S3*%
X96400000Y-70300000D03*
%TO.P,NM3,2,G*%
%TO.N,+3.3V*%
X99400000Y-71250000D03*
%TO.P,NM3,3,S*%
%TO.N,RC2*%
X99400000Y-69350000D03*
%TD*%
D15*
%TO.P,J2,1,Pin_1*%
%TO.N,RA4_2*%
X93960000Y-100750000D03*
D16*
%TO.P,J2,2,Pin_2*%
%TO.N,RA5_2*%
X96500000Y-100750000D03*
%TO.P,J2,3,Pin_3*%
%TO.N,3.3V*%
X99040000Y-100750000D03*
%TD*%
D21*
%TO.P,NM2,1,D*%
%TO.N,S2*%
X96400000Y-77300000D03*
%TO.P,NM2,2,G*%
%TO.N,+3.3V*%
X99400000Y-78250000D03*
%TO.P,NM2,3,S*%
%TO.N,RC1*%
X99400000Y-76350000D03*
%TD*%
D10*
%TO.P,JP1,1,A*%
%TO.N,Net-(C2-Pad1)*%
X119750000Y-75250000D03*
D11*
%TO.P,JP1,2,B*%
%TO.N,Net-(JP1-Pad2)*%
X117210000Y-75250000D03*
%TD*%
D10*
%TO.P,JP2,1,A*%
%TO.N,Net-(C3-Pad1)*%
X84975000Y-95000000D03*
D11*
%TO.P,JP2,2,B*%
%TO.N,Net-(JP2-Pad2)*%
X87515000Y-95000000D03*
%TD*%
D10*
%TO.P,J6,1,Pin_1*%
%TO.N,S2*%
X83500000Y-77250000D03*
D11*
%TO.P,J6,2,Pin_2*%
%TO.N,+5V*%
X80960000Y-77250000D03*
%TO.P,J6,3,Pin_3*%
%TO.N,GND*%
X78420000Y-77250000D03*
%TD*%
D22*
%TO.N,+3.3V*%
X116500000Y-80250000D03*
X118000000Y-80250000D03*
D23*
%TO.N,GND*%
X123750000Y-76500000D03*
D22*
X107500000Y-81750000D03*
X81000000Y-94000000D03*
X96000000Y-90000000D03*
%TO.N,3.3V*%
X88750000Y-90250000D03*
X87000000Y-90250000D03*
%TD*%
D24*
%TO.N,+3.3V*%
X120750000Y-80075000D02*
X118175000Y-80075000D01*
X111000000Y-79368502D02*
X112331499Y-80700001D01*
X99525000Y-78125000D02*
X99400000Y-78250000D01*
X97900000Y-75800000D02*
X97900000Y-77300000D01*
X118175000Y-80075000D02*
X118000000Y-80250000D01*
X113285000Y-81066951D02*
X113651950Y-80700001D01*
X98850000Y-71250000D02*
X99400000Y-71250000D01*
X99400000Y-71250000D02*
X99400000Y-72325000D01*
X100075000Y-73000000D02*
X100075000Y-73625000D01*
X112331499Y-80700001D02*
X113651950Y-80700001D01*
X99400000Y-72325000D02*
X100075000Y-73000000D01*
X103654366Y-62250000D02*
X97900000Y-68004366D01*
X97900000Y-68004366D02*
X97900000Y-70300000D01*
X111000000Y-68040000D02*
X111000000Y-79368502D01*
X105210000Y-62250000D02*
X103654366Y-62250000D01*
X116049999Y-80700001D02*
X113651950Y-80700001D01*
X97900000Y-77300000D02*
X98850000Y-78250000D01*
X97900000Y-70300000D02*
X98850000Y-71250000D01*
X116500000Y-80250000D02*
X116049999Y-80700001D01*
X105210000Y-62250000D02*
X111000000Y-68040000D01*
X122500000Y-80025000D02*
X120800000Y-80025000D01*
X100075000Y-73625000D02*
X97900000Y-75800000D01*
X113285000Y-85000000D02*
X113285000Y-81066951D01*
X120800000Y-80025000D02*
X120750000Y-80075000D01*
X98850000Y-78250000D02*
X99400000Y-78250000D01*
X101700000Y-78125000D02*
X99525000Y-78125000D01*
%TO.N,GND*%
X122500000Y-76875000D02*
X123375000Y-76875000D01*
X97401950Y-90050001D02*
X96050001Y-90050001D01*
X122500000Y-76875000D02*
X122500000Y-78475000D01*
X123375000Y-76875000D02*
X123750000Y-76500000D01*
X107848050Y-80699999D02*
X107848050Y-81401950D01*
X81025000Y-93975000D02*
X81000000Y-94000000D01*
X96050001Y-90050001D02*
X96000000Y-90000000D01*
X82250000Y-93975000D02*
X82250000Y-92025000D01*
X107848050Y-81401950D02*
X107500000Y-81750000D01*
X82250000Y-93975000D02*
X81025000Y-93975000D01*
%TO.N,Net-(C2-Pad1)*%
X122425000Y-75250000D02*
X122500000Y-75325000D01*
X119750000Y-75250000D02*
X122425000Y-75250000D01*
%TO.N,RA5*%
X111750000Y-79029899D02*
X112770101Y-80050000D01*
X111750000Y-66500000D02*
X111750000Y-79029899D01*
X112770101Y-80050000D02*
X113651950Y-80050000D01*
X107750000Y-62250000D02*
X107750000Y-62500000D01*
X107750000Y-62500000D02*
X111750000Y-66500000D01*
%TO.N,RA4*%
X110290000Y-63540000D02*
X112500000Y-65750000D01*
X112500000Y-65750000D02*
X112500000Y-79000000D01*
X110290000Y-62250000D02*
X110290000Y-63540000D01*
X112899999Y-79399999D02*
X113651950Y-79399999D01*
X112500000Y-79000000D02*
X112899999Y-79399999D01*
%TO.N,Net-(C3-Pad1)*%
X84450000Y-95525000D02*
X84975000Y-95000000D01*
X82250000Y-95525000D02*
X84450000Y-95525000D01*
%TO.N,RC2*%
X99400000Y-69350000D02*
X101050000Y-69350000D01*
X103600000Y-73000000D02*
X107399999Y-76799999D01*
X101725000Y-73000000D02*
X103600000Y-73000000D01*
X101725000Y-70025000D02*
X101725000Y-73000000D01*
X107399999Y-76799999D02*
X107848050Y-76799999D01*
X101050000Y-69350000D02*
X101725000Y-70025000D01*
%TO.N,RC1*%
X101700000Y-76475000D02*
X99525000Y-76475000D01*
X107848050Y-77450000D02*
X104550000Y-77450000D01*
X103575000Y-76475000D02*
X101700000Y-76475000D01*
X99525000Y-76475000D02*
X99400000Y-76350000D01*
X104550000Y-77450000D02*
X103575000Y-76475000D01*
%TO.N,RC0*%
X102675001Y-93950001D02*
X102800000Y-94075000D01*
X104775000Y-94075000D02*
X104900000Y-93950000D01*
X97401950Y-93950001D02*
X102675001Y-93950001D01*
X102800000Y-94075000D02*
X104775000Y-94075000D01*
%TO.N,MCLR1*%
X117250000Y-83750000D02*
X117250000Y-78500000D01*
X117210000Y-78635000D02*
X117325000Y-78750000D01*
X115825000Y-85000000D02*
X116000000Y-85000000D01*
X117400000Y-78675000D02*
X117325000Y-78750000D01*
X116000000Y-85000000D02*
X117250000Y-83750000D01*
X117000000Y-78750000D02*
X113651950Y-78750000D01*
X117250000Y-78500000D02*
X117000000Y-78750000D01*
D25*
%TO.N,+5V*%
X82005000Y-73000000D02*
X82005000Y-76205000D01*
X80960000Y-79035000D02*
X81925000Y-80000000D01*
X82005000Y-76205000D02*
X80960000Y-77250000D01*
X81065000Y-70250000D02*
X81065000Y-72060000D01*
X80960000Y-77250000D02*
X80960000Y-79035000D01*
X81065000Y-70250000D02*
X89065000Y-62250000D01*
X89065000Y-62250000D02*
X96770000Y-62250000D01*
X81065000Y-72060000D02*
X82005000Y-73000000D01*
D24*
%TO.N,S1*%
X107900000Y-93000000D02*
X116750000Y-93000000D01*
X116750000Y-93000000D02*
X117000000Y-92750000D01*
X117000000Y-92750000D02*
X117000000Y-89787500D01*
X117000000Y-89787500D02*
X116925000Y-89712500D01*
%TO.N,S2*%
X83550000Y-77300000D02*
X83500000Y-77250000D01*
X83500000Y-79925000D02*
X83575000Y-80000000D01*
X96400000Y-77300000D02*
X83550000Y-77300000D01*
X83500000Y-77250000D02*
X83500000Y-79925000D01*
%TO.N,S3*%
X83655000Y-70300000D02*
X83605000Y-70250000D01*
X83655000Y-73000000D02*
X83655000Y-70300000D01*
X96400000Y-70300000D02*
X83655000Y-70300000D01*
%TO.N,Net-(JP1-Pad2)*%
X118900000Y-76940000D02*
X117210000Y-75250000D01*
X118975000Y-78425000D02*
X118900000Y-78500000D01*
X118900000Y-78500000D02*
X118900000Y-76940000D01*
X120750000Y-78425000D02*
X118975000Y-78425000D01*
%TO.N,CLK1*%
X105665000Y-85000000D02*
X105665000Y-80835000D01*
X107100001Y-79399999D02*
X107848050Y-79399999D01*
X105665000Y-80835000D02*
X107100001Y-79399999D01*
%TO.N,DATA1*%
X109055000Y-80375099D02*
X108729901Y-80050000D01*
X108729901Y-80050000D02*
X107848050Y-80050000D01*
X109055000Y-84150000D02*
X109055000Y-80375099D01*
X108205000Y-85000000D02*
X109055000Y-84150000D01*
%TO.N,MCLR2*%
X87825000Y-92000000D02*
X91598050Y-92000000D01*
X87825000Y-88425000D02*
X87825000Y-92000000D01*
X91250000Y-85000000D02*
X87825000Y-88425000D01*
%TO.N,CLK2*%
X101410000Y-85000000D02*
X101410000Y-88280907D01*
X101410000Y-88280907D02*
X98340906Y-91350001D01*
X98340906Y-91350001D02*
X97401950Y-91350001D01*
%TO.N,DATA2*%
X98283801Y-90700000D02*
X97401950Y-90700000D01*
X98870000Y-90113801D02*
X98283801Y-90700000D01*
X98870000Y-85000000D02*
X98870000Y-90113801D01*
%TO.N,Net-(JP2-Pad2)*%
X87515000Y-95000000D02*
X87515000Y-93340000D01*
X87515000Y-93340000D02*
X86175000Y-92000000D01*
X84250000Y-92075000D02*
X86100000Y-92075000D01*
X86100000Y-92075000D02*
X86175000Y-92000000D01*
%TO.N,RA5_2*%
X92537006Y-90700000D02*
X91598050Y-90700000D01*
X93500000Y-96000000D02*
X93500000Y-91662994D01*
X93500000Y-96000000D02*
X96500000Y-99000000D01*
X93500000Y-91662994D02*
X92537006Y-90700000D01*
X96500000Y-99000000D02*
X96500000Y-100750000D01*
%TO.N,RA4_2*%
X92750000Y-91620100D02*
X92479901Y-91350001D01*
X93960000Y-97960000D02*
X93960000Y-100750000D01*
X93960000Y-97960000D02*
X92750000Y-96750000D01*
X92750000Y-96750000D02*
X92750000Y-91620100D01*
X92479901Y-91350001D02*
X91598050Y-91350001D01*
%TO.N,3.3V*%
X94250000Y-95250000D02*
X99040000Y-100040000D01*
X86825000Y-90425000D02*
X87000000Y-90250000D01*
X105550000Y-92050000D02*
X104900000Y-92050000D01*
X88750000Y-90250000D02*
X88950001Y-90049999D01*
X102800000Y-95725000D02*
X105175000Y-95725000D01*
X91598050Y-90049999D02*
X93049999Y-90049999D01*
X82250000Y-90475000D02*
X84200000Y-90475000D01*
X94250000Y-91250000D02*
X94250000Y-95250000D01*
X84250000Y-90425000D02*
X86825000Y-90425000D01*
X93790000Y-85000000D02*
X93790000Y-87858049D01*
X99040000Y-100040000D02*
X99040000Y-100750000D01*
X93790000Y-87858049D02*
X91598050Y-90049999D01*
X99040000Y-96760000D02*
X99040000Y-100750000D01*
X93049999Y-90049999D02*
X94250000Y-91250000D01*
X106400000Y-94500000D02*
X106400000Y-92900000D01*
X100075000Y-95725000D02*
X102800000Y-95725000D01*
X84200000Y-90475000D02*
X84250000Y-90425000D01*
X106400000Y-92900000D02*
X105550000Y-92050000D01*
X99040000Y-96760000D02*
X100075000Y-95725000D01*
X105175000Y-95725000D02*
X106400000Y-94500000D01*
X88950001Y-90049999D02*
X91598050Y-90049999D01*
D25*
%TO.N,5V*%
X118575000Y-89712500D02*
X118575000Y-91785000D01*
X118575000Y-91785000D02*
X119540000Y-92750000D01*
X119540000Y-92750000D02*
X111540000Y-100750000D01*
X111540000Y-100750000D02*
X107790000Y-100750000D01*
%TD*%
M02*
