G04 EAGLE Gerber RS-274X export*
G75*
%MOMM*%
%FSLAX34Y34*%
%LPD*%
%INBottom Copper*%
%IPPOS*%
%AMOC8*
5,1,8,0,0,1.08239X$1,22.5*%
G01*
%ADD10C,0.708000*%
%ADD11R,2.400000X2.400000*%
%ADD12C,2.400000*%
%ADD13C,0.756400*%
%ADD14C,0.762000*%
%ADD15C,0.381000*%
%ADD16C,1.778000*%

G36*
X-667682Y1037257D02*
X-667682Y1037257D01*
X-667680Y1037257D01*
X-667680Y1037258D01*
X-667679Y1037260D01*
X-667681Y1037262D01*
X-667681Y1037264D01*
X-670983Y1039171D01*
X-675829Y1044017D01*
X-679256Y1049953D01*
X-681030Y1056573D01*
X-681030Y1063427D01*
X-679256Y1070047D01*
X-675829Y1075983D01*
X-670983Y1080829D01*
X-665047Y1084256D01*
X-658427Y1086030D01*
X-651573Y1086030D01*
X-644953Y1084256D01*
X-639017Y1080829D01*
X-634171Y1075983D01*
X-634164Y1075972D01*
X-634162Y1075971D01*
X-634161Y1075970D01*
X-634160Y1075971D01*
X-634158Y1075970D01*
X-634157Y1075973D01*
X-634155Y1075975D01*
X-634155Y1729025D01*
X-634157Y1729027D01*
X-634157Y1729029D01*
X-634158Y1729029D01*
X-634160Y1729030D01*
X-634161Y1729029D01*
X-634162Y1729028D01*
X-634164Y1729028D01*
X-634171Y1729017D01*
X-639017Y1724171D01*
X-644953Y1720744D01*
X-651573Y1718970D01*
X-658427Y1718970D01*
X-665047Y1720744D01*
X-670983Y1724171D01*
X-675829Y1729017D01*
X-679256Y1734953D01*
X-681030Y1741573D01*
X-681030Y1748427D01*
X-679256Y1755047D01*
X-675829Y1760983D01*
X-670983Y1765829D01*
X-669067Y1766936D01*
X-669066Y1766938D01*
X-669064Y1766939D01*
X-669065Y1766940D01*
X-669065Y1766942D01*
X-669067Y1766943D01*
X-669069Y1766945D01*
X-1425931Y1766945D01*
X-1425932Y1766943D01*
X-1425935Y1766943D01*
X-1425934Y1766942D01*
X-1425936Y1766940D01*
X-1425934Y1766938D01*
X-1425933Y1766936D01*
X-1424017Y1765829D01*
X-1419171Y1760983D01*
X-1415744Y1755047D01*
X-1413970Y1748427D01*
X-1413970Y1741573D01*
X-1415744Y1734953D01*
X-1419171Y1729017D01*
X-1424017Y1724171D01*
X-1429953Y1720744D01*
X-1436573Y1718970D01*
X-1443427Y1718970D01*
X-1450047Y1720744D01*
X-1455983Y1724171D01*
X-1460829Y1729017D01*
X-1463836Y1734224D01*
X-1463838Y1734225D01*
X-1463839Y1734226D01*
X-1463840Y1734226D01*
X-1463842Y1734226D01*
X-1463843Y1734223D01*
X-1463845Y1734222D01*
X-1463845Y1070778D01*
X-1463843Y1070777D01*
X-1463843Y1070775D01*
X-1463842Y1070775D01*
X-1463840Y1070774D01*
X-1463839Y1070774D01*
X-1463838Y1070775D01*
X-1463836Y1070776D01*
X-1460829Y1075983D01*
X-1455983Y1080829D01*
X-1450047Y1084256D01*
X-1443427Y1086030D01*
X-1436573Y1086030D01*
X-1429953Y1084256D01*
X-1424017Y1080829D01*
X-1419171Y1075983D01*
X-1415744Y1070047D01*
X-1413970Y1063427D01*
X-1413970Y1056573D01*
X-1415744Y1049953D01*
X-1419171Y1044017D01*
X-1424017Y1039171D01*
X-1427319Y1037264D01*
X-1427319Y1037262D01*
X-1427321Y1037261D01*
X-1427320Y1037260D01*
X-1427321Y1037258D01*
X-1427318Y1037257D01*
X-1427316Y1037255D01*
X-667684Y1037255D01*
X-667682Y1037257D01*
G37*
%LPC*%
G36*
X-1098534Y1377475D02*
X-1098534Y1377475D01*
X-1101789Y1378823D01*
X-1104281Y1381315D01*
X-1105629Y1384570D01*
X-1105629Y1388094D01*
X-1105097Y1389378D01*
X-1105098Y1389379D01*
X-1105097Y1389379D01*
X-1105098Y1389381D01*
X-1105099Y1389384D01*
X-1105101Y1389384D01*
X-1105102Y1389385D01*
X-1110558Y1389385D01*
X-1113531Y1392358D01*
X-1113531Y1459046D01*
X-1110558Y1462019D01*
X-1071302Y1462019D01*
X-1068329Y1459046D01*
X-1068329Y1393317D01*
X-1068324Y1393312D01*
X-1068324Y1393313D01*
X-1068324Y1393312D01*
X-1003653Y1393312D01*
X-1003652Y1393314D01*
X-1003650Y1393314D01*
X-979822Y1417142D01*
X-977256Y1418204D01*
X-964144Y1418204D01*
X-964143Y1418205D01*
X-964142Y1418206D01*
X-964140Y1418206D01*
X-963613Y1418733D01*
X-960358Y1420081D01*
X-956834Y1420081D01*
X-953579Y1418733D01*
X-951087Y1416241D01*
X-949739Y1412986D01*
X-949739Y1409462D01*
X-951087Y1406207D01*
X-953579Y1403715D01*
X-956834Y1402367D01*
X-960358Y1402367D01*
X-963613Y1403715D01*
X-964140Y1404242D01*
X-964143Y1404243D01*
X-964144Y1404244D01*
X-972975Y1404244D01*
X-972976Y1404242D01*
X-972978Y1404242D01*
X-996806Y1380414D01*
X-999371Y1379352D01*
X-1091224Y1379352D01*
X-1091226Y1379350D01*
X-1091228Y1379350D01*
X-1091755Y1378823D01*
X-1095010Y1377475D01*
X-1098534Y1377475D01*
G37*
%LPD*%
%LPC*%
G36*
X-1039438Y1568201D02*
X-1039438Y1568201D01*
X-1042411Y1571174D01*
X-1042411Y1636903D01*
X-1042416Y1636908D01*
X-1042416Y1636907D01*
X-1042416Y1636908D01*
X-1107087Y1636908D01*
X-1107088Y1636906D01*
X-1107090Y1636906D01*
X-1130918Y1613078D01*
X-1133483Y1612016D01*
X-1146596Y1612016D01*
X-1146598Y1612014D01*
X-1146600Y1612014D01*
X-1147127Y1611487D01*
X-1150382Y1610139D01*
X-1153906Y1610139D01*
X-1157161Y1611487D01*
X-1159653Y1613979D01*
X-1161001Y1617234D01*
X-1161001Y1620758D01*
X-1159653Y1624013D01*
X-1157161Y1626505D01*
X-1153906Y1627853D01*
X-1150382Y1627853D01*
X-1147127Y1626505D01*
X-1146600Y1625978D01*
X-1146597Y1625977D01*
X-1146596Y1625976D01*
X-1137765Y1625976D01*
X-1137764Y1625978D01*
X-1137762Y1625978D01*
X-1113934Y1649806D01*
X-1111368Y1650868D01*
X-1019516Y1650868D01*
X-1019514Y1650870D01*
X-1019512Y1650870D01*
X-1018985Y1651397D01*
X-1015730Y1652745D01*
X-1012206Y1652745D01*
X-1008951Y1651397D01*
X-1006459Y1648905D01*
X-1005111Y1645650D01*
X-1005111Y1642126D01*
X-1005643Y1640842D01*
X-1005642Y1640841D01*
X-1005643Y1640841D01*
X-1005642Y1640839D01*
X-1005641Y1640836D01*
X-1005639Y1640836D01*
X-1005638Y1640835D01*
X-1000182Y1640835D01*
X-997209Y1637862D01*
X-997209Y1571174D01*
X-1000182Y1568201D01*
X-1039438Y1568201D01*
G37*
%LPD*%
%LPC*%
G36*
X-1243827Y1096015D02*
X-1243827Y1096015D01*
X-1247093Y1097367D01*
X-1249593Y1099867D01*
X-1250945Y1103133D01*
X-1250945Y1106667D01*
X-1249593Y1109933D01*
X-1247093Y1112433D01*
X-1243827Y1113785D01*
X-1121282Y1113785D01*
X-1121281Y1113787D01*
X-1121279Y1113787D01*
X-1101087Y1133979D01*
X-1101087Y1133981D01*
X-1101086Y1133981D01*
X-1101086Y1133982D01*
X-1101085Y1133982D01*
X-1101085Y1171437D01*
X-1099733Y1174703D01*
X-1097233Y1177203D01*
X-1093967Y1178555D01*
X-1090433Y1178555D01*
X-1087167Y1177203D01*
X-1084667Y1174703D01*
X-1083315Y1171437D01*
X-1083315Y1128533D01*
X-1084667Y1125267D01*
X-1112567Y1097367D01*
X-1115833Y1096015D01*
X-1243827Y1096015D01*
G37*
%LPD*%
%LPC*%
G36*
X-921247Y1108715D02*
X-921247Y1108715D01*
X-924513Y1110067D01*
X-927013Y1112567D01*
X-928365Y1115833D01*
X-928365Y1119367D01*
X-927013Y1122633D01*
X-924513Y1125133D01*
X-921247Y1126485D01*
X-798702Y1126485D01*
X-798701Y1126487D01*
X-798699Y1126487D01*
X-778507Y1146679D01*
X-778507Y1146681D01*
X-778506Y1146681D01*
X-778506Y1146682D01*
X-778505Y1146682D01*
X-778505Y1184137D01*
X-777153Y1187403D01*
X-774653Y1189903D01*
X-771387Y1191255D01*
X-767853Y1191255D01*
X-764587Y1189903D01*
X-762087Y1187403D01*
X-760735Y1184137D01*
X-760735Y1141233D01*
X-762087Y1137967D01*
X-789987Y1110067D01*
X-793253Y1108715D01*
X-921247Y1108715D01*
G37*
%LPD*%
%LPC*%
G36*
X-1268968Y1139195D02*
X-1268968Y1139195D01*
X-1274101Y1141321D01*
X-1278029Y1145249D01*
X-1280155Y1150382D01*
X-1280155Y1155938D01*
X-1278029Y1161071D01*
X-1274101Y1164999D01*
X-1268968Y1167125D01*
X-1183402Y1167125D01*
X-1178269Y1164999D01*
X-1174341Y1161071D01*
X-1172215Y1155938D01*
X-1172215Y1150382D01*
X-1174341Y1145249D01*
X-1178269Y1141321D01*
X-1183402Y1139195D01*
X-1268968Y1139195D01*
G37*
%LPD*%
%LPC*%
G36*
X-946388Y1151895D02*
X-946388Y1151895D01*
X-951521Y1154021D01*
X-955449Y1157949D01*
X-957575Y1163082D01*
X-957575Y1168638D01*
X-955449Y1173771D01*
X-951521Y1177699D01*
X-946388Y1179825D01*
X-860822Y1179825D01*
X-855689Y1177699D01*
X-851761Y1173771D01*
X-849635Y1168638D01*
X-849635Y1163082D01*
X-851761Y1157949D01*
X-855689Y1154021D01*
X-860822Y1151895D01*
X-946388Y1151895D01*
G37*
%LPD*%
G36*
X-1073399Y1394459D02*
X-1073399Y1394459D01*
X-1073399Y1394460D01*
X-1073399Y1456944D01*
X-1073403Y1456949D01*
X-1073404Y1456949D01*
X-1108456Y1456949D01*
X-1108461Y1456945D01*
X-1108461Y1456944D01*
X-1108461Y1394460D01*
X-1108457Y1394455D01*
X-1108456Y1394455D01*
X-1073404Y1394455D01*
X-1073399Y1394459D01*
G37*
G36*
X-1002279Y1573275D02*
X-1002279Y1573275D01*
X-1002279Y1573276D01*
X-1002279Y1635760D01*
X-1002283Y1635765D01*
X-1002284Y1635765D01*
X-1037336Y1635765D01*
X-1037341Y1635761D01*
X-1037341Y1635760D01*
X-1037341Y1573276D01*
X-1037337Y1573271D01*
X-1037336Y1573271D01*
X-1002284Y1573271D01*
X-1002279Y1573275D01*
G37*
%LPC*%
G36*
X-1052814Y1316515D02*
X-1052814Y1316515D01*
X-1056069Y1317863D01*
X-1058561Y1320355D01*
X-1059909Y1323610D01*
X-1059909Y1327134D01*
X-1058561Y1330389D01*
X-1058034Y1330916D01*
X-1058033Y1330919D01*
X-1058032Y1330920D01*
X-1058032Y1350128D01*
X-1056970Y1352694D01*
X-1033670Y1375994D01*
X-1031104Y1377056D01*
X-974697Y1377056D01*
X-974696Y1377058D01*
X-974694Y1377058D01*
X-969487Y1382265D01*
X-969486Y1382267D01*
X-969485Y1382268D01*
X-969485Y1383014D01*
X-968137Y1386269D01*
X-965645Y1388761D01*
X-962390Y1390109D01*
X-958866Y1390109D01*
X-955611Y1388761D01*
X-953119Y1386269D01*
X-951771Y1383014D01*
X-951771Y1379490D01*
X-953119Y1376235D01*
X-955611Y1373743D01*
X-958866Y1372395D01*
X-959612Y1372395D01*
X-959613Y1372393D01*
X-959615Y1372393D01*
X-967850Y1364158D01*
X-970415Y1363096D01*
X-1026823Y1363096D01*
X-1026824Y1363094D01*
X-1026826Y1363094D01*
X-1044070Y1345850D01*
X-1044071Y1345848D01*
X-1044072Y1345847D01*
X-1044072Y1330920D01*
X-1044070Y1330918D01*
X-1044070Y1330916D01*
X-1043543Y1330389D01*
X-1042195Y1327134D01*
X-1042195Y1323610D01*
X-1043543Y1320355D01*
X-1046035Y1317863D01*
X-1049290Y1316515D01*
X-1052814Y1316515D01*
G37*
%LPD*%
%LPC*%
G36*
X-1151874Y1640111D02*
X-1151874Y1640111D01*
X-1155129Y1641459D01*
X-1157621Y1643951D01*
X-1158969Y1647206D01*
X-1158969Y1650730D01*
X-1157621Y1653985D01*
X-1155129Y1656477D01*
X-1151874Y1657825D01*
X-1151128Y1657825D01*
X-1151127Y1657827D01*
X-1151125Y1657827D01*
X-1142890Y1666062D01*
X-1140324Y1667124D01*
X-1083917Y1667124D01*
X-1083916Y1667126D01*
X-1083914Y1667126D01*
X-1066670Y1684370D01*
X-1066669Y1684372D01*
X-1066668Y1684373D01*
X-1066668Y1699300D01*
X-1066670Y1699302D01*
X-1066670Y1699304D01*
X-1067197Y1699831D01*
X-1068545Y1703086D01*
X-1068545Y1706610D01*
X-1067197Y1709865D01*
X-1064705Y1712357D01*
X-1061450Y1713705D01*
X-1057926Y1713705D01*
X-1054671Y1712357D01*
X-1052179Y1709865D01*
X-1050831Y1706610D01*
X-1050831Y1703086D01*
X-1052179Y1699831D01*
X-1052706Y1699304D01*
X-1052706Y1699302D01*
X-1052707Y1699302D01*
X-1052706Y1699302D01*
X-1052707Y1699301D01*
X-1052708Y1699300D01*
X-1052708Y1680091D01*
X-1053770Y1677526D01*
X-1077070Y1654226D01*
X-1079635Y1653164D01*
X-1136043Y1653164D01*
X-1136044Y1653162D01*
X-1136046Y1653162D01*
X-1141253Y1647955D01*
X-1141254Y1647953D01*
X-1141255Y1647952D01*
X-1141255Y1647206D01*
X-1142603Y1643951D01*
X-1145095Y1641459D01*
X-1148350Y1640111D01*
X-1151874Y1640111D01*
G37*
%LPD*%
%LPC*%
G36*
X-1148674Y1142825D02*
X-1148674Y1142825D01*
X-1151840Y1144136D01*
X-1154264Y1146560D01*
X-1155575Y1149726D01*
X-1155575Y1153154D01*
X-1154264Y1156320D01*
X-1152647Y1157936D01*
X-1152647Y1157943D01*
X-1152647Y1157944D01*
X-1154264Y1159560D01*
X-1155575Y1162726D01*
X-1155575Y1166154D01*
X-1154264Y1169320D01*
X-1152647Y1170936D01*
X-1152647Y1170938D01*
X-1152646Y1170939D01*
X-1152647Y1170939D01*
X-1152647Y1170943D01*
X-1152647Y1170944D01*
X-1154264Y1172560D01*
X-1155575Y1175726D01*
X-1155575Y1179154D01*
X-1154264Y1182320D01*
X-1152647Y1183936D01*
X-1152647Y1183943D01*
X-1152647Y1183944D01*
X-1154264Y1185560D01*
X-1155575Y1188726D01*
X-1155575Y1192154D01*
X-1154264Y1195320D01*
X-1151840Y1197744D01*
X-1148674Y1199055D01*
X-1145246Y1199055D01*
X-1142080Y1197744D01*
X-1140464Y1196127D01*
X-1140461Y1196127D01*
X-1140460Y1196126D01*
X-1140459Y1196127D01*
X-1140457Y1196127D01*
X-1140456Y1196127D01*
X-1138840Y1197744D01*
X-1135674Y1199055D01*
X-1132246Y1199055D01*
X-1129080Y1197744D01*
X-1126656Y1195320D01*
X-1125345Y1192154D01*
X-1125345Y1188726D01*
X-1126656Y1185560D01*
X-1128273Y1183944D01*
X-1128273Y1183937D01*
X-1128273Y1183936D01*
X-1126656Y1182320D01*
X-1125345Y1179154D01*
X-1125345Y1175726D01*
X-1126656Y1172560D01*
X-1128273Y1170944D01*
X-1128273Y1170941D01*
X-1128274Y1170940D01*
X-1128273Y1170939D01*
X-1128273Y1170937D01*
X-1128273Y1170936D01*
X-1126656Y1169320D01*
X-1125345Y1166154D01*
X-1125345Y1162726D01*
X-1126656Y1159560D01*
X-1128273Y1157944D01*
X-1128273Y1157942D01*
X-1128273Y1157937D01*
X-1128273Y1157936D01*
X-1126656Y1156320D01*
X-1125345Y1153154D01*
X-1125345Y1149726D01*
X-1126656Y1146560D01*
X-1129080Y1144136D01*
X-1132246Y1142825D01*
X-1135674Y1142825D01*
X-1138840Y1144136D01*
X-1140456Y1145753D01*
X-1140463Y1145753D01*
X-1140464Y1145753D01*
X-1142080Y1144136D01*
X-1145246Y1142825D01*
X-1148674Y1142825D01*
G37*
%LPD*%
%LPC*%
G36*
X-826094Y1155525D02*
X-826094Y1155525D01*
X-829260Y1156836D01*
X-831684Y1159260D01*
X-832995Y1162426D01*
X-832995Y1165854D01*
X-831684Y1169020D01*
X-830067Y1170636D01*
X-830067Y1170643D01*
X-830067Y1170644D01*
X-831684Y1172260D01*
X-832995Y1175426D01*
X-832995Y1178854D01*
X-831684Y1182020D01*
X-830067Y1183636D01*
X-830067Y1183638D01*
X-830066Y1183639D01*
X-830067Y1183640D01*
X-830067Y1183643D01*
X-830067Y1183644D01*
X-831684Y1185260D01*
X-832995Y1188426D01*
X-832995Y1191854D01*
X-831684Y1195020D01*
X-830067Y1196636D01*
X-830067Y1196643D01*
X-830067Y1196644D01*
X-831684Y1198260D01*
X-832995Y1201426D01*
X-832995Y1204854D01*
X-831684Y1208020D01*
X-829260Y1210444D01*
X-826094Y1211755D01*
X-822666Y1211755D01*
X-819500Y1210444D01*
X-817884Y1208827D01*
X-817881Y1208827D01*
X-817880Y1208826D01*
X-817879Y1208827D01*
X-817877Y1208827D01*
X-817876Y1208827D01*
X-816260Y1210444D01*
X-813094Y1211755D01*
X-809666Y1211755D01*
X-806500Y1210444D01*
X-804076Y1208020D01*
X-802765Y1204854D01*
X-802765Y1201426D01*
X-804076Y1198260D01*
X-805693Y1196644D01*
X-805693Y1196637D01*
X-805693Y1196636D01*
X-804076Y1195020D01*
X-802765Y1191854D01*
X-802765Y1188426D01*
X-804076Y1185260D01*
X-805693Y1183644D01*
X-805693Y1183641D01*
X-805694Y1183640D01*
X-805693Y1183639D01*
X-805693Y1183637D01*
X-805693Y1183636D01*
X-804076Y1182020D01*
X-802765Y1178854D01*
X-802765Y1175426D01*
X-804076Y1172260D01*
X-805693Y1170644D01*
X-805693Y1170642D01*
X-805693Y1170637D01*
X-805693Y1170636D01*
X-804076Y1169020D01*
X-802765Y1165854D01*
X-802765Y1162426D01*
X-804076Y1159260D01*
X-806500Y1156836D01*
X-809666Y1155525D01*
X-813094Y1155525D01*
X-816260Y1156836D01*
X-817876Y1158453D01*
X-817879Y1158453D01*
X-817883Y1158453D01*
X-817884Y1158453D01*
X-819500Y1156836D01*
X-822666Y1155525D01*
X-826094Y1155525D01*
G37*
%LPD*%
%LPC*%
G36*
X-1406822Y1433265D02*
X-1406822Y1433265D01*
X-1409795Y1436238D01*
X-1409795Y1464442D01*
X-1406822Y1467415D01*
X-1378618Y1467415D01*
X-1375645Y1464442D01*
X-1375645Y1436238D01*
X-1378618Y1433265D01*
X-1406822Y1433265D01*
G37*
%LPD*%
%LPC*%
G36*
X-868410Y1358425D02*
X-868410Y1358425D01*
X-871665Y1359773D01*
X-874157Y1362265D01*
X-875505Y1365520D01*
X-875505Y1369044D01*
X-874157Y1372299D01*
X-871665Y1374791D01*
X-868410Y1376139D01*
X-867664Y1376139D01*
X-867663Y1376141D01*
X-867661Y1376141D01*
X-866538Y1377264D01*
X-863972Y1378326D01*
X-818856Y1378326D01*
X-818854Y1378328D01*
X-818852Y1378328D01*
X-818325Y1378855D01*
X-815070Y1380203D01*
X-811546Y1380203D01*
X-808291Y1378855D01*
X-805799Y1376363D01*
X-804451Y1373108D01*
X-804451Y1369584D01*
X-805799Y1366329D01*
X-808291Y1363837D01*
X-811546Y1362489D01*
X-815070Y1362489D01*
X-818325Y1363837D01*
X-818852Y1364364D01*
X-818855Y1364365D01*
X-818856Y1364366D01*
X-858266Y1364366D01*
X-858268Y1364363D01*
X-858270Y1364363D01*
X-859139Y1362265D01*
X-861631Y1359773D01*
X-864886Y1358425D01*
X-868410Y1358425D01*
G37*
%LPD*%
%LPC*%
G36*
X-1299194Y1650017D02*
X-1299194Y1650017D01*
X-1302449Y1651365D01*
X-1304941Y1653857D01*
X-1306289Y1657112D01*
X-1306289Y1660636D01*
X-1304941Y1663891D01*
X-1302449Y1666383D01*
X-1299194Y1667731D01*
X-1295670Y1667731D01*
X-1292415Y1666383D01*
X-1291888Y1665856D01*
X-1291885Y1665855D01*
X-1291884Y1665854D01*
X-1252474Y1665854D01*
X-1252472Y1665857D01*
X-1252470Y1665857D01*
X-1251601Y1667955D01*
X-1249109Y1670447D01*
X-1245854Y1671795D01*
X-1242330Y1671795D01*
X-1239075Y1670447D01*
X-1236583Y1667955D01*
X-1235235Y1664700D01*
X-1235235Y1661176D01*
X-1236583Y1657921D01*
X-1239075Y1655429D01*
X-1242330Y1654081D01*
X-1243076Y1654081D01*
X-1243077Y1654079D01*
X-1243079Y1654079D01*
X-1244202Y1652956D01*
X-1246767Y1651894D01*
X-1291884Y1651894D01*
X-1291886Y1651892D01*
X-1291888Y1651892D01*
X-1292415Y1651365D01*
X-1295670Y1650017D01*
X-1299194Y1650017D01*
G37*
%LPD*%
%LPC*%
G36*
X-708397Y1511525D02*
X-708397Y1511525D01*
X-714672Y1514124D01*
X-719476Y1518928D01*
X-722075Y1525204D01*
X-722075Y1531996D01*
X-719476Y1538272D01*
X-714672Y1543076D01*
X-708396Y1545675D01*
X-701604Y1545675D01*
X-695328Y1543076D01*
X-690524Y1538272D01*
X-687925Y1531997D01*
X-687925Y1525203D01*
X-690524Y1518928D01*
X-695328Y1514124D01*
X-701603Y1511525D01*
X-708397Y1511525D01*
G37*
%LPD*%
%LPC*%
G36*
X-708397Y1435325D02*
X-708397Y1435325D01*
X-714672Y1437924D01*
X-719476Y1442728D01*
X-722075Y1449004D01*
X-722075Y1455796D01*
X-719476Y1462072D01*
X-714672Y1466876D01*
X-708396Y1469475D01*
X-701604Y1469475D01*
X-695328Y1466876D01*
X-690524Y1462072D01*
X-687925Y1455797D01*
X-687925Y1449003D01*
X-690524Y1442728D01*
X-695328Y1437924D01*
X-701603Y1435325D01*
X-708397Y1435325D01*
G37*
%LPD*%
%LPC*%
G36*
X-708397Y1359125D02*
X-708397Y1359125D01*
X-714672Y1361724D01*
X-719476Y1366528D01*
X-722075Y1372804D01*
X-722075Y1379596D01*
X-719476Y1385872D01*
X-714672Y1390676D01*
X-708396Y1393275D01*
X-701604Y1393275D01*
X-695328Y1390676D01*
X-690524Y1385872D01*
X-687925Y1379597D01*
X-687925Y1372803D01*
X-690524Y1366528D01*
X-695328Y1361724D01*
X-701603Y1359125D01*
X-708397Y1359125D01*
G37*
%LPD*%
D10*
X-1133960Y1151440D03*
X-1146960Y1151440D03*
X-1133960Y1164440D03*
X-1146960Y1164440D03*
X-1133960Y1177440D03*
X-1146960Y1177440D03*
X-1133960Y1190440D03*
X-1146960Y1190440D03*
X-811380Y1164140D03*
X-824380Y1164140D03*
X-811380Y1177140D03*
X-824380Y1177140D03*
X-811380Y1190140D03*
X-824380Y1190140D03*
X-811380Y1203140D03*
X-824380Y1203140D03*
D11*
X-1392720Y1450340D03*
D12*
X-1392720Y1374140D03*
D11*
X-705000Y1300000D03*
D12*
X-705000Y1376200D03*
X-705000Y1452400D03*
X-705000Y1528600D03*
D13*
X-1278890Y1111250D03*
D14*
X-1281430Y1113790D01*
X-1281430Y1177290D01*
D13*
X-1281430Y1177290D03*
X-956310Y1123950D03*
D14*
X-958850Y1126490D01*
X-958850Y1189990D01*
D13*
X-958850Y1189990D03*
X-1066800Y1473200D03*
X-1054100Y1473200D03*
X-1041400Y1473200D03*
X-1028700Y1473200D03*
X-1016000Y1473200D03*
X-1003300Y1473200D03*
X-990600Y1473200D03*
X-977900Y1473200D03*
X-965200Y1473200D03*
X-952500Y1473200D03*
X-939800Y1473200D03*
X-927100Y1473200D03*
X-914400Y1473200D03*
X-947420Y1460500D03*
X-934720Y1460500D03*
X-922020Y1460500D03*
X-909320Y1460500D03*
X-939800Y1447800D03*
X-927100Y1447800D03*
X-914400Y1447800D03*
X-901700Y1447800D03*
X-922020Y1435100D03*
X-906780Y1435100D03*
X-1043940Y1557020D03*
X-1056640Y1557020D03*
X-1069340Y1557020D03*
X-1082040Y1557020D03*
X-1097280Y1557020D03*
X-1112520Y1557020D03*
X-1127760Y1557020D03*
X-1143000Y1557020D03*
X-1158240Y1557020D03*
X-1173480Y1557020D03*
X-1188720Y1557020D03*
X-1203960Y1557020D03*
X-1209040Y1569720D03*
X-1196340Y1569720D03*
X-1181100Y1569720D03*
X-1168400Y1569720D03*
X-1155700Y1569720D03*
X-1209040Y1582420D03*
X-1196340Y1582420D03*
X-1181100Y1582420D03*
X-1168400Y1582420D03*
X-1203960Y1595120D03*
X-1191260Y1595120D03*
X-937260Y1308100D03*
X-937260Y1297940D03*
X-927100Y1308100D03*
X-927100Y1297940D03*
X-916940Y1297940D03*
X-906780Y1297940D03*
X-916940Y1308100D03*
X-906780Y1308100D03*
X-899160Y1315720D03*
X-899160Y1303020D03*
X-916940Y1198880D03*
X-904240Y1198880D03*
X-1236980Y1186180D03*
X-1226820Y1186180D03*
X-1301750Y1376680D03*
X-1301750Y1363980D03*
X-1301750Y1348740D03*
X-1301750Y1336040D03*
X-1289050Y1336040D03*
X-1276350Y1336040D03*
X-1263650Y1336040D03*
X-1263650Y1348740D03*
X-1263650Y1363980D03*
X-1263650Y1376680D03*
X-844550Y1694180D03*
X-834390Y1694180D03*
X-822960Y1694180D03*
X-811530Y1694180D03*
X-811530Y1684020D03*
X-811530Y1672590D03*
X-811530Y1661160D03*
X-811530Y1649730D03*
X-844550Y1649730D03*
X-844550Y1661160D03*
X-844550Y1672590D03*
X-844550Y1684020D03*
X-805434Y1402588D03*
X-805434Y1386586D03*
X-808990Y1358138D03*
X-805942Y1343914D03*
X-776478Y1438656D03*
X-1318768Y1579118D03*
X-1304544Y1643634D03*
X-1303782Y1627886D03*
X-1303274Y1686306D03*
X-1303274Y1671828D03*
X-1208532Y1724914D03*
X-1198372Y1724914D03*
X-1188212Y1724914D03*
X-1178052Y1724914D03*
X-1167892Y1724914D03*
X-1172972Y1732534D03*
X-1183132Y1732534D03*
X-1193292Y1732534D03*
X-1203452Y1732534D03*
X-1297432Y1658874D03*
D15*
X-1248156Y1658874D01*
X-1244092Y1662938D01*
D13*
X-1244092Y1662938D03*
X-813308Y1371346D03*
D15*
X-862584Y1371346D01*
X-866648Y1367282D01*
D13*
X-866648Y1367282D03*
X-1186180Y1153160D03*
D16*
X-1266190Y1153160D01*
D13*
X-1266190Y1153160D03*
X-1257300Y1153160D03*
X-1248410Y1153160D03*
X-1239520Y1153160D03*
X-863600Y1165860D03*
D16*
X-943610Y1165860D01*
D13*
X-943610Y1165860D03*
X-934720Y1165860D03*
X-925830Y1165860D03*
X-916940Y1165860D03*
X-1009904Y1629664D03*
X-1009904Y1616964D03*
X-1009904Y1604264D03*
X-1009904Y1591564D03*
X-1009904Y1581404D03*
X-1152144Y1618996D03*
D15*
X-1134872Y1618996D01*
D13*
X-1013968Y1643888D03*
D15*
X-1109980Y1643888D02*
X-1134872Y1618996D01*
X-1109980Y1643888D02*
X-1013968Y1643888D01*
D13*
X-1150112Y1648968D03*
D15*
X-1138936Y1660144D01*
X-1081024Y1660144D01*
X-1059688Y1681480D01*
X-1059688Y1704848D01*
D13*
X-1059688Y1704848D03*
X-1100836Y1400556D03*
X-1100836Y1413256D03*
X-1100836Y1425956D03*
X-1100836Y1438656D03*
X-1100836Y1450086D03*
X-958596Y1411224D03*
D15*
X-975868Y1411224D01*
D13*
X-1096772Y1386332D03*
D15*
X-1000760Y1386332D02*
X-975868Y1411224D01*
X-1000760Y1386332D02*
X-1096772Y1386332D01*
D13*
X-960628Y1381252D03*
D15*
X-971804Y1370076D01*
X-1029716Y1370076D01*
X-1051052Y1348740D01*
X-1051052Y1325372D01*
D13*
X-1051052Y1325372D03*
X-1092200Y1169670D03*
D14*
X-1092200Y1130300D01*
X-1117600Y1104900D02*
X-1242060Y1104900D01*
D13*
X-1242060Y1104900D03*
D14*
X-1117600Y1104900D02*
X-1092200Y1130300D01*
D13*
X-769620Y1182370D03*
D14*
X-769620Y1143000D01*
X-795020Y1117600D02*
X-919480Y1117600D01*
D13*
X-919480Y1117600D03*
D14*
X-795020Y1117600D02*
X-769620Y1143000D01*
M02*
