G04 EAGLE Gerber RS-274X export*
G75*
%MOMM*%
%FSLAX34Y34*%
%LPD*%
%INSoldermask Top*%
%IPPOS*%
%AMOC8*
5,1,8,0,0,1.08239X$1,22.5*%
G01*
%ADD10C,1.778000*%
%ADD11C,2.540000*%
%ADD12C,3.175000*%
%ADD13R,1.372000X0.710000*%
%ADD14C,0.102500*%
%ADD15R,3.000000X4.200000*%
%ADD16R,0.900000X0.800000*%
%ADD17R,0.600000X0.600000*%
%ADD18R,0.800000X0.900000*%
%ADD19R,1.300000X1.200000*%
%ADD20R,1.800000X1.600000*%
%ADD21R,1.900000X4.150000*%
%ADD22R,4.500000X4.000000*%
%ADD23R,0.800000X0.600000*%
%ADD24R,2.600000X3.100000*%
%ADD25R,0.900000X0.700000*%
%ADD26R,0.700000X0.900000*%
%ADD27R,1.630000X1.660000*%
%ADD28R,1.430000X5.500000*%
%ADD29R,2.350000X2.300000*%
%ADD30R,0.700000X0.600000*%
%ADD31R,0.600000X0.700000*%
%ADD32R,2.400000X2.400000*%
%ADD33C,2.400000*%

G36*
X-1020235Y1381895D02*
X-1020235Y1381895D01*
X-1020240Y1381902D01*
X-1020233Y1381908D01*
X-1020233Y1391008D01*
X-1020269Y1391055D01*
X-1020276Y1391050D01*
X-1020282Y1391057D01*
X-1026233Y1391057D01*
X-1026233Y1394559D01*
X-1020382Y1394559D01*
X-1020335Y1394595D01*
X-1020338Y1394599D01*
X-1020335Y1394601D01*
X-1020337Y1394605D01*
X-1020333Y1394608D01*
X-1020333Y1403708D01*
X-1020369Y1403755D01*
X-1020376Y1403750D01*
X-1020382Y1403757D01*
X-1026233Y1403757D01*
X-1026233Y1407259D01*
X-1020382Y1407259D01*
X-1020335Y1407295D01*
X-1020340Y1407302D01*
X-1020333Y1407308D01*
X-1020333Y1416408D01*
X-1020369Y1416455D01*
X-1020376Y1416450D01*
X-1020382Y1416457D01*
X-1026233Y1416457D01*
X-1026233Y1419959D01*
X-1020382Y1419959D01*
X-1020335Y1419995D01*
X-1020340Y1420002D01*
X-1020333Y1420008D01*
X-1020333Y1429108D01*
X-1020369Y1429155D01*
X-1020376Y1429150D01*
X-1020382Y1429157D01*
X-1066782Y1429157D01*
X-1066829Y1429121D01*
X-1066824Y1429114D01*
X-1066831Y1429108D01*
X-1066831Y1381908D01*
X-1066795Y1381861D01*
X-1066788Y1381866D01*
X-1066782Y1381859D01*
X-1020282Y1381859D01*
X-1020235Y1381895D01*
G37*
G36*
X-973067Y1320427D02*
X-973067Y1320427D01*
X-973072Y1320434D01*
X-973065Y1320440D01*
X-973065Y1329540D01*
X-973101Y1329587D01*
X-973108Y1329582D01*
X-973114Y1329589D01*
X-979065Y1329589D01*
X-979065Y1333091D01*
X-973214Y1333091D01*
X-973167Y1333127D01*
X-973170Y1333131D01*
X-973167Y1333133D01*
X-973169Y1333137D01*
X-973165Y1333140D01*
X-973165Y1342240D01*
X-973201Y1342287D01*
X-973208Y1342282D01*
X-973214Y1342289D01*
X-979065Y1342289D01*
X-979065Y1345791D01*
X-973214Y1345791D01*
X-973167Y1345827D01*
X-973172Y1345834D01*
X-973165Y1345840D01*
X-973165Y1354940D01*
X-973201Y1354987D01*
X-973208Y1354982D01*
X-973214Y1354989D01*
X-979065Y1354989D01*
X-979065Y1358491D01*
X-973214Y1358491D01*
X-973167Y1358527D01*
X-973172Y1358534D01*
X-973165Y1358540D01*
X-973165Y1367640D01*
X-973201Y1367687D01*
X-973208Y1367682D01*
X-973214Y1367689D01*
X-1019614Y1367689D01*
X-1019661Y1367653D01*
X-1019656Y1367646D01*
X-1019663Y1367640D01*
X-1019663Y1320440D01*
X-1019627Y1320393D01*
X-1019620Y1320398D01*
X-1019614Y1320391D01*
X-973114Y1320391D01*
X-973067Y1320427D01*
G37*
G36*
X-1091079Y1662567D02*
X-1091079Y1662567D01*
X-1091084Y1662574D01*
X-1091077Y1662580D01*
X-1091077Y1709780D01*
X-1091113Y1709827D01*
X-1091120Y1709822D01*
X-1091126Y1709829D01*
X-1137626Y1709829D01*
X-1137673Y1709793D01*
X-1137668Y1709786D01*
X-1137675Y1709780D01*
X-1137675Y1700680D01*
X-1137639Y1700633D01*
X-1137632Y1700638D01*
X-1137626Y1700631D01*
X-1131675Y1700631D01*
X-1131675Y1697129D01*
X-1137526Y1697129D01*
X-1137573Y1697093D01*
X-1137568Y1697086D01*
X-1137575Y1697080D01*
X-1137575Y1687980D01*
X-1137539Y1687933D01*
X-1137532Y1687938D01*
X-1137526Y1687931D01*
X-1131675Y1687931D01*
X-1131675Y1684429D01*
X-1137526Y1684429D01*
X-1137573Y1684393D01*
X-1137568Y1684386D01*
X-1137575Y1684380D01*
X-1137575Y1675280D01*
X-1137539Y1675233D01*
X-1137532Y1675238D01*
X-1137526Y1675231D01*
X-1131675Y1675231D01*
X-1131675Y1671729D01*
X-1137526Y1671729D01*
X-1137573Y1671693D01*
X-1137568Y1671686D01*
X-1137575Y1671680D01*
X-1137575Y1662580D01*
X-1137539Y1662533D01*
X-1137532Y1662538D01*
X-1137526Y1662531D01*
X-1091126Y1662531D01*
X-1091079Y1662567D01*
G37*
G36*
X-1043911Y1601099D02*
X-1043911Y1601099D01*
X-1043916Y1601106D01*
X-1043909Y1601112D01*
X-1043909Y1648312D01*
X-1043945Y1648359D01*
X-1043952Y1648354D01*
X-1043958Y1648361D01*
X-1090458Y1648361D01*
X-1090505Y1648325D01*
X-1090500Y1648318D01*
X-1090507Y1648312D01*
X-1090507Y1639212D01*
X-1090471Y1639165D01*
X-1090464Y1639170D01*
X-1090458Y1639163D01*
X-1084507Y1639163D01*
X-1084507Y1635661D01*
X-1090358Y1635661D01*
X-1090405Y1635625D01*
X-1090400Y1635618D01*
X-1090407Y1635612D01*
X-1090407Y1626512D01*
X-1090371Y1626465D01*
X-1090364Y1626470D01*
X-1090358Y1626463D01*
X-1084507Y1626463D01*
X-1084507Y1622961D01*
X-1090358Y1622961D01*
X-1090405Y1622925D01*
X-1090400Y1622918D01*
X-1090407Y1622912D01*
X-1090407Y1613812D01*
X-1090371Y1613765D01*
X-1090364Y1613770D01*
X-1090358Y1613763D01*
X-1084507Y1613763D01*
X-1084507Y1610261D01*
X-1090358Y1610261D01*
X-1090405Y1610225D01*
X-1090400Y1610218D01*
X-1090407Y1610212D01*
X-1090407Y1601112D01*
X-1090371Y1601065D01*
X-1090364Y1601070D01*
X-1090358Y1601063D01*
X-1043958Y1601063D01*
X-1043911Y1601099D01*
G37*
G36*
X-782924Y1198945D02*
X-782924Y1198945D01*
X-782920Y1198942D01*
X-782729Y1198980D01*
X-782720Y1198990D01*
X-782711Y1198987D01*
X-782549Y1199096D01*
X-782545Y1199109D01*
X-782536Y1199109D01*
X-782427Y1199271D01*
X-782428Y1199285D01*
X-782420Y1199289D01*
X-782382Y1199480D01*
X-782385Y1199487D01*
X-782381Y1199490D01*
X-782381Y1205890D01*
X-782385Y1205896D01*
X-782382Y1205900D01*
X-782420Y1206091D01*
X-782430Y1206100D01*
X-782427Y1206109D01*
X-782536Y1206271D01*
X-782549Y1206275D01*
X-782549Y1206285D01*
X-782711Y1206393D01*
X-782725Y1206392D01*
X-782729Y1206400D01*
X-782920Y1206438D01*
X-782927Y1206435D01*
X-782930Y1206439D01*
X-798830Y1206439D01*
X-798836Y1206435D01*
X-798840Y1206438D01*
X-799031Y1206400D01*
X-799040Y1206390D01*
X-799049Y1206393D01*
X-799211Y1206285D01*
X-799215Y1206271D01*
X-799225Y1206271D01*
X-799333Y1206109D01*
X-799332Y1206100D01*
X-799339Y1206095D01*
X-799337Y1206093D01*
X-799340Y1206091D01*
X-799378Y1205900D01*
X-799375Y1205893D01*
X-799379Y1205890D01*
X-799379Y1199490D01*
X-799375Y1199484D01*
X-799378Y1199480D01*
X-799340Y1199289D01*
X-799330Y1199280D01*
X-799333Y1199271D01*
X-799225Y1199109D01*
X-799211Y1199105D01*
X-799211Y1199096D01*
X-799049Y1198987D01*
X-799035Y1198988D01*
X-799031Y1198980D01*
X-798840Y1198942D01*
X-798833Y1198945D01*
X-798830Y1198941D01*
X-782930Y1198941D01*
X-782924Y1198945D01*
G37*
G36*
X-836924Y1198945D02*
X-836924Y1198945D01*
X-836920Y1198942D01*
X-836729Y1198980D01*
X-836720Y1198990D01*
X-836711Y1198987D01*
X-836549Y1199096D01*
X-836545Y1199109D01*
X-836536Y1199109D01*
X-836427Y1199271D01*
X-836428Y1199285D01*
X-836420Y1199289D01*
X-836382Y1199480D01*
X-836385Y1199487D01*
X-836381Y1199490D01*
X-836381Y1205890D01*
X-836385Y1205896D01*
X-836382Y1205900D01*
X-836420Y1206091D01*
X-836430Y1206100D01*
X-836427Y1206109D01*
X-836536Y1206271D01*
X-836549Y1206275D01*
X-836549Y1206285D01*
X-836711Y1206393D01*
X-836725Y1206392D01*
X-836729Y1206400D01*
X-836920Y1206438D01*
X-836927Y1206435D01*
X-836930Y1206439D01*
X-852830Y1206439D01*
X-852836Y1206435D01*
X-852840Y1206438D01*
X-853031Y1206400D01*
X-853040Y1206390D01*
X-853049Y1206393D01*
X-853211Y1206285D01*
X-853215Y1206271D01*
X-853225Y1206271D01*
X-853333Y1206109D01*
X-853332Y1206100D01*
X-853339Y1206095D01*
X-853337Y1206093D01*
X-853340Y1206091D01*
X-853378Y1205900D01*
X-853375Y1205893D01*
X-853379Y1205890D01*
X-853379Y1199490D01*
X-853375Y1199484D01*
X-853378Y1199480D01*
X-853340Y1199289D01*
X-853330Y1199280D01*
X-853333Y1199271D01*
X-853225Y1199109D01*
X-853211Y1199105D01*
X-853211Y1199096D01*
X-853049Y1198987D01*
X-853035Y1198988D01*
X-853031Y1198980D01*
X-852840Y1198942D01*
X-852833Y1198945D01*
X-852830Y1198941D01*
X-836930Y1198941D01*
X-836924Y1198945D01*
G37*
G36*
X-782924Y1186245D02*
X-782924Y1186245D01*
X-782920Y1186242D01*
X-782729Y1186280D01*
X-782720Y1186290D01*
X-782711Y1186287D01*
X-782549Y1186396D01*
X-782545Y1186409D01*
X-782536Y1186409D01*
X-782427Y1186571D01*
X-782428Y1186585D01*
X-782420Y1186589D01*
X-782382Y1186780D01*
X-782385Y1186787D01*
X-782381Y1186790D01*
X-782381Y1193190D01*
X-782385Y1193196D01*
X-782382Y1193200D01*
X-782420Y1193391D01*
X-782430Y1193400D01*
X-782427Y1193409D01*
X-782536Y1193571D01*
X-782549Y1193575D01*
X-782549Y1193585D01*
X-782711Y1193693D01*
X-782725Y1193692D01*
X-782729Y1193700D01*
X-782920Y1193738D01*
X-782927Y1193735D01*
X-782930Y1193739D01*
X-798830Y1193739D01*
X-798836Y1193735D01*
X-798840Y1193738D01*
X-799031Y1193700D01*
X-799040Y1193690D01*
X-799049Y1193693D01*
X-799211Y1193585D01*
X-799215Y1193571D01*
X-799225Y1193571D01*
X-799333Y1193409D01*
X-799332Y1193400D01*
X-799339Y1193395D01*
X-799337Y1193393D01*
X-799340Y1193391D01*
X-799378Y1193200D01*
X-799375Y1193193D01*
X-799379Y1193190D01*
X-799379Y1186790D01*
X-799375Y1186784D01*
X-799378Y1186780D01*
X-799340Y1186589D01*
X-799330Y1186580D01*
X-799333Y1186571D01*
X-799225Y1186409D01*
X-799211Y1186405D01*
X-799211Y1186396D01*
X-799049Y1186287D01*
X-799035Y1186288D01*
X-799031Y1186280D01*
X-798840Y1186242D01*
X-798833Y1186245D01*
X-798830Y1186241D01*
X-782930Y1186241D01*
X-782924Y1186245D01*
G37*
G36*
X-1159504Y1186245D02*
X-1159504Y1186245D01*
X-1159500Y1186242D01*
X-1159309Y1186280D01*
X-1159300Y1186290D01*
X-1159291Y1186287D01*
X-1159129Y1186396D01*
X-1159125Y1186409D01*
X-1159116Y1186409D01*
X-1159007Y1186571D01*
X-1159008Y1186585D01*
X-1159000Y1186589D01*
X-1158962Y1186780D01*
X-1158965Y1186787D01*
X-1158961Y1186790D01*
X-1158961Y1193190D01*
X-1158965Y1193196D01*
X-1158962Y1193200D01*
X-1159000Y1193391D01*
X-1159010Y1193400D01*
X-1159007Y1193409D01*
X-1159116Y1193571D01*
X-1159129Y1193575D01*
X-1159129Y1193585D01*
X-1159291Y1193693D01*
X-1159305Y1193692D01*
X-1159309Y1193700D01*
X-1159500Y1193738D01*
X-1159507Y1193735D01*
X-1159510Y1193739D01*
X-1175410Y1193739D01*
X-1175416Y1193735D01*
X-1175420Y1193738D01*
X-1175611Y1193700D01*
X-1175620Y1193690D01*
X-1175629Y1193693D01*
X-1175791Y1193585D01*
X-1175795Y1193571D01*
X-1175805Y1193571D01*
X-1175913Y1193409D01*
X-1175912Y1193400D01*
X-1175919Y1193395D01*
X-1175917Y1193393D01*
X-1175920Y1193391D01*
X-1175958Y1193200D01*
X-1175955Y1193193D01*
X-1175959Y1193190D01*
X-1175959Y1186790D01*
X-1175955Y1186784D01*
X-1175958Y1186780D01*
X-1175920Y1186589D01*
X-1175910Y1186580D01*
X-1175913Y1186571D01*
X-1175805Y1186409D01*
X-1175791Y1186405D01*
X-1175791Y1186396D01*
X-1175629Y1186287D01*
X-1175615Y1186288D01*
X-1175611Y1186280D01*
X-1175420Y1186242D01*
X-1175413Y1186245D01*
X-1175410Y1186241D01*
X-1159510Y1186241D01*
X-1159504Y1186245D01*
G37*
G36*
X-1105504Y1186245D02*
X-1105504Y1186245D01*
X-1105500Y1186242D01*
X-1105309Y1186280D01*
X-1105300Y1186290D01*
X-1105291Y1186287D01*
X-1105129Y1186396D01*
X-1105125Y1186409D01*
X-1105116Y1186409D01*
X-1105007Y1186571D01*
X-1105008Y1186585D01*
X-1105000Y1186589D01*
X-1104962Y1186780D01*
X-1104965Y1186787D01*
X-1104961Y1186790D01*
X-1104961Y1193190D01*
X-1104965Y1193196D01*
X-1104962Y1193200D01*
X-1105000Y1193391D01*
X-1105010Y1193400D01*
X-1105007Y1193409D01*
X-1105116Y1193571D01*
X-1105129Y1193575D01*
X-1105129Y1193585D01*
X-1105291Y1193693D01*
X-1105305Y1193692D01*
X-1105309Y1193700D01*
X-1105500Y1193738D01*
X-1105507Y1193735D01*
X-1105510Y1193739D01*
X-1121410Y1193739D01*
X-1121416Y1193735D01*
X-1121420Y1193738D01*
X-1121611Y1193700D01*
X-1121620Y1193690D01*
X-1121629Y1193693D01*
X-1121791Y1193585D01*
X-1121795Y1193571D01*
X-1121805Y1193571D01*
X-1121913Y1193409D01*
X-1121912Y1193400D01*
X-1121919Y1193395D01*
X-1121917Y1193393D01*
X-1121920Y1193391D01*
X-1121958Y1193200D01*
X-1121955Y1193193D01*
X-1121959Y1193190D01*
X-1121959Y1186790D01*
X-1121955Y1186784D01*
X-1121958Y1186780D01*
X-1121920Y1186589D01*
X-1121910Y1186580D01*
X-1121913Y1186571D01*
X-1121805Y1186409D01*
X-1121791Y1186405D01*
X-1121791Y1186396D01*
X-1121629Y1186287D01*
X-1121615Y1186288D01*
X-1121611Y1186280D01*
X-1121420Y1186242D01*
X-1121413Y1186245D01*
X-1121410Y1186241D01*
X-1105510Y1186241D01*
X-1105504Y1186245D01*
G37*
G36*
X-836924Y1186245D02*
X-836924Y1186245D01*
X-836920Y1186242D01*
X-836729Y1186280D01*
X-836720Y1186290D01*
X-836711Y1186287D01*
X-836549Y1186396D01*
X-836545Y1186409D01*
X-836536Y1186409D01*
X-836427Y1186571D01*
X-836428Y1186585D01*
X-836420Y1186589D01*
X-836382Y1186780D01*
X-836385Y1186787D01*
X-836381Y1186790D01*
X-836381Y1193190D01*
X-836385Y1193196D01*
X-836382Y1193200D01*
X-836420Y1193391D01*
X-836430Y1193400D01*
X-836427Y1193409D01*
X-836536Y1193571D01*
X-836549Y1193575D01*
X-836549Y1193585D01*
X-836711Y1193693D01*
X-836725Y1193692D01*
X-836729Y1193700D01*
X-836920Y1193738D01*
X-836927Y1193735D01*
X-836930Y1193739D01*
X-852830Y1193739D01*
X-852836Y1193735D01*
X-852840Y1193738D01*
X-853031Y1193700D01*
X-853040Y1193690D01*
X-853049Y1193693D01*
X-853211Y1193585D01*
X-853215Y1193571D01*
X-853225Y1193571D01*
X-853333Y1193409D01*
X-853332Y1193400D01*
X-853339Y1193395D01*
X-853337Y1193393D01*
X-853340Y1193391D01*
X-853378Y1193200D01*
X-853375Y1193193D01*
X-853379Y1193190D01*
X-853379Y1186790D01*
X-853375Y1186784D01*
X-853378Y1186780D01*
X-853340Y1186589D01*
X-853330Y1186580D01*
X-853333Y1186571D01*
X-853225Y1186409D01*
X-853211Y1186405D01*
X-853211Y1186396D01*
X-853049Y1186287D01*
X-853035Y1186288D01*
X-853031Y1186280D01*
X-852840Y1186242D01*
X-852833Y1186245D01*
X-852830Y1186241D01*
X-836930Y1186241D01*
X-836924Y1186245D01*
G37*
G36*
X-836924Y1173545D02*
X-836924Y1173545D01*
X-836920Y1173542D01*
X-836729Y1173580D01*
X-836720Y1173590D01*
X-836711Y1173587D01*
X-836549Y1173696D01*
X-836545Y1173709D01*
X-836536Y1173709D01*
X-836427Y1173871D01*
X-836428Y1173885D01*
X-836420Y1173889D01*
X-836382Y1174080D01*
X-836385Y1174087D01*
X-836381Y1174090D01*
X-836381Y1180490D01*
X-836385Y1180496D01*
X-836382Y1180500D01*
X-836420Y1180691D01*
X-836430Y1180700D01*
X-836427Y1180709D01*
X-836536Y1180871D01*
X-836549Y1180875D01*
X-836549Y1180885D01*
X-836711Y1180993D01*
X-836725Y1180992D01*
X-836729Y1181000D01*
X-836920Y1181038D01*
X-836927Y1181035D01*
X-836930Y1181039D01*
X-852830Y1181039D01*
X-852836Y1181035D01*
X-852840Y1181038D01*
X-853031Y1181000D01*
X-853040Y1180990D01*
X-853049Y1180993D01*
X-853211Y1180885D01*
X-853215Y1180871D01*
X-853225Y1180871D01*
X-853333Y1180709D01*
X-853332Y1180700D01*
X-853339Y1180695D01*
X-853337Y1180693D01*
X-853340Y1180691D01*
X-853378Y1180500D01*
X-853375Y1180493D01*
X-853379Y1180490D01*
X-853379Y1174090D01*
X-853375Y1174084D01*
X-853378Y1174080D01*
X-853340Y1173889D01*
X-853330Y1173880D01*
X-853333Y1173871D01*
X-853225Y1173709D01*
X-853211Y1173705D01*
X-853211Y1173696D01*
X-853049Y1173587D01*
X-853035Y1173588D01*
X-853031Y1173580D01*
X-852840Y1173542D01*
X-852833Y1173545D01*
X-852830Y1173541D01*
X-836930Y1173541D01*
X-836924Y1173545D01*
G37*
G36*
X-1159504Y1173545D02*
X-1159504Y1173545D01*
X-1159500Y1173542D01*
X-1159309Y1173580D01*
X-1159300Y1173590D01*
X-1159291Y1173587D01*
X-1159129Y1173696D01*
X-1159125Y1173709D01*
X-1159116Y1173709D01*
X-1159007Y1173871D01*
X-1159008Y1173885D01*
X-1159000Y1173889D01*
X-1158962Y1174080D01*
X-1158965Y1174087D01*
X-1158961Y1174090D01*
X-1158961Y1180490D01*
X-1158965Y1180496D01*
X-1158962Y1180500D01*
X-1159000Y1180691D01*
X-1159010Y1180700D01*
X-1159007Y1180709D01*
X-1159116Y1180871D01*
X-1159129Y1180875D01*
X-1159129Y1180885D01*
X-1159291Y1180993D01*
X-1159305Y1180992D01*
X-1159309Y1181000D01*
X-1159500Y1181038D01*
X-1159507Y1181035D01*
X-1159510Y1181039D01*
X-1175410Y1181039D01*
X-1175416Y1181035D01*
X-1175420Y1181038D01*
X-1175611Y1181000D01*
X-1175620Y1180990D01*
X-1175629Y1180993D01*
X-1175791Y1180885D01*
X-1175795Y1180871D01*
X-1175805Y1180871D01*
X-1175913Y1180709D01*
X-1175912Y1180700D01*
X-1175919Y1180695D01*
X-1175917Y1180693D01*
X-1175920Y1180691D01*
X-1175958Y1180500D01*
X-1175955Y1180493D01*
X-1175959Y1180490D01*
X-1175959Y1174090D01*
X-1175955Y1174084D01*
X-1175958Y1174080D01*
X-1175920Y1173889D01*
X-1175910Y1173880D01*
X-1175913Y1173871D01*
X-1175805Y1173709D01*
X-1175791Y1173705D01*
X-1175791Y1173696D01*
X-1175629Y1173587D01*
X-1175615Y1173588D01*
X-1175611Y1173580D01*
X-1175420Y1173542D01*
X-1175413Y1173545D01*
X-1175410Y1173541D01*
X-1159510Y1173541D01*
X-1159504Y1173545D01*
G37*
G36*
X-1105504Y1173545D02*
X-1105504Y1173545D01*
X-1105500Y1173542D01*
X-1105309Y1173580D01*
X-1105300Y1173590D01*
X-1105291Y1173587D01*
X-1105129Y1173696D01*
X-1105125Y1173709D01*
X-1105116Y1173709D01*
X-1105007Y1173871D01*
X-1105008Y1173885D01*
X-1105000Y1173889D01*
X-1104962Y1174080D01*
X-1104965Y1174087D01*
X-1104961Y1174090D01*
X-1104961Y1180490D01*
X-1104965Y1180496D01*
X-1104962Y1180500D01*
X-1105000Y1180691D01*
X-1105010Y1180700D01*
X-1105007Y1180709D01*
X-1105116Y1180871D01*
X-1105129Y1180875D01*
X-1105129Y1180885D01*
X-1105291Y1180993D01*
X-1105305Y1180992D01*
X-1105309Y1181000D01*
X-1105500Y1181038D01*
X-1105507Y1181035D01*
X-1105510Y1181039D01*
X-1121410Y1181039D01*
X-1121416Y1181035D01*
X-1121420Y1181038D01*
X-1121611Y1181000D01*
X-1121620Y1180990D01*
X-1121629Y1180993D01*
X-1121791Y1180885D01*
X-1121795Y1180871D01*
X-1121805Y1180871D01*
X-1121913Y1180709D01*
X-1121912Y1180700D01*
X-1121919Y1180695D01*
X-1121917Y1180693D01*
X-1121920Y1180691D01*
X-1121958Y1180500D01*
X-1121955Y1180493D01*
X-1121959Y1180490D01*
X-1121959Y1174090D01*
X-1121955Y1174084D01*
X-1121958Y1174080D01*
X-1121920Y1173889D01*
X-1121910Y1173880D01*
X-1121913Y1173871D01*
X-1121805Y1173709D01*
X-1121791Y1173705D01*
X-1121791Y1173696D01*
X-1121629Y1173587D01*
X-1121615Y1173588D01*
X-1121611Y1173580D01*
X-1121420Y1173542D01*
X-1121413Y1173545D01*
X-1121410Y1173541D01*
X-1105510Y1173541D01*
X-1105504Y1173545D01*
G37*
G36*
X-782924Y1173545D02*
X-782924Y1173545D01*
X-782920Y1173542D01*
X-782729Y1173580D01*
X-782720Y1173590D01*
X-782711Y1173587D01*
X-782549Y1173696D01*
X-782545Y1173709D01*
X-782536Y1173709D01*
X-782427Y1173871D01*
X-782428Y1173885D01*
X-782420Y1173889D01*
X-782382Y1174080D01*
X-782385Y1174087D01*
X-782381Y1174090D01*
X-782381Y1180490D01*
X-782385Y1180496D01*
X-782382Y1180500D01*
X-782420Y1180691D01*
X-782430Y1180700D01*
X-782427Y1180709D01*
X-782536Y1180871D01*
X-782549Y1180875D01*
X-782549Y1180885D01*
X-782711Y1180993D01*
X-782725Y1180992D01*
X-782729Y1181000D01*
X-782920Y1181038D01*
X-782927Y1181035D01*
X-782930Y1181039D01*
X-798830Y1181039D01*
X-798836Y1181035D01*
X-798840Y1181038D01*
X-799031Y1181000D01*
X-799040Y1180990D01*
X-799049Y1180993D01*
X-799211Y1180885D01*
X-799215Y1180871D01*
X-799225Y1180871D01*
X-799333Y1180709D01*
X-799332Y1180700D01*
X-799339Y1180695D01*
X-799337Y1180693D01*
X-799340Y1180691D01*
X-799378Y1180500D01*
X-799375Y1180493D01*
X-799379Y1180490D01*
X-799379Y1174090D01*
X-799375Y1174084D01*
X-799378Y1174080D01*
X-799340Y1173889D01*
X-799330Y1173880D01*
X-799333Y1173871D01*
X-799225Y1173709D01*
X-799211Y1173705D01*
X-799211Y1173696D01*
X-799049Y1173587D01*
X-799035Y1173588D01*
X-799031Y1173580D01*
X-798840Y1173542D01*
X-798833Y1173545D01*
X-798830Y1173541D01*
X-782930Y1173541D01*
X-782924Y1173545D01*
G37*
G36*
X-782924Y1160845D02*
X-782924Y1160845D01*
X-782920Y1160842D01*
X-782729Y1160880D01*
X-782720Y1160890D01*
X-782711Y1160887D01*
X-782549Y1160996D01*
X-782545Y1161009D01*
X-782536Y1161009D01*
X-782427Y1161171D01*
X-782428Y1161185D01*
X-782420Y1161189D01*
X-782382Y1161380D01*
X-782385Y1161387D01*
X-782381Y1161390D01*
X-782381Y1167790D01*
X-782385Y1167796D01*
X-782382Y1167800D01*
X-782420Y1167991D01*
X-782430Y1168000D01*
X-782427Y1168009D01*
X-782536Y1168171D01*
X-782549Y1168175D01*
X-782549Y1168185D01*
X-782711Y1168293D01*
X-782725Y1168292D01*
X-782729Y1168300D01*
X-782920Y1168338D01*
X-782927Y1168335D01*
X-782930Y1168339D01*
X-798830Y1168339D01*
X-798836Y1168335D01*
X-798840Y1168338D01*
X-799031Y1168300D01*
X-799040Y1168290D01*
X-799049Y1168293D01*
X-799211Y1168185D01*
X-799215Y1168171D01*
X-799225Y1168171D01*
X-799333Y1168009D01*
X-799332Y1168000D01*
X-799339Y1167995D01*
X-799337Y1167993D01*
X-799340Y1167991D01*
X-799378Y1167800D01*
X-799375Y1167793D01*
X-799379Y1167790D01*
X-799379Y1161390D01*
X-799375Y1161384D01*
X-799378Y1161380D01*
X-799340Y1161189D01*
X-799330Y1161180D01*
X-799333Y1161171D01*
X-799225Y1161009D01*
X-799211Y1161005D01*
X-799211Y1160996D01*
X-799049Y1160887D01*
X-799035Y1160888D01*
X-799031Y1160880D01*
X-798840Y1160842D01*
X-798833Y1160845D01*
X-798830Y1160841D01*
X-782930Y1160841D01*
X-782924Y1160845D01*
G37*
G36*
X-1159504Y1160845D02*
X-1159504Y1160845D01*
X-1159500Y1160842D01*
X-1159309Y1160880D01*
X-1159300Y1160890D01*
X-1159291Y1160887D01*
X-1159129Y1160996D01*
X-1159125Y1161009D01*
X-1159116Y1161009D01*
X-1159007Y1161171D01*
X-1159008Y1161185D01*
X-1159000Y1161189D01*
X-1158962Y1161380D01*
X-1158965Y1161387D01*
X-1158961Y1161390D01*
X-1158961Y1167790D01*
X-1158965Y1167796D01*
X-1158962Y1167800D01*
X-1159000Y1167991D01*
X-1159010Y1168000D01*
X-1159007Y1168009D01*
X-1159116Y1168171D01*
X-1159129Y1168175D01*
X-1159129Y1168185D01*
X-1159291Y1168293D01*
X-1159305Y1168292D01*
X-1159309Y1168300D01*
X-1159500Y1168338D01*
X-1159507Y1168335D01*
X-1159510Y1168339D01*
X-1175410Y1168339D01*
X-1175416Y1168335D01*
X-1175420Y1168338D01*
X-1175611Y1168300D01*
X-1175620Y1168290D01*
X-1175629Y1168293D01*
X-1175791Y1168185D01*
X-1175795Y1168171D01*
X-1175805Y1168171D01*
X-1175913Y1168009D01*
X-1175912Y1168000D01*
X-1175919Y1167995D01*
X-1175917Y1167993D01*
X-1175920Y1167991D01*
X-1175958Y1167800D01*
X-1175955Y1167793D01*
X-1175959Y1167790D01*
X-1175959Y1161390D01*
X-1175955Y1161384D01*
X-1175958Y1161380D01*
X-1175920Y1161189D01*
X-1175910Y1161180D01*
X-1175913Y1161171D01*
X-1175805Y1161009D01*
X-1175791Y1161005D01*
X-1175791Y1160996D01*
X-1175629Y1160887D01*
X-1175615Y1160888D01*
X-1175611Y1160880D01*
X-1175420Y1160842D01*
X-1175413Y1160845D01*
X-1175410Y1160841D01*
X-1159510Y1160841D01*
X-1159504Y1160845D01*
G37*
G36*
X-836924Y1160845D02*
X-836924Y1160845D01*
X-836920Y1160842D01*
X-836729Y1160880D01*
X-836720Y1160890D01*
X-836711Y1160887D01*
X-836549Y1160996D01*
X-836545Y1161009D01*
X-836536Y1161009D01*
X-836427Y1161171D01*
X-836428Y1161185D01*
X-836420Y1161189D01*
X-836382Y1161380D01*
X-836385Y1161387D01*
X-836381Y1161390D01*
X-836381Y1167790D01*
X-836385Y1167796D01*
X-836382Y1167800D01*
X-836420Y1167991D01*
X-836430Y1168000D01*
X-836427Y1168009D01*
X-836536Y1168171D01*
X-836549Y1168175D01*
X-836549Y1168185D01*
X-836711Y1168293D01*
X-836725Y1168292D01*
X-836729Y1168300D01*
X-836920Y1168338D01*
X-836927Y1168335D01*
X-836930Y1168339D01*
X-852830Y1168339D01*
X-852836Y1168335D01*
X-852840Y1168338D01*
X-853031Y1168300D01*
X-853040Y1168290D01*
X-853049Y1168293D01*
X-853211Y1168185D01*
X-853215Y1168171D01*
X-853225Y1168171D01*
X-853333Y1168009D01*
X-853332Y1168000D01*
X-853339Y1167995D01*
X-853337Y1167993D01*
X-853340Y1167991D01*
X-853378Y1167800D01*
X-853375Y1167793D01*
X-853379Y1167790D01*
X-853379Y1161390D01*
X-853375Y1161384D01*
X-853378Y1161380D01*
X-853340Y1161189D01*
X-853330Y1161180D01*
X-853333Y1161171D01*
X-853225Y1161009D01*
X-853211Y1161005D01*
X-853211Y1160996D01*
X-853049Y1160887D01*
X-853035Y1160888D01*
X-853031Y1160880D01*
X-852840Y1160842D01*
X-852833Y1160845D01*
X-852830Y1160841D01*
X-836930Y1160841D01*
X-836924Y1160845D01*
G37*
G36*
X-1105504Y1160845D02*
X-1105504Y1160845D01*
X-1105500Y1160842D01*
X-1105309Y1160880D01*
X-1105300Y1160890D01*
X-1105291Y1160887D01*
X-1105129Y1160996D01*
X-1105125Y1161009D01*
X-1105116Y1161009D01*
X-1105007Y1161171D01*
X-1105008Y1161185D01*
X-1105000Y1161189D01*
X-1104962Y1161380D01*
X-1104965Y1161387D01*
X-1104961Y1161390D01*
X-1104961Y1167790D01*
X-1104965Y1167796D01*
X-1104962Y1167800D01*
X-1105000Y1167991D01*
X-1105010Y1168000D01*
X-1105007Y1168009D01*
X-1105116Y1168171D01*
X-1105129Y1168175D01*
X-1105129Y1168185D01*
X-1105291Y1168293D01*
X-1105305Y1168292D01*
X-1105309Y1168300D01*
X-1105500Y1168338D01*
X-1105507Y1168335D01*
X-1105510Y1168339D01*
X-1121410Y1168339D01*
X-1121416Y1168335D01*
X-1121420Y1168338D01*
X-1121611Y1168300D01*
X-1121620Y1168290D01*
X-1121629Y1168293D01*
X-1121791Y1168185D01*
X-1121795Y1168171D01*
X-1121805Y1168171D01*
X-1121913Y1168009D01*
X-1121912Y1168000D01*
X-1121919Y1167995D01*
X-1121917Y1167993D01*
X-1121920Y1167991D01*
X-1121958Y1167800D01*
X-1121955Y1167793D01*
X-1121959Y1167790D01*
X-1121959Y1161390D01*
X-1121955Y1161384D01*
X-1121958Y1161380D01*
X-1121920Y1161189D01*
X-1121910Y1161180D01*
X-1121913Y1161171D01*
X-1121805Y1161009D01*
X-1121791Y1161005D01*
X-1121791Y1160996D01*
X-1121629Y1160887D01*
X-1121615Y1160888D01*
X-1121611Y1160880D01*
X-1121420Y1160842D01*
X-1121413Y1160845D01*
X-1121410Y1160841D01*
X-1105510Y1160841D01*
X-1105504Y1160845D01*
G37*
G36*
X-1159504Y1148145D02*
X-1159504Y1148145D01*
X-1159500Y1148142D01*
X-1159309Y1148180D01*
X-1159300Y1148190D01*
X-1159291Y1148187D01*
X-1159129Y1148296D01*
X-1159125Y1148309D01*
X-1159116Y1148309D01*
X-1159007Y1148471D01*
X-1159008Y1148485D01*
X-1159000Y1148489D01*
X-1158962Y1148680D01*
X-1158965Y1148687D01*
X-1158961Y1148690D01*
X-1158961Y1155090D01*
X-1158965Y1155096D01*
X-1158962Y1155100D01*
X-1159000Y1155291D01*
X-1159010Y1155300D01*
X-1159007Y1155309D01*
X-1159116Y1155471D01*
X-1159129Y1155475D01*
X-1159129Y1155485D01*
X-1159291Y1155593D01*
X-1159305Y1155592D01*
X-1159309Y1155600D01*
X-1159500Y1155638D01*
X-1159507Y1155635D01*
X-1159510Y1155639D01*
X-1175410Y1155639D01*
X-1175416Y1155635D01*
X-1175420Y1155638D01*
X-1175611Y1155600D01*
X-1175620Y1155590D01*
X-1175629Y1155593D01*
X-1175791Y1155485D01*
X-1175795Y1155471D01*
X-1175805Y1155471D01*
X-1175913Y1155309D01*
X-1175912Y1155300D01*
X-1175919Y1155295D01*
X-1175917Y1155293D01*
X-1175920Y1155291D01*
X-1175958Y1155100D01*
X-1175955Y1155093D01*
X-1175959Y1155090D01*
X-1175959Y1148690D01*
X-1175955Y1148684D01*
X-1175958Y1148680D01*
X-1175920Y1148489D01*
X-1175910Y1148480D01*
X-1175913Y1148471D01*
X-1175805Y1148309D01*
X-1175791Y1148305D01*
X-1175791Y1148296D01*
X-1175629Y1148187D01*
X-1175615Y1148188D01*
X-1175611Y1148180D01*
X-1175420Y1148142D01*
X-1175413Y1148145D01*
X-1175410Y1148141D01*
X-1159510Y1148141D01*
X-1159504Y1148145D01*
G37*
G36*
X-1105504Y1148145D02*
X-1105504Y1148145D01*
X-1105500Y1148142D01*
X-1105309Y1148180D01*
X-1105300Y1148190D01*
X-1105291Y1148187D01*
X-1105129Y1148296D01*
X-1105125Y1148309D01*
X-1105116Y1148309D01*
X-1105007Y1148471D01*
X-1105008Y1148485D01*
X-1105000Y1148489D01*
X-1104962Y1148680D01*
X-1104965Y1148687D01*
X-1104961Y1148690D01*
X-1104961Y1155090D01*
X-1104965Y1155096D01*
X-1104962Y1155100D01*
X-1105000Y1155291D01*
X-1105010Y1155300D01*
X-1105007Y1155309D01*
X-1105116Y1155471D01*
X-1105129Y1155475D01*
X-1105129Y1155485D01*
X-1105291Y1155593D01*
X-1105305Y1155592D01*
X-1105309Y1155600D01*
X-1105500Y1155638D01*
X-1105507Y1155635D01*
X-1105510Y1155639D01*
X-1121410Y1155639D01*
X-1121416Y1155635D01*
X-1121420Y1155638D01*
X-1121611Y1155600D01*
X-1121620Y1155590D01*
X-1121629Y1155593D01*
X-1121791Y1155485D01*
X-1121795Y1155471D01*
X-1121805Y1155471D01*
X-1121913Y1155309D01*
X-1121912Y1155300D01*
X-1121919Y1155295D01*
X-1121917Y1155293D01*
X-1121920Y1155291D01*
X-1121958Y1155100D01*
X-1121955Y1155093D01*
X-1121959Y1155090D01*
X-1121959Y1148690D01*
X-1121955Y1148684D01*
X-1121958Y1148680D01*
X-1121920Y1148489D01*
X-1121910Y1148480D01*
X-1121913Y1148471D01*
X-1121805Y1148309D01*
X-1121791Y1148305D01*
X-1121791Y1148296D01*
X-1121629Y1148187D01*
X-1121615Y1148188D01*
X-1121611Y1148180D01*
X-1121420Y1148142D01*
X-1121413Y1148145D01*
X-1121410Y1148141D01*
X-1105510Y1148141D01*
X-1105504Y1148145D01*
G37*
D10*
X-1393190Y1450340D02*
X-1393190Y1709420D01*
X-1347470Y1755140D01*
X-1136650Y1755140D01*
X-1116330Y1734820D01*
X-1116330Y1700530D01*
X-1371600Y1445260D02*
X-1386840Y1445260D01*
X-1371600Y1445260D02*
X-1360170Y1433830D01*
X-1360170Y1306830D01*
X-1328420Y1275080D01*
X-1017270Y1275080D01*
X-998220Y1294130D01*
X-998220Y1339850D01*
D11*
X-708660Y1485900D02*
X-708660Y1564640D01*
X-741680Y1597660D01*
X-868680Y1597660D01*
X-889000Y1577340D01*
X-933450Y1577340D01*
X-933450Y1531620D01*
X-946150Y1518920D01*
X-1217930Y1518920D01*
X-1234440Y1535430D01*
X-1234440Y1577340D01*
X-1270000Y1451610D02*
X-1281430Y1440180D01*
X-1270000Y1451610D02*
X-1176020Y1451610D01*
X-1064260Y1681480D02*
X-929640Y1681480D01*
X-1046480Y1348740D02*
X-1167130Y1348740D01*
D12*
X-655000Y1745000D03*
X-655000Y1060000D03*
X-1440000Y1060000D03*
X-1440000Y1745000D03*
D13*
X-1074266Y1667130D03*
X-1074266Y1679830D03*
X-1074266Y1692530D03*
X-1074266Y1705230D03*
X-1027098Y1605662D03*
X-1027098Y1618362D03*
X-1027098Y1631062D03*
X-1027098Y1643762D03*
D14*
X-1220522Y1651152D02*
X-1233898Y1651152D01*
X-1233898Y1654228D01*
X-1220522Y1654228D01*
X-1220522Y1651152D01*
X-1220522Y1652126D02*
X-1233898Y1652126D01*
X-1233898Y1653100D02*
X-1220522Y1653100D01*
X-1220522Y1654074D02*
X-1233898Y1654074D01*
X-1233898Y1644652D02*
X-1220522Y1644652D01*
X-1233898Y1644652D02*
X-1233898Y1647728D01*
X-1220522Y1647728D01*
X-1220522Y1644652D01*
X-1220522Y1645626D02*
X-1233898Y1645626D01*
X-1233898Y1646600D02*
X-1220522Y1646600D01*
X-1220522Y1647574D02*
X-1233898Y1647574D01*
X-1233898Y1638152D02*
X-1220522Y1638152D01*
X-1233898Y1638152D02*
X-1233898Y1641228D01*
X-1220522Y1641228D01*
X-1220522Y1638152D01*
X-1220522Y1639126D02*
X-1233898Y1639126D01*
X-1233898Y1640100D02*
X-1220522Y1640100D01*
X-1220522Y1641074D02*
X-1233898Y1641074D01*
X-1233898Y1631652D02*
X-1220522Y1631652D01*
X-1233898Y1631652D02*
X-1233898Y1634728D01*
X-1220522Y1634728D01*
X-1220522Y1631652D01*
X-1220522Y1632626D02*
X-1233898Y1632626D01*
X-1233898Y1633600D02*
X-1220522Y1633600D01*
X-1220522Y1634574D02*
X-1233898Y1634574D01*
X-1233898Y1625152D02*
X-1220522Y1625152D01*
X-1233898Y1625152D02*
X-1233898Y1628228D01*
X-1220522Y1628228D01*
X-1220522Y1625152D01*
X-1220522Y1626126D02*
X-1233898Y1626126D01*
X-1233898Y1627100D02*
X-1220522Y1627100D01*
X-1220522Y1628074D02*
X-1233898Y1628074D01*
X-1233898Y1618652D02*
X-1220522Y1618652D01*
X-1233898Y1618652D02*
X-1233898Y1621728D01*
X-1220522Y1621728D01*
X-1220522Y1618652D01*
X-1220522Y1619626D02*
X-1233898Y1619626D01*
X-1233898Y1620600D02*
X-1220522Y1620600D01*
X-1220522Y1621574D02*
X-1233898Y1621574D01*
X-1233898Y1612152D02*
X-1220522Y1612152D01*
X-1233898Y1612152D02*
X-1233898Y1615228D01*
X-1220522Y1615228D01*
X-1220522Y1612152D01*
X-1220522Y1613126D02*
X-1233898Y1613126D01*
X-1233898Y1614100D02*
X-1220522Y1614100D01*
X-1220522Y1615074D02*
X-1233898Y1615074D01*
X-1233898Y1605652D02*
X-1220522Y1605652D01*
X-1233898Y1605652D02*
X-1233898Y1608728D01*
X-1220522Y1608728D01*
X-1220522Y1605652D01*
X-1220522Y1606626D02*
X-1233898Y1606626D01*
X-1233898Y1607600D02*
X-1220522Y1607600D01*
X-1220522Y1608574D02*
X-1233898Y1608574D01*
X-1233898Y1599152D02*
X-1220522Y1599152D01*
X-1233898Y1599152D02*
X-1233898Y1602228D01*
X-1220522Y1602228D01*
X-1220522Y1599152D01*
X-1220522Y1600126D02*
X-1233898Y1600126D01*
X-1233898Y1601100D02*
X-1220522Y1601100D01*
X-1220522Y1602074D02*
X-1233898Y1602074D01*
X-1233898Y1592652D02*
X-1220522Y1592652D01*
X-1233898Y1592652D02*
X-1233898Y1595728D01*
X-1220522Y1595728D01*
X-1220522Y1592652D01*
X-1220522Y1593626D02*
X-1233898Y1593626D01*
X-1233898Y1594600D02*
X-1220522Y1594600D01*
X-1220522Y1595574D02*
X-1233898Y1595574D01*
X-1176198Y1592652D02*
X-1162822Y1592652D01*
X-1176198Y1592652D02*
X-1176198Y1595728D01*
X-1162822Y1595728D01*
X-1162822Y1592652D01*
X-1162822Y1593626D02*
X-1176198Y1593626D01*
X-1176198Y1594600D02*
X-1162822Y1594600D01*
X-1162822Y1595574D02*
X-1176198Y1595574D01*
X-1176198Y1599152D02*
X-1162822Y1599152D01*
X-1176198Y1599152D02*
X-1176198Y1602228D01*
X-1162822Y1602228D01*
X-1162822Y1599152D01*
X-1162822Y1600126D02*
X-1176198Y1600126D01*
X-1176198Y1601100D02*
X-1162822Y1601100D01*
X-1162822Y1602074D02*
X-1176198Y1602074D01*
X-1176198Y1605652D02*
X-1162822Y1605652D01*
X-1176198Y1605652D02*
X-1176198Y1608728D01*
X-1162822Y1608728D01*
X-1162822Y1605652D01*
X-1162822Y1606626D02*
X-1176198Y1606626D01*
X-1176198Y1607600D02*
X-1162822Y1607600D01*
X-1162822Y1608574D02*
X-1176198Y1608574D01*
X-1176198Y1612152D02*
X-1162822Y1612152D01*
X-1176198Y1612152D02*
X-1176198Y1615228D01*
X-1162822Y1615228D01*
X-1162822Y1612152D01*
X-1162822Y1613126D02*
X-1176198Y1613126D01*
X-1176198Y1614100D02*
X-1162822Y1614100D01*
X-1162822Y1615074D02*
X-1176198Y1615074D01*
X-1176198Y1618652D02*
X-1162822Y1618652D01*
X-1176198Y1618652D02*
X-1176198Y1621728D01*
X-1162822Y1621728D01*
X-1162822Y1618652D01*
X-1162822Y1619626D02*
X-1176198Y1619626D01*
X-1176198Y1620600D02*
X-1162822Y1620600D01*
X-1162822Y1621574D02*
X-1176198Y1621574D01*
X-1176198Y1625152D02*
X-1162822Y1625152D01*
X-1176198Y1625152D02*
X-1176198Y1628228D01*
X-1162822Y1628228D01*
X-1162822Y1625152D01*
X-1162822Y1626126D02*
X-1176198Y1626126D01*
X-1176198Y1627100D02*
X-1162822Y1627100D01*
X-1162822Y1628074D02*
X-1176198Y1628074D01*
X-1176198Y1631652D02*
X-1162822Y1631652D01*
X-1176198Y1631652D02*
X-1176198Y1634728D01*
X-1162822Y1634728D01*
X-1162822Y1631652D01*
X-1162822Y1632626D02*
X-1176198Y1632626D01*
X-1176198Y1633600D02*
X-1162822Y1633600D01*
X-1162822Y1634574D02*
X-1176198Y1634574D01*
X-1176198Y1638152D02*
X-1162822Y1638152D01*
X-1176198Y1638152D02*
X-1176198Y1641228D01*
X-1162822Y1641228D01*
X-1162822Y1638152D01*
X-1162822Y1639126D02*
X-1176198Y1639126D01*
X-1176198Y1640100D02*
X-1162822Y1640100D01*
X-1162822Y1641074D02*
X-1176198Y1641074D01*
X-1176198Y1644652D02*
X-1162822Y1644652D01*
X-1176198Y1644652D02*
X-1176198Y1647728D01*
X-1162822Y1647728D01*
X-1162822Y1644652D01*
X-1162822Y1645626D02*
X-1176198Y1645626D01*
X-1176198Y1646600D02*
X-1162822Y1646600D01*
X-1162822Y1647574D02*
X-1176198Y1647574D01*
X-1176198Y1651152D02*
X-1162822Y1651152D01*
X-1176198Y1651152D02*
X-1176198Y1654228D01*
X-1162822Y1654228D01*
X-1162822Y1651152D01*
X-1162822Y1652126D02*
X-1176198Y1652126D01*
X-1176198Y1653100D02*
X-1162822Y1653100D01*
X-1162822Y1654074D02*
X-1176198Y1654074D01*
D15*
X-1198360Y1623440D03*
D16*
X-1275600Y1627570D03*
X-1290840Y1627570D03*
X-1275600Y1643534D03*
X-1290840Y1643534D03*
D17*
X-1289038Y1671966D03*
X-1278878Y1671966D03*
D16*
X-1259828Y1686228D03*
X-1244588Y1686228D03*
X-1291324Y1686266D03*
X-1276084Y1686266D03*
D17*
X-1278902Y1658876D03*
X-1289062Y1658876D03*
D18*
X-1177544Y1692656D03*
X-1177544Y1707896D03*
D19*
X-1198118Y1690370D03*
X-1198118Y1710690D03*
D18*
X-1255268Y1592834D03*
X-1255268Y1608074D03*
D17*
X-1287018Y1592834D03*
X-1276858Y1592834D03*
D16*
X-1287018Y1608074D03*
X-1271778Y1608074D03*
D20*
X-1024636Y1558006D03*
X-1024636Y1586006D03*
D18*
X-1303528Y1606804D03*
X-1303528Y1591564D03*
X-1318768Y1591564D03*
X-1318768Y1606804D03*
D21*
X-827786Y1598216D03*
X-827786Y1667716D03*
D22*
X-939800Y1687204D03*
X-939800Y1577204D03*
D23*
X-1141730Y1640720D03*
X-1141730Y1625720D03*
D18*
X-1113282Y1639062D03*
X-1113282Y1623822D03*
X-1128522Y1639316D03*
X-1128522Y1624076D03*
D13*
X-1036474Y1363090D03*
X-1036474Y1350390D03*
X-1036474Y1337690D03*
X-1036474Y1324990D03*
X-1083642Y1424558D03*
X-1083642Y1411858D03*
X-1083642Y1399158D03*
X-1083642Y1386458D03*
D14*
X-890218Y1379068D02*
X-876842Y1379068D01*
X-876842Y1375992D01*
X-890218Y1375992D01*
X-890218Y1379068D01*
X-890218Y1376966D02*
X-876842Y1376966D01*
X-876842Y1377940D02*
X-890218Y1377940D01*
X-890218Y1378914D02*
X-876842Y1378914D01*
X-876842Y1385568D02*
X-890218Y1385568D01*
X-876842Y1385568D02*
X-876842Y1382492D01*
X-890218Y1382492D01*
X-890218Y1385568D01*
X-890218Y1383466D02*
X-876842Y1383466D01*
X-876842Y1384440D02*
X-890218Y1384440D01*
X-890218Y1385414D02*
X-876842Y1385414D01*
X-876842Y1392068D02*
X-890218Y1392068D01*
X-876842Y1392068D02*
X-876842Y1388992D01*
X-890218Y1388992D01*
X-890218Y1392068D01*
X-890218Y1389966D02*
X-876842Y1389966D01*
X-876842Y1390940D02*
X-890218Y1390940D01*
X-890218Y1391914D02*
X-876842Y1391914D01*
X-876842Y1398568D02*
X-890218Y1398568D01*
X-876842Y1398568D02*
X-876842Y1395492D01*
X-890218Y1395492D01*
X-890218Y1398568D01*
X-890218Y1396466D02*
X-876842Y1396466D01*
X-876842Y1397440D02*
X-890218Y1397440D01*
X-890218Y1398414D02*
X-876842Y1398414D01*
X-876842Y1405068D02*
X-890218Y1405068D01*
X-876842Y1405068D02*
X-876842Y1401992D01*
X-890218Y1401992D01*
X-890218Y1405068D01*
X-890218Y1402966D02*
X-876842Y1402966D01*
X-876842Y1403940D02*
X-890218Y1403940D01*
X-890218Y1404914D02*
X-876842Y1404914D01*
X-876842Y1411568D02*
X-890218Y1411568D01*
X-876842Y1411568D02*
X-876842Y1408492D01*
X-890218Y1408492D01*
X-890218Y1411568D01*
X-890218Y1409466D02*
X-876842Y1409466D01*
X-876842Y1410440D02*
X-890218Y1410440D01*
X-890218Y1411414D02*
X-876842Y1411414D01*
X-876842Y1418068D02*
X-890218Y1418068D01*
X-876842Y1418068D02*
X-876842Y1414992D01*
X-890218Y1414992D01*
X-890218Y1418068D01*
X-890218Y1415966D02*
X-876842Y1415966D01*
X-876842Y1416940D02*
X-890218Y1416940D01*
X-890218Y1417914D02*
X-876842Y1417914D01*
X-876842Y1424568D02*
X-890218Y1424568D01*
X-876842Y1424568D02*
X-876842Y1421492D01*
X-890218Y1421492D01*
X-890218Y1424568D01*
X-890218Y1422466D02*
X-876842Y1422466D01*
X-876842Y1423440D02*
X-890218Y1423440D01*
X-890218Y1424414D02*
X-876842Y1424414D01*
X-876842Y1431068D02*
X-890218Y1431068D01*
X-876842Y1431068D02*
X-876842Y1427992D01*
X-890218Y1427992D01*
X-890218Y1431068D01*
X-890218Y1428966D02*
X-876842Y1428966D01*
X-876842Y1429940D02*
X-890218Y1429940D01*
X-890218Y1430914D02*
X-876842Y1430914D01*
X-876842Y1437568D02*
X-890218Y1437568D01*
X-876842Y1437568D02*
X-876842Y1434492D01*
X-890218Y1434492D01*
X-890218Y1437568D01*
X-890218Y1435466D02*
X-876842Y1435466D01*
X-876842Y1436440D02*
X-890218Y1436440D01*
X-890218Y1437414D02*
X-876842Y1437414D01*
X-934542Y1437568D02*
X-947918Y1437568D01*
X-934542Y1437568D02*
X-934542Y1434492D01*
X-947918Y1434492D01*
X-947918Y1437568D01*
X-947918Y1435466D02*
X-934542Y1435466D01*
X-934542Y1436440D02*
X-947918Y1436440D01*
X-947918Y1437414D02*
X-934542Y1437414D01*
X-934542Y1431068D02*
X-947918Y1431068D01*
X-934542Y1431068D02*
X-934542Y1427992D01*
X-947918Y1427992D01*
X-947918Y1431068D01*
X-947918Y1428966D02*
X-934542Y1428966D01*
X-934542Y1429940D02*
X-947918Y1429940D01*
X-947918Y1430914D02*
X-934542Y1430914D01*
X-934542Y1424568D02*
X-947918Y1424568D01*
X-934542Y1424568D02*
X-934542Y1421492D01*
X-947918Y1421492D01*
X-947918Y1424568D01*
X-947918Y1422466D02*
X-934542Y1422466D01*
X-934542Y1423440D02*
X-947918Y1423440D01*
X-947918Y1424414D02*
X-934542Y1424414D01*
X-934542Y1418068D02*
X-947918Y1418068D01*
X-934542Y1418068D02*
X-934542Y1414992D01*
X-947918Y1414992D01*
X-947918Y1418068D01*
X-947918Y1415966D02*
X-934542Y1415966D01*
X-934542Y1416940D02*
X-947918Y1416940D01*
X-947918Y1417914D02*
X-934542Y1417914D01*
X-934542Y1411568D02*
X-947918Y1411568D01*
X-934542Y1411568D02*
X-934542Y1408492D01*
X-947918Y1408492D01*
X-947918Y1411568D01*
X-947918Y1409466D02*
X-934542Y1409466D01*
X-934542Y1410440D02*
X-947918Y1410440D01*
X-947918Y1411414D02*
X-934542Y1411414D01*
X-934542Y1405068D02*
X-947918Y1405068D01*
X-934542Y1405068D02*
X-934542Y1401992D01*
X-947918Y1401992D01*
X-947918Y1405068D01*
X-947918Y1402966D02*
X-934542Y1402966D01*
X-934542Y1403940D02*
X-947918Y1403940D01*
X-947918Y1404914D02*
X-934542Y1404914D01*
X-934542Y1398568D02*
X-947918Y1398568D01*
X-934542Y1398568D02*
X-934542Y1395492D01*
X-947918Y1395492D01*
X-947918Y1398568D01*
X-947918Y1396466D02*
X-934542Y1396466D01*
X-934542Y1397440D02*
X-947918Y1397440D01*
X-947918Y1398414D02*
X-934542Y1398414D01*
X-934542Y1392068D02*
X-947918Y1392068D01*
X-934542Y1392068D02*
X-934542Y1388992D01*
X-947918Y1388992D01*
X-947918Y1392068D01*
X-947918Y1389966D02*
X-934542Y1389966D01*
X-934542Y1390940D02*
X-947918Y1390940D01*
X-947918Y1391914D02*
X-934542Y1391914D01*
X-934542Y1385568D02*
X-947918Y1385568D01*
X-934542Y1385568D02*
X-934542Y1382492D01*
X-947918Y1382492D01*
X-947918Y1385568D01*
X-947918Y1383466D02*
X-934542Y1383466D01*
X-934542Y1384440D02*
X-947918Y1384440D01*
X-947918Y1385414D02*
X-934542Y1385414D01*
X-934542Y1379068D02*
X-947918Y1379068D01*
X-934542Y1379068D02*
X-934542Y1375992D01*
X-947918Y1375992D01*
X-947918Y1379068D01*
X-947918Y1376966D02*
X-934542Y1376966D01*
X-934542Y1377940D02*
X-947918Y1377940D01*
X-947918Y1378914D02*
X-934542Y1378914D01*
D15*
X-912380Y1406780D03*
D16*
X-835140Y1402650D03*
X-819900Y1402650D03*
X-835140Y1386686D03*
X-819900Y1386686D03*
D17*
X-821702Y1358254D03*
X-831862Y1358254D03*
D16*
X-850912Y1343992D03*
X-866152Y1343992D03*
X-819416Y1343954D03*
X-834656Y1343954D03*
D17*
X-831838Y1371344D03*
X-821678Y1371344D03*
D18*
X-933196Y1337564D03*
X-933196Y1322324D03*
D19*
X-912622Y1339850D03*
X-912622Y1319530D03*
D18*
X-855472Y1437386D03*
X-855472Y1422146D03*
D17*
X-823722Y1437386D03*
X-833882Y1437386D03*
D16*
X-823722Y1422146D03*
X-838962Y1422146D03*
D20*
X-1086104Y1472214D03*
X-1086104Y1444214D03*
D18*
X-807212Y1423416D03*
X-807212Y1438656D03*
X-791972Y1438656D03*
X-791972Y1423416D03*
D21*
X-1282954Y1432004D03*
X-1282954Y1362504D03*
D22*
X-1170940Y1343016D03*
X-1170940Y1453016D03*
D23*
X-969010Y1389500D03*
X-969010Y1404500D03*
D18*
X-997458Y1391158D03*
X-997458Y1406398D03*
X-982218Y1390904D03*
X-982218Y1406144D03*
D24*
X-1140460Y1170940D03*
D20*
X-1297940Y1149320D03*
X-1297940Y1177320D03*
X-1320800Y1149320D03*
X-1320800Y1177320D03*
D25*
X-1186180Y1166980D03*
X-1186180Y1179980D03*
D26*
X-1118720Y1130300D03*
X-1131720Y1130300D03*
D27*
X-1209040Y1150150D03*
X-1209040Y1186650D03*
D28*
X-1186300Y1103630D03*
X-1226700Y1103630D03*
D29*
X-1257300Y1121660D03*
X-1257300Y1184660D03*
D26*
X-1266040Y1097280D03*
X-1279040Y1097280D03*
D30*
X-1092200Y1189910D03*
X-1092200Y1179910D03*
D31*
X-1102280Y1203960D03*
X-1092280Y1203960D03*
D24*
X-817880Y1183640D03*
D20*
X-975360Y1162020D03*
X-975360Y1190020D03*
X-998220Y1162020D03*
X-998220Y1190020D03*
D25*
X-863600Y1179680D03*
X-863600Y1192680D03*
D26*
X-796140Y1143000D03*
X-809140Y1143000D03*
D27*
X-886460Y1162850D03*
X-886460Y1199350D03*
D28*
X-863720Y1116330D03*
X-904120Y1116330D03*
D29*
X-934720Y1134360D03*
X-934720Y1197360D03*
D26*
X-943460Y1109980D03*
X-956460Y1109980D03*
D30*
X-769620Y1202610D03*
X-769620Y1192610D03*
D31*
X-779700Y1216660D03*
X-769700Y1216660D03*
D32*
X-1392720Y1450340D03*
D33*
X-1392720Y1374140D03*
D32*
X-705000Y1300000D03*
D33*
X-705000Y1376200D03*
X-705000Y1452400D03*
X-705000Y1528600D03*
M02*
