G04 EAGLE Gerber RS-274X export*
G75*
%MOMM*%
%FSLAX34Y34*%
%LPD*%
%INSolderpaste Top*%
%IPPOS*%
%AMOC8*
5,1,8,0,0,1.08239X$1,22.5*%
G01*
%ADD10R,1.072000X0.562000*%
%ADD11R,0.766000X0.508000*%
%ADD12R,1.294000X0.746000*%
%ADD13R,1.500000X2.100000*%
%ADD14C,0.102500*%
%ADD15R,0.900000X0.800000*%
%ADD16R,0.600000X0.600000*%
%ADD17R,0.800000X0.900000*%
%ADD18R,1.300000X1.200000*%
%ADD19R,1.800000X1.600000*%
%ADD20R,1.900000X4.150000*%
%ADD21R,4.500000X4.000000*%
%ADD22R,0.800000X0.600000*%
%ADD23R,2.600000X3.100000*%
%ADD24C,0.060000*%
%ADD25R,0.900000X0.700000*%
%ADD26R,0.700000X0.900000*%
%ADD27R,1.630000X1.660000*%
%ADD28R,1.430000X5.500000*%
%ADD29R,2.350000X2.300000*%
%ADD30R,0.700000X0.600000*%
%ADD31R,0.600000X0.700000*%


D10*
X-1074396Y1667130D03*
X-1074396Y1679830D03*
X-1074396Y1692530D03*
X-1074396Y1705230D03*
D11*
X-1131066Y1667130D03*
X-1131066Y1679830D03*
X-1131066Y1692530D03*
X-1131066Y1705230D03*
D12*
X-1117906Y1680950D03*
X-1117906Y1691410D03*
X-1117906Y1670490D03*
X-1117906Y1701870D03*
X-1101466Y1701870D03*
X-1101466Y1691410D03*
X-1101466Y1680950D03*
X-1101466Y1670490D03*
D10*
X-1027228Y1605662D03*
X-1027228Y1618362D03*
X-1027228Y1631062D03*
X-1027228Y1643762D03*
D11*
X-1083898Y1605662D03*
X-1083898Y1618362D03*
X-1083898Y1631062D03*
X-1083898Y1643762D03*
D12*
X-1070738Y1619482D03*
X-1070738Y1629942D03*
X-1070738Y1609022D03*
X-1070738Y1640402D03*
X-1054298Y1640402D03*
X-1054298Y1629942D03*
X-1054298Y1619482D03*
X-1054298Y1609022D03*
D13*
X-1198360Y1623440D03*
D14*
X-1220522Y1651152D02*
X-1233898Y1651152D01*
X-1233898Y1654228D01*
X-1220522Y1654228D01*
X-1220522Y1651152D01*
X-1220522Y1652126D02*
X-1233898Y1652126D01*
X-1233898Y1653100D02*
X-1220522Y1653100D01*
X-1220522Y1654074D02*
X-1233898Y1654074D01*
X-1233898Y1644652D02*
X-1220522Y1644652D01*
X-1233898Y1644652D02*
X-1233898Y1647728D01*
X-1220522Y1647728D01*
X-1220522Y1644652D01*
X-1220522Y1645626D02*
X-1233898Y1645626D01*
X-1233898Y1646600D02*
X-1220522Y1646600D01*
X-1220522Y1647574D02*
X-1233898Y1647574D01*
X-1233898Y1638152D02*
X-1220522Y1638152D01*
X-1233898Y1638152D02*
X-1233898Y1641228D01*
X-1220522Y1641228D01*
X-1220522Y1638152D01*
X-1220522Y1639126D02*
X-1233898Y1639126D01*
X-1233898Y1640100D02*
X-1220522Y1640100D01*
X-1220522Y1641074D02*
X-1233898Y1641074D01*
X-1233898Y1631652D02*
X-1220522Y1631652D01*
X-1233898Y1631652D02*
X-1233898Y1634728D01*
X-1220522Y1634728D01*
X-1220522Y1631652D01*
X-1220522Y1632626D02*
X-1233898Y1632626D01*
X-1233898Y1633600D02*
X-1220522Y1633600D01*
X-1220522Y1634574D02*
X-1233898Y1634574D01*
X-1233898Y1625152D02*
X-1220522Y1625152D01*
X-1233898Y1625152D02*
X-1233898Y1628228D01*
X-1220522Y1628228D01*
X-1220522Y1625152D01*
X-1220522Y1626126D02*
X-1233898Y1626126D01*
X-1233898Y1627100D02*
X-1220522Y1627100D01*
X-1220522Y1628074D02*
X-1233898Y1628074D01*
X-1233898Y1618652D02*
X-1220522Y1618652D01*
X-1233898Y1618652D02*
X-1233898Y1621728D01*
X-1220522Y1621728D01*
X-1220522Y1618652D01*
X-1220522Y1619626D02*
X-1233898Y1619626D01*
X-1233898Y1620600D02*
X-1220522Y1620600D01*
X-1220522Y1621574D02*
X-1233898Y1621574D01*
X-1233898Y1612152D02*
X-1220522Y1612152D01*
X-1233898Y1612152D02*
X-1233898Y1615228D01*
X-1220522Y1615228D01*
X-1220522Y1612152D01*
X-1220522Y1613126D02*
X-1233898Y1613126D01*
X-1233898Y1614100D02*
X-1220522Y1614100D01*
X-1220522Y1615074D02*
X-1233898Y1615074D01*
X-1233898Y1605652D02*
X-1220522Y1605652D01*
X-1233898Y1605652D02*
X-1233898Y1608728D01*
X-1220522Y1608728D01*
X-1220522Y1605652D01*
X-1220522Y1606626D02*
X-1233898Y1606626D01*
X-1233898Y1607600D02*
X-1220522Y1607600D01*
X-1220522Y1608574D02*
X-1233898Y1608574D01*
X-1233898Y1599152D02*
X-1220522Y1599152D01*
X-1233898Y1599152D02*
X-1233898Y1602228D01*
X-1220522Y1602228D01*
X-1220522Y1599152D01*
X-1220522Y1600126D02*
X-1233898Y1600126D01*
X-1233898Y1601100D02*
X-1220522Y1601100D01*
X-1220522Y1602074D02*
X-1233898Y1602074D01*
X-1233898Y1592652D02*
X-1220522Y1592652D01*
X-1233898Y1592652D02*
X-1233898Y1595728D01*
X-1220522Y1595728D01*
X-1220522Y1592652D01*
X-1220522Y1593626D02*
X-1233898Y1593626D01*
X-1233898Y1594600D02*
X-1220522Y1594600D01*
X-1220522Y1595574D02*
X-1233898Y1595574D01*
X-1176198Y1592652D02*
X-1162822Y1592652D01*
X-1176198Y1592652D02*
X-1176198Y1595728D01*
X-1162822Y1595728D01*
X-1162822Y1592652D01*
X-1162822Y1593626D02*
X-1176198Y1593626D01*
X-1176198Y1594600D02*
X-1162822Y1594600D01*
X-1162822Y1595574D02*
X-1176198Y1595574D01*
X-1176198Y1599152D02*
X-1162822Y1599152D01*
X-1176198Y1599152D02*
X-1176198Y1602228D01*
X-1162822Y1602228D01*
X-1162822Y1599152D01*
X-1162822Y1600126D02*
X-1176198Y1600126D01*
X-1176198Y1601100D02*
X-1162822Y1601100D01*
X-1162822Y1602074D02*
X-1176198Y1602074D01*
X-1176198Y1605652D02*
X-1162822Y1605652D01*
X-1176198Y1605652D02*
X-1176198Y1608728D01*
X-1162822Y1608728D01*
X-1162822Y1605652D01*
X-1162822Y1606626D02*
X-1176198Y1606626D01*
X-1176198Y1607600D02*
X-1162822Y1607600D01*
X-1162822Y1608574D02*
X-1176198Y1608574D01*
X-1176198Y1612152D02*
X-1162822Y1612152D01*
X-1176198Y1612152D02*
X-1176198Y1615228D01*
X-1162822Y1615228D01*
X-1162822Y1612152D01*
X-1162822Y1613126D02*
X-1176198Y1613126D01*
X-1176198Y1614100D02*
X-1162822Y1614100D01*
X-1162822Y1615074D02*
X-1176198Y1615074D01*
X-1176198Y1618652D02*
X-1162822Y1618652D01*
X-1176198Y1618652D02*
X-1176198Y1621728D01*
X-1162822Y1621728D01*
X-1162822Y1618652D01*
X-1162822Y1619626D02*
X-1176198Y1619626D01*
X-1176198Y1620600D02*
X-1162822Y1620600D01*
X-1162822Y1621574D02*
X-1176198Y1621574D01*
X-1176198Y1625152D02*
X-1162822Y1625152D01*
X-1176198Y1625152D02*
X-1176198Y1628228D01*
X-1162822Y1628228D01*
X-1162822Y1625152D01*
X-1162822Y1626126D02*
X-1176198Y1626126D01*
X-1176198Y1627100D02*
X-1162822Y1627100D01*
X-1162822Y1628074D02*
X-1176198Y1628074D01*
X-1176198Y1631652D02*
X-1162822Y1631652D01*
X-1176198Y1631652D02*
X-1176198Y1634728D01*
X-1162822Y1634728D01*
X-1162822Y1631652D01*
X-1162822Y1632626D02*
X-1176198Y1632626D01*
X-1176198Y1633600D02*
X-1162822Y1633600D01*
X-1162822Y1634574D02*
X-1176198Y1634574D01*
X-1176198Y1638152D02*
X-1162822Y1638152D01*
X-1176198Y1638152D02*
X-1176198Y1641228D01*
X-1162822Y1641228D01*
X-1162822Y1638152D01*
X-1162822Y1639126D02*
X-1176198Y1639126D01*
X-1176198Y1640100D02*
X-1162822Y1640100D01*
X-1162822Y1641074D02*
X-1176198Y1641074D01*
X-1176198Y1644652D02*
X-1162822Y1644652D01*
X-1176198Y1644652D02*
X-1176198Y1647728D01*
X-1162822Y1647728D01*
X-1162822Y1644652D01*
X-1162822Y1645626D02*
X-1176198Y1645626D01*
X-1176198Y1646600D02*
X-1162822Y1646600D01*
X-1162822Y1647574D02*
X-1176198Y1647574D01*
X-1176198Y1651152D02*
X-1162822Y1651152D01*
X-1176198Y1651152D02*
X-1176198Y1654228D01*
X-1162822Y1654228D01*
X-1162822Y1651152D01*
X-1162822Y1652126D02*
X-1176198Y1652126D01*
X-1176198Y1653100D02*
X-1162822Y1653100D01*
X-1162822Y1654074D02*
X-1176198Y1654074D01*
D15*
X-1275600Y1627570D03*
X-1290840Y1627570D03*
X-1275600Y1643534D03*
X-1290840Y1643534D03*
D16*
X-1289038Y1671966D03*
X-1278878Y1671966D03*
D15*
X-1259828Y1686228D03*
X-1244588Y1686228D03*
X-1291324Y1686266D03*
X-1276084Y1686266D03*
D16*
X-1278902Y1658876D03*
X-1289062Y1658876D03*
D17*
X-1177544Y1692656D03*
X-1177544Y1707896D03*
D18*
X-1198118Y1690370D03*
X-1198118Y1710690D03*
D17*
X-1255268Y1592834D03*
X-1255268Y1608074D03*
D16*
X-1287018Y1592834D03*
X-1276858Y1592834D03*
D15*
X-1287018Y1608074D03*
X-1271778Y1608074D03*
D19*
X-1024636Y1558006D03*
X-1024636Y1586006D03*
D17*
X-1303528Y1606804D03*
X-1303528Y1591564D03*
X-1318768Y1591564D03*
X-1318768Y1606804D03*
D20*
X-827786Y1598216D03*
X-827786Y1667716D03*
D21*
X-939800Y1687204D03*
X-939800Y1577204D03*
D22*
X-1141730Y1640720D03*
X-1141730Y1625720D03*
D17*
X-1113282Y1639062D03*
X-1113282Y1623822D03*
X-1128522Y1639316D03*
X-1128522Y1624076D03*
D10*
X-1036344Y1363090D03*
X-1036344Y1350390D03*
X-1036344Y1337690D03*
X-1036344Y1324990D03*
D11*
X-979674Y1363090D03*
X-979674Y1350390D03*
X-979674Y1337690D03*
X-979674Y1324990D03*
D12*
X-992834Y1349270D03*
X-992834Y1338810D03*
X-992834Y1359730D03*
X-992834Y1328350D03*
X-1009274Y1328350D03*
X-1009274Y1338810D03*
X-1009274Y1349270D03*
X-1009274Y1359730D03*
D10*
X-1083512Y1424558D03*
X-1083512Y1411858D03*
X-1083512Y1399158D03*
X-1083512Y1386458D03*
D11*
X-1026842Y1424558D03*
X-1026842Y1411858D03*
X-1026842Y1399158D03*
X-1026842Y1386458D03*
D12*
X-1040002Y1410738D03*
X-1040002Y1400278D03*
X-1040002Y1421198D03*
X-1040002Y1389818D03*
X-1056442Y1389818D03*
X-1056442Y1400278D03*
X-1056442Y1410738D03*
X-1056442Y1421198D03*
D13*
X-912380Y1406780D03*
D14*
X-890218Y1379068D02*
X-876842Y1379068D01*
X-876842Y1375992D01*
X-890218Y1375992D01*
X-890218Y1379068D01*
X-890218Y1376966D02*
X-876842Y1376966D01*
X-876842Y1377940D02*
X-890218Y1377940D01*
X-890218Y1378914D02*
X-876842Y1378914D01*
X-876842Y1385568D02*
X-890218Y1385568D01*
X-876842Y1385568D02*
X-876842Y1382492D01*
X-890218Y1382492D01*
X-890218Y1385568D01*
X-890218Y1383466D02*
X-876842Y1383466D01*
X-876842Y1384440D02*
X-890218Y1384440D01*
X-890218Y1385414D02*
X-876842Y1385414D01*
X-876842Y1392068D02*
X-890218Y1392068D01*
X-876842Y1392068D02*
X-876842Y1388992D01*
X-890218Y1388992D01*
X-890218Y1392068D01*
X-890218Y1389966D02*
X-876842Y1389966D01*
X-876842Y1390940D02*
X-890218Y1390940D01*
X-890218Y1391914D02*
X-876842Y1391914D01*
X-876842Y1398568D02*
X-890218Y1398568D01*
X-876842Y1398568D02*
X-876842Y1395492D01*
X-890218Y1395492D01*
X-890218Y1398568D01*
X-890218Y1396466D02*
X-876842Y1396466D01*
X-876842Y1397440D02*
X-890218Y1397440D01*
X-890218Y1398414D02*
X-876842Y1398414D01*
X-876842Y1405068D02*
X-890218Y1405068D01*
X-876842Y1405068D02*
X-876842Y1401992D01*
X-890218Y1401992D01*
X-890218Y1405068D01*
X-890218Y1402966D02*
X-876842Y1402966D01*
X-876842Y1403940D02*
X-890218Y1403940D01*
X-890218Y1404914D02*
X-876842Y1404914D01*
X-876842Y1411568D02*
X-890218Y1411568D01*
X-876842Y1411568D02*
X-876842Y1408492D01*
X-890218Y1408492D01*
X-890218Y1411568D01*
X-890218Y1409466D02*
X-876842Y1409466D01*
X-876842Y1410440D02*
X-890218Y1410440D01*
X-890218Y1411414D02*
X-876842Y1411414D01*
X-876842Y1418068D02*
X-890218Y1418068D01*
X-876842Y1418068D02*
X-876842Y1414992D01*
X-890218Y1414992D01*
X-890218Y1418068D01*
X-890218Y1415966D02*
X-876842Y1415966D01*
X-876842Y1416940D02*
X-890218Y1416940D01*
X-890218Y1417914D02*
X-876842Y1417914D01*
X-876842Y1424568D02*
X-890218Y1424568D01*
X-876842Y1424568D02*
X-876842Y1421492D01*
X-890218Y1421492D01*
X-890218Y1424568D01*
X-890218Y1422466D02*
X-876842Y1422466D01*
X-876842Y1423440D02*
X-890218Y1423440D01*
X-890218Y1424414D02*
X-876842Y1424414D01*
X-876842Y1431068D02*
X-890218Y1431068D01*
X-876842Y1431068D02*
X-876842Y1427992D01*
X-890218Y1427992D01*
X-890218Y1431068D01*
X-890218Y1428966D02*
X-876842Y1428966D01*
X-876842Y1429940D02*
X-890218Y1429940D01*
X-890218Y1430914D02*
X-876842Y1430914D01*
X-876842Y1437568D02*
X-890218Y1437568D01*
X-876842Y1437568D02*
X-876842Y1434492D01*
X-890218Y1434492D01*
X-890218Y1437568D01*
X-890218Y1435466D02*
X-876842Y1435466D01*
X-876842Y1436440D02*
X-890218Y1436440D01*
X-890218Y1437414D02*
X-876842Y1437414D01*
X-934542Y1437568D02*
X-947918Y1437568D01*
X-934542Y1437568D02*
X-934542Y1434492D01*
X-947918Y1434492D01*
X-947918Y1437568D01*
X-947918Y1435466D02*
X-934542Y1435466D01*
X-934542Y1436440D02*
X-947918Y1436440D01*
X-947918Y1437414D02*
X-934542Y1437414D01*
X-934542Y1431068D02*
X-947918Y1431068D01*
X-934542Y1431068D02*
X-934542Y1427992D01*
X-947918Y1427992D01*
X-947918Y1431068D01*
X-947918Y1428966D02*
X-934542Y1428966D01*
X-934542Y1429940D02*
X-947918Y1429940D01*
X-947918Y1430914D02*
X-934542Y1430914D01*
X-934542Y1424568D02*
X-947918Y1424568D01*
X-934542Y1424568D02*
X-934542Y1421492D01*
X-947918Y1421492D01*
X-947918Y1424568D01*
X-947918Y1422466D02*
X-934542Y1422466D01*
X-934542Y1423440D02*
X-947918Y1423440D01*
X-947918Y1424414D02*
X-934542Y1424414D01*
X-934542Y1418068D02*
X-947918Y1418068D01*
X-934542Y1418068D02*
X-934542Y1414992D01*
X-947918Y1414992D01*
X-947918Y1418068D01*
X-947918Y1415966D02*
X-934542Y1415966D01*
X-934542Y1416940D02*
X-947918Y1416940D01*
X-947918Y1417914D02*
X-934542Y1417914D01*
X-934542Y1411568D02*
X-947918Y1411568D01*
X-934542Y1411568D02*
X-934542Y1408492D01*
X-947918Y1408492D01*
X-947918Y1411568D01*
X-947918Y1409466D02*
X-934542Y1409466D01*
X-934542Y1410440D02*
X-947918Y1410440D01*
X-947918Y1411414D02*
X-934542Y1411414D01*
X-934542Y1405068D02*
X-947918Y1405068D01*
X-934542Y1405068D02*
X-934542Y1401992D01*
X-947918Y1401992D01*
X-947918Y1405068D01*
X-947918Y1402966D02*
X-934542Y1402966D01*
X-934542Y1403940D02*
X-947918Y1403940D01*
X-947918Y1404914D02*
X-934542Y1404914D01*
X-934542Y1398568D02*
X-947918Y1398568D01*
X-934542Y1398568D02*
X-934542Y1395492D01*
X-947918Y1395492D01*
X-947918Y1398568D01*
X-947918Y1396466D02*
X-934542Y1396466D01*
X-934542Y1397440D02*
X-947918Y1397440D01*
X-947918Y1398414D02*
X-934542Y1398414D01*
X-934542Y1392068D02*
X-947918Y1392068D01*
X-934542Y1392068D02*
X-934542Y1388992D01*
X-947918Y1388992D01*
X-947918Y1392068D01*
X-947918Y1389966D02*
X-934542Y1389966D01*
X-934542Y1390940D02*
X-947918Y1390940D01*
X-947918Y1391914D02*
X-934542Y1391914D01*
X-934542Y1385568D02*
X-947918Y1385568D01*
X-934542Y1385568D02*
X-934542Y1382492D01*
X-947918Y1382492D01*
X-947918Y1385568D01*
X-947918Y1383466D02*
X-934542Y1383466D01*
X-934542Y1384440D02*
X-947918Y1384440D01*
X-947918Y1385414D02*
X-934542Y1385414D01*
X-934542Y1379068D02*
X-947918Y1379068D01*
X-934542Y1379068D02*
X-934542Y1375992D01*
X-947918Y1375992D01*
X-947918Y1379068D01*
X-947918Y1376966D02*
X-934542Y1376966D01*
X-934542Y1377940D02*
X-947918Y1377940D01*
X-947918Y1378914D02*
X-934542Y1378914D01*
D15*
X-835140Y1402650D03*
X-819900Y1402650D03*
X-835140Y1386686D03*
X-819900Y1386686D03*
D16*
X-821702Y1358254D03*
X-831862Y1358254D03*
D15*
X-850912Y1343992D03*
X-866152Y1343992D03*
X-819416Y1343954D03*
X-834656Y1343954D03*
D16*
X-831838Y1371344D03*
X-821678Y1371344D03*
D17*
X-933196Y1337564D03*
X-933196Y1322324D03*
D18*
X-912622Y1339850D03*
X-912622Y1319530D03*
D17*
X-855472Y1437386D03*
X-855472Y1422146D03*
D16*
X-823722Y1437386D03*
X-833882Y1437386D03*
D15*
X-823722Y1422146D03*
X-838962Y1422146D03*
D19*
X-1086104Y1472214D03*
X-1086104Y1444214D03*
D17*
X-807212Y1423416D03*
X-807212Y1438656D03*
X-791972Y1438656D03*
X-791972Y1423416D03*
D20*
X-1282954Y1432004D03*
X-1282954Y1362504D03*
D21*
X-1170940Y1343016D03*
X-1170940Y1453016D03*
D22*
X-969010Y1389500D03*
X-969010Y1404500D03*
D17*
X-997458Y1391158D03*
X-997458Y1406398D03*
X-982218Y1390904D03*
X-982218Y1406144D03*
D23*
X-1140460Y1170940D03*
D24*
X-1120910Y1154590D02*
X-1106010Y1154590D01*
X-1106010Y1149190D01*
X-1120910Y1149190D01*
X-1120910Y1154590D01*
X-1120910Y1149760D02*
X-1106010Y1149760D01*
X-1106010Y1150330D02*
X-1120910Y1150330D01*
X-1120910Y1150900D02*
X-1106010Y1150900D01*
X-1106010Y1151470D02*
X-1120910Y1151470D01*
X-1120910Y1152040D02*
X-1106010Y1152040D01*
X-1106010Y1152610D02*
X-1120910Y1152610D01*
X-1120910Y1153180D02*
X-1106010Y1153180D01*
X-1106010Y1153750D02*
X-1120910Y1153750D01*
X-1120910Y1154320D02*
X-1106010Y1154320D01*
X-1106010Y1167290D02*
X-1120910Y1167290D01*
X-1106010Y1167290D02*
X-1106010Y1161890D01*
X-1120910Y1161890D01*
X-1120910Y1167290D01*
X-1120910Y1162460D02*
X-1106010Y1162460D01*
X-1106010Y1163030D02*
X-1120910Y1163030D01*
X-1120910Y1163600D02*
X-1106010Y1163600D01*
X-1106010Y1164170D02*
X-1120910Y1164170D01*
X-1120910Y1164740D02*
X-1106010Y1164740D01*
X-1106010Y1165310D02*
X-1120910Y1165310D01*
X-1120910Y1165880D02*
X-1106010Y1165880D01*
X-1106010Y1166450D02*
X-1120910Y1166450D01*
X-1120910Y1167020D02*
X-1106010Y1167020D01*
X-1106010Y1179990D02*
X-1120910Y1179990D01*
X-1106010Y1179990D02*
X-1106010Y1174590D01*
X-1120910Y1174590D01*
X-1120910Y1179990D01*
X-1120910Y1175160D02*
X-1106010Y1175160D01*
X-1106010Y1175730D02*
X-1120910Y1175730D01*
X-1120910Y1176300D02*
X-1106010Y1176300D01*
X-1106010Y1176870D02*
X-1120910Y1176870D01*
X-1120910Y1177440D02*
X-1106010Y1177440D01*
X-1106010Y1178010D02*
X-1120910Y1178010D01*
X-1120910Y1178580D02*
X-1106010Y1178580D01*
X-1106010Y1179150D02*
X-1120910Y1179150D01*
X-1120910Y1179720D02*
X-1106010Y1179720D01*
X-1106010Y1192690D02*
X-1120910Y1192690D01*
X-1106010Y1192690D02*
X-1106010Y1187290D01*
X-1120910Y1187290D01*
X-1120910Y1192690D01*
X-1120910Y1187860D02*
X-1106010Y1187860D01*
X-1106010Y1188430D02*
X-1120910Y1188430D01*
X-1120910Y1189000D02*
X-1106010Y1189000D01*
X-1106010Y1189570D02*
X-1120910Y1189570D01*
X-1120910Y1190140D02*
X-1106010Y1190140D01*
X-1106010Y1190710D02*
X-1120910Y1190710D01*
X-1120910Y1191280D02*
X-1106010Y1191280D01*
X-1106010Y1191850D02*
X-1120910Y1191850D01*
X-1120910Y1192420D02*
X-1106010Y1192420D01*
X-1160010Y1192690D02*
X-1174910Y1192690D01*
X-1160010Y1192690D02*
X-1160010Y1187290D01*
X-1174910Y1187290D01*
X-1174910Y1192690D01*
X-1174910Y1187860D02*
X-1160010Y1187860D01*
X-1160010Y1188430D02*
X-1174910Y1188430D01*
X-1174910Y1189000D02*
X-1160010Y1189000D01*
X-1160010Y1189570D02*
X-1174910Y1189570D01*
X-1174910Y1190140D02*
X-1160010Y1190140D01*
X-1160010Y1190710D02*
X-1174910Y1190710D01*
X-1174910Y1191280D02*
X-1160010Y1191280D01*
X-1160010Y1191850D02*
X-1174910Y1191850D01*
X-1174910Y1192420D02*
X-1160010Y1192420D01*
X-1160010Y1179990D02*
X-1174910Y1179990D01*
X-1160010Y1179990D02*
X-1160010Y1174590D01*
X-1174910Y1174590D01*
X-1174910Y1179990D01*
X-1174910Y1175160D02*
X-1160010Y1175160D01*
X-1160010Y1175730D02*
X-1174910Y1175730D01*
X-1174910Y1176300D02*
X-1160010Y1176300D01*
X-1160010Y1176870D02*
X-1174910Y1176870D01*
X-1174910Y1177440D02*
X-1160010Y1177440D01*
X-1160010Y1178010D02*
X-1174910Y1178010D01*
X-1174910Y1178580D02*
X-1160010Y1178580D01*
X-1160010Y1179150D02*
X-1174910Y1179150D01*
X-1174910Y1179720D02*
X-1160010Y1179720D01*
X-1160010Y1167290D02*
X-1174910Y1167290D01*
X-1160010Y1167290D02*
X-1160010Y1161890D01*
X-1174910Y1161890D01*
X-1174910Y1167290D01*
X-1174910Y1162460D02*
X-1160010Y1162460D01*
X-1160010Y1163030D02*
X-1174910Y1163030D01*
X-1174910Y1163600D02*
X-1160010Y1163600D01*
X-1160010Y1164170D02*
X-1174910Y1164170D01*
X-1174910Y1164740D02*
X-1160010Y1164740D01*
X-1160010Y1165310D02*
X-1174910Y1165310D01*
X-1174910Y1165880D02*
X-1160010Y1165880D01*
X-1160010Y1166450D02*
X-1174910Y1166450D01*
X-1174910Y1167020D02*
X-1160010Y1167020D01*
X-1160010Y1154590D02*
X-1174910Y1154590D01*
X-1160010Y1154590D02*
X-1160010Y1149190D01*
X-1174910Y1149190D01*
X-1174910Y1154590D01*
X-1174910Y1149760D02*
X-1160010Y1149760D01*
X-1160010Y1150330D02*
X-1174910Y1150330D01*
X-1174910Y1150900D02*
X-1160010Y1150900D01*
X-1160010Y1151470D02*
X-1174910Y1151470D01*
X-1174910Y1152040D02*
X-1160010Y1152040D01*
X-1160010Y1152610D02*
X-1174910Y1152610D01*
X-1174910Y1153180D02*
X-1160010Y1153180D01*
X-1160010Y1153750D02*
X-1174910Y1153750D01*
X-1174910Y1154320D02*
X-1160010Y1154320D01*
D19*
X-1297940Y1149320D03*
X-1297940Y1177320D03*
X-1320800Y1149320D03*
X-1320800Y1177320D03*
D25*
X-1186180Y1166980D03*
X-1186180Y1179980D03*
D26*
X-1118720Y1130300D03*
X-1131720Y1130300D03*
D27*
X-1209040Y1150150D03*
X-1209040Y1186650D03*
D28*
X-1186300Y1103630D03*
X-1226700Y1103630D03*
D29*
X-1257300Y1121660D03*
X-1257300Y1184660D03*
D26*
X-1266040Y1097280D03*
X-1279040Y1097280D03*
D30*
X-1092200Y1189910D03*
X-1092200Y1179910D03*
D31*
X-1102280Y1203960D03*
X-1092280Y1203960D03*
D23*
X-817880Y1183640D03*
D24*
X-798330Y1167290D02*
X-783430Y1167290D01*
X-783430Y1161890D01*
X-798330Y1161890D01*
X-798330Y1167290D01*
X-798330Y1162460D02*
X-783430Y1162460D01*
X-783430Y1163030D02*
X-798330Y1163030D01*
X-798330Y1163600D02*
X-783430Y1163600D01*
X-783430Y1164170D02*
X-798330Y1164170D01*
X-798330Y1164740D02*
X-783430Y1164740D01*
X-783430Y1165310D02*
X-798330Y1165310D01*
X-798330Y1165880D02*
X-783430Y1165880D01*
X-783430Y1166450D02*
X-798330Y1166450D01*
X-798330Y1167020D02*
X-783430Y1167020D01*
X-783430Y1179990D02*
X-798330Y1179990D01*
X-783430Y1179990D02*
X-783430Y1174590D01*
X-798330Y1174590D01*
X-798330Y1179990D01*
X-798330Y1175160D02*
X-783430Y1175160D01*
X-783430Y1175730D02*
X-798330Y1175730D01*
X-798330Y1176300D02*
X-783430Y1176300D01*
X-783430Y1176870D02*
X-798330Y1176870D01*
X-798330Y1177440D02*
X-783430Y1177440D01*
X-783430Y1178010D02*
X-798330Y1178010D01*
X-798330Y1178580D02*
X-783430Y1178580D01*
X-783430Y1179150D02*
X-798330Y1179150D01*
X-798330Y1179720D02*
X-783430Y1179720D01*
X-783430Y1192690D02*
X-798330Y1192690D01*
X-783430Y1192690D02*
X-783430Y1187290D01*
X-798330Y1187290D01*
X-798330Y1192690D01*
X-798330Y1187860D02*
X-783430Y1187860D01*
X-783430Y1188430D02*
X-798330Y1188430D01*
X-798330Y1189000D02*
X-783430Y1189000D01*
X-783430Y1189570D02*
X-798330Y1189570D01*
X-798330Y1190140D02*
X-783430Y1190140D01*
X-783430Y1190710D02*
X-798330Y1190710D01*
X-798330Y1191280D02*
X-783430Y1191280D01*
X-783430Y1191850D02*
X-798330Y1191850D01*
X-798330Y1192420D02*
X-783430Y1192420D01*
X-783430Y1205390D02*
X-798330Y1205390D01*
X-783430Y1205390D02*
X-783430Y1199990D01*
X-798330Y1199990D01*
X-798330Y1205390D01*
X-798330Y1200560D02*
X-783430Y1200560D01*
X-783430Y1201130D02*
X-798330Y1201130D01*
X-798330Y1201700D02*
X-783430Y1201700D01*
X-783430Y1202270D02*
X-798330Y1202270D01*
X-798330Y1202840D02*
X-783430Y1202840D01*
X-783430Y1203410D02*
X-798330Y1203410D01*
X-798330Y1203980D02*
X-783430Y1203980D01*
X-783430Y1204550D02*
X-798330Y1204550D01*
X-798330Y1205120D02*
X-783430Y1205120D01*
X-837430Y1205390D02*
X-852330Y1205390D01*
X-837430Y1205390D02*
X-837430Y1199990D01*
X-852330Y1199990D01*
X-852330Y1205390D01*
X-852330Y1200560D02*
X-837430Y1200560D01*
X-837430Y1201130D02*
X-852330Y1201130D01*
X-852330Y1201700D02*
X-837430Y1201700D01*
X-837430Y1202270D02*
X-852330Y1202270D01*
X-852330Y1202840D02*
X-837430Y1202840D01*
X-837430Y1203410D02*
X-852330Y1203410D01*
X-852330Y1203980D02*
X-837430Y1203980D01*
X-837430Y1204550D02*
X-852330Y1204550D01*
X-852330Y1205120D02*
X-837430Y1205120D01*
X-837430Y1192690D02*
X-852330Y1192690D01*
X-837430Y1192690D02*
X-837430Y1187290D01*
X-852330Y1187290D01*
X-852330Y1192690D01*
X-852330Y1187860D02*
X-837430Y1187860D01*
X-837430Y1188430D02*
X-852330Y1188430D01*
X-852330Y1189000D02*
X-837430Y1189000D01*
X-837430Y1189570D02*
X-852330Y1189570D01*
X-852330Y1190140D02*
X-837430Y1190140D01*
X-837430Y1190710D02*
X-852330Y1190710D01*
X-852330Y1191280D02*
X-837430Y1191280D01*
X-837430Y1191850D02*
X-852330Y1191850D01*
X-852330Y1192420D02*
X-837430Y1192420D01*
X-837430Y1179990D02*
X-852330Y1179990D01*
X-837430Y1179990D02*
X-837430Y1174590D01*
X-852330Y1174590D01*
X-852330Y1179990D01*
X-852330Y1175160D02*
X-837430Y1175160D01*
X-837430Y1175730D02*
X-852330Y1175730D01*
X-852330Y1176300D02*
X-837430Y1176300D01*
X-837430Y1176870D02*
X-852330Y1176870D01*
X-852330Y1177440D02*
X-837430Y1177440D01*
X-837430Y1178010D02*
X-852330Y1178010D01*
X-852330Y1178580D02*
X-837430Y1178580D01*
X-837430Y1179150D02*
X-852330Y1179150D01*
X-852330Y1179720D02*
X-837430Y1179720D01*
X-837430Y1167290D02*
X-852330Y1167290D01*
X-837430Y1167290D02*
X-837430Y1161890D01*
X-852330Y1161890D01*
X-852330Y1167290D01*
X-852330Y1162460D02*
X-837430Y1162460D01*
X-837430Y1163030D02*
X-852330Y1163030D01*
X-852330Y1163600D02*
X-837430Y1163600D01*
X-837430Y1164170D02*
X-852330Y1164170D01*
X-852330Y1164740D02*
X-837430Y1164740D01*
X-837430Y1165310D02*
X-852330Y1165310D01*
X-852330Y1165880D02*
X-837430Y1165880D01*
X-837430Y1166450D02*
X-852330Y1166450D01*
X-852330Y1167020D02*
X-837430Y1167020D01*
D19*
X-975360Y1162020D03*
X-975360Y1190020D03*
X-998220Y1162020D03*
X-998220Y1190020D03*
D25*
X-863600Y1179680D03*
X-863600Y1192680D03*
D26*
X-796140Y1143000D03*
X-809140Y1143000D03*
D27*
X-886460Y1162850D03*
X-886460Y1199350D03*
D28*
X-863720Y1116330D03*
X-904120Y1116330D03*
D29*
X-934720Y1134360D03*
X-934720Y1197360D03*
D26*
X-943460Y1109980D03*
X-956460Y1109980D03*
D30*
X-769620Y1202610D03*
X-769620Y1192610D03*
D31*
X-779700Y1216660D03*
X-769700Y1216660D03*
M02*
