G04 EAGLE Gerber RS-274X export*
G75*
%MOMM*%
%FSLAX34Y34*%
%LPD*%
%INBottom Copper*%
%IPPOS*%
%AMOC8*
5,1,8,0,0,1.08239X$1,22.5*%
G01*
%ADD10C,1.950000*%
%ADD11R,1.270000X0.635000*%
%ADD12C,1.676400*%
%ADD13C,1.524000*%
%ADD14C,0.756400*%
%ADD15C,0.381000*%
%ADD16C,0.254000*%
%ADD17C,0.304800*%

G36*
X502151Y3818D02*
X502151Y3818D01*
X502218Y3815D01*
X502345Y3837D01*
X502473Y3851D01*
X502536Y3871D01*
X502602Y3882D01*
X502721Y3930D01*
X502844Y3969D01*
X502902Y4001D01*
X502964Y4026D01*
X503071Y4097D01*
X503184Y4160D01*
X503234Y4204D01*
X503290Y4240D01*
X503381Y4331D01*
X503478Y4416D01*
X503518Y4469D01*
X503565Y4516D01*
X503635Y4624D01*
X503713Y4727D01*
X503741Y4787D01*
X503778Y4843D01*
X503825Y4963D01*
X503880Y5079D01*
X503896Y5144D01*
X503920Y5206D01*
X503932Y5292D01*
X503972Y5458D01*
X503977Y5628D01*
X503989Y5715D01*
X503989Y501525D01*
X503982Y501591D01*
X503985Y501658D01*
X503963Y501785D01*
X503949Y501913D01*
X503929Y501976D01*
X503918Y502042D01*
X503870Y502161D01*
X503831Y502284D01*
X503799Y502342D01*
X503774Y502404D01*
X503703Y502511D01*
X503640Y502624D01*
X503596Y502674D01*
X503560Y502730D01*
X503469Y502821D01*
X503384Y502918D01*
X503331Y502958D01*
X503284Y503005D01*
X503176Y503075D01*
X503073Y503153D01*
X503013Y503181D01*
X502957Y503218D01*
X502837Y503265D01*
X502721Y503320D01*
X502656Y503336D01*
X502594Y503360D01*
X502508Y503372D01*
X502342Y503412D01*
X502172Y503417D01*
X502085Y503429D01*
X5715Y503429D01*
X5649Y503422D01*
X5582Y503425D01*
X5455Y503403D01*
X5327Y503389D01*
X5264Y503369D01*
X5198Y503358D01*
X5079Y503310D01*
X4956Y503271D01*
X4898Y503239D01*
X4836Y503214D01*
X4729Y503143D01*
X4616Y503080D01*
X4566Y503036D01*
X4510Y503000D01*
X4419Y502909D01*
X4322Y502824D01*
X4282Y502771D01*
X4235Y502724D01*
X4165Y502616D01*
X4087Y502513D01*
X4059Y502453D01*
X4022Y502397D01*
X3975Y502277D01*
X3920Y502161D01*
X3904Y502096D01*
X3880Y502034D01*
X3868Y501948D01*
X3828Y501782D01*
X3823Y501612D01*
X3811Y501525D01*
X3811Y5715D01*
X3818Y5649D01*
X3815Y5582D01*
X3837Y5455D01*
X3851Y5327D01*
X3871Y5264D01*
X3882Y5198D01*
X3930Y5079D01*
X3969Y4956D01*
X4001Y4898D01*
X4026Y4836D01*
X4097Y4729D01*
X4160Y4616D01*
X4204Y4566D01*
X4240Y4510D01*
X4331Y4419D01*
X4416Y4322D01*
X4469Y4282D01*
X4516Y4235D01*
X4624Y4165D01*
X4727Y4087D01*
X4787Y4059D01*
X4843Y4022D01*
X4963Y3975D01*
X5079Y3920D01*
X5144Y3904D01*
X5206Y3880D01*
X5292Y3868D01*
X5458Y3828D01*
X5628Y3823D01*
X5715Y3811D01*
X502085Y3811D01*
X502151Y3818D01*
G37*
%LPC*%
G36*
X72590Y305561D02*
X72590Y305561D01*
X70357Y307794D01*
X70357Y354384D01*
X72590Y356617D01*
X325801Y356617D01*
X325900Y356627D01*
X325999Y356627D01*
X326093Y356647D01*
X326189Y356657D01*
X326283Y356687D01*
X326381Y356707D01*
X326469Y356746D01*
X326560Y356775D01*
X326647Y356824D01*
X326738Y356863D01*
X326796Y356908D01*
X326900Y356966D01*
X327081Y357124D01*
X327147Y357174D01*
X381712Y411739D01*
X381774Y411816D01*
X381845Y411886D01*
X381897Y411967D01*
X381957Y412041D01*
X382003Y412129D01*
X382058Y412213D01*
X382093Y412302D01*
X382137Y412387D01*
X382164Y412483D01*
X382200Y412576D01*
X382210Y412648D01*
X382242Y412763D01*
X382258Y413003D01*
X382269Y413085D01*
X382269Y457554D01*
X382266Y457587D01*
X382268Y457621D01*
X382246Y457781D01*
X382229Y457942D01*
X382219Y457974D01*
X382215Y458007D01*
X382160Y458160D01*
X382111Y458314D01*
X382095Y458342D01*
X382084Y458374D01*
X382000Y458512D01*
X381920Y458653D01*
X381898Y458678D01*
X381881Y458707D01*
X381770Y458825D01*
X381664Y458947D01*
X381637Y458967D01*
X381615Y458991D01*
X381482Y459084D01*
X381353Y459182D01*
X381323Y459196D01*
X381296Y459216D01*
X381147Y459280D01*
X381001Y459349D01*
X380968Y459357D01*
X380938Y459370D01*
X380780Y459403D01*
X380622Y459441D01*
X380589Y459442D01*
X380556Y459449D01*
X380394Y459449D01*
X380232Y459454D01*
X380200Y459448D01*
X380166Y459448D01*
X380008Y459415D01*
X379848Y459387D01*
X379818Y459375D01*
X379785Y459368D01*
X379636Y459303D01*
X379486Y459244D01*
X379458Y459225D01*
X379428Y459212D01*
X379361Y459161D01*
X379161Y459029D01*
X379077Y458945D01*
X379018Y458901D01*
X378522Y458404D01*
X373537Y456339D01*
X368143Y456339D01*
X363158Y458404D01*
X359344Y462218D01*
X357279Y467203D01*
X357279Y472597D01*
X359344Y477582D01*
X363158Y481396D01*
X368143Y483461D01*
X373537Y483461D01*
X378522Y481396D01*
X379018Y480899D01*
X379044Y480878D01*
X379066Y480853D01*
X379195Y480756D01*
X379321Y480653D01*
X379350Y480638D01*
X379377Y480618D01*
X379523Y480549D01*
X379667Y480474D01*
X379699Y480465D01*
X379729Y480451D01*
X379886Y480413D01*
X380042Y480369D01*
X380076Y480367D01*
X380108Y480359D01*
X380270Y480354D01*
X380431Y480343D01*
X380464Y480347D01*
X380498Y480346D01*
X380657Y480374D01*
X380817Y480396D01*
X380849Y480407D01*
X380882Y480413D01*
X381032Y480472D01*
X381185Y480527D01*
X381213Y480544D01*
X381244Y480556D01*
X381379Y480645D01*
X381517Y480730D01*
X381542Y480752D01*
X381570Y480771D01*
X381684Y480886D01*
X381802Y480996D01*
X381821Y481023D01*
X381845Y481047D01*
X381933Y481183D01*
X382026Y481315D01*
X382039Y481345D01*
X382058Y481373D01*
X382117Y481524D01*
X382181Y481673D01*
X382188Y481705D01*
X382200Y481736D01*
X382211Y481819D01*
X382260Y482054D01*
X382259Y482173D01*
X382269Y482246D01*
X382269Y484432D01*
X384502Y486665D01*
X433886Y486665D01*
X436119Y484432D01*
X436119Y355800D01*
X429568Y349249D01*
X391241Y349249D01*
X391142Y349239D01*
X391043Y349239D01*
X390949Y349219D01*
X390853Y349209D01*
X390759Y349179D01*
X390661Y349159D01*
X390573Y349120D01*
X390482Y349091D01*
X390395Y349042D01*
X390304Y349003D01*
X390246Y348958D01*
X390142Y348900D01*
X389961Y348742D01*
X389895Y348692D01*
X346764Y305561D01*
X72590Y305561D01*
G37*
%LPD*%
G36*
X345188Y309369D02*
X345188Y309369D01*
X345190Y309368D01*
X388876Y353055D01*
X427990Y353055D01*
X427992Y353057D01*
X427994Y353056D01*
X432312Y357374D01*
X432312Y357377D01*
X432313Y357378D01*
X432313Y482854D01*
X432309Y482859D01*
X432308Y482859D01*
X386080Y482859D01*
X386075Y482855D01*
X386075Y482854D01*
X386075Y410720D01*
X328166Y352811D01*
X74168Y352811D01*
X74163Y352807D01*
X74163Y352806D01*
X74163Y309372D01*
X74167Y309367D01*
X74168Y309367D01*
X345186Y309367D01*
X345188Y309369D01*
G37*
%LPC*%
G36*
X111715Y80771D02*
X111715Y80771D01*
X109754Y81583D01*
X102157Y89180D01*
X101499Y90770D01*
X101452Y90857D01*
X101413Y90949D01*
X101359Y91028D01*
X101314Y91113D01*
X101250Y91189D01*
X101193Y91271D01*
X101124Y91338D01*
X101063Y91411D01*
X100984Y91472D01*
X100912Y91541D01*
X100849Y91578D01*
X100756Y91652D01*
X100540Y91758D01*
X100468Y91800D01*
X100205Y91909D01*
X96990Y95125D01*
X95249Y99326D01*
X95249Y119114D01*
X96990Y123315D01*
X100205Y126530D01*
X104406Y128271D01*
X108954Y128271D01*
X113155Y126530D01*
X116370Y123315D01*
X117621Y120297D01*
X117637Y120267D01*
X117647Y120236D01*
X117729Y120096D01*
X117806Y119954D01*
X117827Y119928D01*
X117844Y119900D01*
X117953Y119780D01*
X118057Y119656D01*
X118083Y119635D01*
X118106Y119610D01*
X118237Y119515D01*
X118364Y119415D01*
X118393Y119400D01*
X118420Y119381D01*
X118568Y119314D01*
X118713Y119242D01*
X118745Y119233D01*
X118776Y119220D01*
X118933Y119184D01*
X119090Y119143D01*
X119124Y119142D01*
X119156Y119134D01*
X119317Y119132D01*
X119479Y119124D01*
X119512Y119129D01*
X119546Y119128D01*
X119704Y119159D01*
X119865Y119184D01*
X119896Y119196D01*
X119928Y119202D01*
X120078Y119264D01*
X120229Y119321D01*
X120258Y119339D01*
X120288Y119352D01*
X120422Y119443D01*
X120559Y119530D01*
X120583Y119553D01*
X120610Y119572D01*
X120722Y119688D01*
X120839Y119801D01*
X120857Y119829D01*
X120880Y119853D01*
X120922Y119925D01*
X121057Y120124D01*
X121103Y120234D01*
X121139Y120297D01*
X122390Y123315D01*
X125605Y126530D01*
X129806Y128271D01*
X134354Y128271D01*
X138555Y126530D01*
X141770Y123315D01*
X143511Y119114D01*
X143511Y112903D01*
X143518Y112837D01*
X143515Y112770D01*
X143537Y112643D01*
X143551Y112515D01*
X143571Y112452D01*
X143582Y112386D01*
X143630Y112267D01*
X143669Y112144D01*
X143701Y112086D01*
X143726Y112024D01*
X143797Y111917D01*
X143860Y111804D01*
X143904Y111754D01*
X143940Y111698D01*
X144031Y111607D01*
X144116Y111510D01*
X144169Y111470D01*
X144216Y111423D01*
X144324Y111353D01*
X144427Y111275D01*
X144487Y111247D01*
X144543Y111210D01*
X144663Y111163D01*
X144779Y111108D01*
X144844Y111092D01*
X144906Y111068D01*
X144992Y111056D01*
X145158Y111016D01*
X145328Y111011D01*
X145415Y110999D01*
X220122Y110999D01*
X220221Y111009D01*
X220321Y111009D01*
X220415Y111029D01*
X220510Y111039D01*
X220605Y111069D01*
X220702Y111089D01*
X220790Y111128D01*
X220881Y111157D01*
X220968Y111206D01*
X221059Y111245D01*
X221118Y111290D01*
X221221Y111348D01*
X221402Y111506D01*
X221469Y111556D01*
X222013Y112101D01*
X224804Y113257D01*
X227824Y113257D01*
X230615Y112101D01*
X232751Y109965D01*
X233907Y107174D01*
X233907Y104154D01*
X232707Y101257D01*
X232683Y101178D01*
X232650Y101101D01*
X232628Y100991D01*
X232595Y100884D01*
X232588Y100801D01*
X232572Y100720D01*
X232572Y100607D01*
X232562Y100495D01*
X232572Y100413D01*
X232572Y100330D01*
X232596Y100220D01*
X232609Y100108D01*
X232635Y100030D01*
X232653Y99948D01*
X232698Y99845D01*
X232733Y99739D01*
X232775Y99667D01*
X232809Y99591D01*
X232858Y99526D01*
X232930Y99403D01*
X233066Y99253D01*
X233120Y99182D01*
X234529Y97773D01*
X235685Y94982D01*
X235685Y91962D01*
X234529Y89171D01*
X232393Y87035D01*
X229602Y85879D01*
X226582Y85879D01*
X223791Y87035D01*
X223247Y87580D01*
X223170Y87642D01*
X223099Y87713D01*
X223019Y87765D01*
X222944Y87825D01*
X222856Y87871D01*
X222773Y87926D01*
X222683Y87961D01*
X222598Y88005D01*
X222502Y88032D01*
X222410Y88068D01*
X222337Y88078D01*
X222223Y88110D01*
X221983Y88126D01*
X221900Y88137D01*
X164034Y88137D01*
X163936Y88127D01*
X163836Y88127D01*
X163742Y88107D01*
X163647Y88097D01*
X163552Y88067D01*
X163454Y88047D01*
X163367Y88008D01*
X163275Y87979D01*
X163188Y87930D01*
X163097Y87891D01*
X163039Y87846D01*
X162936Y87788D01*
X162754Y87630D01*
X162688Y87580D01*
X156692Y81583D01*
X154731Y80771D01*
X111715Y80771D01*
G37*
%LPD*%
%LPC*%
G36*
X261735Y8127D02*
X261735Y8127D01*
X257253Y9984D01*
X253824Y13413D01*
X251967Y17895D01*
X251967Y22745D01*
X253824Y27227D01*
X257253Y30656D01*
X261735Y32513D01*
X266585Y32513D01*
X271067Y30656D01*
X274496Y27227D01*
X275101Y25768D01*
X275117Y25739D01*
X275127Y25707D01*
X275209Y25568D01*
X275286Y25425D01*
X275307Y25400D01*
X275324Y25371D01*
X275433Y25251D01*
X275537Y25127D01*
X275563Y25106D01*
X275586Y25082D01*
X275716Y24986D01*
X275844Y24886D01*
X275874Y24871D01*
X275900Y24852D01*
X276048Y24785D01*
X276193Y24713D01*
X276225Y24705D01*
X276255Y24691D01*
X276413Y24656D01*
X276570Y24615D01*
X276603Y24613D01*
X276636Y24606D01*
X276797Y24603D01*
X276959Y24595D01*
X276992Y24600D01*
X277026Y24600D01*
X277185Y24630D01*
X277345Y24655D01*
X277376Y24667D01*
X277408Y24673D01*
X277558Y24735D01*
X277709Y24792D01*
X277737Y24810D01*
X277768Y24823D01*
X277902Y24914D01*
X278039Y25001D01*
X278063Y25024D01*
X278090Y25043D01*
X278202Y25160D01*
X278318Y25272D01*
X278337Y25300D01*
X278360Y25324D01*
X278402Y25396D01*
X278537Y25595D01*
X278582Y25705D01*
X278619Y25768D01*
X279224Y27227D01*
X282653Y30656D01*
X283517Y31014D01*
X283605Y31062D01*
X283696Y31100D01*
X283776Y31154D01*
X283860Y31199D01*
X283936Y31264D01*
X284018Y31320D01*
X284085Y31389D01*
X284158Y31451D01*
X284220Y31529D01*
X284288Y31601D01*
X284325Y31664D01*
X284399Y31757D01*
X284505Y31973D01*
X284548Y32045D01*
X284714Y32448D01*
X295974Y43708D01*
X298075Y44578D01*
X401605Y44578D01*
X401704Y44588D01*
X401804Y44588D01*
X401898Y44608D01*
X401993Y44618D01*
X402088Y44648D01*
X402185Y44668D01*
X402273Y44707D01*
X402364Y44736D01*
X402451Y44785D01*
X402542Y44824D01*
X402601Y44869D01*
X402704Y44927D01*
X402885Y45085D01*
X402952Y45135D01*
X403115Y45299D01*
X405906Y46455D01*
X408926Y46455D01*
X411717Y45299D01*
X413853Y43163D01*
X415009Y40372D01*
X415009Y37352D01*
X413853Y34561D01*
X411717Y32425D01*
X408926Y31269D01*
X405906Y31269D01*
X403115Y32425D01*
X402952Y32589D01*
X402875Y32651D01*
X402804Y32722D01*
X402724Y32774D01*
X402649Y32834D01*
X402561Y32880D01*
X402478Y32935D01*
X402388Y32970D01*
X402303Y33014D01*
X402207Y33041D01*
X402115Y33077D01*
X402042Y33087D01*
X401928Y33119D01*
X401688Y33135D01*
X401605Y33146D01*
X374774Y33146D01*
X374741Y33143D01*
X374708Y33145D01*
X374547Y33123D01*
X374386Y33106D01*
X374355Y33096D01*
X374322Y33092D01*
X374169Y33037D01*
X374015Y32988D01*
X373986Y32972D01*
X373955Y32961D01*
X373816Y32877D01*
X373675Y32797D01*
X373650Y32775D01*
X373622Y32758D01*
X373503Y32647D01*
X373382Y32541D01*
X373362Y32514D01*
X373337Y32492D01*
X373244Y32359D01*
X373146Y32230D01*
X373132Y32200D01*
X373113Y32173D01*
X373049Y32024D01*
X372979Y31878D01*
X372971Y31846D01*
X372958Y31815D01*
X372925Y31656D01*
X372887Y31499D01*
X372886Y31466D01*
X372879Y31433D01*
X372880Y31271D01*
X372874Y31109D01*
X372880Y31077D01*
X372880Y31043D01*
X372914Y30885D01*
X372941Y30725D01*
X372954Y30695D01*
X372960Y30662D01*
X373025Y30513D01*
X373085Y30363D01*
X373103Y30335D01*
X373116Y30305D01*
X373167Y30238D01*
X373299Y30038D01*
X373383Y29954D01*
X373428Y29896D01*
X376096Y27227D01*
X377953Y22745D01*
X377953Y17895D01*
X376096Y13413D01*
X372667Y9984D01*
X368185Y8127D01*
X363335Y8127D01*
X358853Y9984D01*
X355424Y13413D01*
X354819Y14872D01*
X354803Y14901D01*
X354793Y14933D01*
X354711Y15072D01*
X354634Y15215D01*
X354613Y15240D01*
X354596Y15269D01*
X354487Y15390D01*
X354383Y15513D01*
X354357Y15534D01*
X354334Y15558D01*
X354203Y15654D01*
X354076Y15754D01*
X354046Y15769D01*
X354019Y15788D01*
X353872Y15855D01*
X353727Y15927D01*
X353695Y15935D01*
X353664Y15949D01*
X353507Y15984D01*
X353350Y16025D01*
X353316Y16027D01*
X353284Y16034D01*
X353123Y16037D01*
X352961Y16045D01*
X352928Y16040D01*
X352894Y16040D01*
X352735Y16010D01*
X352575Y15985D01*
X352544Y15973D01*
X352512Y15967D01*
X352362Y15905D01*
X352211Y15848D01*
X352182Y15830D01*
X352152Y15817D01*
X352018Y15726D01*
X351881Y15639D01*
X351857Y15616D01*
X351830Y15597D01*
X351718Y15480D01*
X351601Y15368D01*
X351583Y15340D01*
X351560Y15316D01*
X351518Y15244D01*
X351383Y15045D01*
X351337Y14935D01*
X351301Y14872D01*
X350696Y13413D01*
X347267Y9984D01*
X342785Y8127D01*
X337935Y8127D01*
X333453Y9984D01*
X330024Y13413D01*
X328167Y17895D01*
X328167Y22745D01*
X330024Y27227D01*
X332692Y29896D01*
X332713Y29921D01*
X332738Y29943D01*
X332836Y30072D01*
X332938Y30198D01*
X332954Y30227D01*
X332974Y30254D01*
X333043Y30400D01*
X333118Y30544D01*
X333127Y30576D01*
X333141Y30606D01*
X333179Y30763D01*
X333223Y30919D01*
X333225Y30953D01*
X333233Y30985D01*
X333238Y31147D01*
X333249Y31308D01*
X333244Y31341D01*
X333246Y31375D01*
X333218Y31534D01*
X333196Y31694D01*
X333184Y31726D01*
X333179Y31759D01*
X333119Y31909D01*
X333065Y32062D01*
X333047Y32090D01*
X333035Y32121D01*
X332946Y32256D01*
X332862Y32394D01*
X332839Y32419D01*
X332821Y32447D01*
X332706Y32561D01*
X332595Y32679D01*
X332568Y32698D01*
X332545Y32722D01*
X332409Y32810D01*
X332277Y32903D01*
X332246Y32916D01*
X332218Y32935D01*
X332068Y32994D01*
X331919Y33058D01*
X331886Y33065D01*
X331855Y33077D01*
X331773Y33088D01*
X331537Y33137D01*
X331418Y33136D01*
X331346Y33146D01*
X302368Y33146D01*
X302269Y33136D01*
X302170Y33136D01*
X302076Y33116D01*
X301981Y33106D01*
X301886Y33076D01*
X301788Y33056D01*
X301700Y33017D01*
X301609Y32988D01*
X301522Y32940D01*
X301431Y32900D01*
X301373Y32855D01*
X301269Y32797D01*
X301088Y32639D01*
X301022Y32589D01*
X299125Y30691D01*
X299083Y30640D01*
X299034Y30594D01*
X298960Y30489D01*
X298879Y30389D01*
X298848Y30330D01*
X298810Y30276D01*
X298759Y30157D01*
X298699Y30043D01*
X298682Y29979D01*
X298655Y29918D01*
X298629Y29792D01*
X298594Y29668D01*
X298590Y29601D01*
X298577Y29536D01*
X298577Y29407D01*
X298568Y29279D01*
X298577Y29213D01*
X298577Y29146D01*
X298604Y29020D01*
X298621Y28893D01*
X298644Y28830D01*
X298657Y28765D01*
X298709Y28647D01*
X298752Y28525D01*
X298787Y28469D01*
X298814Y28408D01*
X298867Y28338D01*
X298955Y28193D01*
X299072Y28068D01*
X299125Y27998D01*
X299897Y27227D01*
X301753Y22745D01*
X301753Y17895D01*
X299896Y13413D01*
X296467Y9984D01*
X291985Y8127D01*
X287135Y8127D01*
X282653Y9984D01*
X279224Y13413D01*
X278619Y14872D01*
X278603Y14901D01*
X278593Y14933D01*
X278511Y15072D01*
X278434Y15215D01*
X278413Y15240D01*
X278396Y15269D01*
X278287Y15390D01*
X278183Y15513D01*
X278157Y15534D01*
X278134Y15558D01*
X278003Y15654D01*
X277876Y15754D01*
X277846Y15769D01*
X277819Y15788D01*
X277672Y15855D01*
X277527Y15927D01*
X277495Y15935D01*
X277464Y15949D01*
X277307Y15984D01*
X277150Y16025D01*
X277116Y16027D01*
X277084Y16034D01*
X276923Y16037D01*
X276761Y16045D01*
X276728Y16040D01*
X276694Y16040D01*
X276535Y16010D01*
X276375Y15985D01*
X276344Y15973D01*
X276312Y15967D01*
X276162Y15905D01*
X276011Y15848D01*
X275982Y15830D01*
X275952Y15817D01*
X275818Y15726D01*
X275681Y15639D01*
X275657Y15616D01*
X275630Y15597D01*
X275518Y15480D01*
X275401Y15368D01*
X275383Y15340D01*
X275360Y15316D01*
X275318Y15244D01*
X275183Y15045D01*
X275137Y14935D01*
X275101Y14872D01*
X274496Y13413D01*
X271067Y9984D01*
X266585Y8127D01*
X261735Y8127D01*
G37*
%LPD*%
%LPC*%
G36*
X205583Y457863D02*
X205583Y457863D01*
X200598Y459928D01*
X196784Y463742D01*
X194719Y468727D01*
X194719Y474121D01*
X196784Y479106D01*
X200598Y482920D01*
X205583Y484985D01*
X210977Y484985D01*
X215962Y482920D01*
X219633Y479248D01*
X219685Y479206D01*
X219730Y479158D01*
X219836Y479084D01*
X219936Y479002D01*
X219995Y478972D01*
X220049Y478933D01*
X220167Y478882D01*
X220282Y478823D01*
X220346Y478805D01*
X220407Y478779D01*
X220533Y478753D01*
X220657Y478718D01*
X220724Y478714D01*
X220789Y478700D01*
X220918Y478700D01*
X221046Y478692D01*
X221112Y478701D01*
X221179Y478701D01*
X221305Y478727D01*
X221432Y478745D01*
X221495Y478767D01*
X221560Y478781D01*
X221678Y478833D01*
X221800Y478876D01*
X221856Y478911D01*
X221917Y478937D01*
X221987Y478990D01*
X222132Y479079D01*
X222257Y479195D01*
X222326Y479248D01*
X225998Y482920D01*
X230983Y484985D01*
X236377Y484985D01*
X241362Y482920D01*
X245176Y479106D01*
X247241Y474121D01*
X247241Y468727D01*
X245176Y463742D01*
X241362Y459928D01*
X236377Y457863D01*
X230983Y457863D01*
X225998Y459928D01*
X222326Y463600D01*
X222275Y463642D01*
X222230Y463690D01*
X222124Y463764D01*
X222024Y463846D01*
X221965Y463876D01*
X221911Y463915D01*
X221792Y463966D01*
X221678Y464025D01*
X221614Y464043D01*
X221553Y464069D01*
X221427Y464095D01*
X221303Y464130D01*
X221236Y464134D01*
X221171Y464148D01*
X221042Y464148D01*
X220914Y464156D01*
X220848Y464147D01*
X220781Y464147D01*
X220655Y464121D01*
X220528Y464103D01*
X220465Y464081D01*
X220400Y464067D01*
X220282Y464015D01*
X220160Y463972D01*
X220104Y463937D01*
X220043Y463911D01*
X219973Y463858D01*
X219828Y463769D01*
X219703Y463653D01*
X219633Y463600D01*
X215962Y459928D01*
X210977Y457863D01*
X205583Y457863D01*
G37*
%LPD*%
%LPC*%
G36*
X199150Y29237D02*
X199150Y29237D01*
X196359Y30393D01*
X194223Y32529D01*
X193067Y35320D01*
X193067Y38340D01*
X194223Y41131D01*
X195022Y41929D01*
X195084Y42006D01*
X195155Y42077D01*
X195207Y42157D01*
X195267Y42232D01*
X195313Y42320D01*
X195368Y42403D01*
X195403Y42493D01*
X195447Y42578D01*
X195474Y42674D01*
X195510Y42766D01*
X195520Y42839D01*
X195552Y42953D01*
X195568Y43193D01*
X195579Y43276D01*
X195579Y53086D01*
X195572Y53152D01*
X195575Y53219D01*
X195553Y53346D01*
X195539Y53474D01*
X195519Y53537D01*
X195508Y53603D01*
X195460Y53722D01*
X195421Y53845D01*
X195389Y53903D01*
X195364Y53965D01*
X195293Y54072D01*
X195230Y54185D01*
X195186Y54235D01*
X195150Y54291D01*
X195059Y54382D01*
X194974Y54479D01*
X194921Y54519D01*
X194874Y54566D01*
X194766Y54636D01*
X194663Y54714D01*
X194603Y54742D01*
X194547Y54779D01*
X194427Y54826D01*
X194311Y54881D01*
X194246Y54897D01*
X194184Y54921D01*
X194098Y54933D01*
X193932Y54973D01*
X193762Y54978D01*
X193675Y54990D01*
X192732Y54990D01*
X190499Y57223D01*
X190499Y60607D01*
X190492Y60673D01*
X190495Y60740D01*
X190473Y60867D01*
X190459Y60995D01*
X190439Y61058D01*
X190428Y61124D01*
X190380Y61243D01*
X190341Y61366D01*
X190309Y61424D01*
X190284Y61486D01*
X190213Y61593D01*
X190150Y61706D01*
X190106Y61756D01*
X190070Y61812D01*
X189979Y61903D01*
X189894Y62000D01*
X189841Y62040D01*
X189794Y62087D01*
X189686Y62157D01*
X189583Y62235D01*
X189523Y62263D01*
X189467Y62300D01*
X189347Y62347D01*
X189231Y62402D01*
X189166Y62418D01*
X189104Y62442D01*
X189018Y62454D01*
X188852Y62494D01*
X188682Y62499D01*
X188595Y62511D01*
X187212Y62511D01*
X184421Y63667D01*
X182285Y65803D01*
X181129Y68594D01*
X181129Y71614D01*
X182285Y74405D01*
X184421Y76541D01*
X187212Y77697D01*
X190232Y77697D01*
X191348Y77235D01*
X191459Y77201D01*
X191567Y77159D01*
X191629Y77151D01*
X191721Y77123D01*
X192015Y77098D01*
X192077Y77090D01*
X208588Y77090D01*
X210821Y74857D01*
X210821Y57223D01*
X208588Y54990D01*
X207645Y54990D01*
X207579Y54983D01*
X207512Y54986D01*
X207385Y54964D01*
X207257Y54950D01*
X207194Y54930D01*
X207128Y54919D01*
X207009Y54871D01*
X206886Y54832D01*
X206828Y54800D01*
X206766Y54775D01*
X206659Y54704D01*
X206546Y54641D01*
X206496Y54597D01*
X206440Y54561D01*
X206349Y54470D01*
X206252Y54385D01*
X206212Y54332D01*
X206165Y54285D01*
X206095Y54177D01*
X206017Y54074D01*
X205989Y54014D01*
X205952Y53958D01*
X205905Y53838D01*
X205850Y53722D01*
X205834Y53657D01*
X205810Y53595D01*
X205798Y53509D01*
X205758Y53343D01*
X205753Y53173D01*
X205741Y53086D01*
X205741Y43276D01*
X205751Y43177D01*
X205751Y43077D01*
X205771Y42983D01*
X205781Y42888D01*
X205811Y42793D01*
X205831Y42696D01*
X205870Y42608D01*
X205899Y42517D01*
X205948Y42430D01*
X205987Y42339D01*
X206032Y42280D01*
X206090Y42177D01*
X206248Y41996D01*
X206298Y41929D01*
X207097Y41131D01*
X208253Y38340D01*
X208253Y35320D01*
X207097Y32529D01*
X204961Y30393D01*
X202170Y29237D01*
X199150Y29237D01*
G37*
%LPD*%
%LPC*%
G36*
X466656Y451557D02*
X466656Y451557D01*
X460661Y454040D01*
X456072Y458629D01*
X453589Y464624D01*
X453589Y471112D01*
X456072Y477107D01*
X460661Y481696D01*
X466656Y484179D01*
X473144Y484179D01*
X479139Y481696D01*
X483728Y477107D01*
X486211Y471112D01*
X486211Y464624D01*
X483728Y458629D01*
X479139Y454040D01*
X473144Y451557D01*
X466656Y451557D01*
G37*
%LPD*%
%LPC*%
G36*
X466756Y23689D02*
X466756Y23689D01*
X460761Y26172D01*
X456172Y30761D01*
X453689Y36756D01*
X453689Y43244D01*
X456172Y49239D01*
X460761Y53828D01*
X466756Y56311D01*
X473244Y56311D01*
X479239Y53828D01*
X483828Y49239D01*
X486311Y43244D01*
X486311Y36756D01*
X483828Y30761D01*
X479239Y26172D01*
X473244Y23689D01*
X466756Y23689D01*
G37*
%LPD*%
%LPC*%
G36*
X36756Y23689D02*
X36756Y23689D01*
X30761Y26172D01*
X26172Y30761D01*
X23689Y36756D01*
X23689Y43244D01*
X26172Y49239D01*
X30761Y53828D01*
X36756Y56311D01*
X43244Y56311D01*
X49239Y53828D01*
X53828Y49239D01*
X56311Y43244D01*
X56311Y36756D01*
X53828Y30761D01*
X49239Y26172D01*
X43244Y23689D01*
X36756Y23689D01*
G37*
%LPD*%
%LPC*%
G36*
X36756Y451657D02*
X36756Y451657D01*
X30761Y454140D01*
X26172Y458729D01*
X23689Y464724D01*
X23689Y471212D01*
X26172Y477207D01*
X30761Y481796D01*
X36756Y484279D01*
X43244Y484279D01*
X49239Y481796D01*
X53828Y477207D01*
X56311Y471212D01*
X56311Y464724D01*
X53828Y458729D01*
X49239Y454140D01*
X43244Y451657D01*
X36756Y451657D01*
G37*
%LPD*%
D10*
X370840Y469900D03*
X396240Y469900D03*
X345440Y469900D03*
D11*
X200660Y61976D03*
X200660Y70104D03*
D12*
X264160Y20320D03*
X289560Y20320D03*
X314960Y20320D03*
X340360Y20320D03*
X365760Y20320D03*
D10*
X208280Y471424D03*
X233680Y471424D03*
D13*
X132080Y116840D02*
X132080Y101600D01*
X106680Y101600D02*
X106680Y116840D01*
D14*
X53340Y200660D03*
X53340Y182880D03*
X66040Y182880D03*
X78740Y182880D03*
X91440Y182880D03*
X104140Y182880D03*
X116840Y182880D03*
X66040Y218440D03*
X78740Y218440D03*
X91440Y218440D03*
X104140Y218440D03*
X116840Y218440D03*
X66040Y200660D03*
X386080Y269240D03*
X398780Y269240D03*
X411480Y269240D03*
X424180Y269240D03*
X436880Y269240D03*
X436880Y251460D03*
X439420Y233680D03*
X426720Y233680D03*
X414020Y233680D03*
X401320Y233680D03*
X388620Y233680D03*
X449580Y251460D03*
X449580Y269240D03*
X302260Y129540D03*
X327660Y121920D03*
X317500Y129540D03*
X226060Y48260D03*
X330200Y106680D03*
X224790Y13970D03*
X384810Y398018D03*
X394970Y398018D03*
X405130Y398018D03*
X415290Y398018D03*
X425450Y398018D03*
X384810Y364998D03*
X394970Y364998D03*
X405130Y364998D03*
X415290Y364998D03*
X425450Y364998D03*
X80010Y347218D03*
X90170Y347218D03*
X100330Y347218D03*
X110490Y347218D03*
X120650Y347218D03*
X80010Y314198D03*
X90170Y314198D03*
X100330Y314198D03*
X110490Y314198D03*
X120650Y314198D03*
X407416Y38862D03*
D15*
X299212Y38862D01*
X289560Y29210D02*
X289560Y20320D01*
X289560Y29210D02*
X299212Y38862D01*
D16*
X200660Y70104D02*
X188722Y70104D01*
D14*
X188722Y70104D03*
X226314Y105664D03*
D17*
X135636Y105664D01*
X132080Y109220D01*
D14*
X228092Y93472D03*
D17*
X161036Y93472D01*
X106680Y92202D02*
X106680Y109220D01*
X153670Y86106D02*
X161036Y93472D01*
X153670Y86106D02*
X112776Y86106D01*
X106680Y92202D01*
D16*
X200660Y61976D02*
X200660Y36830D01*
D14*
X200660Y36830D03*
M02*
