G04 EAGLE Gerber RS-274X export*
G75*
%MOMM*%
%FSLAX34Y34*%
%LPD*%
%INSilkscreen Top*%
%IPPOS*%
%AMOC8*
5,1,8,0,0,1.08239X$1,22.5*%
G01*
%ADD10C,0.101600*%
%ADD11C,0.100000*%
%ADD12C,0.200000*%
%ADD13C,0.203200*%
%ADD14C,0.152400*%
%ADD15C,0.400000*%
%ADD16C,0.762000*%
%ADD17R,0.762000X0.508000*%
%ADD18R,0.762000X1.016000*%
%ADD19C,0.127000*%


D10*
X292862Y30988D02*
X292862Y32964D01*
X292860Y33051D01*
X292854Y33139D01*
X292845Y33226D01*
X292831Y33312D01*
X292814Y33398D01*
X292793Y33482D01*
X292768Y33566D01*
X292739Y33649D01*
X292707Y33730D01*
X292672Y33810D01*
X292633Y33888D01*
X292590Y33965D01*
X292544Y34039D01*
X292495Y34111D01*
X292443Y34181D01*
X292387Y34249D01*
X292329Y34314D01*
X292268Y34377D01*
X292204Y34436D01*
X292137Y34493D01*
X292069Y34547D01*
X291997Y34598D01*
X291924Y34645D01*
X291849Y34690D01*
X291771Y34731D01*
X291692Y34768D01*
X291612Y34802D01*
X291530Y34832D01*
X291447Y34859D01*
X291362Y34882D01*
X291277Y34901D01*
X291191Y34916D01*
X291104Y34928D01*
X291017Y34936D01*
X290930Y34940D01*
X290842Y34940D01*
X290755Y34936D01*
X290668Y34928D01*
X290581Y34916D01*
X290495Y34901D01*
X290410Y34882D01*
X290325Y34859D01*
X290242Y34832D01*
X290160Y34802D01*
X290080Y34768D01*
X290001Y34731D01*
X289923Y34690D01*
X289848Y34645D01*
X289775Y34598D01*
X289703Y34547D01*
X289635Y34493D01*
X289568Y34436D01*
X289504Y34377D01*
X289443Y34314D01*
X289385Y34249D01*
X289329Y34181D01*
X289277Y34111D01*
X289228Y34039D01*
X289182Y33965D01*
X289139Y33888D01*
X289100Y33810D01*
X289065Y33730D01*
X289033Y33649D01*
X289004Y33566D01*
X288979Y33482D01*
X288958Y33398D01*
X288941Y33312D01*
X288927Y33226D01*
X288918Y33139D01*
X288912Y33051D01*
X288910Y32964D01*
X285750Y33359D02*
X285750Y30988D01*
X285750Y33359D02*
X285752Y33438D01*
X285758Y33516D01*
X285768Y33594D01*
X285781Y33672D01*
X285799Y33749D01*
X285820Y33825D01*
X285845Y33899D01*
X285874Y33973D01*
X285906Y34045D01*
X285942Y34115D01*
X285982Y34183D01*
X286025Y34249D01*
X286071Y34313D01*
X286120Y34375D01*
X286172Y34434D01*
X286227Y34490D01*
X286285Y34544D01*
X286345Y34594D01*
X286408Y34642D01*
X286473Y34686D01*
X286540Y34727D01*
X286609Y34765D01*
X286680Y34799D01*
X286753Y34830D01*
X286827Y34857D01*
X286902Y34880D01*
X286978Y34899D01*
X287056Y34915D01*
X287134Y34927D01*
X287212Y34935D01*
X287291Y34939D01*
X287369Y34939D01*
X287448Y34935D01*
X287526Y34927D01*
X287604Y34915D01*
X287682Y34899D01*
X287758Y34880D01*
X287833Y34857D01*
X287907Y34830D01*
X287980Y34799D01*
X288051Y34765D01*
X288120Y34727D01*
X288187Y34686D01*
X288252Y34642D01*
X288315Y34594D01*
X288375Y34544D01*
X288433Y34490D01*
X288488Y34434D01*
X288540Y34375D01*
X288589Y34313D01*
X288635Y34249D01*
X288678Y34183D01*
X288718Y34115D01*
X288754Y34045D01*
X288786Y33973D01*
X288815Y33899D01*
X288840Y33825D01*
X288861Y33749D01*
X288879Y33672D01*
X288892Y33594D01*
X288902Y33516D01*
X288908Y33438D01*
X288910Y33359D01*
X288911Y33359D02*
X288911Y31778D01*
X285750Y37908D02*
X292862Y40279D01*
X285750Y42649D01*
X292862Y45618D02*
X292862Y47594D01*
X292860Y47681D01*
X292854Y47769D01*
X292845Y47856D01*
X292831Y47942D01*
X292814Y48028D01*
X292793Y48112D01*
X292768Y48196D01*
X292739Y48279D01*
X292707Y48360D01*
X292672Y48440D01*
X292633Y48518D01*
X292590Y48595D01*
X292544Y48669D01*
X292495Y48741D01*
X292443Y48811D01*
X292387Y48879D01*
X292329Y48944D01*
X292268Y49007D01*
X292204Y49066D01*
X292137Y49123D01*
X292069Y49177D01*
X291997Y49228D01*
X291924Y49275D01*
X291849Y49320D01*
X291771Y49361D01*
X291692Y49398D01*
X291612Y49432D01*
X291530Y49462D01*
X291447Y49489D01*
X291362Y49512D01*
X291277Y49531D01*
X291191Y49546D01*
X291104Y49558D01*
X291017Y49566D01*
X290930Y49570D01*
X290842Y49570D01*
X290755Y49566D01*
X290668Y49558D01*
X290581Y49546D01*
X290495Y49531D01*
X290410Y49512D01*
X290325Y49489D01*
X290242Y49462D01*
X290160Y49432D01*
X290080Y49398D01*
X290001Y49361D01*
X289923Y49320D01*
X289848Y49275D01*
X289775Y49228D01*
X289703Y49177D01*
X289635Y49123D01*
X289568Y49066D01*
X289504Y49007D01*
X289443Y48944D01*
X289385Y48879D01*
X289329Y48811D01*
X289277Y48741D01*
X289228Y48669D01*
X289182Y48595D01*
X289139Y48518D01*
X289100Y48440D01*
X289065Y48360D01*
X289033Y48279D01*
X289004Y48196D01*
X288979Y48112D01*
X288958Y48028D01*
X288941Y47942D01*
X288927Y47856D01*
X288918Y47769D01*
X288912Y47681D01*
X288910Y47594D01*
X285750Y47989D02*
X285750Y45618D01*
X285750Y47989D02*
X285752Y48068D01*
X285758Y48146D01*
X285768Y48224D01*
X285781Y48302D01*
X285799Y48379D01*
X285820Y48455D01*
X285845Y48529D01*
X285874Y48603D01*
X285906Y48675D01*
X285942Y48745D01*
X285982Y48813D01*
X286025Y48879D01*
X286071Y48943D01*
X286120Y49005D01*
X286172Y49064D01*
X286227Y49120D01*
X286285Y49174D01*
X286345Y49224D01*
X286408Y49272D01*
X286473Y49316D01*
X286540Y49357D01*
X286609Y49395D01*
X286680Y49429D01*
X286753Y49460D01*
X286827Y49487D01*
X286902Y49510D01*
X286978Y49529D01*
X287056Y49545D01*
X287134Y49557D01*
X287212Y49565D01*
X287291Y49569D01*
X287369Y49569D01*
X287448Y49565D01*
X287526Y49557D01*
X287604Y49545D01*
X287682Y49529D01*
X287758Y49510D01*
X287833Y49487D01*
X287907Y49460D01*
X287980Y49429D01*
X288051Y49395D01*
X288120Y49357D01*
X288187Y49316D01*
X288252Y49272D01*
X288315Y49224D01*
X288375Y49174D01*
X288433Y49120D01*
X288488Y49064D01*
X288540Y49005D01*
X288589Y48943D01*
X288635Y48879D01*
X288678Y48813D01*
X288718Y48745D01*
X288754Y48675D01*
X288786Y48603D01*
X288815Y48529D01*
X288840Y48455D01*
X288861Y48379D01*
X288879Y48302D01*
X288892Y48224D01*
X288902Y48146D01*
X288908Y48068D01*
X288910Y47989D01*
X288911Y47989D02*
X288911Y46409D01*
X314311Y34939D02*
X314311Y33754D01*
X314311Y34939D02*
X318262Y34939D01*
X318262Y32568D01*
X318260Y32490D01*
X318254Y32413D01*
X318245Y32336D01*
X318232Y32260D01*
X318215Y32184D01*
X318194Y32109D01*
X318170Y32036D01*
X318142Y31963D01*
X318110Y31892D01*
X318075Y31823D01*
X318037Y31756D01*
X317996Y31690D01*
X317951Y31627D01*
X317903Y31566D01*
X317853Y31507D01*
X317799Y31451D01*
X317743Y31397D01*
X317684Y31347D01*
X317623Y31299D01*
X317560Y31254D01*
X317494Y31213D01*
X317427Y31175D01*
X317358Y31140D01*
X317287Y31108D01*
X317214Y31080D01*
X317141Y31056D01*
X317066Y31035D01*
X316990Y31018D01*
X316914Y31005D01*
X316837Y30996D01*
X316760Y30990D01*
X316682Y30988D01*
X312730Y30988D01*
X312652Y30990D01*
X312575Y30996D01*
X312498Y31005D01*
X312422Y31018D01*
X312346Y31035D01*
X312271Y31056D01*
X312197Y31080D01*
X312125Y31108D01*
X312054Y31140D01*
X311985Y31175D01*
X311917Y31213D01*
X311852Y31254D01*
X311788Y31299D01*
X311727Y31347D01*
X311668Y31398D01*
X311612Y31451D01*
X311559Y31507D01*
X311508Y31566D01*
X311460Y31627D01*
X311415Y31691D01*
X311374Y31756D01*
X311336Y31824D01*
X311301Y31893D01*
X311269Y31964D01*
X311241Y32036D01*
X311217Y32110D01*
X311196Y32185D01*
X311179Y32261D01*
X311166Y32337D01*
X311157Y32414D01*
X311151Y32491D01*
X311149Y32569D01*
X311150Y32568D02*
X311150Y34939D01*
X311150Y38791D02*
X318262Y38791D01*
X318262Y42742D02*
X311150Y38791D01*
X311150Y42742D02*
X318262Y42742D01*
X318262Y46594D02*
X311150Y46594D01*
X311150Y48569D01*
X311152Y48655D01*
X311158Y48741D01*
X311167Y48827D01*
X311180Y48912D01*
X311197Y48997D01*
X311217Y49080D01*
X311241Y49163D01*
X311269Y49245D01*
X311300Y49325D01*
X311335Y49404D01*
X311373Y49481D01*
X311415Y49557D01*
X311459Y49631D01*
X311507Y49702D01*
X311558Y49772D01*
X311612Y49839D01*
X311669Y49904D01*
X311729Y49966D01*
X311791Y50026D01*
X311856Y50083D01*
X311923Y50137D01*
X311993Y50188D01*
X312064Y50236D01*
X312138Y50280D01*
X312214Y50322D01*
X312291Y50360D01*
X312370Y50395D01*
X312450Y50426D01*
X312532Y50454D01*
X312615Y50478D01*
X312698Y50498D01*
X312783Y50515D01*
X312868Y50528D01*
X312954Y50537D01*
X313040Y50543D01*
X313126Y50545D01*
X316286Y50545D01*
X316372Y50543D01*
X316458Y50537D01*
X316544Y50528D01*
X316629Y50515D01*
X316714Y50498D01*
X316797Y50478D01*
X316880Y50454D01*
X316962Y50426D01*
X317042Y50395D01*
X317121Y50360D01*
X317198Y50322D01*
X317274Y50280D01*
X317348Y50236D01*
X317419Y50188D01*
X317489Y50137D01*
X317556Y50083D01*
X317621Y50026D01*
X317683Y49966D01*
X317743Y49904D01*
X317800Y49839D01*
X317854Y49772D01*
X317905Y49702D01*
X317953Y49631D01*
X317997Y49557D01*
X318039Y49481D01*
X318077Y49404D01*
X318112Y49325D01*
X318143Y49245D01*
X318171Y49163D01*
X318195Y49080D01*
X318215Y48997D01*
X318232Y48912D01*
X318245Y48827D01*
X318254Y48741D01*
X318260Y48655D01*
X318262Y48569D01*
X318262Y46594D01*
X336550Y30988D02*
X343662Y30988D01*
X336550Y30988D02*
X336550Y32964D01*
X336552Y33050D01*
X336558Y33136D01*
X336567Y33222D01*
X336580Y33307D01*
X336597Y33392D01*
X336617Y33475D01*
X336641Y33558D01*
X336669Y33640D01*
X336700Y33720D01*
X336735Y33799D01*
X336773Y33876D01*
X336815Y33952D01*
X336859Y34026D01*
X336907Y34097D01*
X336958Y34167D01*
X337012Y34234D01*
X337069Y34299D01*
X337129Y34361D01*
X337191Y34421D01*
X337256Y34478D01*
X337323Y34532D01*
X337393Y34583D01*
X337464Y34631D01*
X337538Y34675D01*
X337614Y34717D01*
X337691Y34755D01*
X337770Y34790D01*
X337850Y34821D01*
X337932Y34849D01*
X338015Y34873D01*
X338098Y34893D01*
X338183Y34910D01*
X338268Y34923D01*
X338354Y34932D01*
X338440Y34938D01*
X338526Y34940D01*
X338526Y34939D02*
X341686Y34939D01*
X341686Y34940D02*
X341772Y34938D01*
X341858Y34932D01*
X341944Y34923D01*
X342029Y34910D01*
X342114Y34893D01*
X342197Y34873D01*
X342280Y34849D01*
X342362Y34821D01*
X342442Y34790D01*
X342521Y34755D01*
X342598Y34717D01*
X342674Y34675D01*
X342748Y34631D01*
X342819Y34583D01*
X342889Y34532D01*
X342956Y34478D01*
X343021Y34421D01*
X343083Y34361D01*
X343143Y34299D01*
X343200Y34234D01*
X343254Y34167D01*
X343305Y34097D01*
X343353Y34026D01*
X343397Y33952D01*
X343439Y33876D01*
X343477Y33799D01*
X343512Y33720D01*
X343543Y33640D01*
X343571Y33558D01*
X343595Y33475D01*
X343615Y33392D01*
X343632Y33307D01*
X343645Y33222D01*
X343654Y33136D01*
X343660Y33050D01*
X343662Y32964D01*
X343662Y30988D01*
X343662Y38152D02*
X336550Y40523D01*
X343662Y42893D01*
X341884Y42301D02*
X341884Y38745D01*
X343662Y47350D02*
X336550Y47350D01*
X336550Y45375D02*
X336550Y49326D01*
X336550Y54178D02*
X343662Y51807D01*
X343662Y56548D02*
X336550Y54178D01*
X341884Y55956D02*
X341884Y52400D01*
X369062Y34149D02*
X369062Y32568D01*
X369060Y32490D01*
X369054Y32413D01*
X369045Y32336D01*
X369032Y32260D01*
X369015Y32184D01*
X368994Y32109D01*
X368970Y32036D01*
X368942Y31963D01*
X368910Y31892D01*
X368875Y31823D01*
X368837Y31756D01*
X368796Y31690D01*
X368751Y31627D01*
X368703Y31566D01*
X368653Y31507D01*
X368599Y31451D01*
X368543Y31397D01*
X368484Y31347D01*
X368423Y31299D01*
X368360Y31254D01*
X368294Y31213D01*
X368227Y31175D01*
X368158Y31140D01*
X368087Y31108D01*
X368014Y31080D01*
X367941Y31056D01*
X367866Y31035D01*
X367790Y31018D01*
X367714Y31005D01*
X367637Y30996D01*
X367560Y30990D01*
X367482Y30988D01*
X363530Y30988D01*
X363452Y30990D01*
X363375Y30996D01*
X363298Y31005D01*
X363222Y31018D01*
X363146Y31035D01*
X363071Y31056D01*
X362997Y31080D01*
X362925Y31108D01*
X362854Y31140D01*
X362785Y31175D01*
X362717Y31213D01*
X362652Y31254D01*
X362588Y31299D01*
X362527Y31347D01*
X362468Y31398D01*
X362412Y31451D01*
X362359Y31507D01*
X362308Y31566D01*
X362260Y31627D01*
X362215Y31691D01*
X362174Y31756D01*
X362136Y31824D01*
X362101Y31893D01*
X362069Y31964D01*
X362041Y32036D01*
X362017Y32110D01*
X361996Y32185D01*
X361979Y32261D01*
X361966Y32337D01*
X361957Y32414D01*
X361951Y32491D01*
X361949Y32569D01*
X361950Y32568D02*
X361950Y34149D01*
X361950Y37374D02*
X369062Y37374D01*
X369062Y40534D01*
X369062Y43834D02*
X361950Y43834D01*
X361950Y47785D02*
X366296Y43834D01*
X364716Y45414D02*
X369062Y47785D01*
X267462Y30988D02*
X260350Y30988D01*
X264301Y33359D01*
X260350Y35729D01*
X267462Y35729D01*
X267462Y40983D02*
X267462Y42563D01*
X267462Y40983D02*
X267460Y40905D01*
X267454Y40828D01*
X267445Y40751D01*
X267432Y40675D01*
X267415Y40599D01*
X267394Y40524D01*
X267370Y40451D01*
X267342Y40378D01*
X267310Y40307D01*
X267275Y40238D01*
X267237Y40171D01*
X267196Y40105D01*
X267151Y40042D01*
X267103Y39981D01*
X267053Y39922D01*
X266999Y39866D01*
X266943Y39812D01*
X266884Y39762D01*
X266823Y39714D01*
X266760Y39669D01*
X266694Y39628D01*
X266627Y39590D01*
X266558Y39555D01*
X266487Y39523D01*
X266414Y39495D01*
X266341Y39471D01*
X266266Y39450D01*
X266190Y39433D01*
X266114Y39420D01*
X266037Y39411D01*
X265960Y39405D01*
X265882Y39403D01*
X261930Y39403D01*
X261930Y39402D02*
X261852Y39404D01*
X261775Y39410D01*
X261698Y39419D01*
X261622Y39432D01*
X261546Y39449D01*
X261471Y39470D01*
X261397Y39494D01*
X261325Y39522D01*
X261254Y39554D01*
X261185Y39589D01*
X261117Y39627D01*
X261052Y39668D01*
X260988Y39713D01*
X260927Y39761D01*
X260868Y39812D01*
X260812Y39865D01*
X260759Y39921D01*
X260708Y39980D01*
X260660Y40041D01*
X260615Y40105D01*
X260574Y40170D01*
X260536Y40238D01*
X260501Y40307D01*
X260469Y40378D01*
X260441Y40450D01*
X260417Y40524D01*
X260396Y40599D01*
X260379Y40675D01*
X260366Y40751D01*
X260357Y40828D01*
X260351Y40905D01*
X260349Y40983D01*
X260350Y40983D02*
X260350Y42563D01*
X260350Y45788D02*
X267462Y45788D01*
X267462Y48949D01*
X267462Y52170D02*
X260350Y52170D01*
X260350Y54145D01*
X260352Y54232D01*
X260358Y54320D01*
X260367Y54407D01*
X260381Y54493D01*
X260398Y54579D01*
X260419Y54663D01*
X260444Y54747D01*
X260473Y54830D01*
X260505Y54911D01*
X260540Y54991D01*
X260579Y55069D01*
X260622Y55146D01*
X260668Y55220D01*
X260717Y55292D01*
X260769Y55362D01*
X260825Y55430D01*
X260883Y55495D01*
X260944Y55558D01*
X261008Y55617D01*
X261075Y55674D01*
X261143Y55728D01*
X261215Y55779D01*
X261288Y55826D01*
X261363Y55871D01*
X261441Y55912D01*
X261520Y55949D01*
X261600Y55983D01*
X261682Y56013D01*
X261765Y56040D01*
X261850Y56063D01*
X261935Y56082D01*
X262021Y56097D01*
X262108Y56109D01*
X262195Y56117D01*
X262282Y56121D01*
X262370Y56121D01*
X262457Y56117D01*
X262544Y56109D01*
X262631Y56097D01*
X262717Y56082D01*
X262802Y56063D01*
X262887Y56040D01*
X262970Y56013D01*
X263052Y55983D01*
X263132Y55949D01*
X263211Y55912D01*
X263289Y55871D01*
X263364Y55826D01*
X263437Y55779D01*
X263509Y55728D01*
X263577Y55674D01*
X263644Y55617D01*
X263708Y55558D01*
X263769Y55495D01*
X263827Y55430D01*
X263883Y55362D01*
X263935Y55292D01*
X263984Y55220D01*
X264030Y55146D01*
X264073Y55069D01*
X264112Y54991D01*
X264147Y54911D01*
X264179Y54830D01*
X264208Y54747D01*
X264233Y54663D01*
X264254Y54579D01*
X264271Y54493D01*
X264285Y54407D01*
X264294Y54320D01*
X264300Y54232D01*
X264302Y54145D01*
X264301Y54145D02*
X264301Y52170D01*
X264301Y54540D02*
X267462Y56121D01*
X109982Y130048D02*
X102870Y130048D01*
X102870Y132024D01*
X102872Y132111D01*
X102878Y132199D01*
X102887Y132286D01*
X102901Y132372D01*
X102918Y132458D01*
X102939Y132542D01*
X102964Y132626D01*
X102993Y132709D01*
X103025Y132790D01*
X103060Y132870D01*
X103099Y132948D01*
X103142Y133025D01*
X103188Y133099D01*
X103237Y133171D01*
X103289Y133241D01*
X103345Y133309D01*
X103403Y133374D01*
X103464Y133437D01*
X103528Y133496D01*
X103595Y133553D01*
X103663Y133607D01*
X103735Y133658D01*
X103808Y133705D01*
X103883Y133750D01*
X103961Y133791D01*
X104040Y133828D01*
X104120Y133862D01*
X104202Y133892D01*
X104285Y133919D01*
X104370Y133942D01*
X104455Y133961D01*
X104541Y133976D01*
X104628Y133988D01*
X104715Y133996D01*
X104802Y134000D01*
X104890Y134000D01*
X104977Y133996D01*
X105064Y133988D01*
X105151Y133976D01*
X105237Y133961D01*
X105322Y133942D01*
X105407Y133919D01*
X105490Y133892D01*
X105572Y133862D01*
X105652Y133828D01*
X105731Y133791D01*
X105809Y133750D01*
X105884Y133705D01*
X105957Y133658D01*
X106029Y133607D01*
X106097Y133553D01*
X106164Y133496D01*
X106228Y133437D01*
X106289Y133374D01*
X106347Y133309D01*
X106403Y133241D01*
X106455Y133171D01*
X106504Y133099D01*
X106550Y133025D01*
X106593Y132948D01*
X106632Y132870D01*
X106667Y132790D01*
X106699Y132709D01*
X106728Y132626D01*
X106753Y132542D01*
X106774Y132458D01*
X106791Y132372D01*
X106805Y132286D01*
X106814Y132199D01*
X106820Y132111D01*
X106822Y132024D01*
X106821Y132024D02*
X106821Y130048D01*
X106821Y132419D02*
X109982Y133999D01*
X109982Y136908D02*
X102870Y139278D01*
X109982Y141649D01*
X108204Y141056D02*
X108204Y137500D01*
X108402Y144618D02*
X102870Y146198D01*
X108402Y144618D02*
X108402Y148569D01*
X106821Y147384D02*
X109982Y147384D01*
X128270Y130048D02*
X135382Y130048D01*
X128270Y130048D02*
X128270Y132024D01*
X128272Y132111D01*
X128278Y132199D01*
X128287Y132286D01*
X128301Y132372D01*
X128318Y132458D01*
X128339Y132542D01*
X128364Y132626D01*
X128393Y132709D01*
X128425Y132790D01*
X128460Y132870D01*
X128499Y132948D01*
X128542Y133025D01*
X128588Y133099D01*
X128637Y133171D01*
X128689Y133241D01*
X128745Y133309D01*
X128803Y133374D01*
X128864Y133437D01*
X128928Y133496D01*
X128995Y133553D01*
X129063Y133607D01*
X129135Y133658D01*
X129208Y133705D01*
X129283Y133750D01*
X129361Y133791D01*
X129440Y133828D01*
X129520Y133862D01*
X129602Y133892D01*
X129685Y133919D01*
X129770Y133942D01*
X129855Y133961D01*
X129941Y133976D01*
X130028Y133988D01*
X130115Y133996D01*
X130202Y134000D01*
X130290Y134000D01*
X130377Y133996D01*
X130464Y133988D01*
X130551Y133976D01*
X130637Y133961D01*
X130722Y133942D01*
X130807Y133919D01*
X130890Y133892D01*
X130972Y133862D01*
X131052Y133828D01*
X131131Y133791D01*
X131209Y133750D01*
X131284Y133705D01*
X131357Y133658D01*
X131429Y133607D01*
X131497Y133553D01*
X131564Y133496D01*
X131628Y133437D01*
X131689Y133374D01*
X131747Y133309D01*
X131803Y133241D01*
X131855Y133171D01*
X131904Y133099D01*
X131950Y133025D01*
X131993Y132948D01*
X132032Y132870D01*
X132067Y132790D01*
X132099Y132709D01*
X132128Y132626D01*
X132153Y132542D01*
X132174Y132458D01*
X132191Y132372D01*
X132205Y132286D01*
X132214Y132199D01*
X132220Y132111D01*
X132222Y132024D01*
X132221Y132024D02*
X132221Y130048D01*
X132221Y132419D02*
X135382Y133999D01*
X135382Y136908D02*
X128270Y139278D01*
X135382Y141649D01*
X133604Y141056D02*
X133604Y137500D01*
X135382Y144618D02*
X135382Y146989D01*
X135380Y147067D01*
X135374Y147144D01*
X135365Y147221D01*
X135352Y147297D01*
X135335Y147373D01*
X135314Y147448D01*
X135290Y147521D01*
X135262Y147594D01*
X135230Y147665D01*
X135195Y147734D01*
X135157Y147801D01*
X135116Y147867D01*
X135071Y147930D01*
X135023Y147991D01*
X134973Y148050D01*
X134919Y148106D01*
X134863Y148160D01*
X134804Y148210D01*
X134743Y148258D01*
X134680Y148303D01*
X134614Y148344D01*
X134547Y148382D01*
X134478Y148417D01*
X134407Y148449D01*
X134334Y148477D01*
X134261Y148501D01*
X134186Y148522D01*
X134110Y148539D01*
X134034Y148552D01*
X133957Y148561D01*
X133880Y148567D01*
X133802Y148569D01*
X133011Y148569D01*
X132933Y148567D01*
X132856Y148561D01*
X132779Y148552D01*
X132703Y148539D01*
X132627Y148522D01*
X132552Y148501D01*
X132479Y148477D01*
X132406Y148449D01*
X132335Y148417D01*
X132266Y148382D01*
X132199Y148344D01*
X132133Y148303D01*
X132070Y148258D01*
X132009Y148210D01*
X131950Y148160D01*
X131894Y148106D01*
X131840Y148050D01*
X131790Y147991D01*
X131742Y147930D01*
X131697Y147867D01*
X131656Y147801D01*
X131618Y147734D01*
X131583Y147665D01*
X131551Y147594D01*
X131523Y147521D01*
X131499Y147448D01*
X131478Y147373D01*
X131461Y147297D01*
X131448Y147221D01*
X131439Y147144D01*
X131433Y147067D01*
X131431Y146989D01*
X131431Y144618D01*
X128270Y144618D01*
X128270Y148569D01*
X349871Y426071D02*
X351056Y426071D01*
X349871Y426071D02*
X349871Y430022D01*
X352242Y430022D01*
X352320Y430020D01*
X352397Y430014D01*
X352474Y430005D01*
X352550Y429992D01*
X352626Y429975D01*
X352701Y429954D01*
X352774Y429930D01*
X352847Y429902D01*
X352918Y429870D01*
X352987Y429835D01*
X353054Y429797D01*
X353120Y429756D01*
X353183Y429711D01*
X353244Y429663D01*
X353303Y429613D01*
X353359Y429559D01*
X353413Y429503D01*
X353463Y429444D01*
X353511Y429383D01*
X353556Y429320D01*
X353597Y429254D01*
X353635Y429187D01*
X353670Y429118D01*
X353702Y429047D01*
X353730Y428974D01*
X353754Y428901D01*
X353775Y428826D01*
X353792Y428750D01*
X353805Y428674D01*
X353814Y428597D01*
X353820Y428520D01*
X353822Y428442D01*
X353822Y424490D01*
X353823Y424490D02*
X353821Y424412D01*
X353815Y424335D01*
X353806Y424258D01*
X353793Y424182D01*
X353776Y424106D01*
X353755Y424031D01*
X353731Y423957D01*
X353703Y423885D01*
X353671Y423814D01*
X353636Y423745D01*
X353598Y423677D01*
X353557Y423612D01*
X353512Y423548D01*
X353464Y423487D01*
X353413Y423428D01*
X353360Y423372D01*
X353304Y423319D01*
X353245Y423268D01*
X353184Y423220D01*
X353120Y423175D01*
X353055Y423134D01*
X352987Y423096D01*
X352918Y423061D01*
X352847Y423029D01*
X352775Y423001D01*
X352701Y422977D01*
X352626Y422956D01*
X352550Y422939D01*
X352474Y422926D01*
X352397Y422917D01*
X352320Y422911D01*
X352242Y422909D01*
X352242Y422910D02*
X349871Y422910D01*
X346019Y422910D02*
X346019Y430022D01*
X342068Y430022D02*
X346019Y422910D01*
X342068Y422910D02*
X342068Y430022D01*
X338216Y430022D02*
X338216Y422910D01*
X336241Y422910D01*
X336155Y422912D01*
X336069Y422918D01*
X335983Y422927D01*
X335898Y422940D01*
X335813Y422957D01*
X335730Y422977D01*
X335647Y423001D01*
X335565Y423029D01*
X335485Y423060D01*
X335406Y423095D01*
X335329Y423133D01*
X335253Y423175D01*
X335179Y423219D01*
X335108Y423267D01*
X335038Y423318D01*
X334971Y423372D01*
X334906Y423429D01*
X334844Y423489D01*
X334784Y423551D01*
X334727Y423616D01*
X334673Y423683D01*
X334622Y423753D01*
X334574Y423824D01*
X334530Y423898D01*
X334488Y423974D01*
X334450Y424051D01*
X334415Y424130D01*
X334384Y424210D01*
X334356Y424292D01*
X334332Y424375D01*
X334312Y424458D01*
X334295Y424543D01*
X334282Y424628D01*
X334273Y424714D01*
X334267Y424800D01*
X334265Y424886D01*
X334265Y428046D01*
X334267Y428132D01*
X334273Y428218D01*
X334282Y428304D01*
X334295Y428389D01*
X334312Y428474D01*
X334332Y428557D01*
X334356Y428640D01*
X334384Y428722D01*
X334415Y428802D01*
X334450Y428881D01*
X334488Y428958D01*
X334530Y429034D01*
X334574Y429108D01*
X334622Y429179D01*
X334673Y429249D01*
X334727Y429316D01*
X334784Y429381D01*
X334844Y429443D01*
X334906Y429503D01*
X334971Y429560D01*
X335038Y429614D01*
X335108Y429665D01*
X335179Y429713D01*
X335253Y429757D01*
X335329Y429799D01*
X335406Y429837D01*
X335485Y429872D01*
X335565Y429903D01*
X335647Y429931D01*
X335730Y429955D01*
X335813Y429975D01*
X335898Y429992D01*
X335983Y430005D01*
X336069Y430014D01*
X336155Y430020D01*
X336241Y430022D01*
X338216Y430022D01*
X379786Y430022D02*
X381762Y430022D01*
X379786Y430022D02*
X379699Y430020D01*
X379611Y430014D01*
X379524Y430005D01*
X379438Y429991D01*
X379352Y429974D01*
X379268Y429953D01*
X379184Y429928D01*
X379101Y429899D01*
X379020Y429867D01*
X378940Y429832D01*
X378862Y429793D01*
X378785Y429750D01*
X378711Y429704D01*
X378639Y429655D01*
X378569Y429603D01*
X378501Y429547D01*
X378436Y429489D01*
X378373Y429428D01*
X378314Y429364D01*
X378257Y429297D01*
X378203Y429229D01*
X378152Y429157D01*
X378105Y429084D01*
X378060Y429009D01*
X378019Y428931D01*
X377982Y428852D01*
X377948Y428772D01*
X377918Y428690D01*
X377891Y428607D01*
X377868Y428522D01*
X377849Y428437D01*
X377834Y428351D01*
X377822Y428264D01*
X377814Y428177D01*
X377810Y428090D01*
X377810Y428002D01*
X377814Y427915D01*
X377822Y427828D01*
X377834Y427741D01*
X377849Y427655D01*
X377868Y427570D01*
X377891Y427485D01*
X377918Y427402D01*
X377948Y427320D01*
X377982Y427240D01*
X378019Y427161D01*
X378060Y427083D01*
X378105Y427008D01*
X378152Y426935D01*
X378203Y426863D01*
X378257Y426795D01*
X378314Y426728D01*
X378373Y426664D01*
X378436Y426603D01*
X378501Y426545D01*
X378569Y426489D01*
X378639Y426437D01*
X378711Y426388D01*
X378785Y426342D01*
X378862Y426299D01*
X378940Y426260D01*
X379020Y426225D01*
X379101Y426193D01*
X379184Y426164D01*
X379268Y426139D01*
X379352Y426118D01*
X379438Y426101D01*
X379524Y426087D01*
X379611Y426078D01*
X379699Y426072D01*
X379786Y426070D01*
X379391Y422910D02*
X381762Y422910D01*
X379391Y422910D02*
X379312Y422912D01*
X379234Y422918D01*
X379156Y422928D01*
X379078Y422941D01*
X379001Y422959D01*
X378925Y422980D01*
X378851Y423005D01*
X378777Y423034D01*
X378705Y423066D01*
X378635Y423102D01*
X378567Y423142D01*
X378501Y423185D01*
X378437Y423231D01*
X378375Y423280D01*
X378316Y423332D01*
X378260Y423387D01*
X378206Y423445D01*
X378156Y423505D01*
X378108Y423568D01*
X378064Y423633D01*
X378023Y423700D01*
X377985Y423769D01*
X377951Y423840D01*
X377920Y423913D01*
X377893Y423987D01*
X377870Y424062D01*
X377851Y424138D01*
X377835Y424216D01*
X377823Y424294D01*
X377815Y424372D01*
X377811Y424451D01*
X377811Y424529D01*
X377815Y424608D01*
X377823Y424686D01*
X377835Y424764D01*
X377851Y424842D01*
X377870Y424918D01*
X377893Y424993D01*
X377920Y425067D01*
X377951Y425140D01*
X377985Y425211D01*
X378023Y425280D01*
X378064Y425347D01*
X378108Y425412D01*
X378156Y425475D01*
X378206Y425535D01*
X378260Y425593D01*
X378316Y425648D01*
X378375Y425700D01*
X378437Y425749D01*
X378501Y425795D01*
X378567Y425838D01*
X378635Y425878D01*
X378705Y425914D01*
X378777Y425946D01*
X378851Y425975D01*
X378925Y426000D01*
X379001Y426021D01*
X379078Y426039D01*
X379156Y426052D01*
X379234Y426062D01*
X379312Y426068D01*
X379391Y426070D01*
X379391Y426071D02*
X380972Y426071D01*
X374842Y422910D02*
X372471Y430022D01*
X370101Y422910D01*
X367132Y430022D02*
X365156Y430022D01*
X365069Y430020D01*
X364981Y430014D01*
X364894Y430005D01*
X364808Y429991D01*
X364722Y429974D01*
X364638Y429953D01*
X364554Y429928D01*
X364471Y429899D01*
X364390Y429867D01*
X364310Y429832D01*
X364232Y429793D01*
X364155Y429750D01*
X364081Y429704D01*
X364009Y429655D01*
X363939Y429603D01*
X363871Y429547D01*
X363806Y429489D01*
X363743Y429428D01*
X363684Y429364D01*
X363627Y429297D01*
X363573Y429229D01*
X363522Y429157D01*
X363475Y429084D01*
X363430Y429009D01*
X363389Y428931D01*
X363352Y428852D01*
X363318Y428772D01*
X363288Y428690D01*
X363261Y428607D01*
X363238Y428522D01*
X363219Y428437D01*
X363204Y428351D01*
X363192Y428264D01*
X363184Y428177D01*
X363180Y428090D01*
X363180Y428002D01*
X363184Y427915D01*
X363192Y427828D01*
X363204Y427741D01*
X363219Y427655D01*
X363238Y427570D01*
X363261Y427485D01*
X363288Y427402D01*
X363318Y427320D01*
X363352Y427240D01*
X363389Y427161D01*
X363430Y427083D01*
X363475Y427008D01*
X363522Y426935D01*
X363573Y426863D01*
X363627Y426795D01*
X363684Y426728D01*
X363743Y426664D01*
X363806Y426603D01*
X363871Y426545D01*
X363939Y426489D01*
X364009Y426437D01*
X364081Y426388D01*
X364155Y426342D01*
X364232Y426299D01*
X364310Y426260D01*
X364390Y426225D01*
X364471Y426193D01*
X364554Y426164D01*
X364638Y426139D01*
X364722Y426118D01*
X364808Y426101D01*
X364894Y426087D01*
X364981Y426078D01*
X365069Y426072D01*
X365156Y426070D01*
X364761Y422910D02*
X367132Y422910D01*
X364761Y422910D02*
X364682Y422912D01*
X364604Y422918D01*
X364526Y422928D01*
X364448Y422941D01*
X364371Y422959D01*
X364295Y422980D01*
X364221Y423005D01*
X364147Y423034D01*
X364075Y423066D01*
X364005Y423102D01*
X363937Y423142D01*
X363871Y423185D01*
X363807Y423231D01*
X363745Y423280D01*
X363686Y423332D01*
X363630Y423387D01*
X363576Y423445D01*
X363526Y423505D01*
X363478Y423568D01*
X363434Y423633D01*
X363393Y423700D01*
X363355Y423769D01*
X363321Y423840D01*
X363290Y423913D01*
X363263Y423987D01*
X363240Y424062D01*
X363221Y424138D01*
X363205Y424216D01*
X363193Y424294D01*
X363185Y424372D01*
X363181Y424451D01*
X363181Y424529D01*
X363185Y424608D01*
X363193Y424686D01*
X363205Y424764D01*
X363221Y424842D01*
X363240Y424918D01*
X363263Y424993D01*
X363290Y425067D01*
X363321Y425140D01*
X363355Y425211D01*
X363393Y425280D01*
X363434Y425347D01*
X363478Y425412D01*
X363526Y425475D01*
X363576Y425535D01*
X363630Y425593D01*
X363686Y425648D01*
X363745Y425700D01*
X363807Y425749D01*
X363871Y425795D01*
X363937Y425838D01*
X364005Y425878D01*
X364075Y425914D01*
X364147Y425946D01*
X364221Y425975D01*
X364295Y426000D01*
X364371Y426021D01*
X364448Y426039D01*
X364526Y426052D01*
X364604Y426062D01*
X364682Y426068D01*
X364761Y426070D01*
X364761Y426071D02*
X366341Y426071D01*
X406456Y422910D02*
X408432Y424490D01*
X406456Y422910D02*
X406456Y430022D01*
X404481Y430022D02*
X408432Y430022D01*
X398944Y422910D02*
X398862Y422912D01*
X398780Y422918D01*
X398698Y422927D01*
X398617Y422940D01*
X398537Y422957D01*
X398457Y422978D01*
X398379Y423002D01*
X398302Y423030D01*
X398226Y423061D01*
X398151Y423096D01*
X398079Y423135D01*
X398008Y423176D01*
X397939Y423221D01*
X397873Y423269D01*
X397808Y423320D01*
X397746Y423374D01*
X397687Y423431D01*
X397630Y423490D01*
X397576Y423552D01*
X397525Y423617D01*
X397477Y423683D01*
X397432Y423752D01*
X397391Y423823D01*
X397352Y423895D01*
X397317Y423970D01*
X397286Y424046D01*
X397258Y424123D01*
X397234Y424201D01*
X397213Y424281D01*
X397196Y424361D01*
X397183Y424442D01*
X397174Y424524D01*
X397168Y424606D01*
X397166Y424688D01*
X398944Y422910D02*
X399037Y422912D01*
X399129Y422918D01*
X399221Y422927D01*
X399313Y422940D01*
X399404Y422957D01*
X399494Y422977D01*
X399584Y423001D01*
X399672Y423029D01*
X399760Y423061D01*
X399845Y423095D01*
X399930Y423134D01*
X400013Y423175D01*
X400094Y423220D01*
X400173Y423269D01*
X400250Y423320D01*
X400325Y423375D01*
X400397Y423432D01*
X400468Y423492D01*
X400535Y423556D01*
X400600Y423621D01*
X400663Y423690D01*
X400722Y423761D01*
X400779Y423834D01*
X400833Y423910D01*
X400883Y423987D01*
X400931Y424067D01*
X400975Y424149D01*
X401015Y424232D01*
X401053Y424317D01*
X401087Y424403D01*
X401117Y424490D01*
X397758Y426071D02*
X397697Y426010D01*
X397639Y425947D01*
X397584Y425881D01*
X397531Y425813D01*
X397482Y425742D01*
X397437Y425670D01*
X397394Y425595D01*
X397355Y425519D01*
X397319Y425440D01*
X397287Y425361D01*
X397259Y425280D01*
X397234Y425197D01*
X397213Y425114D01*
X397196Y425030D01*
X397182Y424945D01*
X397173Y424860D01*
X397167Y424774D01*
X397165Y424688D01*
X397758Y426071D02*
X401117Y430022D01*
X397166Y430022D01*
X391826Y430022D02*
X394197Y422910D01*
X389455Y422910D02*
X391826Y430022D01*
D11*
X173390Y278130D02*
X138390Y278130D01*
X138390Y173990D01*
X173390Y173990D01*
D12*
X74230Y267840D02*
X74168Y267842D01*
X74107Y267848D01*
X74046Y267857D01*
X73986Y267870D01*
X73927Y267887D01*
X73869Y267908D01*
X73812Y267932D01*
X73757Y267959D01*
X73704Y267990D01*
X73652Y268024D01*
X73603Y268061D01*
X73556Y268101D01*
X73512Y268144D01*
X73471Y268189D01*
X73432Y268237D01*
X73396Y268288D01*
X73364Y268340D01*
X73335Y268394D01*
X73309Y268450D01*
X73287Y268508D01*
X73268Y268566D01*
X73253Y268626D01*
X73242Y268687D01*
X73234Y268748D01*
X73230Y268809D01*
X73230Y268871D01*
X73234Y268932D01*
X73242Y268993D01*
X73253Y269054D01*
X73268Y269114D01*
X73287Y269172D01*
X73309Y269230D01*
X73335Y269286D01*
X73364Y269340D01*
X73396Y269392D01*
X73432Y269443D01*
X73471Y269491D01*
X73512Y269536D01*
X73556Y269579D01*
X73603Y269619D01*
X73652Y269656D01*
X73704Y269690D01*
X73757Y269721D01*
X73812Y269748D01*
X73869Y269772D01*
X73927Y269793D01*
X73986Y269810D01*
X74046Y269823D01*
X74107Y269832D01*
X74168Y269838D01*
X74230Y269840D01*
X74292Y269838D01*
X74353Y269832D01*
X74414Y269823D01*
X74474Y269810D01*
X74533Y269793D01*
X74591Y269772D01*
X74648Y269748D01*
X74703Y269721D01*
X74756Y269690D01*
X74808Y269656D01*
X74857Y269619D01*
X74904Y269579D01*
X74948Y269536D01*
X74989Y269491D01*
X75028Y269443D01*
X75064Y269392D01*
X75096Y269340D01*
X75125Y269286D01*
X75151Y269230D01*
X75173Y269172D01*
X75192Y269114D01*
X75207Y269054D01*
X75218Y268993D01*
X75226Y268932D01*
X75230Y268871D01*
X75230Y268809D01*
X75226Y268748D01*
X75218Y268687D01*
X75207Y268626D01*
X75192Y268566D01*
X75173Y268508D01*
X75151Y268450D01*
X75125Y268394D01*
X75096Y268340D01*
X75064Y268288D01*
X75028Y268237D01*
X74989Y268189D01*
X74948Y268144D01*
X74904Y268101D01*
X74857Y268061D01*
X74808Y268024D01*
X74756Y267990D01*
X74703Y267959D01*
X74648Y267932D01*
X74591Y267908D01*
X74533Y267887D01*
X74474Y267870D01*
X74414Y267857D01*
X74353Y267848D01*
X74292Y267842D01*
X74230Y267840D01*
D10*
X123934Y217243D02*
X129126Y217243D01*
X123934Y217242D02*
X123821Y217244D01*
X123708Y217250D01*
X123595Y217260D01*
X123482Y217274D01*
X123370Y217291D01*
X123259Y217313D01*
X123149Y217338D01*
X123039Y217368D01*
X122931Y217401D01*
X122824Y217438D01*
X122718Y217478D01*
X122614Y217523D01*
X122511Y217571D01*
X122410Y217622D01*
X122311Y217677D01*
X122214Y217735D01*
X122119Y217797D01*
X122026Y217862D01*
X121936Y217930D01*
X121848Y218001D01*
X121762Y218076D01*
X121679Y218153D01*
X121599Y218233D01*
X121522Y218316D01*
X121447Y218402D01*
X121376Y218490D01*
X121308Y218580D01*
X121243Y218673D01*
X121181Y218768D01*
X121123Y218865D01*
X121068Y218964D01*
X121017Y219065D01*
X120969Y219168D01*
X120924Y219272D01*
X120884Y219378D01*
X120847Y219485D01*
X120814Y219593D01*
X120784Y219703D01*
X120759Y219813D01*
X120737Y219924D01*
X120720Y220036D01*
X120706Y220149D01*
X120696Y220262D01*
X120690Y220375D01*
X120688Y220488D01*
X120690Y220601D01*
X120696Y220714D01*
X120706Y220827D01*
X120720Y220940D01*
X120737Y221052D01*
X120759Y221163D01*
X120784Y221273D01*
X120814Y221383D01*
X120847Y221491D01*
X120884Y221598D01*
X120924Y221704D01*
X120969Y221808D01*
X121017Y221911D01*
X121068Y222012D01*
X121123Y222111D01*
X121181Y222208D01*
X121243Y222303D01*
X121308Y222396D01*
X121376Y222486D01*
X121447Y222574D01*
X121522Y222660D01*
X121599Y222743D01*
X121679Y222823D01*
X121762Y222900D01*
X121848Y222975D01*
X121936Y223046D01*
X122026Y223114D01*
X122119Y223179D01*
X122214Y223241D01*
X122311Y223299D01*
X122410Y223354D01*
X122511Y223405D01*
X122614Y223453D01*
X122718Y223498D01*
X122824Y223538D01*
X122931Y223575D01*
X123039Y223608D01*
X123149Y223638D01*
X123259Y223663D01*
X123370Y223685D01*
X123482Y223702D01*
X123595Y223716D01*
X123708Y223726D01*
X123821Y223732D01*
X123934Y223734D01*
X129126Y223734D01*
X129239Y223732D01*
X129352Y223726D01*
X129465Y223716D01*
X129578Y223702D01*
X129690Y223685D01*
X129801Y223663D01*
X129911Y223638D01*
X130021Y223608D01*
X130129Y223575D01*
X130236Y223538D01*
X130342Y223498D01*
X130446Y223453D01*
X130549Y223405D01*
X130650Y223354D01*
X130749Y223299D01*
X130846Y223241D01*
X130941Y223179D01*
X131034Y223114D01*
X131124Y223046D01*
X131212Y222975D01*
X131298Y222900D01*
X131381Y222823D01*
X131461Y222743D01*
X131538Y222660D01*
X131613Y222574D01*
X131684Y222486D01*
X131752Y222396D01*
X131817Y222303D01*
X131879Y222208D01*
X131937Y222111D01*
X131992Y222012D01*
X132043Y221911D01*
X132091Y221808D01*
X132136Y221704D01*
X132176Y221598D01*
X132213Y221491D01*
X132246Y221383D01*
X132276Y221273D01*
X132301Y221163D01*
X132323Y221052D01*
X132340Y220940D01*
X132354Y220827D01*
X132364Y220714D01*
X132370Y220601D01*
X132372Y220488D01*
X132370Y220375D01*
X132364Y220262D01*
X132354Y220149D01*
X132340Y220036D01*
X132323Y219924D01*
X132301Y219813D01*
X132276Y219703D01*
X132246Y219593D01*
X132213Y219485D01*
X132176Y219378D01*
X132136Y219272D01*
X132091Y219168D01*
X132043Y219065D01*
X131992Y218964D01*
X131937Y218865D01*
X131879Y218768D01*
X131817Y218673D01*
X131752Y218580D01*
X131684Y218490D01*
X131613Y218402D01*
X131538Y218316D01*
X131461Y218233D01*
X131381Y218153D01*
X131298Y218076D01*
X131212Y218001D01*
X131124Y217930D01*
X131034Y217862D01*
X130941Y217797D01*
X130846Y217735D01*
X130749Y217677D01*
X130650Y217622D01*
X130549Y217571D01*
X130446Y217523D01*
X130342Y217478D01*
X130236Y217438D01*
X130129Y217401D01*
X130021Y217368D01*
X129911Y217338D01*
X129801Y217313D01*
X129690Y217291D01*
X129578Y217274D01*
X129465Y217260D01*
X129352Y217250D01*
X129239Y217244D01*
X129126Y217242D01*
X129776Y222435D02*
X132372Y225032D01*
X123284Y228386D02*
X120688Y231632D01*
X132372Y231632D01*
X132372Y234877D02*
X132372Y228386D01*
D11*
X138450Y305600D02*
X138450Y405600D01*
X138450Y305350D02*
X143450Y305350D01*
X143450Y405850D02*
X138450Y405850D01*
D12*
X104490Y392600D02*
X104488Y392541D01*
X104482Y392482D01*
X104473Y392423D01*
X104460Y392365D01*
X104443Y392309D01*
X104422Y392253D01*
X104398Y392199D01*
X104371Y392146D01*
X104340Y392095D01*
X104306Y392047D01*
X104269Y392000D01*
X104229Y391956D01*
X104187Y391915D01*
X104142Y391877D01*
X104094Y391841D01*
X104045Y391809D01*
X103993Y391780D01*
X103939Y391754D01*
X103884Y391732D01*
X103828Y391713D01*
X103771Y391698D01*
X103713Y391687D01*
X103654Y391679D01*
X103595Y391675D01*
X103535Y391675D01*
X103476Y391679D01*
X103417Y391687D01*
X103359Y391698D01*
X103302Y391713D01*
X103246Y391732D01*
X103191Y391754D01*
X103137Y391780D01*
X103085Y391809D01*
X103036Y391841D01*
X102988Y391877D01*
X102943Y391915D01*
X102901Y391956D01*
X102861Y392000D01*
X102824Y392047D01*
X102790Y392095D01*
X102759Y392146D01*
X102732Y392199D01*
X102708Y392253D01*
X102687Y392309D01*
X102670Y392365D01*
X102657Y392423D01*
X102648Y392482D01*
X102642Y392541D01*
X102640Y392600D01*
X102642Y392659D01*
X102648Y392718D01*
X102657Y392777D01*
X102670Y392835D01*
X102687Y392891D01*
X102708Y392947D01*
X102732Y393001D01*
X102759Y393054D01*
X102790Y393105D01*
X102824Y393153D01*
X102861Y393200D01*
X102901Y393244D01*
X102943Y393285D01*
X102988Y393323D01*
X103036Y393359D01*
X103085Y393391D01*
X103137Y393420D01*
X103191Y393446D01*
X103246Y393468D01*
X103302Y393487D01*
X103359Y393502D01*
X103417Y393513D01*
X103476Y393521D01*
X103535Y393525D01*
X103595Y393525D01*
X103654Y393521D01*
X103713Y393513D01*
X103771Y393502D01*
X103828Y393487D01*
X103884Y393468D01*
X103939Y393446D01*
X103993Y393420D01*
X104045Y393391D01*
X104094Y393359D01*
X104142Y393323D01*
X104187Y393285D01*
X104229Y393244D01*
X104269Y393200D01*
X104306Y393153D01*
X104340Y393105D01*
X104371Y393054D01*
X104398Y393001D01*
X104422Y392947D01*
X104443Y392891D01*
X104460Y392835D01*
X104473Y392777D01*
X104482Y392718D01*
X104488Y392659D01*
X104490Y392600D01*
D10*
X124404Y346463D02*
X129596Y346463D01*
X124404Y346462D02*
X124291Y346464D01*
X124178Y346470D01*
X124065Y346480D01*
X123952Y346494D01*
X123840Y346511D01*
X123729Y346533D01*
X123619Y346558D01*
X123509Y346588D01*
X123401Y346621D01*
X123294Y346658D01*
X123188Y346698D01*
X123084Y346743D01*
X122981Y346791D01*
X122880Y346842D01*
X122781Y346897D01*
X122684Y346955D01*
X122589Y347017D01*
X122496Y347082D01*
X122406Y347150D01*
X122318Y347221D01*
X122232Y347296D01*
X122149Y347373D01*
X122069Y347453D01*
X121992Y347536D01*
X121917Y347622D01*
X121846Y347710D01*
X121778Y347800D01*
X121713Y347893D01*
X121651Y347988D01*
X121593Y348085D01*
X121538Y348184D01*
X121487Y348285D01*
X121439Y348388D01*
X121394Y348492D01*
X121354Y348598D01*
X121317Y348705D01*
X121284Y348813D01*
X121254Y348923D01*
X121229Y349033D01*
X121207Y349144D01*
X121190Y349256D01*
X121176Y349369D01*
X121166Y349482D01*
X121160Y349595D01*
X121158Y349708D01*
X121160Y349821D01*
X121166Y349934D01*
X121176Y350047D01*
X121190Y350160D01*
X121207Y350272D01*
X121229Y350383D01*
X121254Y350493D01*
X121284Y350603D01*
X121317Y350711D01*
X121354Y350818D01*
X121394Y350924D01*
X121439Y351028D01*
X121487Y351131D01*
X121538Y351232D01*
X121593Y351331D01*
X121651Y351428D01*
X121713Y351523D01*
X121778Y351616D01*
X121846Y351706D01*
X121917Y351794D01*
X121992Y351880D01*
X122069Y351963D01*
X122149Y352043D01*
X122232Y352120D01*
X122318Y352195D01*
X122406Y352266D01*
X122496Y352334D01*
X122589Y352399D01*
X122684Y352461D01*
X122781Y352519D01*
X122880Y352574D01*
X122981Y352625D01*
X123084Y352673D01*
X123188Y352718D01*
X123294Y352758D01*
X123401Y352795D01*
X123509Y352828D01*
X123619Y352858D01*
X123729Y352883D01*
X123840Y352905D01*
X123952Y352922D01*
X124065Y352936D01*
X124178Y352946D01*
X124291Y352952D01*
X124404Y352954D01*
X129596Y352954D01*
X129709Y352952D01*
X129822Y352946D01*
X129935Y352936D01*
X130048Y352922D01*
X130160Y352905D01*
X130271Y352883D01*
X130381Y352858D01*
X130491Y352828D01*
X130599Y352795D01*
X130706Y352758D01*
X130812Y352718D01*
X130916Y352673D01*
X131019Y352625D01*
X131120Y352574D01*
X131219Y352519D01*
X131316Y352461D01*
X131411Y352399D01*
X131504Y352334D01*
X131594Y352266D01*
X131682Y352195D01*
X131768Y352120D01*
X131851Y352043D01*
X131931Y351963D01*
X132008Y351880D01*
X132083Y351794D01*
X132154Y351706D01*
X132222Y351616D01*
X132287Y351523D01*
X132349Y351428D01*
X132407Y351331D01*
X132462Y351232D01*
X132513Y351131D01*
X132561Y351028D01*
X132606Y350924D01*
X132646Y350818D01*
X132683Y350711D01*
X132716Y350603D01*
X132746Y350493D01*
X132771Y350383D01*
X132793Y350272D01*
X132810Y350160D01*
X132824Y350047D01*
X132834Y349934D01*
X132840Y349821D01*
X132842Y349708D01*
X132840Y349595D01*
X132834Y349482D01*
X132824Y349369D01*
X132810Y349256D01*
X132793Y349144D01*
X132771Y349033D01*
X132746Y348923D01*
X132716Y348813D01*
X132683Y348705D01*
X132646Y348598D01*
X132606Y348492D01*
X132561Y348388D01*
X132513Y348285D01*
X132462Y348184D01*
X132407Y348085D01*
X132349Y347988D01*
X132287Y347893D01*
X132222Y347800D01*
X132154Y347710D01*
X132083Y347622D01*
X132008Y347536D01*
X131931Y347453D01*
X131851Y347373D01*
X131768Y347296D01*
X131682Y347221D01*
X131594Y347150D01*
X131504Y347082D01*
X131411Y347017D01*
X131316Y346955D01*
X131219Y346897D01*
X131120Y346842D01*
X131019Y346791D01*
X130916Y346743D01*
X130812Y346698D01*
X130706Y346658D01*
X130599Y346621D01*
X130491Y346588D01*
X130381Y346558D01*
X130271Y346533D01*
X130160Y346511D01*
X130048Y346494D01*
X129935Y346480D01*
X129822Y346470D01*
X129709Y346464D01*
X129596Y346462D01*
X130246Y351655D02*
X132842Y354252D01*
X124079Y364097D02*
X123972Y364095D01*
X123866Y364089D01*
X123760Y364079D01*
X123654Y364066D01*
X123548Y364048D01*
X123444Y364027D01*
X123340Y364002D01*
X123237Y363973D01*
X123136Y363941D01*
X123036Y363904D01*
X122937Y363864D01*
X122839Y363821D01*
X122743Y363774D01*
X122649Y363723D01*
X122557Y363669D01*
X122467Y363612D01*
X122379Y363552D01*
X122294Y363488D01*
X122211Y363421D01*
X122130Y363351D01*
X122052Y363279D01*
X121976Y363203D01*
X121904Y363125D01*
X121834Y363044D01*
X121767Y362961D01*
X121703Y362876D01*
X121643Y362788D01*
X121586Y362698D01*
X121532Y362606D01*
X121481Y362512D01*
X121434Y362416D01*
X121391Y362318D01*
X121351Y362219D01*
X121314Y362119D01*
X121282Y362018D01*
X121253Y361915D01*
X121228Y361811D01*
X121207Y361707D01*
X121189Y361601D01*
X121176Y361495D01*
X121166Y361389D01*
X121160Y361283D01*
X121158Y361176D01*
X121160Y361055D01*
X121166Y360934D01*
X121176Y360814D01*
X121189Y360693D01*
X121207Y360574D01*
X121228Y360454D01*
X121253Y360336D01*
X121282Y360219D01*
X121315Y360102D01*
X121351Y359987D01*
X121392Y359873D01*
X121435Y359760D01*
X121483Y359648D01*
X121534Y359539D01*
X121589Y359431D01*
X121647Y359324D01*
X121708Y359220D01*
X121773Y359118D01*
X121841Y359018D01*
X121912Y358920D01*
X121986Y358824D01*
X122063Y358731D01*
X122144Y358641D01*
X122227Y358553D01*
X122313Y358468D01*
X122402Y358385D01*
X122493Y358306D01*
X122587Y358229D01*
X122683Y358156D01*
X122781Y358086D01*
X122882Y358019D01*
X122985Y357955D01*
X123090Y357895D01*
X123197Y357837D01*
X123305Y357784D01*
X123415Y357734D01*
X123527Y357688D01*
X123640Y357645D01*
X123755Y357606D01*
X126351Y363123D02*
X126273Y363202D01*
X126193Y363278D01*
X126110Y363351D01*
X126024Y363421D01*
X125937Y363488D01*
X125846Y363552D01*
X125754Y363612D01*
X125660Y363670D01*
X125563Y363724D01*
X125465Y363774D01*
X125365Y363821D01*
X125264Y363865D01*
X125161Y363905D01*
X125056Y363941D01*
X124951Y363973D01*
X124844Y364002D01*
X124737Y364027D01*
X124628Y364049D01*
X124519Y364066D01*
X124410Y364080D01*
X124300Y364089D01*
X124189Y364095D01*
X124079Y364097D01*
X126351Y363124D02*
X132842Y357606D01*
X132842Y364097D01*
D13*
X27456Y232664D02*
X27456Y219536D01*
X27456Y232664D02*
X37544Y232664D01*
X58904Y232664D02*
X58904Y219536D01*
X58904Y232664D02*
X48816Y232664D01*
X46904Y219456D02*
X39316Y219456D01*
D14*
X61722Y227386D02*
X61722Y230322D01*
X61724Y230407D01*
X61730Y230491D01*
X61740Y230575D01*
X61753Y230659D01*
X61771Y230742D01*
X61792Y230824D01*
X61817Y230905D01*
X61846Y230985D01*
X61878Y231063D01*
X61914Y231139D01*
X61954Y231214D01*
X61997Y231287D01*
X62043Y231358D01*
X62092Y231427D01*
X62145Y231494D01*
X62201Y231558D01*
X62259Y231619D01*
X62320Y231677D01*
X62384Y231733D01*
X62451Y231786D01*
X62520Y231835D01*
X62591Y231881D01*
X62664Y231924D01*
X62739Y231964D01*
X62815Y232000D01*
X62893Y232032D01*
X62973Y232061D01*
X63054Y232086D01*
X63136Y232107D01*
X63219Y232125D01*
X63303Y232138D01*
X63387Y232148D01*
X63471Y232154D01*
X63556Y232156D01*
X63641Y232154D01*
X63725Y232148D01*
X63809Y232138D01*
X63893Y232125D01*
X63976Y232107D01*
X64058Y232086D01*
X64139Y232061D01*
X64219Y232032D01*
X64297Y232000D01*
X64373Y231964D01*
X64448Y231924D01*
X64521Y231881D01*
X64592Y231835D01*
X64661Y231786D01*
X64728Y231733D01*
X64792Y231677D01*
X64853Y231619D01*
X64911Y231558D01*
X64967Y231494D01*
X65020Y231427D01*
X65069Y231358D01*
X65115Y231287D01*
X65158Y231214D01*
X65198Y231139D01*
X65234Y231063D01*
X65266Y230985D01*
X65295Y230905D01*
X65320Y230824D01*
X65341Y230742D01*
X65359Y230659D01*
X65372Y230575D01*
X65382Y230491D01*
X65388Y230407D01*
X65390Y230322D01*
X65391Y230322D02*
X65391Y227386D01*
X65390Y227386D02*
X65388Y227301D01*
X65382Y227217D01*
X65372Y227133D01*
X65359Y227049D01*
X65341Y226966D01*
X65320Y226884D01*
X65295Y226803D01*
X65266Y226723D01*
X65234Y226645D01*
X65198Y226569D01*
X65158Y226494D01*
X65115Y226421D01*
X65069Y226350D01*
X65020Y226281D01*
X64967Y226214D01*
X64911Y226150D01*
X64853Y226089D01*
X64792Y226031D01*
X64728Y225975D01*
X64661Y225922D01*
X64592Y225873D01*
X64521Y225827D01*
X64448Y225784D01*
X64373Y225744D01*
X64297Y225708D01*
X64219Y225676D01*
X64139Y225647D01*
X64058Y225622D01*
X63976Y225601D01*
X63893Y225583D01*
X63809Y225570D01*
X63725Y225560D01*
X63641Y225554D01*
X63556Y225552D01*
X63471Y225554D01*
X63387Y225560D01*
X63303Y225570D01*
X63219Y225583D01*
X63136Y225601D01*
X63054Y225622D01*
X62973Y225647D01*
X62893Y225676D01*
X62815Y225708D01*
X62739Y225744D01*
X62664Y225784D01*
X62591Y225827D01*
X62520Y225873D01*
X62451Y225922D01*
X62384Y225975D01*
X62320Y226031D01*
X62259Y226089D01*
X62201Y226150D01*
X62145Y226214D01*
X62092Y226281D01*
X62043Y226350D01*
X61997Y226421D01*
X61954Y226494D01*
X61914Y226569D01*
X61878Y226645D01*
X61846Y226723D01*
X61817Y226803D01*
X61792Y226884D01*
X61771Y226966D01*
X61753Y227049D01*
X61740Y227133D01*
X61730Y227217D01*
X61724Y227301D01*
X61722Y227386D01*
X64657Y227020D02*
X66125Y225552D01*
X68567Y225552D02*
X70402Y225552D01*
X70487Y225554D01*
X70571Y225560D01*
X70655Y225570D01*
X70739Y225583D01*
X70822Y225601D01*
X70904Y225622D01*
X70985Y225647D01*
X71065Y225676D01*
X71143Y225708D01*
X71219Y225744D01*
X71294Y225784D01*
X71367Y225827D01*
X71438Y225873D01*
X71507Y225922D01*
X71574Y225975D01*
X71638Y226031D01*
X71699Y226089D01*
X71757Y226150D01*
X71813Y226214D01*
X71866Y226281D01*
X71915Y226350D01*
X71961Y226421D01*
X72004Y226494D01*
X72044Y226569D01*
X72080Y226645D01*
X72112Y226723D01*
X72141Y226803D01*
X72166Y226884D01*
X72187Y226966D01*
X72205Y227049D01*
X72218Y227133D01*
X72228Y227217D01*
X72234Y227301D01*
X72236Y227386D01*
X72234Y227471D01*
X72228Y227555D01*
X72218Y227639D01*
X72205Y227723D01*
X72187Y227806D01*
X72166Y227888D01*
X72141Y227969D01*
X72112Y228049D01*
X72080Y228127D01*
X72044Y228203D01*
X72004Y228278D01*
X71961Y228351D01*
X71915Y228422D01*
X71866Y228491D01*
X71813Y228558D01*
X71757Y228622D01*
X71699Y228683D01*
X71638Y228741D01*
X71574Y228797D01*
X71507Y228850D01*
X71438Y228899D01*
X71367Y228945D01*
X71294Y228988D01*
X71219Y229028D01*
X71143Y229064D01*
X71065Y229096D01*
X70985Y229125D01*
X70904Y229150D01*
X70822Y229171D01*
X70739Y229189D01*
X70655Y229202D01*
X70571Y229212D01*
X70487Y229218D01*
X70402Y229220D01*
X70769Y232156D02*
X68567Y232156D01*
X70769Y232156D02*
X70845Y232154D01*
X70920Y232148D01*
X70995Y232139D01*
X71069Y232125D01*
X71143Y232108D01*
X71215Y232086D01*
X71287Y232062D01*
X71357Y232033D01*
X71425Y232001D01*
X71492Y231966D01*
X71557Y231927D01*
X71620Y231884D01*
X71680Y231839D01*
X71738Y231791D01*
X71794Y231739D01*
X71846Y231685D01*
X71896Y231628D01*
X71943Y231569D01*
X71987Y231508D01*
X72028Y231444D01*
X72065Y231378D01*
X72099Y231310D01*
X72129Y231241D01*
X72156Y231170D01*
X72179Y231098D01*
X72198Y231025D01*
X72213Y230951D01*
X72225Y230876D01*
X72233Y230801D01*
X72237Y230726D01*
X72237Y230650D01*
X72233Y230575D01*
X72225Y230500D01*
X72213Y230425D01*
X72198Y230351D01*
X72179Y230278D01*
X72156Y230206D01*
X72129Y230135D01*
X72099Y230066D01*
X72065Y229998D01*
X72028Y229932D01*
X71987Y229868D01*
X71943Y229807D01*
X71896Y229748D01*
X71846Y229691D01*
X71794Y229637D01*
X71738Y229585D01*
X71680Y229537D01*
X71620Y229492D01*
X71557Y229449D01*
X71492Y229410D01*
X71425Y229375D01*
X71357Y229343D01*
X71287Y229314D01*
X71215Y229290D01*
X71143Y229268D01*
X71069Y229251D01*
X70995Y229237D01*
X70920Y229228D01*
X70845Y229222D01*
X70769Y229220D01*
X70769Y229221D02*
X69301Y229221D01*
D13*
X29210Y202565D02*
X29210Y173355D01*
X29210Y202565D02*
X41910Y202565D01*
X41910Y173355D01*
X29210Y173355D01*
D14*
X25273Y183642D02*
X18669Y183642D01*
X18669Y185476D01*
X18671Y185561D01*
X18677Y185645D01*
X18687Y185729D01*
X18700Y185813D01*
X18718Y185896D01*
X18739Y185978D01*
X18764Y186059D01*
X18793Y186139D01*
X18825Y186217D01*
X18861Y186293D01*
X18901Y186368D01*
X18944Y186441D01*
X18990Y186512D01*
X19039Y186581D01*
X19092Y186648D01*
X19148Y186712D01*
X19206Y186773D01*
X19267Y186831D01*
X19331Y186887D01*
X19398Y186940D01*
X19467Y186989D01*
X19538Y187035D01*
X19611Y187078D01*
X19686Y187118D01*
X19762Y187154D01*
X19840Y187186D01*
X19920Y187215D01*
X20001Y187240D01*
X20083Y187261D01*
X20166Y187279D01*
X20250Y187292D01*
X20334Y187302D01*
X20418Y187308D01*
X20503Y187310D01*
X20588Y187308D01*
X20672Y187302D01*
X20756Y187292D01*
X20840Y187279D01*
X20923Y187261D01*
X21005Y187240D01*
X21086Y187215D01*
X21166Y187186D01*
X21244Y187154D01*
X21320Y187118D01*
X21395Y187078D01*
X21468Y187035D01*
X21539Y186989D01*
X21608Y186940D01*
X21675Y186887D01*
X21739Y186831D01*
X21800Y186773D01*
X21858Y186712D01*
X21914Y186648D01*
X21967Y186581D01*
X22016Y186512D01*
X22062Y186441D01*
X22105Y186368D01*
X22145Y186293D01*
X22181Y186217D01*
X22213Y186139D01*
X22242Y186059D01*
X22267Y185978D01*
X22288Y185896D01*
X22306Y185813D01*
X22319Y185729D01*
X22329Y185645D01*
X22335Y185561D01*
X22337Y185476D01*
X22338Y185476D02*
X22338Y183642D01*
X22338Y185843D02*
X25273Y187311D01*
X20137Y190878D02*
X18669Y192713D01*
X25273Y192713D01*
X25273Y194547D02*
X25273Y190878D01*
D13*
X57150Y340995D02*
X57150Y370205D01*
X57150Y340995D02*
X44450Y340995D01*
X44450Y370205D01*
X57150Y370205D01*
D14*
X61087Y356633D02*
X67691Y356633D01*
X61087Y356633D02*
X61087Y358467D01*
X61089Y358552D01*
X61095Y358636D01*
X61105Y358720D01*
X61118Y358804D01*
X61136Y358887D01*
X61157Y358969D01*
X61182Y359050D01*
X61211Y359130D01*
X61243Y359208D01*
X61279Y359284D01*
X61319Y359359D01*
X61362Y359432D01*
X61408Y359503D01*
X61457Y359572D01*
X61510Y359639D01*
X61566Y359703D01*
X61624Y359764D01*
X61685Y359822D01*
X61749Y359878D01*
X61816Y359931D01*
X61885Y359980D01*
X61956Y360026D01*
X62029Y360069D01*
X62104Y360109D01*
X62180Y360145D01*
X62258Y360177D01*
X62338Y360206D01*
X62419Y360231D01*
X62501Y360252D01*
X62584Y360270D01*
X62668Y360283D01*
X62752Y360293D01*
X62836Y360299D01*
X62921Y360301D01*
X63006Y360299D01*
X63090Y360293D01*
X63174Y360283D01*
X63258Y360270D01*
X63341Y360252D01*
X63423Y360231D01*
X63504Y360206D01*
X63584Y360177D01*
X63662Y360145D01*
X63738Y360109D01*
X63813Y360069D01*
X63886Y360026D01*
X63957Y359980D01*
X64026Y359931D01*
X64093Y359878D01*
X64157Y359822D01*
X64218Y359764D01*
X64276Y359703D01*
X64332Y359639D01*
X64385Y359572D01*
X64434Y359503D01*
X64480Y359432D01*
X64523Y359359D01*
X64563Y359284D01*
X64599Y359208D01*
X64631Y359130D01*
X64660Y359050D01*
X64685Y358969D01*
X64706Y358887D01*
X64724Y358804D01*
X64737Y358720D01*
X64747Y358636D01*
X64753Y358552D01*
X64755Y358467D01*
X64756Y358467D02*
X64756Y356633D01*
X64756Y358834D02*
X67691Y360302D01*
X61087Y365887D02*
X61089Y365966D01*
X61094Y366044D01*
X61104Y366122D01*
X61117Y366199D01*
X61134Y366276D01*
X61154Y366352D01*
X61178Y366427D01*
X61205Y366501D01*
X61236Y366573D01*
X61271Y366644D01*
X61308Y366713D01*
X61349Y366780D01*
X61393Y366845D01*
X61440Y366908D01*
X61490Y366968D01*
X61543Y367026D01*
X61599Y367082D01*
X61657Y367135D01*
X61717Y367185D01*
X61780Y367232D01*
X61845Y367276D01*
X61913Y367317D01*
X61981Y367354D01*
X62052Y367389D01*
X62124Y367420D01*
X62198Y367447D01*
X62273Y367471D01*
X62349Y367491D01*
X62426Y367508D01*
X62503Y367521D01*
X62581Y367531D01*
X62659Y367536D01*
X62738Y367538D01*
X61087Y365887D02*
X61089Y365798D01*
X61094Y365709D01*
X61104Y365621D01*
X61117Y365533D01*
X61133Y365446D01*
X61154Y365359D01*
X61178Y365274D01*
X61205Y365189D01*
X61236Y365106D01*
X61271Y365024D01*
X61309Y364943D01*
X61350Y364864D01*
X61394Y364788D01*
X61442Y364712D01*
X61493Y364639D01*
X61546Y364569D01*
X61603Y364500D01*
X61663Y364434D01*
X61725Y364371D01*
X61790Y364310D01*
X61857Y364252D01*
X61927Y364197D01*
X61999Y364144D01*
X62073Y364095D01*
X62149Y364049D01*
X62227Y364007D01*
X62307Y363967D01*
X62388Y363931D01*
X62471Y363898D01*
X62555Y363869D01*
X64022Y366988D02*
X63966Y367044D01*
X63907Y367098D01*
X63846Y367149D01*
X63782Y367198D01*
X63717Y367243D01*
X63649Y367286D01*
X63580Y367325D01*
X63509Y367362D01*
X63436Y367395D01*
X63362Y367424D01*
X63287Y367451D01*
X63211Y367474D01*
X63133Y367493D01*
X63055Y367509D01*
X62977Y367522D01*
X62897Y367531D01*
X62818Y367536D01*
X62738Y367538D01*
X64022Y366988D02*
X67691Y363869D01*
X67691Y367538D01*
D11*
X329530Y173990D02*
X364530Y173990D01*
X364530Y278130D01*
X329530Y278130D01*
D12*
X428690Y184280D02*
X428752Y184278D01*
X428813Y184272D01*
X428874Y184263D01*
X428934Y184250D01*
X428993Y184233D01*
X429051Y184212D01*
X429108Y184188D01*
X429163Y184161D01*
X429216Y184130D01*
X429268Y184096D01*
X429317Y184059D01*
X429364Y184019D01*
X429408Y183976D01*
X429449Y183931D01*
X429488Y183883D01*
X429524Y183832D01*
X429556Y183780D01*
X429585Y183726D01*
X429611Y183670D01*
X429633Y183612D01*
X429652Y183554D01*
X429667Y183494D01*
X429678Y183433D01*
X429686Y183372D01*
X429690Y183311D01*
X429690Y183249D01*
X429686Y183188D01*
X429678Y183127D01*
X429667Y183066D01*
X429652Y183006D01*
X429633Y182948D01*
X429611Y182890D01*
X429585Y182834D01*
X429556Y182780D01*
X429524Y182728D01*
X429488Y182677D01*
X429449Y182629D01*
X429408Y182584D01*
X429364Y182541D01*
X429317Y182501D01*
X429268Y182464D01*
X429216Y182430D01*
X429163Y182399D01*
X429108Y182372D01*
X429051Y182348D01*
X428993Y182327D01*
X428934Y182310D01*
X428874Y182297D01*
X428813Y182288D01*
X428752Y182282D01*
X428690Y182280D01*
X428628Y182282D01*
X428567Y182288D01*
X428506Y182297D01*
X428446Y182310D01*
X428387Y182327D01*
X428329Y182348D01*
X428272Y182372D01*
X428217Y182399D01*
X428164Y182430D01*
X428112Y182464D01*
X428063Y182501D01*
X428016Y182541D01*
X427972Y182584D01*
X427931Y182629D01*
X427892Y182677D01*
X427856Y182728D01*
X427824Y182780D01*
X427795Y182834D01*
X427769Y182890D01*
X427747Y182948D01*
X427728Y183006D01*
X427713Y183066D01*
X427702Y183127D01*
X427694Y183188D01*
X427690Y183249D01*
X427690Y183311D01*
X427694Y183372D01*
X427702Y183433D01*
X427713Y183494D01*
X427728Y183554D01*
X427747Y183612D01*
X427769Y183670D01*
X427795Y183726D01*
X427824Y183780D01*
X427856Y183832D01*
X427892Y183883D01*
X427931Y183931D01*
X427972Y183976D01*
X428016Y184019D01*
X428063Y184059D01*
X428112Y184096D01*
X428164Y184130D01*
X428217Y184161D01*
X428272Y184188D01*
X428329Y184212D01*
X428387Y184233D01*
X428446Y184250D01*
X428506Y184263D01*
X428567Y184272D01*
X428628Y184278D01*
X428690Y184280D01*
D10*
X378986Y217243D02*
X373794Y217243D01*
X373794Y217242D02*
X373681Y217244D01*
X373568Y217250D01*
X373455Y217260D01*
X373342Y217274D01*
X373230Y217291D01*
X373119Y217313D01*
X373009Y217338D01*
X372899Y217368D01*
X372791Y217401D01*
X372684Y217438D01*
X372578Y217478D01*
X372474Y217523D01*
X372371Y217571D01*
X372270Y217622D01*
X372171Y217677D01*
X372074Y217735D01*
X371979Y217797D01*
X371886Y217862D01*
X371796Y217930D01*
X371708Y218001D01*
X371622Y218076D01*
X371539Y218153D01*
X371459Y218233D01*
X371382Y218316D01*
X371307Y218402D01*
X371236Y218490D01*
X371168Y218580D01*
X371103Y218673D01*
X371041Y218768D01*
X370983Y218865D01*
X370928Y218964D01*
X370877Y219065D01*
X370829Y219168D01*
X370784Y219272D01*
X370744Y219378D01*
X370707Y219485D01*
X370674Y219593D01*
X370644Y219703D01*
X370619Y219813D01*
X370597Y219924D01*
X370580Y220036D01*
X370566Y220149D01*
X370556Y220262D01*
X370550Y220375D01*
X370548Y220488D01*
X370550Y220601D01*
X370556Y220714D01*
X370566Y220827D01*
X370580Y220940D01*
X370597Y221052D01*
X370619Y221163D01*
X370644Y221273D01*
X370674Y221383D01*
X370707Y221491D01*
X370744Y221598D01*
X370784Y221704D01*
X370829Y221808D01*
X370877Y221911D01*
X370928Y222012D01*
X370983Y222111D01*
X371041Y222208D01*
X371103Y222303D01*
X371168Y222396D01*
X371236Y222486D01*
X371307Y222574D01*
X371382Y222660D01*
X371459Y222743D01*
X371539Y222823D01*
X371622Y222900D01*
X371708Y222975D01*
X371796Y223046D01*
X371886Y223114D01*
X371979Y223179D01*
X372074Y223241D01*
X372171Y223299D01*
X372270Y223354D01*
X372371Y223405D01*
X372474Y223453D01*
X372578Y223498D01*
X372684Y223538D01*
X372791Y223575D01*
X372899Y223608D01*
X373009Y223638D01*
X373119Y223663D01*
X373230Y223685D01*
X373342Y223702D01*
X373455Y223716D01*
X373568Y223726D01*
X373681Y223732D01*
X373794Y223734D01*
X378986Y223734D01*
X379099Y223732D01*
X379212Y223726D01*
X379325Y223716D01*
X379438Y223702D01*
X379550Y223685D01*
X379661Y223663D01*
X379771Y223638D01*
X379881Y223608D01*
X379989Y223575D01*
X380096Y223538D01*
X380202Y223498D01*
X380306Y223453D01*
X380409Y223405D01*
X380510Y223354D01*
X380609Y223299D01*
X380706Y223241D01*
X380801Y223179D01*
X380894Y223114D01*
X380984Y223046D01*
X381072Y222975D01*
X381158Y222900D01*
X381241Y222823D01*
X381321Y222743D01*
X381398Y222660D01*
X381473Y222574D01*
X381544Y222486D01*
X381612Y222396D01*
X381677Y222303D01*
X381739Y222208D01*
X381797Y222111D01*
X381852Y222012D01*
X381903Y221911D01*
X381951Y221808D01*
X381996Y221704D01*
X382036Y221598D01*
X382073Y221491D01*
X382106Y221383D01*
X382136Y221273D01*
X382161Y221163D01*
X382183Y221052D01*
X382200Y220940D01*
X382214Y220827D01*
X382224Y220714D01*
X382230Y220601D01*
X382232Y220488D01*
X382230Y220375D01*
X382224Y220262D01*
X382214Y220149D01*
X382200Y220036D01*
X382183Y219924D01*
X382161Y219813D01*
X382136Y219703D01*
X382106Y219593D01*
X382073Y219485D01*
X382036Y219378D01*
X381996Y219272D01*
X381951Y219168D01*
X381903Y219065D01*
X381852Y218964D01*
X381797Y218865D01*
X381739Y218768D01*
X381677Y218673D01*
X381612Y218580D01*
X381544Y218490D01*
X381473Y218402D01*
X381398Y218316D01*
X381321Y218233D01*
X381241Y218153D01*
X381158Y218076D01*
X381072Y218001D01*
X380984Y217930D01*
X380894Y217862D01*
X380801Y217797D01*
X380706Y217735D01*
X380609Y217677D01*
X380510Y217622D01*
X380409Y217571D01*
X380306Y217523D01*
X380202Y217478D01*
X380096Y217438D01*
X379989Y217401D01*
X379881Y217368D01*
X379771Y217338D01*
X379661Y217313D01*
X379550Y217291D01*
X379438Y217274D01*
X379325Y217260D01*
X379212Y217250D01*
X379099Y217244D01*
X378986Y217242D01*
X379636Y222435D02*
X382232Y225032D01*
X379636Y228386D02*
X370548Y230983D01*
X379636Y228386D02*
X379636Y234878D01*
X382232Y232930D02*
X377039Y232930D01*
D11*
X364470Y305600D02*
X364470Y405600D01*
X364470Y405850D02*
X359470Y405850D01*
X359470Y305350D02*
X364470Y305350D01*
D12*
X398430Y318600D02*
X398432Y318659D01*
X398438Y318718D01*
X398447Y318777D01*
X398460Y318835D01*
X398477Y318891D01*
X398498Y318947D01*
X398522Y319001D01*
X398549Y319054D01*
X398580Y319105D01*
X398614Y319153D01*
X398651Y319200D01*
X398691Y319244D01*
X398733Y319285D01*
X398778Y319323D01*
X398826Y319359D01*
X398875Y319391D01*
X398927Y319420D01*
X398981Y319446D01*
X399036Y319468D01*
X399092Y319487D01*
X399149Y319502D01*
X399207Y319513D01*
X399266Y319521D01*
X399325Y319525D01*
X399385Y319525D01*
X399444Y319521D01*
X399503Y319513D01*
X399561Y319502D01*
X399618Y319487D01*
X399674Y319468D01*
X399729Y319446D01*
X399783Y319420D01*
X399835Y319391D01*
X399884Y319359D01*
X399932Y319323D01*
X399977Y319285D01*
X400019Y319244D01*
X400059Y319200D01*
X400096Y319153D01*
X400130Y319105D01*
X400161Y319054D01*
X400188Y319001D01*
X400212Y318947D01*
X400233Y318891D01*
X400250Y318835D01*
X400263Y318777D01*
X400272Y318718D01*
X400278Y318659D01*
X400280Y318600D01*
X400278Y318541D01*
X400272Y318482D01*
X400263Y318423D01*
X400250Y318365D01*
X400233Y318309D01*
X400212Y318253D01*
X400188Y318199D01*
X400161Y318146D01*
X400130Y318095D01*
X400096Y318047D01*
X400059Y318000D01*
X400019Y317956D01*
X399977Y317915D01*
X399932Y317877D01*
X399884Y317841D01*
X399835Y317809D01*
X399783Y317780D01*
X399729Y317754D01*
X399674Y317732D01*
X399618Y317713D01*
X399561Y317698D01*
X399503Y317687D01*
X399444Y317679D01*
X399385Y317675D01*
X399325Y317675D01*
X399266Y317679D01*
X399207Y317687D01*
X399149Y317698D01*
X399092Y317713D01*
X399036Y317732D01*
X398981Y317754D01*
X398927Y317780D01*
X398875Y317809D01*
X398826Y317841D01*
X398778Y317877D01*
X398733Y317915D01*
X398691Y317956D01*
X398651Y318000D01*
X398614Y318047D01*
X398580Y318095D01*
X398549Y318146D01*
X398522Y318199D01*
X398498Y318253D01*
X398477Y318309D01*
X398460Y318365D01*
X398447Y318423D01*
X398438Y318482D01*
X398432Y318541D01*
X398430Y318600D01*
D10*
X378516Y346463D02*
X373324Y346463D01*
X373324Y346462D02*
X373211Y346464D01*
X373098Y346470D01*
X372985Y346480D01*
X372872Y346494D01*
X372760Y346511D01*
X372649Y346533D01*
X372539Y346558D01*
X372429Y346588D01*
X372321Y346621D01*
X372214Y346658D01*
X372108Y346698D01*
X372004Y346743D01*
X371901Y346791D01*
X371800Y346842D01*
X371701Y346897D01*
X371604Y346955D01*
X371509Y347017D01*
X371416Y347082D01*
X371326Y347150D01*
X371238Y347221D01*
X371152Y347296D01*
X371069Y347373D01*
X370989Y347453D01*
X370912Y347536D01*
X370837Y347622D01*
X370766Y347710D01*
X370698Y347800D01*
X370633Y347893D01*
X370571Y347988D01*
X370513Y348085D01*
X370458Y348184D01*
X370407Y348285D01*
X370359Y348388D01*
X370314Y348492D01*
X370274Y348598D01*
X370237Y348705D01*
X370204Y348813D01*
X370174Y348923D01*
X370149Y349033D01*
X370127Y349144D01*
X370110Y349256D01*
X370096Y349369D01*
X370086Y349482D01*
X370080Y349595D01*
X370078Y349708D01*
X370080Y349821D01*
X370086Y349934D01*
X370096Y350047D01*
X370110Y350160D01*
X370127Y350272D01*
X370149Y350383D01*
X370174Y350493D01*
X370204Y350603D01*
X370237Y350711D01*
X370274Y350818D01*
X370314Y350924D01*
X370359Y351028D01*
X370407Y351131D01*
X370458Y351232D01*
X370513Y351331D01*
X370571Y351428D01*
X370633Y351523D01*
X370698Y351616D01*
X370766Y351706D01*
X370837Y351794D01*
X370912Y351880D01*
X370989Y351963D01*
X371069Y352043D01*
X371152Y352120D01*
X371238Y352195D01*
X371326Y352266D01*
X371416Y352334D01*
X371509Y352399D01*
X371604Y352461D01*
X371701Y352519D01*
X371800Y352574D01*
X371901Y352625D01*
X372004Y352673D01*
X372108Y352718D01*
X372214Y352758D01*
X372321Y352795D01*
X372429Y352828D01*
X372539Y352858D01*
X372649Y352883D01*
X372760Y352905D01*
X372872Y352922D01*
X372985Y352936D01*
X373098Y352946D01*
X373211Y352952D01*
X373324Y352954D01*
X378516Y352954D01*
X378629Y352952D01*
X378742Y352946D01*
X378855Y352936D01*
X378968Y352922D01*
X379080Y352905D01*
X379191Y352883D01*
X379301Y352858D01*
X379411Y352828D01*
X379519Y352795D01*
X379626Y352758D01*
X379732Y352718D01*
X379836Y352673D01*
X379939Y352625D01*
X380040Y352574D01*
X380139Y352519D01*
X380236Y352461D01*
X380331Y352399D01*
X380424Y352334D01*
X380514Y352266D01*
X380602Y352195D01*
X380688Y352120D01*
X380771Y352043D01*
X380851Y351963D01*
X380928Y351880D01*
X381003Y351794D01*
X381074Y351706D01*
X381142Y351616D01*
X381207Y351523D01*
X381269Y351428D01*
X381327Y351331D01*
X381382Y351232D01*
X381433Y351131D01*
X381481Y351028D01*
X381526Y350924D01*
X381566Y350818D01*
X381603Y350711D01*
X381636Y350603D01*
X381666Y350493D01*
X381691Y350383D01*
X381713Y350272D01*
X381730Y350160D01*
X381744Y350047D01*
X381754Y349934D01*
X381760Y349821D01*
X381762Y349708D01*
X381760Y349595D01*
X381754Y349482D01*
X381744Y349369D01*
X381730Y349256D01*
X381713Y349144D01*
X381691Y349033D01*
X381666Y348923D01*
X381636Y348813D01*
X381603Y348705D01*
X381566Y348598D01*
X381526Y348492D01*
X381481Y348388D01*
X381433Y348285D01*
X381382Y348184D01*
X381327Y348085D01*
X381269Y347988D01*
X381207Y347893D01*
X381142Y347800D01*
X381074Y347710D01*
X381003Y347622D01*
X380928Y347536D01*
X380851Y347453D01*
X380771Y347373D01*
X380688Y347296D01*
X380602Y347221D01*
X380514Y347150D01*
X380424Y347082D01*
X380331Y347017D01*
X380236Y346955D01*
X380139Y346897D01*
X380040Y346842D01*
X379939Y346791D01*
X379836Y346743D01*
X379732Y346698D01*
X379626Y346658D01*
X379519Y346621D01*
X379411Y346588D01*
X379301Y346558D01*
X379191Y346533D01*
X379080Y346511D01*
X378968Y346494D01*
X378855Y346480D01*
X378742Y346470D01*
X378629Y346464D01*
X378516Y346462D01*
X379166Y351655D02*
X381762Y354252D01*
X381762Y357606D02*
X381762Y361501D01*
X381760Y361600D01*
X381754Y361700D01*
X381745Y361799D01*
X381732Y361897D01*
X381715Y361995D01*
X381694Y362093D01*
X381669Y362189D01*
X381641Y362284D01*
X381609Y362378D01*
X381574Y362471D01*
X381535Y362563D01*
X381492Y362653D01*
X381447Y362741D01*
X381397Y362828D01*
X381345Y362912D01*
X381289Y362995D01*
X381231Y363075D01*
X381169Y363153D01*
X381104Y363228D01*
X381036Y363301D01*
X380966Y363371D01*
X380893Y363439D01*
X380818Y363504D01*
X380740Y363566D01*
X380660Y363624D01*
X380577Y363680D01*
X380493Y363732D01*
X380406Y363782D01*
X380318Y363827D01*
X380228Y363870D01*
X380136Y363909D01*
X380043Y363944D01*
X379949Y363976D01*
X379854Y364004D01*
X379758Y364029D01*
X379660Y364050D01*
X379562Y364067D01*
X379464Y364080D01*
X379365Y364089D01*
X379265Y364095D01*
X379166Y364097D01*
X377867Y364097D01*
X377768Y364095D01*
X377668Y364089D01*
X377569Y364080D01*
X377471Y364067D01*
X377373Y364050D01*
X377275Y364029D01*
X377179Y364004D01*
X377084Y363976D01*
X376990Y363944D01*
X376897Y363909D01*
X376805Y363870D01*
X376715Y363827D01*
X376627Y363782D01*
X376540Y363732D01*
X376456Y363680D01*
X376373Y363624D01*
X376293Y363566D01*
X376215Y363504D01*
X376140Y363439D01*
X376067Y363371D01*
X375997Y363301D01*
X375929Y363228D01*
X375864Y363153D01*
X375802Y363075D01*
X375744Y362995D01*
X375688Y362912D01*
X375636Y362828D01*
X375586Y362741D01*
X375541Y362653D01*
X375498Y362563D01*
X375459Y362471D01*
X375424Y362378D01*
X375392Y362284D01*
X375364Y362189D01*
X375339Y362093D01*
X375318Y361995D01*
X375301Y361897D01*
X375288Y361799D01*
X375279Y361700D01*
X375273Y361600D01*
X375271Y361501D01*
X375271Y357606D01*
X370078Y357606D01*
X370078Y364097D01*
D13*
X475464Y232584D02*
X475464Y219456D01*
X465376Y219456D01*
X444016Y219456D02*
X444016Y232584D01*
X444016Y219456D02*
X454104Y219456D01*
X456016Y232664D02*
X463604Y232664D01*
D14*
X430684Y224734D02*
X430684Y221798D01*
X430684Y224734D02*
X430686Y224819D01*
X430692Y224903D01*
X430702Y224987D01*
X430715Y225071D01*
X430733Y225154D01*
X430754Y225236D01*
X430779Y225317D01*
X430808Y225397D01*
X430840Y225475D01*
X430876Y225551D01*
X430916Y225626D01*
X430959Y225699D01*
X431005Y225770D01*
X431054Y225839D01*
X431107Y225906D01*
X431163Y225970D01*
X431221Y226031D01*
X431282Y226089D01*
X431346Y226145D01*
X431413Y226198D01*
X431482Y226247D01*
X431553Y226293D01*
X431626Y226336D01*
X431701Y226376D01*
X431777Y226412D01*
X431855Y226444D01*
X431935Y226473D01*
X432016Y226498D01*
X432098Y226519D01*
X432181Y226537D01*
X432265Y226550D01*
X432349Y226560D01*
X432433Y226566D01*
X432518Y226568D01*
X432603Y226566D01*
X432687Y226560D01*
X432771Y226550D01*
X432855Y226537D01*
X432938Y226519D01*
X433020Y226498D01*
X433101Y226473D01*
X433181Y226444D01*
X433259Y226412D01*
X433335Y226376D01*
X433410Y226336D01*
X433483Y226293D01*
X433554Y226247D01*
X433623Y226198D01*
X433690Y226145D01*
X433754Y226089D01*
X433815Y226031D01*
X433873Y225970D01*
X433929Y225906D01*
X433982Y225839D01*
X434031Y225770D01*
X434077Y225699D01*
X434120Y225626D01*
X434160Y225551D01*
X434196Y225475D01*
X434228Y225397D01*
X434257Y225317D01*
X434282Y225236D01*
X434303Y225154D01*
X434321Y225071D01*
X434334Y224987D01*
X434344Y224903D01*
X434350Y224819D01*
X434352Y224734D01*
X434353Y224734D02*
X434353Y221798D01*
X434352Y221798D02*
X434350Y221713D01*
X434344Y221629D01*
X434334Y221545D01*
X434321Y221461D01*
X434303Y221378D01*
X434282Y221296D01*
X434257Y221215D01*
X434228Y221135D01*
X434196Y221057D01*
X434160Y220981D01*
X434120Y220906D01*
X434077Y220833D01*
X434031Y220762D01*
X433982Y220693D01*
X433929Y220626D01*
X433873Y220562D01*
X433815Y220501D01*
X433754Y220443D01*
X433690Y220387D01*
X433623Y220334D01*
X433554Y220285D01*
X433483Y220239D01*
X433410Y220196D01*
X433335Y220156D01*
X433259Y220120D01*
X433181Y220088D01*
X433101Y220059D01*
X433020Y220034D01*
X432938Y220013D01*
X432855Y219995D01*
X432771Y219982D01*
X432687Y219972D01*
X432603Y219966D01*
X432518Y219964D01*
X432433Y219966D01*
X432349Y219972D01*
X432265Y219982D01*
X432181Y219995D01*
X432098Y220013D01*
X432016Y220034D01*
X431935Y220059D01*
X431855Y220088D01*
X431777Y220120D01*
X431701Y220156D01*
X431626Y220196D01*
X431553Y220239D01*
X431482Y220285D01*
X431413Y220334D01*
X431346Y220387D01*
X431282Y220443D01*
X431221Y220501D01*
X431163Y220562D01*
X431107Y220626D01*
X431054Y220693D01*
X431005Y220762D01*
X430959Y220833D01*
X430916Y220906D01*
X430876Y220981D01*
X430840Y221057D01*
X430808Y221135D01*
X430779Y221215D01*
X430754Y221296D01*
X430733Y221378D01*
X430715Y221461D01*
X430702Y221545D01*
X430692Y221629D01*
X430686Y221713D01*
X430684Y221798D01*
X433619Y221432D02*
X435087Y219964D01*
X437529Y223633D02*
X439730Y223633D01*
X439804Y223631D01*
X439879Y223625D01*
X439952Y223616D01*
X440026Y223603D01*
X440098Y223586D01*
X440169Y223566D01*
X440240Y223542D01*
X440309Y223514D01*
X440376Y223483D01*
X440442Y223449D01*
X440507Y223411D01*
X440569Y223370D01*
X440629Y223326D01*
X440686Y223279D01*
X440741Y223229D01*
X440794Y223176D01*
X440844Y223121D01*
X440891Y223064D01*
X440935Y223004D01*
X440976Y222942D01*
X441014Y222877D01*
X441048Y222811D01*
X441079Y222744D01*
X441107Y222675D01*
X441131Y222604D01*
X441151Y222533D01*
X441168Y222461D01*
X441181Y222387D01*
X441190Y222314D01*
X441196Y222239D01*
X441198Y222165D01*
X441198Y221798D01*
X441196Y221713D01*
X441190Y221629D01*
X441180Y221545D01*
X441167Y221461D01*
X441149Y221378D01*
X441128Y221296D01*
X441103Y221215D01*
X441074Y221135D01*
X441042Y221057D01*
X441006Y220981D01*
X440966Y220906D01*
X440923Y220833D01*
X440877Y220762D01*
X440828Y220693D01*
X440775Y220626D01*
X440719Y220562D01*
X440661Y220501D01*
X440600Y220443D01*
X440536Y220387D01*
X440469Y220334D01*
X440400Y220285D01*
X440329Y220239D01*
X440256Y220196D01*
X440181Y220156D01*
X440105Y220120D01*
X440027Y220088D01*
X439947Y220059D01*
X439866Y220034D01*
X439784Y220013D01*
X439701Y219995D01*
X439617Y219982D01*
X439533Y219972D01*
X439449Y219966D01*
X439364Y219964D01*
X439279Y219966D01*
X439195Y219972D01*
X439111Y219982D01*
X439027Y219995D01*
X438944Y220013D01*
X438862Y220034D01*
X438781Y220059D01*
X438701Y220088D01*
X438623Y220120D01*
X438547Y220156D01*
X438472Y220196D01*
X438399Y220239D01*
X438328Y220285D01*
X438259Y220334D01*
X438192Y220387D01*
X438128Y220443D01*
X438067Y220501D01*
X438009Y220562D01*
X437953Y220626D01*
X437900Y220693D01*
X437851Y220762D01*
X437805Y220833D01*
X437762Y220906D01*
X437722Y220981D01*
X437686Y221057D01*
X437654Y221135D01*
X437625Y221215D01*
X437600Y221296D01*
X437579Y221378D01*
X437561Y221461D01*
X437548Y221545D01*
X437538Y221629D01*
X437532Y221713D01*
X437530Y221798D01*
X437529Y221798D02*
X437529Y223633D01*
X437531Y223740D01*
X437537Y223847D01*
X437547Y223954D01*
X437560Y224060D01*
X437578Y224166D01*
X437599Y224271D01*
X437624Y224375D01*
X437653Y224479D01*
X437686Y224581D01*
X437723Y224681D01*
X437763Y224781D01*
X437807Y224879D01*
X437854Y224975D01*
X437905Y225069D01*
X437959Y225162D01*
X438016Y225252D01*
X438077Y225341D01*
X438141Y225427D01*
X438208Y225510D01*
X438278Y225592D01*
X438351Y225670D01*
X438427Y225746D01*
X438505Y225819D01*
X438587Y225889D01*
X438670Y225956D01*
X438756Y226020D01*
X438845Y226081D01*
X438935Y226138D01*
X439028Y226192D01*
X439122Y226243D01*
X439218Y226290D01*
X439316Y226334D01*
X439416Y226374D01*
X439516Y226411D01*
X439618Y226444D01*
X439722Y226473D01*
X439826Y226498D01*
X439931Y226519D01*
X440037Y226537D01*
X440143Y226550D01*
X440250Y226560D01*
X440357Y226566D01*
X440464Y226568D01*
D13*
X466090Y202565D02*
X466090Y173355D01*
X466090Y202565D02*
X478790Y202565D01*
X478790Y173355D01*
X466090Y173355D01*
D14*
X480949Y183642D02*
X487553Y183642D01*
X480949Y183642D02*
X480949Y185476D01*
X480951Y185561D01*
X480957Y185645D01*
X480967Y185729D01*
X480980Y185813D01*
X480998Y185896D01*
X481019Y185978D01*
X481044Y186059D01*
X481073Y186139D01*
X481105Y186217D01*
X481141Y186293D01*
X481181Y186368D01*
X481224Y186441D01*
X481270Y186512D01*
X481319Y186581D01*
X481372Y186648D01*
X481428Y186712D01*
X481486Y186773D01*
X481547Y186831D01*
X481611Y186887D01*
X481678Y186940D01*
X481747Y186989D01*
X481818Y187035D01*
X481891Y187078D01*
X481966Y187118D01*
X482042Y187154D01*
X482120Y187186D01*
X482200Y187215D01*
X482281Y187240D01*
X482363Y187261D01*
X482446Y187279D01*
X482530Y187292D01*
X482614Y187302D01*
X482698Y187308D01*
X482783Y187310D01*
X482868Y187308D01*
X482952Y187302D01*
X483036Y187292D01*
X483120Y187279D01*
X483203Y187261D01*
X483285Y187240D01*
X483366Y187215D01*
X483446Y187186D01*
X483524Y187154D01*
X483600Y187118D01*
X483675Y187078D01*
X483748Y187035D01*
X483819Y186989D01*
X483888Y186940D01*
X483955Y186887D01*
X484019Y186831D01*
X484080Y186773D01*
X484138Y186712D01*
X484194Y186648D01*
X484247Y186581D01*
X484296Y186512D01*
X484342Y186441D01*
X484385Y186368D01*
X484425Y186293D01*
X484461Y186217D01*
X484493Y186139D01*
X484522Y186059D01*
X484547Y185978D01*
X484568Y185896D01*
X484586Y185813D01*
X484599Y185729D01*
X484609Y185645D01*
X484615Y185561D01*
X484617Y185476D01*
X484618Y185476D02*
X484618Y183642D01*
X484618Y185843D02*
X487553Y187311D01*
X487553Y190878D02*
X487553Y192713D01*
X487551Y192798D01*
X487545Y192882D01*
X487535Y192966D01*
X487522Y193050D01*
X487504Y193133D01*
X487483Y193215D01*
X487458Y193296D01*
X487429Y193376D01*
X487397Y193454D01*
X487361Y193530D01*
X487321Y193605D01*
X487278Y193678D01*
X487232Y193749D01*
X487183Y193818D01*
X487130Y193885D01*
X487074Y193949D01*
X487016Y194010D01*
X486955Y194068D01*
X486891Y194124D01*
X486824Y194177D01*
X486755Y194226D01*
X486684Y194272D01*
X486611Y194315D01*
X486536Y194355D01*
X486460Y194391D01*
X486382Y194423D01*
X486302Y194452D01*
X486221Y194477D01*
X486139Y194498D01*
X486056Y194516D01*
X485972Y194529D01*
X485888Y194539D01*
X485804Y194545D01*
X485719Y194547D01*
X485634Y194545D01*
X485550Y194539D01*
X485466Y194529D01*
X485382Y194516D01*
X485299Y194498D01*
X485217Y194477D01*
X485136Y194452D01*
X485056Y194423D01*
X484978Y194391D01*
X484902Y194355D01*
X484827Y194315D01*
X484754Y194272D01*
X484683Y194226D01*
X484614Y194177D01*
X484547Y194124D01*
X484483Y194068D01*
X484422Y194010D01*
X484364Y193949D01*
X484308Y193885D01*
X484255Y193818D01*
X484206Y193749D01*
X484160Y193678D01*
X484117Y193605D01*
X484077Y193530D01*
X484041Y193454D01*
X484009Y193376D01*
X483980Y193296D01*
X483955Y193215D01*
X483934Y193133D01*
X483916Y193050D01*
X483903Y192966D01*
X483893Y192882D01*
X483887Y192798D01*
X483885Y192713D01*
X480949Y193080D02*
X480949Y190878D01*
X480949Y193080D02*
X480951Y193156D01*
X480957Y193231D01*
X480966Y193306D01*
X480980Y193380D01*
X480997Y193454D01*
X481019Y193526D01*
X481043Y193598D01*
X481072Y193668D01*
X481104Y193736D01*
X481139Y193803D01*
X481178Y193868D01*
X481221Y193931D01*
X481266Y193991D01*
X481314Y194049D01*
X481366Y194105D01*
X481420Y194157D01*
X481477Y194207D01*
X481536Y194254D01*
X481597Y194298D01*
X481661Y194339D01*
X481727Y194376D01*
X481795Y194410D01*
X481864Y194440D01*
X481935Y194467D01*
X482007Y194490D01*
X482080Y194509D01*
X482154Y194524D01*
X482229Y194536D01*
X482304Y194544D01*
X482379Y194548D01*
X482455Y194548D01*
X482530Y194544D01*
X482605Y194536D01*
X482680Y194524D01*
X482754Y194509D01*
X482827Y194490D01*
X482899Y194467D01*
X482970Y194440D01*
X483039Y194410D01*
X483107Y194376D01*
X483173Y194339D01*
X483237Y194298D01*
X483298Y194254D01*
X483357Y194207D01*
X483414Y194157D01*
X483468Y194105D01*
X483520Y194049D01*
X483568Y193991D01*
X483613Y193931D01*
X483656Y193868D01*
X483695Y193803D01*
X483730Y193736D01*
X483762Y193668D01*
X483791Y193598D01*
X483815Y193526D01*
X483837Y193454D01*
X483854Y193380D01*
X483868Y193306D01*
X483877Y193231D01*
X483883Y193156D01*
X483885Y193080D01*
X483884Y193080D02*
X483884Y191612D01*
D13*
X443230Y340995D02*
X443230Y370205D01*
X455930Y370205D01*
X455930Y340995D01*
X443230Y340995D01*
D14*
X439293Y343662D02*
X432689Y343662D01*
X432689Y345496D01*
X432691Y345581D01*
X432697Y345665D01*
X432707Y345749D01*
X432720Y345833D01*
X432738Y345916D01*
X432759Y345998D01*
X432784Y346079D01*
X432813Y346159D01*
X432845Y346237D01*
X432881Y346313D01*
X432921Y346388D01*
X432964Y346461D01*
X433010Y346532D01*
X433059Y346601D01*
X433112Y346668D01*
X433168Y346732D01*
X433226Y346793D01*
X433287Y346851D01*
X433351Y346907D01*
X433418Y346960D01*
X433487Y347009D01*
X433558Y347055D01*
X433631Y347098D01*
X433706Y347138D01*
X433782Y347174D01*
X433860Y347206D01*
X433940Y347235D01*
X434021Y347260D01*
X434103Y347281D01*
X434186Y347299D01*
X434270Y347312D01*
X434354Y347322D01*
X434438Y347328D01*
X434523Y347330D01*
X434608Y347328D01*
X434692Y347322D01*
X434776Y347312D01*
X434860Y347299D01*
X434943Y347281D01*
X435025Y347260D01*
X435106Y347235D01*
X435186Y347206D01*
X435264Y347174D01*
X435340Y347138D01*
X435415Y347098D01*
X435488Y347055D01*
X435559Y347009D01*
X435628Y346960D01*
X435695Y346907D01*
X435759Y346851D01*
X435820Y346793D01*
X435878Y346732D01*
X435934Y346668D01*
X435987Y346601D01*
X436036Y346532D01*
X436082Y346461D01*
X436125Y346388D01*
X436165Y346313D01*
X436201Y346237D01*
X436233Y346159D01*
X436262Y346079D01*
X436287Y345998D01*
X436308Y345916D01*
X436326Y345833D01*
X436339Y345749D01*
X436349Y345665D01*
X436355Y345581D01*
X436357Y345496D01*
X436358Y345496D02*
X436358Y343662D01*
X436358Y345863D02*
X439293Y347331D01*
X437825Y350898D02*
X432689Y352366D01*
X437825Y350898D02*
X437825Y354567D01*
X436358Y353467D02*
X439293Y353467D01*
D12*
X411940Y436400D02*
X329740Y436400D01*
X329740Y503400D01*
X411940Y503400D01*
X411940Y436400D01*
D15*
X404540Y452900D02*
X404542Y452963D01*
X404548Y453025D01*
X404558Y453087D01*
X404571Y453149D01*
X404589Y453209D01*
X404610Y453268D01*
X404635Y453326D01*
X404664Y453382D01*
X404696Y453436D01*
X404731Y453488D01*
X404769Y453537D01*
X404811Y453585D01*
X404855Y453629D01*
X404903Y453671D01*
X404952Y453709D01*
X405004Y453744D01*
X405058Y453776D01*
X405114Y453805D01*
X405172Y453830D01*
X405231Y453851D01*
X405291Y453869D01*
X405353Y453882D01*
X405415Y453892D01*
X405477Y453898D01*
X405540Y453900D01*
X405603Y453898D01*
X405665Y453892D01*
X405727Y453882D01*
X405789Y453869D01*
X405849Y453851D01*
X405908Y453830D01*
X405966Y453805D01*
X406022Y453776D01*
X406076Y453744D01*
X406128Y453709D01*
X406177Y453671D01*
X406225Y453629D01*
X406269Y453585D01*
X406311Y453537D01*
X406349Y453488D01*
X406384Y453436D01*
X406416Y453382D01*
X406445Y453326D01*
X406470Y453268D01*
X406491Y453209D01*
X406509Y453149D01*
X406522Y453087D01*
X406532Y453025D01*
X406538Y452963D01*
X406540Y452900D01*
X406538Y452837D01*
X406532Y452775D01*
X406522Y452713D01*
X406509Y452651D01*
X406491Y452591D01*
X406470Y452532D01*
X406445Y452474D01*
X406416Y452418D01*
X406384Y452364D01*
X406349Y452312D01*
X406311Y452263D01*
X406269Y452215D01*
X406225Y452171D01*
X406177Y452129D01*
X406128Y452091D01*
X406076Y452056D01*
X406022Y452024D01*
X405966Y451995D01*
X405908Y451970D01*
X405849Y451949D01*
X405789Y451931D01*
X405727Y451918D01*
X405665Y451908D01*
X405603Y451902D01*
X405540Y451900D01*
X405477Y451902D01*
X405415Y451908D01*
X405353Y451918D01*
X405291Y451931D01*
X405231Y451949D01*
X405172Y451970D01*
X405114Y451995D01*
X405058Y452024D01*
X405004Y452056D01*
X404952Y452091D01*
X404903Y452129D01*
X404855Y452171D01*
X404811Y452215D01*
X404769Y452263D01*
X404731Y452312D01*
X404696Y452364D01*
X404664Y452418D01*
X404635Y452474D01*
X404610Y452532D01*
X404589Y452591D01*
X404571Y452651D01*
X404558Y452713D01*
X404548Y452775D01*
X404542Y452837D01*
X404540Y452900D01*
D10*
X312295Y462214D02*
X312295Y471302D01*
X312295Y462214D02*
X312293Y462115D01*
X312287Y462015D01*
X312278Y461916D01*
X312265Y461818D01*
X312248Y461720D01*
X312227Y461622D01*
X312202Y461526D01*
X312174Y461431D01*
X312142Y461337D01*
X312107Y461244D01*
X312068Y461152D01*
X312025Y461062D01*
X311980Y460974D01*
X311930Y460887D01*
X311878Y460803D01*
X311822Y460720D01*
X311764Y460640D01*
X311702Y460562D01*
X311637Y460487D01*
X311569Y460414D01*
X311499Y460344D01*
X311426Y460276D01*
X311351Y460211D01*
X311273Y460149D01*
X311193Y460091D01*
X311110Y460035D01*
X311026Y459983D01*
X310939Y459933D01*
X310851Y459888D01*
X310761Y459845D01*
X310669Y459806D01*
X310576Y459771D01*
X310482Y459739D01*
X310387Y459711D01*
X310291Y459686D01*
X310193Y459665D01*
X310095Y459648D01*
X309997Y459635D01*
X309898Y459626D01*
X309798Y459620D01*
X309699Y459618D01*
X308400Y459618D01*
X317568Y468706D02*
X320814Y471302D01*
X320814Y459618D01*
X317568Y459618D02*
X324060Y459618D01*
D12*
X302980Y113900D02*
X265980Y113900D01*
X302980Y113900D02*
X302980Y63900D01*
X265980Y63900D01*
X265980Y113900D01*
X262480Y114150D02*
X247730Y114150D01*
D10*
X274172Y94742D02*
X274172Y83058D01*
X272874Y83058D02*
X275470Y83058D01*
X275470Y94742D02*
X272874Y94742D01*
X282634Y83058D02*
X285230Y83058D01*
X282634Y83058D02*
X282535Y83060D01*
X282435Y83066D01*
X282336Y83075D01*
X282238Y83088D01*
X282140Y83105D01*
X282042Y83126D01*
X281946Y83151D01*
X281851Y83179D01*
X281757Y83211D01*
X281664Y83246D01*
X281572Y83285D01*
X281482Y83328D01*
X281394Y83373D01*
X281307Y83423D01*
X281223Y83475D01*
X281140Y83531D01*
X281060Y83589D01*
X280982Y83651D01*
X280907Y83716D01*
X280834Y83784D01*
X280764Y83854D01*
X280696Y83927D01*
X280631Y84002D01*
X280569Y84080D01*
X280511Y84160D01*
X280455Y84243D01*
X280403Y84327D01*
X280353Y84414D01*
X280308Y84502D01*
X280265Y84592D01*
X280226Y84684D01*
X280191Y84777D01*
X280159Y84871D01*
X280131Y84966D01*
X280106Y85062D01*
X280085Y85160D01*
X280068Y85258D01*
X280055Y85356D01*
X280046Y85455D01*
X280040Y85555D01*
X280038Y85654D01*
X280037Y85654D02*
X280037Y92146D01*
X280038Y92146D02*
X280040Y92245D01*
X280046Y92345D01*
X280055Y92444D01*
X280068Y92542D01*
X280085Y92640D01*
X280106Y92738D01*
X280131Y92834D01*
X280159Y92929D01*
X280191Y93023D01*
X280226Y93116D01*
X280265Y93208D01*
X280308Y93298D01*
X280353Y93386D01*
X280403Y93473D01*
X280455Y93557D01*
X280511Y93640D01*
X280569Y93720D01*
X280631Y93798D01*
X280696Y93873D01*
X280764Y93946D01*
X280834Y94016D01*
X280907Y94084D01*
X280982Y94149D01*
X281060Y94211D01*
X281140Y94269D01*
X281223Y94325D01*
X281307Y94377D01*
X281394Y94427D01*
X281482Y94472D01*
X281572Y94515D01*
X281664Y94554D01*
X281756Y94589D01*
X281851Y94621D01*
X281946Y94649D01*
X282042Y94674D01*
X282140Y94695D01*
X282238Y94712D01*
X282336Y94725D01*
X282435Y94734D01*
X282535Y94740D01*
X282634Y94742D01*
X285230Y94742D01*
X289595Y92146D02*
X292841Y94742D01*
X292841Y83058D01*
X296086Y83058D02*
X289595Y83058D01*
D13*
X194310Y92075D02*
X194310Y121285D01*
X207010Y121285D01*
X207010Y92075D01*
X194310Y92075D01*
D14*
X190373Y99822D02*
X183769Y99822D01*
X183769Y101656D01*
X183771Y101741D01*
X183777Y101825D01*
X183787Y101909D01*
X183800Y101993D01*
X183818Y102076D01*
X183839Y102158D01*
X183864Y102239D01*
X183893Y102319D01*
X183925Y102397D01*
X183961Y102473D01*
X184001Y102548D01*
X184044Y102621D01*
X184090Y102692D01*
X184139Y102761D01*
X184192Y102828D01*
X184248Y102892D01*
X184306Y102953D01*
X184367Y103011D01*
X184431Y103067D01*
X184498Y103120D01*
X184567Y103169D01*
X184638Y103215D01*
X184711Y103258D01*
X184786Y103298D01*
X184862Y103334D01*
X184940Y103366D01*
X185020Y103395D01*
X185101Y103420D01*
X185183Y103441D01*
X185266Y103459D01*
X185350Y103472D01*
X185434Y103482D01*
X185518Y103488D01*
X185603Y103490D01*
X185688Y103488D01*
X185772Y103482D01*
X185856Y103472D01*
X185940Y103459D01*
X186023Y103441D01*
X186105Y103420D01*
X186186Y103395D01*
X186266Y103366D01*
X186344Y103334D01*
X186420Y103298D01*
X186495Y103258D01*
X186568Y103215D01*
X186639Y103169D01*
X186708Y103120D01*
X186775Y103067D01*
X186839Y103011D01*
X186900Y102953D01*
X186958Y102892D01*
X187014Y102828D01*
X187067Y102761D01*
X187116Y102692D01*
X187162Y102621D01*
X187205Y102548D01*
X187245Y102473D01*
X187281Y102397D01*
X187313Y102319D01*
X187342Y102239D01*
X187367Y102158D01*
X187388Y102076D01*
X187406Y101993D01*
X187419Y101909D01*
X187429Y101825D01*
X187435Y101741D01*
X187437Y101656D01*
X187438Y101656D02*
X187438Y99822D01*
X187438Y102023D02*
X190373Y103491D01*
X190373Y107058D02*
X190373Y109260D01*
X190371Y109334D01*
X190365Y109409D01*
X190356Y109482D01*
X190343Y109555D01*
X190326Y109628D01*
X190306Y109699D01*
X190282Y109770D01*
X190254Y109839D01*
X190223Y109906D01*
X190189Y109972D01*
X190151Y110037D01*
X190110Y110099D01*
X190066Y110159D01*
X190019Y110216D01*
X189969Y110271D01*
X189916Y110324D01*
X189861Y110374D01*
X189804Y110421D01*
X189744Y110465D01*
X189682Y110506D01*
X189617Y110544D01*
X189552Y110578D01*
X189484Y110609D01*
X189415Y110637D01*
X189345Y110661D01*
X189273Y110681D01*
X189201Y110698D01*
X189127Y110711D01*
X189054Y110720D01*
X188979Y110726D01*
X188905Y110728D01*
X188905Y110727D02*
X188172Y110727D01*
X188172Y110728D02*
X188098Y110726D01*
X188023Y110720D01*
X187950Y110711D01*
X187876Y110698D01*
X187804Y110681D01*
X187733Y110661D01*
X187662Y110637D01*
X187593Y110609D01*
X187526Y110578D01*
X187460Y110544D01*
X187395Y110506D01*
X187333Y110465D01*
X187273Y110421D01*
X187216Y110374D01*
X187161Y110324D01*
X187108Y110271D01*
X187058Y110216D01*
X187011Y110159D01*
X186967Y110099D01*
X186926Y110037D01*
X186888Y109972D01*
X186854Y109906D01*
X186823Y109839D01*
X186795Y109770D01*
X186771Y109699D01*
X186751Y109628D01*
X186734Y109556D01*
X186721Y109482D01*
X186712Y109409D01*
X186706Y109334D01*
X186704Y109260D01*
X186704Y107058D01*
X183769Y107058D01*
X183769Y110727D01*
D13*
X193675Y90170D02*
X222885Y90170D01*
X222885Y77470D01*
X193675Y77470D01*
X193675Y90170D01*
D14*
X214122Y91567D02*
X214122Y98171D01*
X215956Y98171D01*
X216041Y98169D01*
X216125Y98163D01*
X216209Y98153D01*
X216293Y98140D01*
X216376Y98122D01*
X216458Y98101D01*
X216539Y98076D01*
X216619Y98047D01*
X216697Y98015D01*
X216773Y97979D01*
X216848Y97939D01*
X216921Y97896D01*
X216992Y97850D01*
X217061Y97801D01*
X217128Y97748D01*
X217192Y97692D01*
X217253Y97634D01*
X217311Y97573D01*
X217367Y97509D01*
X217420Y97442D01*
X217469Y97373D01*
X217515Y97302D01*
X217558Y97229D01*
X217598Y97154D01*
X217634Y97078D01*
X217666Y97000D01*
X217695Y96920D01*
X217720Y96839D01*
X217741Y96757D01*
X217759Y96674D01*
X217772Y96590D01*
X217782Y96506D01*
X217788Y96422D01*
X217790Y96337D01*
X217788Y96252D01*
X217782Y96168D01*
X217772Y96084D01*
X217759Y96000D01*
X217741Y95917D01*
X217720Y95835D01*
X217695Y95754D01*
X217666Y95674D01*
X217634Y95596D01*
X217598Y95520D01*
X217558Y95445D01*
X217515Y95372D01*
X217469Y95301D01*
X217420Y95232D01*
X217367Y95165D01*
X217311Y95101D01*
X217253Y95040D01*
X217192Y94982D01*
X217128Y94926D01*
X217061Y94873D01*
X216992Y94824D01*
X216921Y94778D01*
X216848Y94735D01*
X216773Y94695D01*
X216697Y94659D01*
X216619Y94627D01*
X216539Y94598D01*
X216458Y94573D01*
X216376Y94552D01*
X216293Y94534D01*
X216209Y94521D01*
X216125Y94511D01*
X216041Y94505D01*
X215956Y94503D01*
X215956Y94502D02*
X214122Y94502D01*
X216323Y94502D02*
X217791Y91567D01*
X221358Y95236D02*
X223560Y95236D01*
X223634Y95234D01*
X223709Y95228D01*
X223782Y95219D01*
X223856Y95206D01*
X223928Y95189D01*
X223999Y95169D01*
X224070Y95145D01*
X224139Y95117D01*
X224206Y95086D01*
X224272Y95052D01*
X224337Y95014D01*
X224399Y94973D01*
X224459Y94929D01*
X224516Y94882D01*
X224571Y94832D01*
X224624Y94779D01*
X224674Y94724D01*
X224721Y94667D01*
X224765Y94607D01*
X224806Y94545D01*
X224844Y94480D01*
X224878Y94414D01*
X224909Y94347D01*
X224937Y94278D01*
X224961Y94207D01*
X224981Y94136D01*
X224998Y94064D01*
X225011Y93990D01*
X225020Y93917D01*
X225026Y93842D01*
X225028Y93768D01*
X225027Y93768D02*
X225027Y93401D01*
X225025Y93316D01*
X225019Y93232D01*
X225009Y93148D01*
X224996Y93064D01*
X224978Y92981D01*
X224957Y92899D01*
X224932Y92818D01*
X224903Y92738D01*
X224871Y92660D01*
X224835Y92584D01*
X224795Y92509D01*
X224752Y92436D01*
X224706Y92365D01*
X224657Y92296D01*
X224604Y92229D01*
X224548Y92165D01*
X224490Y92104D01*
X224429Y92046D01*
X224365Y91990D01*
X224298Y91937D01*
X224229Y91888D01*
X224158Y91842D01*
X224085Y91799D01*
X224010Y91759D01*
X223934Y91723D01*
X223856Y91691D01*
X223776Y91662D01*
X223695Y91637D01*
X223613Y91616D01*
X223530Y91598D01*
X223446Y91585D01*
X223362Y91575D01*
X223278Y91569D01*
X223193Y91567D01*
X223108Y91569D01*
X223024Y91575D01*
X222940Y91585D01*
X222856Y91598D01*
X222773Y91616D01*
X222691Y91637D01*
X222610Y91662D01*
X222530Y91691D01*
X222452Y91723D01*
X222376Y91759D01*
X222301Y91799D01*
X222228Y91842D01*
X222157Y91888D01*
X222088Y91937D01*
X222021Y91990D01*
X221957Y92046D01*
X221896Y92104D01*
X221838Y92165D01*
X221782Y92229D01*
X221729Y92296D01*
X221680Y92365D01*
X221634Y92436D01*
X221591Y92509D01*
X221551Y92584D01*
X221515Y92660D01*
X221483Y92738D01*
X221454Y92818D01*
X221429Y92899D01*
X221408Y92981D01*
X221390Y93064D01*
X221377Y93148D01*
X221367Y93232D01*
X221361Y93316D01*
X221359Y93401D01*
X221358Y93401D02*
X221358Y95236D01*
X221359Y95236D02*
X221361Y95343D01*
X221367Y95450D01*
X221377Y95557D01*
X221390Y95663D01*
X221408Y95769D01*
X221429Y95874D01*
X221454Y95978D01*
X221483Y96082D01*
X221516Y96184D01*
X221553Y96284D01*
X221593Y96384D01*
X221637Y96482D01*
X221684Y96578D01*
X221735Y96672D01*
X221789Y96765D01*
X221846Y96855D01*
X221907Y96944D01*
X221971Y97030D01*
X222038Y97113D01*
X222108Y97195D01*
X222181Y97273D01*
X222257Y97349D01*
X222335Y97422D01*
X222417Y97492D01*
X222500Y97559D01*
X222586Y97623D01*
X222675Y97684D01*
X222765Y97741D01*
X222858Y97795D01*
X222952Y97846D01*
X223048Y97893D01*
X223146Y97937D01*
X223246Y97977D01*
X223346Y98014D01*
X223448Y98047D01*
X223552Y98076D01*
X223656Y98101D01*
X223761Y98122D01*
X223867Y98140D01*
X223973Y98153D01*
X224080Y98163D01*
X224187Y98169D01*
X224294Y98171D01*
D13*
X222885Y54610D02*
X193675Y54610D01*
X222885Y54610D02*
X222885Y41910D01*
X193675Y41910D01*
X193675Y54610D01*
D14*
X205430Y33147D02*
X206897Y33147D01*
X205430Y33147D02*
X205356Y33149D01*
X205281Y33155D01*
X205208Y33164D01*
X205134Y33177D01*
X205062Y33194D01*
X204991Y33214D01*
X204920Y33238D01*
X204851Y33266D01*
X204784Y33297D01*
X204718Y33331D01*
X204653Y33369D01*
X204591Y33410D01*
X204531Y33454D01*
X204474Y33501D01*
X204419Y33551D01*
X204366Y33604D01*
X204316Y33659D01*
X204269Y33716D01*
X204225Y33776D01*
X204184Y33838D01*
X204146Y33903D01*
X204112Y33969D01*
X204081Y34036D01*
X204053Y34105D01*
X204029Y34176D01*
X204009Y34247D01*
X203992Y34319D01*
X203979Y34393D01*
X203970Y34466D01*
X203964Y34541D01*
X203962Y34615D01*
X203962Y38283D01*
X203964Y38357D01*
X203970Y38432D01*
X203979Y38505D01*
X203992Y38579D01*
X204009Y38651D01*
X204029Y38722D01*
X204053Y38793D01*
X204081Y38862D01*
X204112Y38929D01*
X204146Y38995D01*
X204184Y39060D01*
X204225Y39122D01*
X204269Y39182D01*
X204316Y39239D01*
X204366Y39294D01*
X204419Y39347D01*
X204474Y39397D01*
X204531Y39444D01*
X204591Y39488D01*
X204653Y39529D01*
X204718Y39567D01*
X204783Y39601D01*
X204851Y39632D01*
X204920Y39660D01*
X204991Y39684D01*
X205062Y39704D01*
X205134Y39721D01*
X205208Y39734D01*
X205281Y39743D01*
X205356Y39749D01*
X205430Y39751D01*
X206897Y39751D01*
X210094Y38283D02*
X211928Y39751D01*
X211928Y33147D01*
X210094Y33147D02*
X213762Y33147D01*
D13*
X267335Y135890D02*
X296545Y135890D01*
X296545Y123190D01*
X267335Y123190D01*
X267335Y135890D01*
D14*
X271470Y139827D02*
X272937Y139827D01*
X271470Y139827D02*
X271396Y139829D01*
X271321Y139835D01*
X271248Y139844D01*
X271174Y139857D01*
X271102Y139874D01*
X271031Y139894D01*
X270960Y139918D01*
X270891Y139946D01*
X270824Y139977D01*
X270758Y140011D01*
X270693Y140049D01*
X270631Y140090D01*
X270571Y140134D01*
X270514Y140181D01*
X270459Y140231D01*
X270406Y140284D01*
X270356Y140339D01*
X270309Y140396D01*
X270265Y140456D01*
X270224Y140518D01*
X270186Y140583D01*
X270152Y140649D01*
X270121Y140716D01*
X270093Y140785D01*
X270069Y140856D01*
X270049Y140927D01*
X270032Y140999D01*
X270019Y141073D01*
X270010Y141146D01*
X270004Y141221D01*
X270002Y141295D01*
X270002Y144963D01*
X270004Y145037D01*
X270010Y145112D01*
X270019Y145185D01*
X270032Y145259D01*
X270049Y145331D01*
X270069Y145402D01*
X270093Y145473D01*
X270121Y145542D01*
X270152Y145609D01*
X270186Y145675D01*
X270224Y145740D01*
X270265Y145802D01*
X270309Y145862D01*
X270356Y145919D01*
X270406Y145974D01*
X270459Y146027D01*
X270514Y146077D01*
X270571Y146124D01*
X270631Y146168D01*
X270693Y146209D01*
X270758Y146247D01*
X270823Y146281D01*
X270891Y146312D01*
X270960Y146340D01*
X271031Y146364D01*
X271102Y146384D01*
X271174Y146401D01*
X271248Y146414D01*
X271321Y146423D01*
X271396Y146429D01*
X271470Y146431D01*
X272937Y146431D01*
X278151Y146431D02*
X278230Y146429D01*
X278308Y146424D01*
X278386Y146414D01*
X278463Y146401D01*
X278540Y146384D01*
X278616Y146364D01*
X278691Y146340D01*
X278765Y146313D01*
X278837Y146282D01*
X278908Y146247D01*
X278977Y146210D01*
X279044Y146169D01*
X279109Y146125D01*
X279172Y146078D01*
X279232Y146028D01*
X279290Y145975D01*
X279346Y145919D01*
X279399Y145861D01*
X279449Y145801D01*
X279496Y145738D01*
X279540Y145673D01*
X279581Y145606D01*
X279618Y145537D01*
X279653Y145466D01*
X279684Y145394D01*
X279711Y145320D01*
X279735Y145245D01*
X279755Y145169D01*
X279772Y145092D01*
X279785Y145015D01*
X279795Y144937D01*
X279800Y144859D01*
X279802Y144780D01*
X278151Y146431D02*
X278062Y146429D01*
X277973Y146424D01*
X277885Y146414D01*
X277797Y146401D01*
X277710Y146385D01*
X277623Y146364D01*
X277538Y146340D01*
X277453Y146313D01*
X277370Y146282D01*
X277288Y146247D01*
X277207Y146209D01*
X277128Y146168D01*
X277052Y146124D01*
X276976Y146076D01*
X276903Y146025D01*
X276833Y145972D01*
X276764Y145915D01*
X276698Y145855D01*
X276635Y145793D01*
X276574Y145728D01*
X276516Y145661D01*
X276461Y145591D01*
X276408Y145519D01*
X276359Y145445D01*
X276313Y145369D01*
X276271Y145291D01*
X276231Y145211D01*
X276195Y145130D01*
X276162Y145047D01*
X276133Y144963D01*
X279252Y143496D02*
X279308Y143552D01*
X279362Y143611D01*
X279413Y143672D01*
X279462Y143736D01*
X279507Y143801D01*
X279550Y143869D01*
X279589Y143938D01*
X279626Y144009D01*
X279659Y144082D01*
X279688Y144156D01*
X279715Y144231D01*
X279738Y144307D01*
X279757Y144385D01*
X279773Y144463D01*
X279786Y144541D01*
X279795Y144621D01*
X279800Y144700D01*
X279802Y144780D01*
X279252Y143496D02*
X276134Y139827D01*
X279802Y139827D01*
X242372Y16171D02*
X237236Y16171D01*
X242372Y16172D02*
X242446Y16170D01*
X242521Y16164D01*
X242594Y16155D01*
X242668Y16142D01*
X242740Y16125D01*
X242811Y16105D01*
X242882Y16081D01*
X242951Y16053D01*
X243019Y16022D01*
X243084Y15988D01*
X243149Y15950D01*
X243211Y15909D01*
X243271Y15865D01*
X243328Y15818D01*
X243383Y15768D01*
X243436Y15715D01*
X243486Y15660D01*
X243533Y15603D01*
X243577Y15543D01*
X243618Y15481D01*
X243656Y15416D01*
X243690Y15350D01*
X243721Y15283D01*
X243749Y15214D01*
X243773Y15143D01*
X243793Y15072D01*
X243810Y14999D01*
X243823Y14926D01*
X243832Y14852D01*
X243838Y14778D01*
X243840Y14704D01*
X243840Y13970D01*
X243840Y20437D02*
X237236Y20437D01*
X237236Y22271D01*
X237238Y22356D01*
X237244Y22440D01*
X237254Y22524D01*
X237267Y22608D01*
X237285Y22691D01*
X237306Y22773D01*
X237331Y22854D01*
X237360Y22934D01*
X237392Y23012D01*
X237428Y23088D01*
X237468Y23163D01*
X237511Y23236D01*
X237557Y23307D01*
X237606Y23376D01*
X237659Y23443D01*
X237715Y23507D01*
X237773Y23568D01*
X237834Y23626D01*
X237898Y23682D01*
X237965Y23735D01*
X238034Y23784D01*
X238105Y23830D01*
X238178Y23873D01*
X238253Y23913D01*
X238329Y23949D01*
X238407Y23981D01*
X238487Y24010D01*
X238568Y24035D01*
X238650Y24056D01*
X238733Y24074D01*
X238817Y24087D01*
X238901Y24097D01*
X238985Y24103D01*
X239070Y24105D01*
X239155Y24103D01*
X239239Y24097D01*
X239323Y24087D01*
X239407Y24074D01*
X239490Y24056D01*
X239572Y24035D01*
X239653Y24010D01*
X239733Y23981D01*
X239811Y23949D01*
X239887Y23913D01*
X239962Y23873D01*
X240035Y23830D01*
X240106Y23784D01*
X240175Y23735D01*
X240242Y23682D01*
X240306Y23626D01*
X240367Y23568D01*
X240425Y23507D01*
X240481Y23443D01*
X240534Y23376D01*
X240583Y23307D01*
X240629Y23236D01*
X240672Y23163D01*
X240712Y23088D01*
X240748Y23012D01*
X240780Y22934D01*
X240809Y22854D01*
X240834Y22773D01*
X240855Y22691D01*
X240873Y22608D01*
X240886Y22524D01*
X240896Y22440D01*
X240902Y22356D01*
X240904Y22271D01*
X240905Y22271D02*
X240905Y20437D01*
X243840Y27327D02*
X243840Y29161D01*
X243838Y29246D01*
X243832Y29330D01*
X243822Y29414D01*
X243809Y29498D01*
X243791Y29581D01*
X243770Y29663D01*
X243745Y29744D01*
X243716Y29824D01*
X243684Y29902D01*
X243648Y29978D01*
X243608Y30053D01*
X243565Y30126D01*
X243519Y30197D01*
X243470Y30266D01*
X243417Y30333D01*
X243361Y30397D01*
X243303Y30458D01*
X243242Y30516D01*
X243178Y30572D01*
X243111Y30625D01*
X243042Y30674D01*
X242971Y30720D01*
X242898Y30763D01*
X242823Y30803D01*
X242747Y30839D01*
X242669Y30871D01*
X242589Y30900D01*
X242508Y30925D01*
X242426Y30946D01*
X242343Y30964D01*
X242259Y30977D01*
X242175Y30987D01*
X242091Y30993D01*
X242006Y30995D01*
X241921Y30993D01*
X241837Y30987D01*
X241753Y30977D01*
X241669Y30964D01*
X241586Y30946D01*
X241504Y30925D01*
X241423Y30900D01*
X241343Y30871D01*
X241265Y30839D01*
X241189Y30803D01*
X241114Y30763D01*
X241041Y30720D01*
X240970Y30674D01*
X240901Y30625D01*
X240834Y30572D01*
X240770Y30516D01*
X240709Y30458D01*
X240651Y30397D01*
X240595Y30333D01*
X240542Y30266D01*
X240493Y30197D01*
X240447Y30126D01*
X240404Y30053D01*
X240364Y29978D01*
X240328Y29902D01*
X240296Y29824D01*
X240267Y29744D01*
X240242Y29663D01*
X240221Y29581D01*
X240203Y29498D01*
X240190Y29414D01*
X240180Y29330D01*
X240174Y29246D01*
X240172Y29161D01*
X237236Y29528D02*
X237236Y27327D01*
X237236Y29528D02*
X237238Y29604D01*
X237244Y29679D01*
X237253Y29754D01*
X237267Y29828D01*
X237284Y29902D01*
X237306Y29974D01*
X237330Y30046D01*
X237359Y30116D01*
X237391Y30184D01*
X237426Y30251D01*
X237465Y30316D01*
X237508Y30379D01*
X237553Y30439D01*
X237601Y30497D01*
X237653Y30553D01*
X237707Y30605D01*
X237764Y30655D01*
X237823Y30702D01*
X237884Y30746D01*
X237948Y30787D01*
X238014Y30824D01*
X238082Y30858D01*
X238151Y30888D01*
X238222Y30915D01*
X238294Y30938D01*
X238367Y30957D01*
X238441Y30972D01*
X238516Y30984D01*
X238591Y30992D01*
X238666Y30996D01*
X238742Y30996D01*
X238817Y30992D01*
X238892Y30984D01*
X238967Y30972D01*
X239041Y30957D01*
X239114Y30938D01*
X239186Y30915D01*
X239257Y30888D01*
X239326Y30858D01*
X239394Y30824D01*
X239460Y30787D01*
X239524Y30746D01*
X239585Y30702D01*
X239644Y30655D01*
X239701Y30605D01*
X239755Y30553D01*
X239807Y30497D01*
X239855Y30439D01*
X239900Y30379D01*
X239943Y30316D01*
X239982Y30251D01*
X240017Y30184D01*
X240049Y30116D01*
X240078Y30046D01*
X240102Y29974D01*
X240124Y29902D01*
X240141Y29828D01*
X240155Y29754D01*
X240164Y29679D01*
X240170Y29604D01*
X240172Y29528D01*
X240171Y29528D02*
X240171Y28061D01*
D11*
X248380Y503924D02*
X193580Y503924D01*
X248380Y503924D02*
X248380Y438924D01*
X193580Y438924D01*
X193580Y503924D01*
D10*
X237814Y432562D02*
X237814Y425450D01*
X235443Y429401D01*
X233072Y425450D01*
X233072Y432562D01*
X229372Y430586D02*
X229372Y427426D01*
X229370Y427339D01*
X229364Y427251D01*
X229355Y427164D01*
X229341Y427078D01*
X229324Y426992D01*
X229303Y426908D01*
X229278Y426824D01*
X229249Y426741D01*
X229217Y426660D01*
X229182Y426580D01*
X229143Y426502D01*
X229100Y426425D01*
X229054Y426351D01*
X229005Y426279D01*
X228953Y426209D01*
X228897Y426141D01*
X228839Y426076D01*
X228778Y426013D01*
X228714Y425954D01*
X228647Y425897D01*
X228579Y425843D01*
X228507Y425792D01*
X228434Y425745D01*
X228359Y425700D01*
X228281Y425659D01*
X228202Y425622D01*
X228122Y425588D01*
X228040Y425558D01*
X227957Y425531D01*
X227872Y425508D01*
X227787Y425489D01*
X227701Y425474D01*
X227614Y425462D01*
X227527Y425454D01*
X227440Y425450D01*
X227352Y425450D01*
X227265Y425454D01*
X227178Y425462D01*
X227091Y425474D01*
X227005Y425489D01*
X226920Y425508D01*
X226835Y425531D01*
X226752Y425558D01*
X226670Y425588D01*
X226590Y425622D01*
X226511Y425659D01*
X226433Y425700D01*
X226358Y425745D01*
X226285Y425792D01*
X226213Y425843D01*
X226145Y425897D01*
X226078Y425954D01*
X226014Y426013D01*
X225953Y426076D01*
X225895Y426141D01*
X225839Y426209D01*
X225787Y426279D01*
X225738Y426351D01*
X225692Y426425D01*
X225649Y426502D01*
X225610Y426580D01*
X225575Y426660D01*
X225543Y426741D01*
X225514Y426824D01*
X225489Y426908D01*
X225468Y426992D01*
X225451Y427078D01*
X225437Y427164D01*
X225428Y427251D01*
X225422Y427339D01*
X225420Y427426D01*
X225421Y427426D02*
X225421Y430586D01*
X225420Y430586D02*
X225422Y430673D01*
X225428Y430761D01*
X225437Y430848D01*
X225451Y430934D01*
X225468Y431020D01*
X225489Y431104D01*
X225514Y431188D01*
X225543Y431271D01*
X225575Y431352D01*
X225610Y431432D01*
X225649Y431510D01*
X225692Y431587D01*
X225738Y431661D01*
X225787Y431733D01*
X225839Y431803D01*
X225895Y431871D01*
X225953Y431936D01*
X226014Y431999D01*
X226078Y432058D01*
X226145Y432115D01*
X226213Y432169D01*
X226285Y432220D01*
X226358Y432267D01*
X226433Y432312D01*
X226511Y432353D01*
X226590Y432390D01*
X226670Y432424D01*
X226752Y432454D01*
X226835Y432481D01*
X226920Y432504D01*
X227005Y432523D01*
X227091Y432538D01*
X227178Y432550D01*
X227265Y432558D01*
X227352Y432562D01*
X227440Y432562D01*
X227527Y432558D01*
X227614Y432550D01*
X227701Y432538D01*
X227787Y432523D01*
X227872Y432504D01*
X227957Y432481D01*
X228040Y432454D01*
X228122Y432424D01*
X228202Y432390D01*
X228281Y432353D01*
X228359Y432312D01*
X228434Y432267D01*
X228507Y432220D01*
X228579Y432169D01*
X228647Y432115D01*
X228714Y432058D01*
X228778Y431999D01*
X228839Y431936D01*
X228897Y431871D01*
X228953Y431803D01*
X229005Y431733D01*
X229054Y431661D01*
X229100Y431587D01*
X229143Y431510D01*
X229182Y431432D01*
X229217Y431352D01*
X229249Y431271D01*
X229278Y431188D01*
X229303Y431104D01*
X229324Y431020D01*
X229341Y430934D01*
X229355Y430848D01*
X229364Y430761D01*
X229370Y430673D01*
X229372Y430586D01*
X220569Y432562D02*
X220569Y425450D01*
X222544Y425450D02*
X218593Y425450D01*
X215717Y427426D02*
X215717Y430586D01*
X215717Y427426D02*
X215715Y427339D01*
X215709Y427251D01*
X215700Y427164D01*
X215686Y427078D01*
X215669Y426992D01*
X215648Y426908D01*
X215623Y426824D01*
X215594Y426741D01*
X215562Y426660D01*
X215527Y426580D01*
X215488Y426502D01*
X215445Y426425D01*
X215399Y426351D01*
X215350Y426279D01*
X215298Y426209D01*
X215242Y426141D01*
X215184Y426076D01*
X215123Y426013D01*
X215059Y425954D01*
X214992Y425897D01*
X214924Y425843D01*
X214852Y425792D01*
X214779Y425745D01*
X214704Y425700D01*
X214626Y425659D01*
X214547Y425622D01*
X214467Y425588D01*
X214385Y425558D01*
X214302Y425531D01*
X214217Y425508D01*
X214132Y425489D01*
X214046Y425474D01*
X213959Y425462D01*
X213872Y425454D01*
X213785Y425450D01*
X213697Y425450D01*
X213610Y425454D01*
X213523Y425462D01*
X213436Y425474D01*
X213350Y425489D01*
X213265Y425508D01*
X213180Y425531D01*
X213097Y425558D01*
X213015Y425588D01*
X212935Y425622D01*
X212856Y425659D01*
X212778Y425700D01*
X212703Y425745D01*
X212630Y425792D01*
X212558Y425843D01*
X212490Y425897D01*
X212423Y425954D01*
X212359Y426013D01*
X212298Y426076D01*
X212240Y426141D01*
X212184Y426209D01*
X212132Y426279D01*
X212083Y426351D01*
X212037Y426425D01*
X211994Y426502D01*
X211955Y426580D01*
X211920Y426660D01*
X211888Y426741D01*
X211859Y426824D01*
X211834Y426908D01*
X211813Y426992D01*
X211796Y427078D01*
X211782Y427164D01*
X211773Y427251D01*
X211767Y427339D01*
X211765Y427426D01*
X211766Y427426D02*
X211766Y430586D01*
X211765Y430586D02*
X211767Y430673D01*
X211773Y430761D01*
X211782Y430848D01*
X211796Y430934D01*
X211813Y431020D01*
X211834Y431104D01*
X211859Y431188D01*
X211888Y431271D01*
X211920Y431352D01*
X211955Y431432D01*
X211994Y431510D01*
X212037Y431587D01*
X212083Y431661D01*
X212132Y431733D01*
X212184Y431803D01*
X212240Y431871D01*
X212298Y431936D01*
X212359Y431999D01*
X212423Y432058D01*
X212490Y432115D01*
X212558Y432169D01*
X212630Y432220D01*
X212703Y432267D01*
X212778Y432312D01*
X212856Y432353D01*
X212935Y432390D01*
X213015Y432424D01*
X213097Y432454D01*
X213180Y432481D01*
X213265Y432504D01*
X213350Y432523D01*
X213436Y432538D01*
X213523Y432550D01*
X213610Y432558D01*
X213697Y432562D01*
X213785Y432562D01*
X213872Y432558D01*
X213959Y432550D01*
X214046Y432538D01*
X214132Y432523D01*
X214217Y432504D01*
X214302Y432481D01*
X214385Y432454D01*
X214467Y432424D01*
X214547Y432390D01*
X214626Y432353D01*
X214704Y432312D01*
X214779Y432267D01*
X214852Y432220D01*
X214924Y432169D01*
X214992Y432115D01*
X215059Y432058D01*
X215123Y431999D01*
X215184Y431936D01*
X215242Y431871D01*
X215298Y431803D01*
X215350Y431733D01*
X215399Y431661D01*
X215445Y431587D01*
X215488Y431510D01*
X215527Y431432D01*
X215562Y431352D01*
X215594Y431271D01*
X215623Y431188D01*
X215648Y431104D01*
X215669Y431020D01*
X215686Y430934D01*
X215700Y430848D01*
X215709Y430761D01*
X215715Y430673D01*
X215717Y430586D01*
X208097Y432562D02*
X208097Y425450D01*
X206122Y425450D01*
X206035Y425452D01*
X205947Y425458D01*
X205860Y425467D01*
X205774Y425481D01*
X205688Y425498D01*
X205604Y425519D01*
X205520Y425544D01*
X205437Y425573D01*
X205356Y425605D01*
X205276Y425640D01*
X205198Y425679D01*
X205121Y425722D01*
X205047Y425768D01*
X204975Y425817D01*
X204905Y425869D01*
X204837Y425925D01*
X204772Y425983D01*
X204709Y426044D01*
X204650Y426108D01*
X204593Y426175D01*
X204539Y426243D01*
X204488Y426315D01*
X204441Y426388D01*
X204396Y426463D01*
X204355Y426541D01*
X204318Y426620D01*
X204284Y426700D01*
X204254Y426782D01*
X204227Y426865D01*
X204204Y426950D01*
X204185Y427035D01*
X204170Y427121D01*
X204158Y427208D01*
X204150Y427295D01*
X204146Y427382D01*
X204146Y427470D01*
X204150Y427557D01*
X204158Y427644D01*
X204170Y427731D01*
X204185Y427817D01*
X204204Y427902D01*
X204227Y427987D01*
X204254Y428070D01*
X204284Y428152D01*
X204318Y428232D01*
X204355Y428311D01*
X204396Y428389D01*
X204441Y428464D01*
X204488Y428537D01*
X204539Y428609D01*
X204593Y428677D01*
X204650Y428744D01*
X204709Y428808D01*
X204772Y428869D01*
X204837Y428927D01*
X204905Y428983D01*
X204975Y429035D01*
X205047Y429084D01*
X205121Y429130D01*
X205198Y429173D01*
X205276Y429212D01*
X205356Y429247D01*
X205437Y429279D01*
X205520Y429308D01*
X205604Y429333D01*
X205688Y429354D01*
X205774Y429371D01*
X205860Y429385D01*
X205947Y429394D01*
X206035Y429400D01*
X206122Y429402D01*
X206122Y429401D02*
X208097Y429401D01*
X205727Y429401D02*
X204146Y432562D01*
D14*
X144780Y90170D02*
X119380Y90170D01*
X119380Y64770D01*
X144780Y64770D01*
X144780Y90170D01*
D16*
X132080Y58420D02*
X132080Y1270D01*
D14*
X119380Y90170D02*
X93980Y90170D01*
X93980Y64770D01*
X119380Y64770D01*
D16*
X106680Y58420D02*
X106680Y1270D01*
D17*
X132080Y62230D03*
X106680Y62230D03*
D18*
X132080Y95250D03*
X106680Y95250D03*
D19*
X155575Y65076D02*
X164465Y65076D01*
X164565Y65074D01*
X164664Y65068D01*
X164764Y65058D01*
X164862Y65045D01*
X164961Y65027D01*
X165058Y65006D01*
X165154Y64981D01*
X165250Y64952D01*
X165344Y64919D01*
X165437Y64883D01*
X165528Y64843D01*
X165618Y64799D01*
X165706Y64752D01*
X165792Y64702D01*
X165876Y64648D01*
X165958Y64591D01*
X166037Y64531D01*
X166115Y64467D01*
X166189Y64401D01*
X166261Y64332D01*
X166330Y64260D01*
X166396Y64186D01*
X166460Y64108D01*
X166520Y64029D01*
X166577Y63947D01*
X166631Y63863D01*
X166681Y63777D01*
X166728Y63689D01*
X166772Y63599D01*
X166812Y63508D01*
X166848Y63415D01*
X166881Y63321D01*
X166910Y63225D01*
X166935Y63129D01*
X166956Y63032D01*
X166974Y62933D01*
X166987Y62835D01*
X166997Y62735D01*
X167003Y62636D01*
X167005Y62536D01*
X167005Y61266D01*
X167005Y71057D02*
X155575Y71057D01*
X155575Y74232D01*
X155577Y74343D01*
X155583Y74453D01*
X155592Y74564D01*
X155606Y74674D01*
X155623Y74783D01*
X155644Y74892D01*
X155669Y75000D01*
X155698Y75107D01*
X155730Y75213D01*
X155766Y75318D01*
X155806Y75421D01*
X155849Y75523D01*
X155896Y75624D01*
X155947Y75723D01*
X156000Y75819D01*
X156057Y75914D01*
X156118Y76007D01*
X156181Y76098D01*
X156248Y76187D01*
X156318Y76273D01*
X156391Y76356D01*
X156466Y76438D01*
X156544Y76516D01*
X156626Y76591D01*
X156709Y76664D01*
X156795Y76734D01*
X156884Y76801D01*
X156975Y76864D01*
X157068Y76925D01*
X157163Y76982D01*
X157259Y77035D01*
X157358Y77086D01*
X157459Y77133D01*
X157561Y77176D01*
X157664Y77216D01*
X157769Y77252D01*
X157875Y77284D01*
X157982Y77313D01*
X158090Y77338D01*
X158199Y77359D01*
X158308Y77376D01*
X158418Y77390D01*
X158529Y77399D01*
X158639Y77405D01*
X158750Y77407D01*
X158861Y77405D01*
X158971Y77399D01*
X159082Y77390D01*
X159192Y77376D01*
X159301Y77359D01*
X159410Y77338D01*
X159518Y77313D01*
X159625Y77284D01*
X159731Y77252D01*
X159836Y77216D01*
X159939Y77176D01*
X160041Y77133D01*
X160142Y77086D01*
X160241Y77035D01*
X160338Y76982D01*
X160432Y76925D01*
X160525Y76864D01*
X160616Y76801D01*
X160705Y76734D01*
X160791Y76664D01*
X160874Y76591D01*
X160956Y76516D01*
X161034Y76438D01*
X161109Y76356D01*
X161182Y76273D01*
X161252Y76187D01*
X161319Y76098D01*
X161382Y76007D01*
X161443Y75914D01*
X161500Y75820D01*
X161553Y75723D01*
X161604Y75624D01*
X161651Y75523D01*
X161694Y75421D01*
X161734Y75318D01*
X161770Y75213D01*
X161802Y75107D01*
X161831Y75000D01*
X161856Y74892D01*
X161877Y74783D01*
X161894Y74674D01*
X161908Y74564D01*
X161917Y74453D01*
X161923Y74343D01*
X161925Y74232D01*
X161925Y71057D01*
X164465Y81915D02*
X155575Y84455D01*
X164465Y81915D02*
X164465Y88265D01*
X161925Y86360D02*
X167005Y86360D01*
M02*
