G04 EAGLE Gerber RS-274X export*
G75*
%MOMM*%
%FSLAX34Y34*%
%LPD*%
%INSoldermask Top*%
%IPPOS*%
%AMOC8*
5,1,8,0,0,1.08239X$1,22.5*%
G01*
%ADD10C,2.500000*%
%ADD11R,3.810000X2.080000*%
%ADD12R,8.890000X10.668000*%
%ADD13R,3.800000X1.900000*%
%ADD14R,9.000000X10.800000*%
%ADD15R,0.635000X1.016000*%
%ADD16R,0.800000X0.900000*%
%ADD17C,1.950000*%
%ADD18R,1.475000X0.450000*%
%ADD19R,0.900000X0.800000*%
%ADD20C,1.676400*%
%ADD21C,1.524000*%


D10*
X40000Y40000D03*
X470000Y40000D03*
X40000Y467968D03*
X469900Y467868D03*
D11*
X98550Y251460D03*
D12*
X196340Y226060D03*
D11*
X98550Y200660D03*
D13*
X98140Y381100D03*
D14*
X195990Y355600D03*
D13*
X98140Y330100D03*
D15*
X43180Y236060D03*
X52680Y216060D03*
X33680Y216060D03*
D16*
X35560Y180340D03*
X35560Y195580D03*
X50800Y363220D03*
X50800Y347980D03*
D11*
X404370Y200660D03*
D12*
X306580Y226060D03*
D11*
X404370Y251460D03*
D13*
X404780Y330100D03*
D14*
X306930Y355600D03*
D13*
X404780Y381100D03*
D15*
X459740Y216060D03*
X450240Y236060D03*
X469240Y236060D03*
D16*
X472440Y180340D03*
X472440Y195580D03*
X449580Y347980D03*
X449580Y363220D03*
D17*
X370840Y469900D03*
X396240Y469900D03*
X345440Y469900D03*
D18*
X255100Y108400D03*
X255100Y101900D03*
X255100Y95400D03*
X255100Y88900D03*
X255100Y82400D03*
X255100Y75900D03*
X255100Y69400D03*
X313860Y69400D03*
X313860Y75900D03*
X313860Y82400D03*
X313860Y88900D03*
X313860Y95400D03*
X313860Y101900D03*
X313860Y108400D03*
D16*
X200660Y99060D03*
X200660Y114300D03*
D19*
X200660Y83820D03*
X215900Y83820D03*
X200660Y48260D03*
X215900Y48260D03*
X274320Y129540D03*
X289560Y129540D03*
D20*
X264160Y20320D03*
X289560Y20320D03*
X314960Y20320D03*
X340360Y20320D03*
X365760Y20320D03*
D17*
X208280Y471424D03*
X233680Y471424D03*
D21*
X132080Y116840D02*
X132080Y101600D01*
X106680Y101600D02*
X106680Y116840D01*
M02*
