M48
;GenerationSoftware,Autodesk,EAGLE,9.6.2*%
;CreationDate,2022-12-29T22:33:44Z*%
FMAT,2
ICI,OFF
METRIC,TZ,000.000
T5C0.350
T4C1.000
T3C1.016
T2C1.300
T1C2.500
%
G90
M71
T1
X46990Y46787
X4000Y46797
X47000Y4000
X4000Y4000
T2
X23368Y47142
X20828Y47142
X34544Y46990
X39624Y46990
X37084Y46990
T3
X10668Y10922
X13208Y10922
T4
X36576Y2032
X34036Y2032
X31496Y2032
X28956Y2032
X26416Y2032
T5
X42418Y26924
X43688Y26924
X43688Y25146
X43942Y23368
X42672Y23368
X41402Y23368
X40132Y23368
X38862Y23368
X44958Y25146
X44958Y26924
X30226Y12954
X32766Y12192
X31750Y12954
X22606Y4826
X33020Y10668
X22479Y1397
X38481Y39802
X39497Y39802
X40513Y39802
X41529Y39802
X5334Y20066
X38481Y36500
X39497Y36500
X40513Y36500
X41529Y36500
X42545Y36500
X8001Y34722
X9017Y34722
X10033Y34722
X11049Y34722
X12065Y34722
X8001Y31420
X9017Y31420
X10033Y31420
X11049Y31420
X12065Y31420
X40742Y3886
X18872Y7010
X22631Y10566
X22809Y9347
X20066Y3683
X41148Y26924
X39878Y26924
X38608Y26924
X6604Y20066
X11684Y21844
X10414Y21844
X9144Y21844
X7874Y21844
X6604Y21844
X11684Y18288
X10414Y18288
X9144Y18288
X7874Y18288
X6604Y18288
X5334Y18288
X42545Y39802
M30