%TF.GenerationSoftware,KiCad,Pcbnew,(6.0.8)*%
%TF.CreationDate,2023-02-23T19:10:36-06:00*%
%TF.ProjectId,ConnectorPCB,436f6e6e-6563-4746-9f72-5043422e6b69,rev?*%
%TF.SameCoordinates,Original*%
%TF.FileFunction,Legend,Top*%
%TF.FilePolarity,Positive*%
%FSLAX46Y46*%
G04 Gerber Fmt 4.6, Leading zero omitted, Abs format (unit mm)*
G04 Created by KiCad (PCBNEW (6.0.8)) date 2023-02-23 19:10:36*
%MOMM*%
%LPD*%
G01*
G04 APERTURE LIST*
%ADD10C,0.150000*%
%ADD11C,0.120000*%
G04 APERTURE END LIST*
D10*
%TO.C,J4*%
X156366666Y-71952380D02*
X156366666Y-72666666D01*
X156319047Y-72809523D01*
X156223809Y-72904761D01*
X156080952Y-72952380D01*
X155985714Y-72952380D01*
X157271428Y-72285714D02*
X157271428Y-72952380D01*
X157033333Y-71904761D02*
X156795238Y-72619047D01*
X157414285Y-72619047D01*
%TO.C,H2*%
X177038095Y-56592380D02*
X177038095Y-55592380D01*
X177038095Y-56068571D02*
X177609523Y-56068571D01*
X177609523Y-56592380D02*
X177609523Y-55592380D01*
X178038095Y-55687619D02*
X178085714Y-55640000D01*
X178180952Y-55592380D01*
X178419047Y-55592380D01*
X178514285Y-55640000D01*
X178561904Y-55687619D01*
X178609523Y-55782857D01*
X178609523Y-55878095D01*
X178561904Y-56020952D01*
X177990476Y-56592380D01*
X178609523Y-56592380D01*
%TO.C,J1*%
X157252380Y-59533333D02*
X157966666Y-59533333D01*
X158109523Y-59580952D01*
X158204761Y-59676190D01*
X158252380Y-59819047D01*
X158252380Y-59914285D01*
X158252380Y-58533333D02*
X158252380Y-59104761D01*
X158252380Y-58819047D02*
X157252380Y-58819047D01*
X157395238Y-58914285D01*
X157490476Y-59009523D01*
X157538095Y-59104761D01*
%TO.C,H3*%
X177038095Y-77272380D02*
X177038095Y-76272380D01*
X177038095Y-76748571D02*
X177609523Y-76748571D01*
X177609523Y-77272380D02*
X177609523Y-76272380D01*
X177990476Y-76272380D02*
X178609523Y-76272380D01*
X178276190Y-76653333D01*
X178419047Y-76653333D01*
X178514285Y-76700952D01*
X178561904Y-76748571D01*
X178609523Y-76843809D01*
X178609523Y-77081904D01*
X178561904Y-77177142D01*
X178514285Y-77224761D01*
X178419047Y-77272380D01*
X178133333Y-77272380D01*
X178038095Y-77224761D01*
X177990476Y-77177142D01*
%TO.C,J3*%
X169422380Y-73433333D02*
X170136666Y-73433333D01*
X170279523Y-73480952D01*
X170374761Y-73576190D01*
X170422380Y-73719047D01*
X170422380Y-73814285D01*
X169422380Y-73052380D02*
X169422380Y-72433333D01*
X169803333Y-72766666D01*
X169803333Y-72623809D01*
X169850952Y-72528571D01*
X169898571Y-72480952D01*
X169993809Y-72433333D01*
X170231904Y-72433333D01*
X170327142Y-72480952D01*
X170374761Y-72528571D01*
X170422380Y-72623809D01*
X170422380Y-72909523D01*
X170374761Y-73004761D01*
X170327142Y-73052380D01*
%TO.C,H4*%
X149098095Y-77272380D02*
X149098095Y-76272380D01*
X149098095Y-76748571D02*
X149669523Y-76748571D01*
X149669523Y-77272380D02*
X149669523Y-76272380D01*
X150574285Y-76605714D02*
X150574285Y-77272380D01*
X150336190Y-76224761D02*
X150098095Y-76939047D01*
X150717142Y-76939047D01*
%TO.C,J2*%
X170466666Y-59662380D02*
X170466666Y-60376666D01*
X170419047Y-60519523D01*
X170323809Y-60614761D01*
X170180952Y-60662380D01*
X170085714Y-60662380D01*
X170895238Y-59757619D02*
X170942857Y-59710000D01*
X171038095Y-59662380D01*
X171276190Y-59662380D01*
X171371428Y-59710000D01*
X171419047Y-59757619D01*
X171466666Y-59852857D01*
X171466666Y-59948095D01*
X171419047Y-60090952D01*
X170847619Y-60662380D01*
X171466666Y-60662380D01*
%TO.C,H1*%
X149098095Y-56592380D02*
X149098095Y-55592380D01*
X149098095Y-56068571D02*
X149669523Y-56068571D01*
X149669523Y-56592380D02*
X149669523Y-55592380D01*
X150669523Y-56592380D02*
X150098095Y-56592380D01*
X150383809Y-56592380D02*
X150383809Y-55592380D01*
X150288571Y-55735238D01*
X150193333Y-55830476D01*
X150098095Y-55878095D01*
%TO.C,J5*%
X169652380Y-55253333D02*
X170366666Y-55253333D01*
X170509523Y-55300952D01*
X170604761Y-55396190D01*
X170652380Y-55539047D01*
X170652380Y-55634285D01*
X169652380Y-54300952D02*
X169652380Y-54777142D01*
X170128571Y-54824761D01*
X170080952Y-54777142D01*
X170033333Y-54681904D01*
X170033333Y-54443809D01*
X170080952Y-54348571D01*
X170128571Y-54300952D01*
X170223809Y-54253333D01*
X170461904Y-54253333D01*
X170557142Y-54300952D01*
X170604761Y-54348571D01*
X170652380Y-54443809D01*
X170652380Y-54681904D01*
X170604761Y-54777142D01*
X170557142Y-54824761D01*
%TO.C,J7*%
X157142380Y-78113333D02*
X157856666Y-78113333D01*
X157999523Y-78160952D01*
X158094761Y-78256190D01*
X158142380Y-78399047D01*
X158142380Y-78494285D01*
X157142380Y-77732380D02*
X157142380Y-77065714D01*
X158142380Y-77494285D01*
%TO.C,J6*%
X174926666Y-72252380D02*
X174926666Y-72966666D01*
X174879047Y-73109523D01*
X174783809Y-73204761D01*
X174640952Y-73252380D01*
X174545714Y-73252380D01*
X175831428Y-72252380D02*
X175640952Y-72252380D01*
X175545714Y-72300000D01*
X175498095Y-72347619D01*
X175402857Y-72490476D01*
X175355238Y-72680952D01*
X175355238Y-73061904D01*
X175402857Y-73157142D01*
X175450476Y-73204761D01*
X175545714Y-73252380D01*
X175736190Y-73252380D01*
X175831428Y-73204761D01*
X175879047Y-73157142D01*
X175926666Y-73061904D01*
X175926666Y-72823809D01*
X175879047Y-72728571D01*
X175831428Y-72680952D01*
X175736190Y-72633333D01*
X175545714Y-72633333D01*
X175450476Y-72680952D01*
X175402857Y-72728571D01*
X175355238Y-72823809D01*
%TO.C,J8*%
X152046666Y-72252380D02*
X152046666Y-72966666D01*
X151999047Y-73109523D01*
X151903809Y-73204761D01*
X151760952Y-73252380D01*
X151665714Y-73252380D01*
X152665714Y-72680952D02*
X152570476Y-72633333D01*
X152522857Y-72585714D01*
X152475238Y-72490476D01*
X152475238Y-72442857D01*
X152522857Y-72347619D01*
X152570476Y-72300000D01*
X152665714Y-72252380D01*
X152856190Y-72252380D01*
X152951428Y-72300000D01*
X152999047Y-72347619D01*
X153046666Y-72442857D01*
X153046666Y-72490476D01*
X152999047Y-72585714D01*
X152951428Y-72633333D01*
X152856190Y-72680952D01*
X152665714Y-72680952D01*
X152570476Y-72728571D01*
X152522857Y-72776190D01*
X152475238Y-72871428D01*
X152475238Y-73061904D01*
X152522857Y-73157142D01*
X152570476Y-73204761D01*
X152665714Y-73252380D01*
X152856190Y-73252380D01*
X152951428Y-73204761D01*
X152999047Y-73157142D01*
X153046666Y-73061904D01*
X153046666Y-72871428D01*
X152999047Y-72776190D01*
X152951428Y-72728571D01*
X152856190Y-72680952D01*
D11*
%TO.C,J4*%
X156130000Y-71490000D02*
X158790000Y-71490000D01*
X158790000Y-63810000D02*
X158790000Y-71490000D01*
X156130000Y-63810000D02*
X156130000Y-71490000D01*
X156130000Y-63810000D02*
X158790000Y-63810000D01*
%TO.C,J1*%
X161270000Y-61330000D02*
X168950000Y-61330000D01*
X161270000Y-58670000D02*
X168950000Y-58670000D01*
X161270000Y-61330000D02*
X161270000Y-58670000D01*
X168950000Y-61330000D02*
X168950000Y-58670000D01*
%TO.C,J3*%
X158690000Y-71880000D02*
X159140000Y-71880000D01*
X166370000Y-74030000D02*
X158690000Y-74030000D01*
X166370000Y-71370000D02*
X166370000Y-74030000D01*
X158690000Y-74030000D02*
X158690000Y-71880000D01*
X159140000Y-71370000D02*
X166370000Y-71370000D01*
X159130000Y-71880000D02*
X159130000Y-71380000D01*
%TO.C,J2*%
X168850000Y-63810000D02*
X168850000Y-71490000D01*
X171510000Y-63810000D02*
X171510000Y-71490000D01*
X168850000Y-71490000D02*
X171510000Y-71490000D01*
X168850000Y-63810000D02*
X171510000Y-63810000D01*
%TO.C,J5*%
X166350000Y-53590000D02*
X166350000Y-56250000D01*
X166350000Y-56250000D02*
X158670000Y-56250000D01*
X168950000Y-53590000D02*
X168950000Y-54920000D01*
X158670000Y-53590000D02*
X158670000Y-56250000D01*
X167620000Y-53590000D02*
X168950000Y-53590000D01*
X166350000Y-53590000D02*
X158670000Y-53590000D01*
%TO.C,J7*%
X160020000Y-79110000D02*
X158690000Y-79110000D01*
X158690000Y-79110000D02*
X158690000Y-77780000D01*
X161290000Y-79110000D02*
X161290000Y-76450000D01*
X168970000Y-79110000D02*
X168970000Y-76450000D01*
X161290000Y-76450000D02*
X168970000Y-76450000D01*
X161290000Y-79110000D02*
X168970000Y-79110000D01*
%TO.C,J6*%
X176590000Y-71490000D02*
X175260000Y-71490000D01*
X176590000Y-68890000D02*
X173930000Y-68890000D01*
X176590000Y-68890000D02*
X176590000Y-61210000D01*
X176590000Y-61210000D02*
X173930000Y-61210000D01*
X173930000Y-68890000D02*
X173930000Y-61210000D01*
X176590000Y-70160000D02*
X176590000Y-71490000D01*
%TO.C,J8*%
X153710000Y-68890000D02*
X153710000Y-61210000D01*
X153710000Y-71490000D02*
X152380000Y-71490000D01*
X153710000Y-70160000D02*
X153710000Y-71490000D01*
X153710000Y-68890000D02*
X151050000Y-68890000D01*
X153710000Y-61210000D02*
X151050000Y-61210000D01*
X151050000Y-68890000D02*
X151050000Y-61210000D01*
%TD*%
M02*
