M48
; DRILL file {KiCad (6.0.8)} date Thu Feb 23 19:10:31 2023
; FORMAT={-:-/ absolute / metric / decimal}
; #@! TF.CreationDate,2023-02-23T19:10:31-06:00
; #@! TF.GenerationSoftware,Kicad,Pcbnew,(6.0.8)
; #@! TF.FileFunction,MixedPlating,1,2
FMAT,2
METRIC
; #@! TA.AperFunction,Plated,PTH,ComponentDrill
T1C1.000
; #@! TA.AperFunction,NonPlated,NPTH,ComponentDrill
T2C2.500
%
G90
G05
T1
X152.38Y-62.54
X152.38Y-65.08
X152.38Y-67.62
X152.38Y-70.16
X157.46Y-62.54
X157.46Y-65.08
X157.46Y-67.62
X157.46Y-70.16
X160.0Y-54.92
X160.0Y-60.0
X160.02Y-72.7
X160.02Y-77.78
X162.54Y-54.92
X162.54Y-60.0
X162.56Y-72.7
X162.56Y-77.78
X165.08Y-54.92
X165.08Y-60.0
X165.1Y-72.7
X165.1Y-77.78
X167.62Y-54.92
X167.62Y-60.0
X167.64Y-72.7
X167.64Y-77.78
X170.18Y-62.54
X170.18Y-65.08
X170.18Y-67.62
X170.18Y-70.16
X175.26Y-62.54
X175.26Y-65.08
X175.26Y-67.62
X175.26Y-70.16
T2
X149.86Y-52.38
X149.86Y-80.32
X177.8Y-52.38
X177.8Y-80.32
T0
M30
