%TF.GenerationSoftware,KiCad,Pcbnew,(6.0.8)*%
%TF.CreationDate,2023-02-23T19:10:36-06:00*%
%TF.ProjectId,ConnectorPCB,436f6e6e-6563-4746-9f72-5043422e6b69,rev?*%
%TF.SameCoordinates,Original*%
%TF.FileFunction,Copper,L1,Top*%
%TF.FilePolarity,Positive*%
%FSLAX46Y46*%
G04 Gerber Fmt 4.6, Leading zero omitted, Abs format (unit mm)*
G04 Created by KiCad (PCBNEW (6.0.8)) date 2023-02-23 19:10:36*
%MOMM*%
%LPD*%
G01*
G04 APERTURE LIST*
%TA.AperFunction,ComponentPad*%
%ADD10R,1.700000X1.700000*%
%TD*%
%TA.AperFunction,ComponentPad*%
%ADD11O,1.700000X1.700000*%
%TD*%
%TA.AperFunction,Conductor*%
%ADD12C,0.500000*%
%TD*%
G04 APERTURE END LIST*
D10*
%TO.P,J4,1,Pin_1*%
%TO.N,Net-(J4-Pad1)*%
X157460000Y-62540000D03*
D11*
%TO.P,J4,2,Pin_2*%
%TO.N,Net-(J4-Pad2)*%
X157460000Y-65080000D03*
%TO.P,J4,3,Pin_3*%
%TO.N,Net-(J4-Pad3)*%
X157460000Y-67620000D03*
%TO.P,J4,4,Pin_4*%
%TO.N,Net-(J4-Pad4)*%
X157460000Y-70160000D03*
%TD*%
D10*
%TO.P,J1,1,Pin_1*%
%TO.N,Net-(J5-Pad4)*%
X160000000Y-60000000D03*
D11*
%TO.P,J1,2,Pin_2*%
%TO.N,Net-(J5-Pad3)*%
X162540000Y-60000000D03*
%TO.P,J1,3,Pin_3*%
%TO.N,Net-(J5-Pad2)*%
X165080000Y-60000000D03*
%TO.P,J1,4,Pin_4*%
%TO.N,Net-(J5-Pad1)*%
X167620000Y-60000000D03*
%TD*%
D10*
%TO.P,J3,1,Pin_1*%
%TO.N,Net-(J3-Pad1)*%
X167640000Y-72700000D03*
D11*
%TO.P,J3,2,Pin_2*%
%TO.N,Net-(J3-Pad2)*%
X165100000Y-72700000D03*
%TO.P,J3,3,Pin_3*%
%TO.N,Net-(J3-Pad3)*%
X162560000Y-72700000D03*
%TO.P,J3,4,Pin_4*%
%TO.N,Net-(J3-Pad4)*%
X160020000Y-72700000D03*
%TD*%
D10*
%TO.P,J2,1,Pin_1*%
%TO.N,Net-(J2-Pad1)*%
X170180000Y-62540000D03*
D11*
%TO.P,J2,2,Pin_2*%
%TO.N,Net-(J2-Pad2)*%
X170180000Y-65080000D03*
%TO.P,J2,3,Pin_3*%
%TO.N,Net-(J2-Pad3)*%
X170180000Y-67620000D03*
%TO.P,J2,4,Pin_4*%
%TO.N,Net-(J2-Pad4)*%
X170180000Y-70160000D03*
%TD*%
D10*
%TO.P,J5,1,Pin_1*%
%TO.N,Net-(J5-Pad1)*%
X167620000Y-54920000D03*
D11*
%TO.P,J5,2,Pin_2*%
%TO.N,Net-(J5-Pad2)*%
X165080000Y-54920000D03*
%TO.P,J5,3,Pin_3*%
%TO.N,Net-(J5-Pad3)*%
X162540000Y-54920000D03*
%TO.P,J5,4,Pin_4*%
%TO.N,Net-(J5-Pad4)*%
X160000000Y-54920000D03*
%TD*%
D10*
%TO.P,J7,1,Pin_1*%
%TO.N,Net-(J3-Pad4)*%
X160020000Y-77780000D03*
D11*
%TO.P,J7,2,Pin_2*%
%TO.N,Net-(J3-Pad3)*%
X162560000Y-77780000D03*
%TO.P,J7,3,Pin_3*%
%TO.N,Net-(J3-Pad2)*%
X165100000Y-77780000D03*
%TO.P,J7,4,Pin_4*%
%TO.N,Net-(J3-Pad1)*%
X167640000Y-77780000D03*
%TD*%
D10*
%TO.P,J6,1,Pin_1*%
%TO.N,Net-(J2-Pad4)*%
X175260000Y-70160000D03*
D11*
%TO.P,J6,2,Pin_2*%
%TO.N,Net-(J2-Pad3)*%
X175260000Y-67620000D03*
%TO.P,J6,3,Pin_3*%
%TO.N,Net-(J2-Pad2)*%
X175260000Y-65080000D03*
%TO.P,J6,4,Pin_4*%
%TO.N,Net-(J2-Pad1)*%
X175260000Y-62540000D03*
%TD*%
D10*
%TO.P,J8,1,Pin_1*%
%TO.N,Net-(J4-Pad4)*%
X152380000Y-70160000D03*
D11*
%TO.P,J8,2,Pin_2*%
%TO.N,Net-(J4-Pad3)*%
X152380000Y-67620000D03*
%TO.P,J8,3,Pin_3*%
%TO.N,Net-(J4-Pad2)*%
X152380000Y-65080000D03*
%TO.P,J8,4,Pin_4*%
%TO.N,Net-(J4-Pad1)*%
X152380000Y-62540000D03*
%TD*%
D12*
%TO.N,Net-(J5-Pad4)*%
X160000000Y-60000000D02*
X160000000Y-54920000D01*
%TO.N,Net-(J5-Pad3)*%
X162540000Y-60000000D02*
X162540000Y-54920000D01*
%TO.N,Net-(J5-Pad2)*%
X165080000Y-60000000D02*
X165080000Y-54920000D01*
%TO.N,Net-(J5-Pad1)*%
X167620000Y-60000000D02*
X167620000Y-54920000D01*
%TO.N,Net-(J2-Pad1)*%
X170180000Y-62540000D02*
X175260000Y-62540000D01*
%TO.N,Net-(J2-Pad2)*%
X170180000Y-65080000D02*
X175260000Y-65080000D01*
%TO.N,Net-(J2-Pad3)*%
X170180000Y-67620000D02*
X175260000Y-67620000D01*
%TO.N,Net-(J2-Pad4)*%
X170180000Y-70160000D02*
X175260000Y-70160000D01*
%TO.N,Net-(J3-Pad1)*%
X167640000Y-72700000D02*
X167640000Y-77780000D01*
%TO.N,Net-(J3-Pad2)*%
X165100000Y-72700000D02*
X165100000Y-77780000D01*
%TO.N,Net-(J3-Pad3)*%
X162560000Y-72700000D02*
X162560000Y-77780000D01*
%TO.N,Net-(J3-Pad4)*%
X160020000Y-72700000D02*
X160020000Y-77780000D01*
%TO.N,Net-(J4-Pad1)*%
X157460000Y-62540000D02*
X152380000Y-62540000D01*
%TO.N,Net-(J4-Pad2)*%
X157460000Y-65080000D02*
X152380000Y-65080000D01*
%TO.N,Net-(J4-Pad3)*%
X157460000Y-67620000D02*
X152380000Y-67620000D01*
%TO.N,Net-(J4-Pad4)*%
X157460000Y-70160000D02*
X152380000Y-70160000D01*
%TD*%
M02*
