%TF.GenerationSoftware,KiCad,Pcbnew,(6.0.8)*%
%TF.CreationDate,2023-04-06T01:35:20-05:00*%
%TF.ProjectId,Sensor_fixed_mosfet_pins,53656e73-6f72-45f6-9669-7865645f6d6f,rev?*%
%TF.SameCoordinates,Original*%
%TF.FileFunction,Copper,L1,Top*%
%TF.FilePolarity,Positive*%
%FSLAX46Y46*%
G04 Gerber Fmt 4.6, Leading zero omitted, Abs format (unit mm)*
G04 Created by KiCad (PCBNEW (6.0.8)) date 2023-04-06 01:35:20*
%MOMM*%
%LPD*%
G01*
G04 APERTURE LIST*
G04 Aperture macros list*
%AMRoundRect*
0 Rectangle with rounded corners*
0 $1 Rounding radius*
0 $2 $3 $4 $5 $6 $7 $8 $9 X,Y pos of 4 corners*
0 Add a 4 corners polygon primitive as box body*
4,1,4,$2,$3,$4,$5,$6,$7,$8,$9,$2,$3,0*
0 Add four circle primitives for the rounded corners*
1,1,$1+$1,$2,$3*
1,1,$1+$1,$4,$5*
1,1,$1+$1,$6,$7*
1,1,$1+$1,$8,$9*
0 Add four rect primitives between the rounded corners*
20,1,$1+$1,$2,$3,$4,$5,0*
20,1,$1+$1,$4,$5,$6,$7,0*
20,1,$1+$1,$6,$7,$8,$9,0*
20,1,$1+$1,$8,$9,$2,$3,0*%
G04 Aperture macros list end*
%TA.AperFunction,SMDPad,CuDef*%
%ADD10RoundRect,0.225000X-0.250000X0.225000X-0.250000X-0.225000X0.250000X-0.225000X0.250000X0.225000X0*%
%TD*%
%TA.AperFunction,SMDPad,CuDef*%
%ADD11RoundRect,0.200000X-0.275000X0.200000X-0.275000X-0.200000X0.275000X-0.200000X0.275000X0.200000X0*%
%TD*%
%TA.AperFunction,SMDPad,CuDef*%
%ADD12RoundRect,0.200000X0.200000X0.275000X-0.200000X0.275000X-0.200000X-0.275000X0.200000X-0.275000X0*%
%TD*%
%TA.AperFunction,ComponentPad*%
%ADD13R,1.700000X1.700000*%
%TD*%
%TA.AperFunction,ComponentPad*%
%ADD14O,1.700000X1.700000*%
%TD*%
%TA.AperFunction,SMDPad,CuDef*%
%ADD15R,0.800000X1.900000*%
%TD*%
%TA.AperFunction,ComponentPad*%
%ADD16R,2.200000X2.200000*%
%TD*%
%TA.AperFunction,ComponentPad*%
%ADD17C,2.200000*%
%TD*%
%TA.AperFunction,SMDPad,CuDef*%
%ADD18R,1.308100X0.355600*%
%TD*%
%TA.AperFunction,SMDPad,CuDef*%
%ADD19RoundRect,0.225000X0.250000X-0.225000X0.250000X0.225000X-0.250000X0.225000X-0.250000X-0.225000X0*%
%TD*%
%TA.AperFunction,SMDPad,CuDef*%
%ADD20RoundRect,0.200000X0.275000X-0.200000X0.275000X0.200000X-0.275000X0.200000X-0.275000X-0.200000X0*%
%TD*%
%TA.AperFunction,ViaPad*%
%ADD21C,0.800000*%
%TD*%
%TA.AperFunction,ViaPad*%
%ADD22C,0.700000*%
%TD*%
%TA.AperFunction,Conductor*%
%ADD23C,0.500000*%
%TD*%
%TA.AperFunction,Conductor*%
%ADD24C,0.300000*%
%TD*%
G04 APERTURE END LIST*
D10*
%TO.P,C1,1*%
%TO.N,+3.3V*%
X-31750000Y89525000D03*
%TO.P,C1,2*%
%TO.N,GND*%
X-31750000Y87975000D03*
%TD*%
D11*
%TO.P,R3,1*%
%TO.N,+3.3V*%
X-15500000Y85825000D03*
%TO.P,R3,2*%
%TO.N,MCUTX*%
X-15500000Y84175000D03*
%TD*%
D12*
%TO.P,R6,1*%
%TO.N,+5V*%
X-6375000Y87900000D03*
%TO.P,R6,2*%
%TO.N,STX*%
X-8025000Y87900000D03*
%TD*%
D13*
%TO.P,J2,1,Pin_1*%
%TO.N,MCLR*%
X-24825000Y74500000D03*
D14*
%TO.P,J2,2,Pin_2*%
%TO.N,+3.3V*%
X-22285000Y74500000D03*
%TO.P,J2,3,Pin_3*%
%TO.N,GND*%
X-19745000Y74500000D03*
%TO.P,J2,4,Pin_4*%
%TO.N,DATA*%
X-17205000Y74500000D03*
%TO.P,J2,5,Pin_5*%
%TO.N,CLK*%
X-14665000Y74500000D03*
%TD*%
D12*
%TO.P,R2,1*%
%TO.N,MCLR*%
X-26675000Y88000000D03*
%TO.P,R2,2*%
%TO.N,Net-(JP1-Pad2)*%
X-28325000Y88000000D03*
%TD*%
D15*
%TO.P,NMOS2,1,D*%
%TO.N,SRX*%
X-12100000Y80500000D03*
%TO.P,NMOS2,2,G*%
%TO.N,+3.3V*%
X-11150000Y83500000D03*
%TO.P,NMOS2,3,S*%
%TO.N,MCUTX*%
X-13050000Y83500000D03*
%TD*%
D16*
%TO.P,J1,1,Pin_1*%
%TO.N,RA4*%
X-19210000Y96250000D03*
D17*
%TO.P,J1,2,Pin_2*%
%TO.N,RA5*%
X-21750000Y96250000D03*
%TO.P,J1,3,Pin_3*%
%TO.N,+3.3V*%
X-24290000Y96250000D03*
%TD*%
D13*
%TO.P,J4,1,Pin_1*%
%TO.N,GND*%
X-3600000Y89280000D03*
D14*
%TO.P,J4,2,Pin_2*%
%TO.N,STX*%
X-3600000Y86740000D03*
%TO.P,J4,3,Pin_3*%
%TO.N,SRX*%
X-3600000Y84200000D03*
%TO.P,J4,4,Pin_4*%
%TO.N,+5V*%
X-3600000Y81660000D03*
%TD*%
D16*
%TO.P,J3,1,Pin_1*%
%TO.N,GND*%
X-11480000Y96250000D03*
D17*
%TO.P,J3,2,Pin_2*%
%TO.N,+5V*%
X-14020000Y96250000D03*
%TD*%
D18*
%TO.P,IC1,1,VDD*%
%TO.N,+3.3V*%
X-24401950Y89950001D03*
%TO.P,IC1,2,RA5*%
%TO.N,RA5*%
X-24401950Y89300000D03*
%TO.P,IC1,3,RA4*%
%TO.N,RA4*%
X-24401950Y88649999D03*
%TO.P,IC1,4,~{MCLR}/VPP/RA3*%
%TO.N,MCLR*%
X-24401950Y88000000D03*
%TO.P,IC1,5,RC5*%
%TO.N,unconnected-(IC1-Pad5)*%
X-24401950Y87350001D03*
%TO.P,IC1,6,RC4*%
%TO.N,unconnected-(IC1-Pad6)*%
X-24401950Y86700000D03*
%TO.P,IC1,7,RC3*%
%TO.N,unconnected-(IC1-Pad7)*%
X-24401950Y86050001D03*
%TO.P,IC1,8,RC2*%
%TO.N,MCUTX*%
X-18598050Y86049999D03*
%TO.P,IC1,9,RC1*%
%TO.N,MCURX*%
X-18598050Y86700000D03*
%TO.P,IC1,10,RC0*%
%TO.N,unconnected-(IC1-Pad10)*%
X-18598050Y87349999D03*
%TO.P,IC1,11,RA2*%
%TO.N,unconnected-(IC1-Pad11)*%
X-18598050Y88000000D03*
%TO.P,IC1,12,RA1/ICSPCLK*%
%TO.N,CLK*%
X-18598050Y88649999D03*
%TO.P,IC1,13,RA0/ICSPDAT*%
%TO.N,DATA*%
X-18598050Y89300000D03*
%TO.P,IC1,14,VSS*%
%TO.N,GND*%
X-18598050Y89949999D03*
%TD*%
D13*
%TO.P,JP1,1,A*%
%TO.N,Net-(C2-Pad1)*%
X-27800000Y82625000D03*
D14*
%TO.P,JP1,2,B*%
%TO.N,Net-(JP1-Pad2)*%
X-27800000Y85165000D03*
%TD*%
D12*
%TO.P,R4,1*%
%TO.N,+5V*%
X-6275000Y81700000D03*
%TO.P,R4,2*%
%TO.N,SRX*%
X-7925000Y81700000D03*
%TD*%
D19*
%TO.P,C2,1*%
%TO.N,Net-(C2-Pad1)*%
X-31750000Y84675000D03*
%TO.P,C2,2*%
%TO.N,GND*%
X-31750000Y86225000D03*
%TD*%
D15*
%TO.P,NMOS1,1,D*%
%TO.N,STX*%
X-12100000Y86800000D03*
%TO.P,NMOS1,2,G*%
%TO.N,+3.3V*%
X-11150000Y89800000D03*
%TO.P,NMOS1,3,S*%
%TO.N,MCURX*%
X-13050000Y89800000D03*
%TD*%
D20*
%TO.P,R5,1*%
%TO.N,+3.3V*%
X-15500000Y87350000D03*
%TO.P,R5,2*%
%TO.N,MCURX*%
X-15500000Y89000000D03*
%TD*%
%TO.P,R1,1*%
%TO.N,Net-(JP1-Pad2)*%
X-30000000Y87925000D03*
%TO.P,R1,2*%
%TO.N,+3.3V*%
X-30000000Y89575000D03*
%TD*%
D21*
%TO.N,GND*%
X-19800000Y90200000D03*
X-30500000Y86250000D03*
%TO.N,+5V*%
X-6250000Y86803500D03*
X-6250000Y83946500D03*
D22*
%TO.N,+3.3V*%
X-23032806Y90053500D03*
D21*
X-17056839Y85193161D03*
D22*
X-21719060Y87942541D03*
D21*
X-19818161Y82931839D03*
%TD*%
D23*
%TO.N,GND*%
X-31750000Y86225000D02*
X-30525000Y86225000D01*
X-30525000Y86225000D02*
X-30500000Y86250000D01*
X-31750000Y86225000D02*
X-31750000Y87975000D01*
D24*
X-19800000Y90200000D02*
X-19549999Y89949999D01*
X-19549999Y89949999D02*
X-18598050Y89949999D01*
%TO.N,Net-(C2-Pad1)*%
X-27800000Y82625000D02*
X-29700000Y82625000D01*
X-29700000Y82625000D02*
X-31750000Y84675000D01*
%TO.N,RA5*%
X-21750000Y90250000D02*
X-22700000Y89300000D01*
X-21750000Y96250000D02*
X-21750000Y90250000D01*
X-22700000Y89300000D02*
X-24401950Y89300000D01*
%TO.N,MCLR*%
X-22750000Y85000000D02*
X-22750000Y87337901D01*
X-23412099Y88000000D02*
X-24401950Y88000000D01*
X-24825000Y82925000D02*
X-22750000Y85000000D01*
X-22750000Y87337901D02*
X-23412099Y88000000D01*
X-24401950Y88000000D02*
X-26675000Y88000000D01*
X-24825000Y74500000D02*
X-24825000Y82925000D01*
%TO.N,RA4*%
X-19210000Y96250000D02*
X-19210000Y93540000D01*
X-19210000Y93540000D02*
X-20750000Y92000000D01*
X-20750000Y92000000D02*
X-20750000Y90000000D01*
X-22100001Y88649999D02*
X-24401950Y88649999D01*
X-20750000Y90000000D02*
X-22100001Y88649999D01*
%TO.N,MCUTX*%
X-15575000Y84250000D02*
X-15500000Y84175000D01*
X-15500000Y84175000D02*
X-13725000Y84175000D01*
X-18598050Y85598050D02*
X-17250000Y84250000D01*
X-13725000Y84175000D02*
X-13050000Y83500000D01*
X-17250000Y84250000D02*
X-15575000Y84250000D01*
X-18598050Y86049999D02*
X-18598050Y85598050D01*
%TO.N,MCURX*%
X-15500000Y88808199D02*
X-15500000Y89000000D01*
X-17608199Y86700000D02*
X-15500000Y88808199D01*
X-15500000Y89000000D02*
X-13850000Y89000000D01*
X-18598050Y86700000D02*
X-17608199Y86700000D01*
X-13850000Y89000000D02*
X-13050000Y89800000D01*
%TO.N,CLK*%
X-20000000Y88104425D02*
X-19454426Y88649999D01*
X-14665000Y74500000D02*
X-17250000Y77085000D01*
X-20000000Y85500000D02*
X-20000000Y88104425D01*
X-19454426Y88649999D02*
X-18598050Y88649999D01*
X-17250000Y82750000D02*
X-20000000Y85500000D01*
X-17250000Y77085000D02*
X-17250000Y82750000D01*
%TO.N,DATA*%
X-18500000Y75795000D02*
X-18500000Y82750000D01*
X-20750000Y85000000D02*
X-20750000Y88750000D01*
X-20750000Y88750000D02*
X-20200000Y89300000D01*
X-17205000Y74500000D02*
X-18500000Y75795000D01*
X-18500000Y82750000D02*
X-20750000Y85000000D01*
X-20200000Y89300000D02*
X-18598050Y89300000D01*
D23*
%TO.N,+5V*%
X-6375000Y87900000D02*
X-6375000Y86928500D01*
X-6375000Y86928500D02*
X-6250000Y86803500D01*
X-3770000Y81700000D02*
X-3750000Y81680000D01*
X-6275000Y81700000D02*
X-3770000Y81700000D01*
X-7300000Y92300000D02*
X-6375000Y91375000D01*
X-14020000Y93220000D02*
X-13100000Y92300000D01*
X-13100000Y92300000D02*
X-7300000Y92300000D01*
X-14020000Y96250000D02*
X-14020000Y93220000D01*
X-6375000Y91375000D02*
X-6375000Y87900000D01*
X-6250000Y83946500D02*
X-6250000Y81725000D01*
D24*
%TO.N,STX*%
X-3600000Y86960000D02*
X-4506500Y86053500D01*
X-9100000Y87900000D02*
X-10200000Y86800000D01*
X-4506500Y86053500D02*
X-7253500Y86053500D01*
X-7253500Y86053500D02*
X-8025000Y86825000D01*
X-10200000Y86800000D02*
X-12100000Y86800000D01*
X-8025000Y87900000D02*
X-9100000Y87900000D01*
X-8025000Y86825000D02*
X-8025000Y87900000D01*
%TO.N,SRX*%
X-12100000Y80500000D02*
X-10500000Y80500000D01*
X-9300000Y81700000D02*
X-7925000Y81700000D01*
X-7250000Y84750000D02*
X-3930000Y84750000D01*
X-7925000Y84075000D02*
X-7250000Y84750000D01*
X-10500000Y80500000D02*
X-9300000Y81700000D01*
X-7925000Y81700000D02*
X-7925000Y84075000D01*
X-3930000Y84750000D02*
X-3600000Y84420000D01*
%TO.N,+3.3V*%
X-23136305Y89950001D02*
X-23032806Y90053500D01*
X-16425000Y85825000D02*
X-15500000Y85825000D01*
X-24401950Y89950001D02*
X-23136305Y89950001D01*
X-21750000Y87911601D02*
X-21750000Y83000000D01*
X-24401950Y91651950D02*
X-24401950Y96138050D01*
X-13600000Y87350000D02*
X-11150000Y89800000D01*
X-21719060Y87942541D02*
X-21750000Y87911601D01*
X-13325000Y85825000D02*
X-11150000Y83650000D01*
X-23250000Y81500000D02*
X-23250000Y75465000D01*
X-23250000Y75465000D02*
X-22285000Y74500000D01*
X-24401950Y89950001D02*
X-24401950Y91651950D01*
X-15500000Y85825000D02*
X-15500000Y87350000D01*
X-26449999Y89950001D02*
X-24401950Y89950001D01*
X-24401950Y96138050D02*
X-24290000Y96250000D01*
X-11150000Y83650000D02*
X-11150000Y83500000D01*
X-19886322Y83000000D02*
X-21750000Y83000000D01*
X-21750000Y83000000D02*
X-23250000Y81500000D01*
X-30000000Y89575000D02*
X-31700000Y89575000D01*
X-15500000Y87350000D02*
X-13600000Y87350000D01*
X-30000000Y89575000D02*
X-26825000Y89575000D01*
X-17056839Y85193161D02*
X-16425000Y85825000D01*
X-19818161Y82931839D02*
X-19886322Y83000000D01*
X-26825000Y89575000D02*
X-26449999Y89950001D01*
X-15500000Y85825000D02*
X-13325000Y85825000D01*
X-31700000Y89575000D02*
X-31750000Y89525000D01*
%TO.N,Net-(JP1-Pad2)*%
X-27800000Y85165000D02*
X-27800000Y87475000D01*
X-30000000Y87925000D02*
X-28400000Y87925000D01*
X-28400000Y87925000D02*
X-28325000Y88000000D01*
X-27800000Y87475000D02*
X-28325000Y88000000D01*
%TD*%
M02*
