%TF.GenerationSoftware,KiCad,Pcbnew,(6.0.8)*%
%TF.CreationDate,2023-04-06T01:35:20-05:00*%
%TF.ProjectId,Sensor_fixed_mosfet_pins,53656e73-6f72-45f6-9669-7865645f6d6f,rev?*%
%TF.SameCoordinates,Original*%
%TF.FileFunction,Legend,Top*%
%TF.FilePolarity,Positive*%
%FSLAX46Y46*%
G04 Gerber Fmt 4.6, Leading zero omitted, Abs format (unit mm)*
G04 Created by KiCad (PCBNEW (6.0.8)) date 2023-04-06 01:35:20*
%MOMM*%
%LPD*%
G01*
G04 APERTURE LIST*
%ADD10C,0.150000*%
%ADD11C,0.120000*%
G04 APERTURE END LIST*
D10*
X-4511904Y92500000D02*
X-4607142Y92547619D01*
X-4750000Y92547619D01*
X-4892857Y92500000D01*
X-4988095Y92404761D01*
X-5035714Y92309523D01*
X-5083333Y92119047D01*
X-5083333Y91976190D01*
X-5035714Y91785714D01*
X-4988095Y91690476D01*
X-4892857Y91595238D01*
X-4750000Y91547619D01*
X-4654761Y91547619D01*
X-4511904Y91595238D01*
X-4464285Y91642857D01*
X-4464285Y91976190D01*
X-4654761Y91976190D01*
X-4035714Y91547619D02*
X-4035714Y92547619D01*
X-3464285Y91547619D01*
X-3464285Y92547619D01*
X-2988095Y91547619D02*
X-2988095Y92547619D01*
X-2750000Y92547619D01*
X-2607142Y92500000D01*
X-2511904Y92404761D01*
X-2464285Y92309523D01*
X-2416666Y92119047D01*
X-2416666Y91976190D01*
X-2464285Y91785714D01*
X-2511904Y91690476D01*
X-2607142Y91595238D01*
X-2750000Y91547619D01*
X-2988095Y91547619D01*
X-18595238Y91297619D02*
X-18928571Y91773809D01*
X-19166666Y91297619D02*
X-19166666Y92297619D01*
X-18785714Y92297619D01*
X-18690476Y92250000D01*
X-18642857Y92202380D01*
X-18595238Y92107142D01*
X-18595238Y91964285D01*
X-18642857Y91869047D01*
X-18690476Y91821428D01*
X-18785714Y91773809D01*
X-19166666Y91773809D01*
X-18214285Y91583333D02*
X-17738095Y91583333D01*
X-18309523Y91297619D02*
X-17976190Y92297619D01*
X-17642857Y91297619D01*
X-16880952Y91964285D02*
X-16880952Y91297619D01*
X-17119047Y92345238D02*
X-17357142Y91630952D01*
X-16738095Y91630952D01*
X-13345238Y76642857D02*
X-13392857Y76595238D01*
X-13535714Y76547619D01*
X-13630952Y76547619D01*
X-13773809Y76595238D01*
X-13869047Y76690476D01*
X-13916666Y76785714D01*
X-13964285Y76976190D01*
X-13964285Y77119047D01*
X-13916666Y77309523D01*
X-13869047Y77404761D01*
X-13773809Y77500000D01*
X-13630952Y77547619D01*
X-13535714Y77547619D01*
X-13392857Y77500000D01*
X-13345238Y77452380D01*
X-12440476Y76547619D02*
X-12916666Y76547619D01*
X-12916666Y77547619D01*
X-12107142Y76547619D02*
X-12107142Y77547619D01*
X-11535714Y76547619D02*
X-11964285Y77119047D01*
X-11535714Y77547619D02*
X-12107142Y76976190D01*
X-12011904Y92250000D02*
X-12107142Y92297619D01*
X-12250000Y92297619D01*
X-12392857Y92250000D01*
X-12488095Y92154761D01*
X-12535714Y92059523D01*
X-12583333Y91869047D01*
X-12583333Y91726190D01*
X-12535714Y91535714D01*
X-12488095Y91440476D01*
X-12392857Y91345238D01*
X-12250000Y91297619D01*
X-12154761Y91297619D01*
X-12011904Y91345238D01*
X-11964285Y91392857D01*
X-11964285Y91726190D01*
X-12154761Y91726190D01*
X-11535714Y91297619D02*
X-11535714Y92297619D01*
X-10964285Y91297619D01*
X-10964285Y92297619D01*
X-10488095Y91297619D02*
X-10488095Y92297619D01*
X-10250000Y92297619D01*
X-10107142Y92250000D01*
X-10011904Y92154761D01*
X-9964285Y92059523D01*
X-9916666Y91869047D01*
X-9916666Y91726190D01*
X-9964285Y91535714D01*
X-10011904Y91440476D01*
X-10107142Y91345238D01*
X-10250000Y91297619D01*
X-10488095Y91297619D01*
X-27095238Y76642857D02*
X-27142857Y76595238D01*
X-27285714Y76547619D01*
X-27380952Y76547619D01*
X-27523809Y76595238D01*
X-27619047Y76690476D01*
X-27666666Y76785714D01*
X-27714285Y76976190D01*
X-27714285Y77119047D01*
X-27666666Y77309523D01*
X-27619047Y77404761D01*
X-27523809Y77500000D01*
X-27380952Y77547619D01*
X-27285714Y77547619D01*
X-27142857Y77500000D01*
X-27095238Y77452380D01*
X-26190476Y76547619D02*
X-26666666Y76547619D01*
X-26666666Y77547619D01*
X-25285714Y76547619D02*
X-25619047Y77023809D01*
X-25857142Y76547619D02*
X-25857142Y77547619D01*
X-25476190Y77547619D01*
X-25380952Y77500000D01*
X-25333333Y77452380D01*
X-25285714Y77357142D01*
X-25285714Y77214285D01*
X-25333333Y77119047D01*
X-25380952Y77071428D01*
X-25476190Y77023809D01*
X-25857142Y77023809D01*
X-17321428Y76547619D02*
X-17321428Y77547619D01*
X-17083333Y77547619D01*
X-16940476Y77500000D01*
X-16845238Y77404761D01*
X-16797619Y77309523D01*
X-16750000Y77119047D01*
X-16750000Y76976190D01*
X-16797619Y76785714D01*
X-16845238Y76690476D01*
X-16940476Y76595238D01*
X-17083333Y76547619D01*
X-17321428Y76547619D01*
X-16369047Y76833333D02*
X-15892857Y76833333D01*
X-16464285Y76547619D02*
X-16130952Y77547619D01*
X-15797619Y76547619D01*
X-15607142Y77547619D02*
X-15035714Y77547619D01*
X-15321428Y76547619D02*
X-15321428Y77547619D01*
X-24297619Y77547619D02*
X-23678571Y77547619D01*
X-24011904Y77166666D01*
X-23869047Y77166666D01*
X-23773809Y77119047D01*
X-23726190Y77071428D01*
X-23678571Y76976190D01*
X-23678571Y76738095D01*
X-23726190Y76642857D01*
X-23773809Y76595238D01*
X-23869047Y76547619D01*
X-24154761Y76547619D01*
X-24250000Y76595238D01*
X-24297619Y76642857D01*
X-23250000Y76642857D02*
X-23202380Y76595238D01*
X-23250000Y76547619D01*
X-23297619Y76595238D01*
X-23250000Y76642857D01*
X-23250000Y76547619D01*
X-22869047Y77547619D02*
X-22250000Y77547619D01*
X-22583333Y77166666D01*
X-22440476Y77166666D01*
X-22345238Y77119047D01*
X-22297619Y77071428D01*
X-22250000Y76976190D01*
X-22250000Y76738095D01*
X-22297619Y76642857D01*
X-22345238Y76595238D01*
X-22440476Y76547619D01*
X-22726190Y76547619D01*
X-22821428Y76595238D01*
X-22869047Y76642857D01*
X-22345238Y91297619D02*
X-22678571Y91773809D01*
X-22916666Y91297619D02*
X-22916666Y92297619D01*
X-22535714Y92297619D01*
X-22440476Y92250000D01*
X-22392857Y92202380D01*
X-22345238Y92107142D01*
X-22345238Y91964285D01*
X-22392857Y91869047D01*
X-22440476Y91821428D01*
X-22535714Y91773809D01*
X-22916666Y91773809D01*
X-21964285Y91583333D02*
X-21488095Y91583333D01*
X-22059523Y91297619D02*
X-21726190Y92297619D01*
X-21392857Y91297619D01*
X-20583333Y92297619D02*
X-21059523Y92297619D01*
X-21107142Y91821428D01*
X-21059523Y91869047D01*
X-20964285Y91916666D01*
X-20726190Y91916666D01*
X-20630952Y91869047D01*
X-20583333Y91821428D01*
X-20535714Y91726190D01*
X-20535714Y91488095D01*
X-20583333Y91392857D01*
X-20630952Y91345238D01*
X-20726190Y91297619D01*
X-20964285Y91297619D01*
X-21059523Y91345238D01*
X-21107142Y91392857D01*
X-14011904Y92297619D02*
X-14488095Y92297619D01*
X-14535714Y91821428D01*
X-14488095Y91869047D01*
X-14392857Y91916666D01*
X-14154761Y91916666D01*
X-14059523Y91869047D01*
X-14011904Y91821428D01*
X-13964285Y91726190D01*
X-13964285Y91488095D01*
X-14011904Y91392857D01*
X-14059523Y91345238D01*
X-14154761Y91297619D01*
X-14392857Y91297619D01*
X-14488095Y91345238D01*
X-14535714Y91392857D01*
X-20511904Y77500000D02*
X-20607142Y77547619D01*
X-20750000Y77547619D01*
X-20892857Y77500000D01*
X-20988095Y77404761D01*
X-21035714Y77309523D01*
X-21083333Y77119047D01*
X-21083333Y76976190D01*
X-21035714Y76785714D01*
X-20988095Y76690476D01*
X-20892857Y76595238D01*
X-20750000Y76547619D01*
X-20654761Y76547619D01*
X-20511904Y76595238D01*
X-20464285Y76642857D01*
X-20464285Y76976190D01*
X-20654761Y76976190D01*
X-20035714Y76547619D02*
X-20035714Y77547619D01*
X-19464285Y76547619D01*
X-19464285Y77547619D01*
X-18988095Y76547619D02*
X-18988095Y77547619D01*
X-18750000Y77547619D01*
X-18607142Y77500000D01*
X-18511904Y77404761D01*
X-18464285Y77309523D01*
X-18416666Y77119047D01*
X-18416666Y76976190D01*
X-18464285Y76785714D01*
X-18511904Y76690476D01*
X-18607142Y76595238D01*
X-18750000Y76547619D01*
X-18988095Y76547619D01*
X-26297619Y92297619D02*
X-25678571Y92297619D01*
X-26011904Y91916666D01*
X-25869047Y91916666D01*
X-25773809Y91869047D01*
X-25726190Y91821428D01*
X-25678571Y91726190D01*
X-25678571Y91488095D01*
X-25726190Y91392857D01*
X-25773809Y91345238D01*
X-25869047Y91297619D01*
X-26154761Y91297619D01*
X-26250000Y91345238D01*
X-26297619Y91392857D01*
X-25250000Y91392857D02*
X-25202380Y91345238D01*
X-25250000Y91297619D01*
X-25297619Y91345238D01*
X-25250000Y91392857D01*
X-25250000Y91297619D01*
X-24869047Y92297619D02*
X-24250000Y92297619D01*
X-24583333Y91916666D01*
X-24440476Y91916666D01*
X-24345238Y91869047D01*
X-24297619Y91821428D01*
X-24250000Y91726190D01*
X-24250000Y91488095D01*
X-24297619Y91392857D01*
X-24345238Y91345238D01*
X-24440476Y91297619D01*
X-24726190Y91297619D01*
X-24821428Y91345238D01*
X-24869047Y91392857D01*
%TO.C,C1*%
X-32166666Y90642857D02*
X-32214285Y90595238D01*
X-32357142Y90547619D01*
X-32452380Y90547619D01*
X-32595238Y90595238D01*
X-32690476Y90690476D01*
X-32738095Y90785714D01*
X-32785714Y90976190D01*
X-32785714Y91119047D01*
X-32738095Y91309523D01*
X-32690476Y91404761D01*
X-32595238Y91500000D01*
X-32452380Y91547619D01*
X-32357142Y91547619D01*
X-32214285Y91500000D01*
X-32166666Y91452380D01*
X-31214285Y90547619D02*
X-31785714Y90547619D01*
X-31500000Y90547619D02*
X-31500000Y91547619D01*
X-31595238Y91404761D01*
X-31690476Y91309523D01*
X-31785714Y91261904D01*
%TO.C,R3*%
X-17416666Y83047619D02*
X-17750000Y83523809D01*
X-17988095Y83047619D02*
X-17988095Y84047619D01*
X-17607142Y84047619D01*
X-17511904Y84000000D01*
X-17464285Y83952380D01*
X-17416666Y83857142D01*
X-17416666Y83714285D01*
X-17464285Y83619047D01*
X-17511904Y83571428D01*
X-17607142Y83523809D01*
X-17988095Y83523809D01*
X-17083333Y84047619D02*
X-16464285Y84047619D01*
X-16797619Y83666666D01*
X-16654761Y83666666D01*
X-16559523Y83619047D01*
X-16511904Y83571428D01*
X-16464285Y83476190D01*
X-16464285Y83238095D01*
X-16511904Y83142857D01*
X-16559523Y83095238D01*
X-16654761Y83047619D01*
X-16940476Y83047619D01*
X-17035714Y83095238D01*
X-17083333Y83142857D01*
%TO.C,R6*%
X-7266666Y88847619D02*
X-7600000Y89323809D01*
X-7838095Y88847619D02*
X-7838095Y89847619D01*
X-7457142Y89847619D01*
X-7361904Y89800000D01*
X-7314285Y89752380D01*
X-7266666Y89657142D01*
X-7266666Y89514285D01*
X-7314285Y89419047D01*
X-7361904Y89371428D01*
X-7457142Y89323809D01*
X-7838095Y89323809D01*
X-6409523Y89847619D02*
X-6600000Y89847619D01*
X-6695238Y89800000D01*
X-6742857Y89752380D01*
X-6838095Y89609523D01*
X-6885714Y89419047D01*
X-6885714Y89038095D01*
X-6838095Y88942857D01*
X-6790476Y88895238D01*
X-6695238Y88847619D01*
X-6504761Y88847619D01*
X-6409523Y88895238D01*
X-6361904Y88942857D01*
X-6314285Y89038095D01*
X-6314285Y89276190D01*
X-6361904Y89371428D01*
X-6409523Y89419047D01*
X-6504761Y89466666D01*
X-6695238Y89466666D01*
X-6790476Y89419047D01*
X-6838095Y89371428D01*
X-6885714Y89276190D01*
%TO.C,J2*%
X-12333333Y74047619D02*
X-12333333Y73333333D01*
X-12380952Y73190476D01*
X-12476190Y73095238D01*
X-12619047Y73047619D01*
X-12714285Y73047619D01*
X-11904761Y73952380D02*
X-11857142Y74000000D01*
X-11761904Y74047619D01*
X-11523809Y74047619D01*
X-11428571Y74000000D01*
X-11380952Y73952380D01*
X-11333333Y73857142D01*
X-11333333Y73761904D01*
X-11380952Y73619047D01*
X-11952380Y73047619D01*
X-11333333Y73047619D01*
%TO.C,R2*%
X-27666666Y89047619D02*
X-28000000Y89523809D01*
X-28238095Y89047619D02*
X-28238095Y90047619D01*
X-27857142Y90047619D01*
X-27761904Y90000000D01*
X-27714285Y89952380D01*
X-27666666Y89857142D01*
X-27666666Y89714285D01*
X-27714285Y89619047D01*
X-27761904Y89571428D01*
X-27857142Y89523809D01*
X-28238095Y89523809D01*
X-27285714Y89952380D02*
X-27238095Y90000000D01*
X-27142857Y90047619D01*
X-26904761Y90047619D01*
X-26809523Y90000000D01*
X-26761904Y89952380D01*
X-26714285Y89857142D01*
X-26714285Y89761904D01*
X-26761904Y89619047D01*
X-27333333Y89047619D01*
X-26714285Y89047619D01*
%TO.C,NMOS2*%
X-14633333Y78147619D02*
X-14633333Y79147619D01*
X-14061904Y78147619D01*
X-14061904Y79147619D01*
X-13585714Y78147619D02*
X-13585714Y79147619D01*
X-13252380Y78433333D01*
X-12919047Y79147619D01*
X-12919047Y78147619D01*
X-12252380Y79147619D02*
X-12061904Y79147619D01*
X-11966666Y79100000D01*
X-11871428Y79004761D01*
X-11823809Y78814285D01*
X-11823809Y78480952D01*
X-11871428Y78290476D01*
X-11966666Y78195238D01*
X-12061904Y78147619D01*
X-12252380Y78147619D01*
X-12347619Y78195238D01*
X-12442857Y78290476D01*
X-12490476Y78480952D01*
X-12490476Y78814285D01*
X-12442857Y79004761D01*
X-12347619Y79100000D01*
X-12252380Y79147619D01*
X-11442857Y78195238D02*
X-11300000Y78147619D01*
X-11061904Y78147619D01*
X-10966666Y78195238D01*
X-10919047Y78242857D01*
X-10871428Y78338095D01*
X-10871428Y78433333D01*
X-10919047Y78528571D01*
X-10966666Y78576190D01*
X-11061904Y78623809D01*
X-11252380Y78671428D01*
X-11347619Y78719047D01*
X-11395238Y78766666D01*
X-11442857Y78861904D01*
X-11442857Y78957142D01*
X-11395238Y79052380D01*
X-11347619Y79100000D01*
X-11252380Y79147619D01*
X-11014285Y79147619D01*
X-10871428Y79100000D01*
X-10490476Y79052380D02*
X-10442857Y79100000D01*
X-10347619Y79147619D01*
X-10109523Y79147619D01*
X-10014285Y79100000D01*
X-9966666Y79052380D01*
X-9919047Y78957142D01*
X-9919047Y78861904D01*
X-9966666Y78719047D01*
X-10538095Y78147619D01*
X-9919047Y78147619D01*
%TO.C,J1*%
X-27333333Y95547619D02*
X-27333333Y94833333D01*
X-27380952Y94690476D01*
X-27476190Y94595238D01*
X-27619047Y94547619D01*
X-27714285Y94547619D01*
X-26333333Y94547619D02*
X-26904761Y94547619D01*
X-26619047Y94547619D02*
X-26619047Y95547619D01*
X-26714285Y95404761D01*
X-26809523Y95309523D01*
X-26904761Y95261904D01*
%TO.C,J4*%
X-4083333Y79577619D02*
X-4083333Y78863333D01*
X-4130952Y78720476D01*
X-4226190Y78625238D01*
X-4369047Y78577619D01*
X-4464285Y78577619D01*
X-3178571Y79244285D02*
X-3178571Y78577619D01*
X-3416666Y79625238D02*
X-3654761Y78910952D01*
X-3035714Y78910952D01*
%TO.C,J3*%
X-8833333Y95047619D02*
X-8833333Y94333333D01*
X-8880952Y94190476D01*
X-8976190Y94095238D01*
X-9119047Y94047619D01*
X-9214285Y94047619D01*
X-8452380Y95047619D02*
X-7833333Y95047619D01*
X-8166666Y94666666D01*
X-8023809Y94666666D01*
X-7928571Y94619047D01*
X-7880952Y94571428D01*
X-7833333Y94476190D01*
X-7833333Y94238095D01*
X-7880952Y94142857D01*
X-7928571Y94095238D01*
X-8023809Y94047619D01*
X-8309523Y94047619D01*
X-8404761Y94095238D01*
X-8452380Y94142857D01*
%TO.C,IC1*%
X-22476190Y87547619D02*
X-22476190Y88547619D01*
X-21428571Y87642857D02*
X-21476190Y87595238D01*
X-21619047Y87547619D01*
X-21714285Y87547619D01*
X-21857142Y87595238D01*
X-21952380Y87690476D01*
X-22000000Y87785714D01*
X-22047619Y87976190D01*
X-22047619Y88119047D01*
X-22000000Y88309523D01*
X-21952380Y88404761D01*
X-21857142Y88500000D01*
X-21714285Y88547619D01*
X-21619047Y88547619D01*
X-21476190Y88500000D01*
X-21428571Y88452380D01*
X-20476190Y87547619D02*
X-21047619Y87547619D01*
X-20761904Y87547619D02*
X-20761904Y88547619D01*
X-20857142Y88404761D01*
X-20952380Y88309523D01*
X-21047619Y88261904D01*
X-23107142Y84047619D02*
X-23107142Y85047619D01*
X-22773809Y84333333D01*
X-22440476Y85047619D01*
X-22440476Y84047619D01*
X-21392857Y84142857D02*
X-21440476Y84095238D01*
X-21583333Y84047619D01*
X-21678571Y84047619D01*
X-21821428Y84095238D01*
X-21916666Y84190476D01*
X-21964285Y84285714D01*
X-22011904Y84476190D01*
X-22011904Y84619047D01*
X-21964285Y84809523D01*
X-21916666Y84904761D01*
X-21821428Y85000000D01*
X-21678571Y85047619D01*
X-21583333Y85047619D01*
X-21440476Y85000000D01*
X-21392857Y84952380D01*
X-20964285Y85047619D02*
X-20964285Y84238095D01*
X-20916666Y84142857D01*
X-20869047Y84095238D01*
X-20773809Y84047619D01*
X-20583333Y84047619D01*
X-20488095Y84095238D01*
X-20440476Y84142857D01*
X-20392857Y84238095D01*
X-20392857Y85047619D01*
%TO.C,JP1*%
X-28633333Y80547619D02*
X-28633333Y79833333D01*
X-28680952Y79690476D01*
X-28776190Y79595238D01*
X-28919047Y79547619D01*
X-29014285Y79547619D01*
X-28157142Y79547619D02*
X-28157142Y80547619D01*
X-27776190Y80547619D01*
X-27680952Y80500000D01*
X-27633333Y80452380D01*
X-27585714Y80357142D01*
X-27585714Y80214285D01*
X-27633333Y80119047D01*
X-27680952Y80071428D01*
X-27776190Y80023809D01*
X-28157142Y80023809D01*
X-26633333Y79547619D02*
X-27204761Y79547619D01*
X-26919047Y79547619D02*
X-26919047Y80547619D01*
X-27014285Y80404761D01*
X-27109523Y80309523D01*
X-27204761Y80261904D01*
%TO.C,R4*%
X-7266666Y79817619D02*
X-7600000Y80293809D01*
X-7838095Y79817619D02*
X-7838095Y80817619D01*
X-7457142Y80817619D01*
X-7361904Y80770000D01*
X-7314285Y80722380D01*
X-7266666Y80627142D01*
X-7266666Y80484285D01*
X-7314285Y80389047D01*
X-7361904Y80341428D01*
X-7457142Y80293809D01*
X-7838095Y80293809D01*
X-6409523Y80484285D02*
X-6409523Y79817619D01*
X-6647619Y80865238D02*
X-6885714Y80150952D01*
X-6266666Y80150952D01*
%TO.C,C2*%
X-32822857Y85283333D02*
X-32775238Y85235714D01*
X-32727619Y85092857D01*
X-32727619Y84997619D01*
X-32775238Y84854761D01*
X-32870476Y84759523D01*
X-32965714Y84711904D01*
X-33156190Y84664285D01*
X-33299047Y84664285D01*
X-33489523Y84711904D01*
X-33584761Y84759523D01*
X-33680000Y84854761D01*
X-33727619Y84997619D01*
X-33727619Y85092857D01*
X-33680000Y85235714D01*
X-33632380Y85283333D01*
X-33632380Y85664285D02*
X-33680000Y85711904D01*
X-33727619Y85807142D01*
X-33727619Y86045238D01*
X-33680000Y86140476D01*
X-33632380Y86188095D01*
X-33537142Y86235714D01*
X-33441904Y86235714D01*
X-33299047Y86188095D01*
X-32727619Y85616666D01*
X-32727619Y86235714D01*
%TO.C,NMOS1*%
X-9047619Y86266666D02*
X-10047619Y86266666D01*
X-9047619Y86838095D01*
X-10047619Y86838095D01*
X-9047619Y87314285D02*
X-10047619Y87314285D01*
X-9333333Y87647619D01*
X-10047619Y87980952D01*
X-9047619Y87980952D01*
X-10047619Y88647619D02*
X-10047619Y88838095D01*
X-10000000Y88933333D01*
X-9904761Y89028571D01*
X-9714285Y89076190D01*
X-9380952Y89076190D01*
X-9190476Y89028571D01*
X-9095238Y88933333D01*
X-9047619Y88838095D01*
X-9047619Y88647619D01*
X-9095238Y88552380D01*
X-9190476Y88457142D01*
X-9380952Y88409523D01*
X-9714285Y88409523D01*
X-9904761Y88457142D01*
X-10000000Y88552380D01*
X-10047619Y88647619D01*
X-9095238Y89457142D02*
X-9047619Y89600000D01*
X-9047619Y89838095D01*
X-9095238Y89933333D01*
X-9142857Y89980952D01*
X-9238095Y90028571D01*
X-9333333Y90028571D01*
X-9428571Y89980952D01*
X-9476190Y89933333D01*
X-9523809Y89838095D01*
X-9571428Y89647619D01*
X-9619047Y89552380D01*
X-9666666Y89504761D01*
X-9761904Y89457142D01*
X-9857142Y89457142D01*
X-9952380Y89504761D01*
X-10000000Y89552380D01*
X-10047619Y89647619D01*
X-10047619Y89885714D01*
X-10000000Y90028571D01*
X-9047619Y90980952D02*
X-9047619Y90409523D01*
X-9047619Y90695238D02*
X-10047619Y90695238D01*
X-9904761Y90600000D01*
X-9809523Y90504761D01*
X-9761904Y90409523D01*
%TO.C,R5*%
X-16166666Y89797619D02*
X-16500000Y90273809D01*
X-16738095Y89797619D02*
X-16738095Y90797619D01*
X-16357142Y90797619D01*
X-16261904Y90750000D01*
X-16214285Y90702380D01*
X-16166666Y90607142D01*
X-16166666Y90464285D01*
X-16214285Y90369047D01*
X-16261904Y90321428D01*
X-16357142Y90273809D01*
X-16738095Y90273809D01*
X-15261904Y90797619D02*
X-15738095Y90797619D01*
X-15785714Y90321428D01*
X-15738095Y90369047D01*
X-15642857Y90416666D01*
X-15404761Y90416666D01*
X-15309523Y90369047D01*
X-15261904Y90321428D01*
X-15214285Y90226190D01*
X-15214285Y89988095D01*
X-15261904Y89892857D01*
X-15309523Y89845238D01*
X-15404761Y89797619D01*
X-15642857Y89797619D01*
X-15738095Y89845238D01*
X-15785714Y89892857D01*
%TO.C,R1*%
X-29916666Y90547619D02*
X-30250000Y91023809D01*
X-30488095Y90547619D02*
X-30488095Y91547619D01*
X-30107142Y91547619D01*
X-30011904Y91500000D01*
X-29964285Y91452380D01*
X-29916666Y91357142D01*
X-29916666Y91214285D01*
X-29964285Y91119047D01*
X-30011904Y91071428D01*
X-30107142Y91023809D01*
X-30488095Y91023809D01*
X-28964285Y90547619D02*
X-29535714Y90547619D01*
X-29250000Y90547619D02*
X-29250000Y91547619D01*
X-29345238Y91404761D01*
X-29440476Y91309523D01*
X-29535714Y91261904D01*
D11*
%TO.C,C1*%
X-32260000Y88890580D02*
X-32260000Y88609420D01*
X-31240000Y88890580D02*
X-31240000Y88609420D01*
%TO.C,R3*%
X-14977500Y85237258D02*
X-14977500Y84762742D01*
X-16022500Y85237258D02*
X-16022500Y84762742D01*
%TO.C,R6*%
X-6962742Y88422500D02*
X-7437258Y88422500D01*
X-6962742Y87377500D02*
X-7437258Y87377500D01*
%TO.C,J2*%
X-23555000Y75830000D02*
X-13335000Y75830000D01*
X-13335000Y73170000D02*
X-13335000Y75830000D01*
X-24825000Y73170000D02*
X-26155000Y73170000D01*
X-23555000Y73170000D02*
X-23555000Y75830000D01*
X-26155000Y73170000D02*
X-26155000Y74500000D01*
X-23555000Y73170000D02*
X-13335000Y73170000D01*
%TO.C,R2*%
X-27262742Y88522500D02*
X-27737258Y88522500D01*
X-27262742Y87477500D02*
X-27737258Y87477500D01*
%TO.C,NMOS2*%
X-13680000Y81240000D02*
X-12750000Y81240000D01*
X-10520000Y81240000D02*
X-11450000Y81240000D01*
X-10520000Y81240000D02*
X-10520000Y84400000D01*
X-13680000Y81240000D02*
X-13680000Y82700000D01*
%TO.C,J1*%
X-20000000Y99410000D02*
X-20960000Y99410000D01*
X-25850000Y93090000D02*
X-25850000Y99410000D01*
X-20000000Y98850000D02*
X-20960000Y98850000D01*
X-17650000Y93090000D02*
X-17650000Y99410000D01*
X-25080000Y99410000D02*
X-25850000Y99410000D01*
X-17410000Y98910000D02*
X-17410000Y99650000D01*
X-25080000Y98850000D02*
X-25850000Y98850000D01*
X-17650000Y98850000D02*
X-18420000Y98850000D01*
X-17650000Y93550000D02*
X-25850000Y93550000D01*
X-22540000Y98850000D02*
X-23500000Y98850000D01*
X-22540000Y99410000D02*
X-23500000Y99410000D01*
X-17650000Y99410000D02*
X-18420000Y99410000D01*
X-17410000Y99650000D02*
X-17910000Y99650000D01*
X-17650000Y93090000D02*
X-25850000Y93090000D01*
%TO.C,J4*%
X-4930000Y89280000D02*
X-4930000Y90610000D01*
X-2270000Y88010000D02*
X-2270000Y80330000D01*
X-4930000Y88010000D02*
X-4930000Y80330000D01*
X-4930000Y80330000D02*
X-2270000Y80330000D01*
X-4930000Y90610000D02*
X-3600000Y90610000D01*
X-4930000Y88010000D02*
X-2270000Y88010000D01*
%TO.C,J3*%
X-9920000Y93090000D02*
X-15580000Y93090000D01*
X-14810000Y98850000D02*
X-15580000Y98850000D01*
X-14810000Y99410000D02*
X-15580000Y99410000D01*
X-12270000Y99410000D02*
X-13230000Y99410000D01*
X-12270000Y98850000D02*
X-13230000Y98850000D01*
X-9920000Y99410000D02*
X-10690000Y99410000D01*
X-9920000Y93550000D02*
X-15580000Y93550000D01*
X-15580000Y93090000D02*
X-15580000Y99410000D01*
X-9680000Y98910000D02*
X-9680000Y99650000D01*
X-9680000Y99650000D02*
X-10180000Y99650000D01*
X-9920000Y93090000D02*
X-9920000Y99410000D01*
X-9920000Y98850000D02*
X-10690000Y98850000D01*
%TO.C,IC1*%
X-23874900Y85320300D02*
X-19125100Y85320300D01*
X-19125100Y85320300D02*
X-19125100Y85539459D01*
X-23874900Y90679700D02*
X-23874900Y90460541D01*
X-19125100Y90679700D02*
X-23874900Y90679700D01*
X-19125100Y90460539D02*
X-19125100Y90679700D01*
X-23874900Y85539461D02*
X-23874900Y85320300D01*
%TO.C,JP1*%
X-26470000Y86495000D02*
X-29130000Y86495000D01*
X-29130000Y83895000D02*
X-29130000Y86495000D01*
X-26470000Y83895000D02*
X-29130000Y83895000D01*
X-26470000Y82625000D02*
X-26470000Y81295000D01*
X-26470000Y81295000D02*
X-27800000Y81295000D01*
X-26470000Y83895000D02*
X-26470000Y86495000D01*
%TO.C,R4*%
X-6862742Y81177500D02*
X-7337258Y81177500D01*
X-6862742Y82222500D02*
X-7337258Y82222500D01*
%TO.C,C2*%
X-32260000Y85309420D02*
X-32260000Y85590580D01*
X-31240000Y85309420D02*
X-31240000Y85590580D01*
%TO.C,NMOS1*%
X-10520000Y87540000D02*
X-11450000Y87540000D01*
X-10520000Y87540000D02*
X-10520000Y90700000D01*
X-13680000Y87540000D02*
X-12750000Y87540000D01*
X-13680000Y87540000D02*
X-13680000Y89000000D01*
%TO.C,R5*%
X-14977500Y87937742D02*
X-14977500Y88412258D01*
X-16022500Y87937742D02*
X-16022500Y88412258D01*
%TO.C,R1*%
X-30522500Y88512742D02*
X-30522500Y88987258D01*
X-29477500Y88512742D02*
X-29477500Y88987258D01*
%TD*%
M02*
