M48
;GenerationSoftware,Autodesk,EAGLE,9.6.2*%
;CreationDate,2023-02-12T19:15:56Z*%
FMAT,2
ICI,OFF
METRIC,TZ,000.000
T4C0.200
T3C0.350
T2C1.600
T1C3.175
%
G90
M71
T1
X-144000Y174500
X-144000Y106000
X-65500Y106000
X-65500Y174500
T2
X-70500Y152860
X-70500Y145240
X-70500Y137620
X-70500Y130000
X-139272Y137414
X-139272Y145034
T3
X-99060Y147320
X-97790Y147320
X-96520Y147320
X-95250Y147320
X-93980Y147320
X-92710Y147320
X-91440Y147320
X-94742Y146050
X-93472Y146050
X-92202Y146050
X-90932Y146050
X-93980Y144780
X-92710Y144780
X-91440Y144780
X-90170Y144780
X-92202Y143510
X-90678Y143510
X-104394Y155702
X-105664Y155702
X-106934Y155702
X-108204Y155702
X-109728Y155702
X-111252Y155702
X-112776Y155702
X-114300Y155702
X-115824Y155702
X-117348Y155702
X-118872Y155702
X-120396Y155702
X-120904Y156972
X-119634Y156972
X-118110Y156972
X-116840Y156972
X-115570Y156972
X-120904Y158242
X-119634Y158242
X-118110Y158242
X-116840Y158242
X-120396Y159512
X-119126Y159512
X-93726Y130810
X-93726Y129794
X-92710Y130810
X-92710Y129794
X-91694Y129794
X-90678Y129794
X-91694Y130810
X-90678Y130810
X-89916Y131572
X-89916Y130302
X-91694Y119888
X-90424Y119888
X-123698Y118618
X-122682Y118618
X-130175Y137668
X-130175Y136398
X-130175Y134874
X-130175Y133604
X-128905Y133604
X-127635Y133604
X-126365Y133604
X-126365Y134874
X-126365Y136398
X-126365Y137668
X-84455Y169418
X-83439Y169418
X-82296Y169418
X-81153Y169418
X-81153Y168402
X-81153Y167259
X-81153Y166116
X-81153Y164973
X-84455Y164973
X-127889Y111125
X-84455Y167259
X-84455Y168402
X-80543Y140259
X-80543Y138659
X-80899Y135814
X-80594Y134391
X-77648Y143866
X-131877Y157912
X-130454Y164363
X-130378Y162789
X-130327Y168631
X-130327Y167183
X-120853Y172491
X-119837Y172491
X-118821Y172491
X-117805Y172491
X-116789Y172491
X-117297Y173253
X-118313Y173253
X-119329Y173253
X-120345Y173253
X-129743Y165887
X-124409Y166294
X-81331Y137135
X-86665Y136728
X-118618Y115316
X-126619Y115316
X-125730Y115316
X-124841Y115316
X-123952Y115316
X-86360Y116586
X-94361Y116586
X-93472Y116586
X-92583Y116586
X-91694Y116586
X-100990Y162966
X-100990Y161696
X-100990Y160426
X-100990Y159156
X-100990Y158140
X-115214Y161900
X-101397Y164389
X-115011Y164897
X-105969Y170485
X-110084Y140056
X-110084Y141326
X-110084Y142596
X-110084Y143866
X-110084Y145009
X-95860Y141122
X-109677Y138633
X-96063Y138125
X-105105Y132537
X-109220Y116967
X-124206Y110490
X-76962Y118237
X-91948Y111760
X-100330Y147320
X-101600Y147320
X-102870Y147320
X-104140Y147320
X-84455Y166116
X-128143Y117729
X-95631Y112395
X-95885Y118999
X-106680Y147320
X-105410Y147320
T4
X-113396Y119044
X-114696Y119044
X-81138Y116414
X-82438Y116414
X-81138Y117714
X-82438Y117714
X-81138Y119014
X-82438Y119014
X-81138Y120314
X-82438Y120314
X-114696Y117744
X-113396Y117744
X-114696Y116444
X-113396Y116444
X-114696Y115144
X-113396Y115144
M30