G04 EAGLE Gerber RS-274X export*
G75*
%MOMM*%
%FSLAX34Y34*%
%LPD*%
%INBottom Copper*%
%IPPOS*%
%AMOC8*
5,1,8,0,0,1.08239X$1,22.5*%
G01*
%ADD10P,1.429621X8X292.500000*%
%ADD11C,0.711200*%
%ADD12C,0.381000*%
%ADD13C,0.304800*%

G36*
X103637Y65023D02*
X103637Y65023D01*
X103637Y65024D01*
X103637Y395732D01*
X103633Y395737D01*
X103632Y395737D01*
X55880Y395737D01*
X55878Y395735D01*
X55876Y395736D01*
X49018Y388878D01*
X49018Y388875D01*
X49017Y388874D01*
X49017Y65024D01*
X49021Y65019D01*
X49022Y65019D01*
X103632Y65019D01*
X103637Y65023D01*
G37*
G36*
X335285Y334009D02*
X335285Y334009D01*
X335285Y334010D01*
X335285Y369570D01*
X335281Y369575D01*
X335280Y369575D01*
X138430Y369575D01*
X138425Y369571D01*
X138425Y369570D01*
X138425Y334010D01*
X138429Y334005D01*
X138430Y334005D01*
X335280Y334005D01*
X335285Y334009D01*
G37*
D10*
X281940Y257810D03*
X281940Y232410D03*
D11*
X98044Y376936D03*
X53594Y330200D03*
X53594Y291592D03*
X53594Y250952D03*
X53594Y210820D03*
X53594Y165100D03*
X53594Y116840D03*
X58420Y97790D03*
X73660Y97790D03*
X88900Y97790D03*
X58420Y85090D03*
X73660Y85090D03*
X88900Y85090D03*
X58420Y72390D03*
X73660Y72390D03*
X88900Y72390D03*
X218440Y241554D03*
X165100Y233680D03*
D12*
X172974Y241554D01*
X218440Y241554D01*
X252730Y257810D02*
X281940Y257810D01*
X236474Y241554D02*
X218440Y241554D01*
X236474Y241554D02*
X252730Y257810D01*
D11*
X165100Y361950D03*
X165100Y351790D03*
X165100Y341630D03*
X142240Y363220D03*
X302260Y365252D03*
X302260Y356362D03*
X302260Y346964D03*
X302260Y338328D03*
X231648Y144526D03*
D13*
X231648Y179578D01*
X235458Y183388D01*
D11*
X235458Y183388D03*
X167894Y144526D03*
D13*
X167894Y180086D01*
X180340Y192532D02*
X208026Y192532D01*
D11*
X208026Y192532D03*
D13*
X180340Y192532D02*
X167894Y180086D01*
M02*
