G04 EAGLE Gerber RS-274X export*
G75*
%MOMM*%
%FSLAX34Y34*%
%LPD*%
%INTop Copper*%
%IPPOS*%
%AMOC8*
5,1,8,0,0,1.08239X$1,22.5*%
G01*
%ADD10R,1.000000X0.330000*%
%ADD11R,1.200000X1.300000*%
%ADD12R,2.540000X3.302000*%
%ADD13R,0.900000X0.800000*%
%ADD14R,0.800000X0.900000*%
%ADD15R,3.200000X1.800000*%
%ADD16R,0.500000X0.650000*%
%ADD17R,0.500000X0.550000*%
%ADD18R,4.600000X4.120000*%
%ADD19R,0.500000X0.500000*%
%ADD20R,0.650000X0.500000*%
%ADD21P,1.429621X8X292.500000*%
%ADD22C,0.381000*%
%ADD23C,0.508000*%
%ADD24C,0.711200*%
%ADD25C,1.270000*%
%ADD26C,0.304800*%
%ADD27C,0.635000*%

G36*
X335285Y275589D02*
X335285Y275589D01*
X335285Y275590D01*
X335285Y308610D01*
X335281Y308615D01*
X335280Y308615D01*
X309628Y308615D01*
X287025Y331218D01*
X287025Y397510D01*
X287023Y397512D01*
X287024Y397514D01*
X255528Y429010D01*
X255525Y429010D01*
X255524Y429011D01*
X60706Y429011D01*
X60704Y429009D01*
X60702Y429010D01*
X24128Y392435D01*
X2540Y392435D01*
X2535Y392431D01*
X2536Y392430D01*
X2535Y392430D01*
X2535Y359410D01*
X2540Y359405D01*
X35558Y359405D01*
X53336Y341626D01*
X53339Y341626D01*
X53340Y341625D01*
X67310Y341625D01*
X67315Y341629D01*
X67315Y341630D01*
X67315Y384808D01*
X80012Y397505D01*
X175258Y397505D01*
X186685Y386078D01*
X186685Y322580D01*
X186689Y322575D01*
X186690Y322575D01*
X243076Y322575D01*
X290064Y275586D01*
X290067Y275586D01*
X290068Y275585D01*
X335280Y275585D01*
X335285Y275589D01*
G37*
G36*
X300738Y50797D02*
X300738Y50797D01*
X300740Y50796D01*
X335792Y85848D01*
X335792Y85851D01*
X335793Y85852D01*
X335793Y129032D01*
X335789Y129037D01*
X335788Y129037D01*
X309372Y129037D01*
X309367Y129033D01*
X309367Y129032D01*
X309367Y98554D01*
X290574Y79761D01*
X228602Y79761D01*
X223525Y84838D01*
X223525Y133604D01*
X223521Y133609D01*
X223520Y133609D01*
X169164Y133609D01*
X169159Y133605D01*
X169159Y133604D01*
X169159Y55880D01*
X169161Y55878D01*
X169160Y55876D01*
X174240Y50796D01*
X174243Y50796D01*
X174244Y50795D01*
X300736Y50795D01*
X300738Y50797D01*
G37*
G36*
X155453Y129539D02*
X155453Y129539D01*
X155453Y129540D01*
X155453Y150617D01*
X182875Y150617D01*
X182875Y139700D01*
X182879Y139695D01*
X182880Y139695D01*
X221996Y139695D01*
X222001Y139699D01*
X222001Y139700D01*
X222001Y150617D01*
X247899Y150617D01*
X247899Y139700D01*
X247903Y139695D01*
X247904Y139695D01*
X281940Y139695D01*
X281945Y139699D01*
X281945Y139700D01*
X281945Y174244D01*
X281943Y174246D01*
X281944Y174248D01*
X278388Y177804D01*
X278385Y177804D01*
X278384Y177805D01*
X117348Y177805D01*
X117346Y177803D01*
X117344Y177804D01*
X113280Y173740D01*
X113280Y173738D01*
X113280Y173737D01*
X113279Y173736D01*
X113279Y129540D01*
X113283Y129535D01*
X113284Y129535D01*
X155448Y129535D01*
X155453Y129539D01*
G37*
G36*
X284736Y84833D02*
X284736Y84833D01*
X284738Y84832D01*
X305312Y105406D01*
X305312Y105409D01*
X305313Y105410D01*
X305313Y129284D01*
X335792Y159762D01*
X335792Y159764D01*
X335792Y159765D01*
X335793Y159766D01*
X335793Y197104D01*
X335789Y197109D01*
X335788Y197109D01*
X309880Y197109D01*
X309878Y197107D01*
X309876Y197108D01*
X286000Y173232D01*
X286000Y173229D01*
X285999Y173228D01*
X285999Y137416D01*
X281684Y133101D01*
X232156Y133101D01*
X232151Y133097D01*
X232151Y133096D01*
X232151Y84836D01*
X232155Y84831D01*
X232156Y84831D01*
X284734Y84831D01*
X284736Y84833D01*
G37*
G36*
X151897Y65531D02*
X151897Y65531D01*
X151897Y65532D01*
X151897Y102108D01*
X151895Y102110D01*
X151896Y102112D01*
X150880Y103128D01*
X150877Y103128D01*
X150876Y103129D01*
X2540Y103129D01*
X2535Y103125D01*
X2536Y103124D01*
X2535Y103124D01*
X2535Y65532D01*
X2540Y65527D01*
X151892Y65527D01*
X151897Y65531D01*
G37*
G36*
X335285Y334009D02*
X335285Y334009D01*
X335285Y334010D01*
X335285Y369570D01*
X335281Y369575D01*
X335280Y369575D01*
X295910Y369575D01*
X295905Y369571D01*
X295905Y369570D01*
X295905Y334010D01*
X295909Y334005D01*
X295910Y334005D01*
X335280Y334005D01*
X335285Y334009D01*
G37*
G36*
X181615Y334009D02*
X181615Y334009D01*
X181615Y334010D01*
X181615Y369570D01*
X181611Y369575D01*
X181610Y369575D01*
X138430Y369575D01*
X138425Y369571D01*
X138425Y369570D01*
X138425Y356870D01*
X138429Y356865D01*
X138430Y356865D01*
X160015Y356865D01*
X160015Y334010D01*
X160019Y334005D01*
X160020Y334005D01*
X181610Y334005D01*
X181615Y334009D01*
G37*
D10*
X148860Y279400D03*
X148860Y273050D03*
X148860Y266700D03*
X148860Y260350D03*
X148860Y254000D03*
X148860Y247650D03*
X148860Y241300D03*
X148860Y234950D03*
X148860Y228600D03*
X148860Y222250D03*
X148860Y215900D03*
X148860Y209550D03*
X198360Y279400D03*
X198360Y273050D03*
X198360Y266700D03*
X198360Y260350D03*
X198360Y254000D03*
X198360Y247650D03*
X198360Y241300D03*
X198360Y234950D03*
X198360Y228600D03*
X198360Y222250D03*
X198360Y215900D03*
X198360Y209550D03*
D11*
X60960Y368300D03*
X81280Y368300D03*
D12*
X322580Y350520D03*
X322580Y180340D03*
D13*
X97790Y386080D03*
X82550Y386080D03*
X63500Y330200D03*
X78740Y330200D03*
X63500Y292100D03*
X78740Y292100D03*
X63500Y251460D03*
X78740Y251460D03*
X63500Y210820D03*
X78740Y210820D03*
X63500Y165100D03*
X78740Y165100D03*
D11*
X60960Y347980D03*
X81280Y347980D03*
X60960Y309880D03*
X81280Y309880D03*
X60960Y269240D03*
X81280Y269240D03*
X60960Y228600D03*
X81280Y228600D03*
X60960Y182880D03*
X81280Y182880D03*
X60960Y134620D03*
X81280Y134620D03*
D13*
X63500Y116840D03*
X78740Y116840D03*
D14*
X129286Y171958D03*
X129286Y187198D03*
X129286Y218440D03*
X129286Y203200D03*
D13*
X215900Y274320D03*
X231140Y274320D03*
D15*
X132080Y138998D03*
X132080Y82998D03*
D12*
X15240Y86360D03*
X15240Y134620D03*
X15240Y182880D03*
X15240Y231140D03*
X15240Y279400D03*
X15240Y327660D03*
X322580Y292100D03*
D14*
X231140Y236220D03*
X231140Y251460D03*
D16*
X214630Y144390D03*
X201930Y144390D03*
X189230Y144390D03*
X176530Y144390D03*
D17*
X176530Y88890D03*
X189230Y88890D03*
X201930Y88890D03*
X214630Y88890D03*
D18*
X195580Y112240D03*
D19*
X207800Y347980D03*
D20*
X175650Y367030D03*
X175650Y354330D03*
X175650Y341630D03*
X175650Y328930D03*
D13*
X139700Y327660D03*
X154940Y327660D03*
D14*
X152400Y347980D03*
X152400Y363220D03*
D16*
X278130Y144390D03*
X265430Y144390D03*
X252730Y144390D03*
X240030Y144390D03*
D17*
X240030Y88890D03*
X252730Y88890D03*
X265430Y88890D03*
X278130Y88890D03*
D18*
X259080Y112240D03*
D14*
X235204Y193548D03*
X235204Y208788D03*
X219964Y193548D03*
X219964Y208788D03*
X250444Y193548D03*
X250444Y208788D03*
X246380Y236220D03*
X246380Y251460D03*
X261620Y236220D03*
X261620Y251460D03*
D21*
X281940Y257810D03*
X281940Y232410D03*
D12*
X322580Y111760D03*
X15240Y375920D03*
D22*
X78740Y370840D02*
X81280Y368300D01*
X112014Y368300D01*
X137922Y279400D02*
X148860Y279400D01*
X125476Y354838D02*
X112014Y368300D01*
X125476Y354838D02*
X125476Y291846D01*
X137922Y279400D01*
X82550Y369570D02*
X82550Y386080D01*
X82550Y369570D02*
X81280Y368300D01*
X148860Y273050D02*
X148860Y266700D01*
X148860Y273050D02*
X133858Y273050D01*
X118364Y288544D02*
X118364Y321564D01*
X109728Y330200D01*
X81026Y330200D01*
X78740Y330200D01*
X118364Y288544D02*
X133858Y273050D01*
X81280Y330454D02*
X81280Y347980D01*
X81280Y330454D02*
X81026Y330200D01*
X125222Y260350D02*
X148860Y260350D01*
X110236Y275336D02*
X110236Y299212D01*
X99568Y309880D01*
X81280Y309880D01*
X110236Y275336D02*
X125222Y260350D01*
X78740Y292100D02*
X78740Y307340D01*
X81280Y309880D01*
X114300Y254000D02*
X148860Y254000D01*
X99060Y269240D02*
X81280Y269240D01*
X99060Y269240D02*
X114300Y254000D01*
X78740Y251460D02*
X78740Y266700D01*
X81280Y269240D01*
X81280Y228600D02*
X78740Y226060D01*
X78740Y210820D01*
X81280Y228600D02*
X97790Y228600D01*
X116840Y247650D02*
X148860Y247650D01*
X116840Y247650D02*
X97790Y228600D01*
X92456Y182880D02*
X81280Y182880D01*
X121158Y241300D02*
X148860Y241300D01*
X104394Y194818D02*
X92456Y182880D01*
X104394Y194818D02*
X104394Y224536D01*
X121158Y241300D01*
X81280Y182880D02*
X78740Y180340D01*
X78740Y165100D01*
X81280Y134620D02*
X78740Y132080D01*
X78740Y116840D01*
X81280Y134620D02*
X93472Y134620D01*
X125081Y234950D02*
X148860Y234950D01*
X98044Y139192D02*
X93472Y134620D01*
X98044Y139192D02*
X98044Y178054D01*
X111252Y191262D01*
X111252Y221121D01*
X125081Y234950D01*
X105156Y174752D02*
X105156Y125984D01*
X96012Y116840D01*
X96012Y99568D01*
X105156Y174752D02*
X118364Y187960D01*
X118364Y218440D01*
X123952Y224028D01*
X128524Y228600D01*
X148860Y228600D01*
X129286Y218440D02*
X123952Y223774D01*
X123952Y224028D01*
X198360Y279400D02*
X205232Y279400D01*
X231140Y279908D02*
X231140Y274320D01*
X209296Y283464D02*
X205232Y279400D01*
X209296Y283464D02*
X227584Y283464D01*
X231140Y279908D01*
D23*
X98044Y385826D02*
X97790Y386080D01*
X98044Y385826D02*
X98044Y376936D01*
D24*
X98044Y376936D03*
D23*
X63500Y330200D02*
X53594Y330200D01*
D24*
X53594Y330200D03*
D23*
X63500Y292100D02*
X62992Y291592D01*
X53594Y291592D01*
D24*
X53594Y291592D03*
D23*
X63500Y251460D02*
X62992Y250952D01*
X53594Y250952D01*
D24*
X53594Y250952D03*
D23*
X53594Y210820D02*
X63500Y210820D01*
D24*
X53594Y210820D03*
D23*
X53594Y165100D02*
X63500Y165100D01*
D24*
X53594Y165100D03*
D23*
X53594Y116840D02*
X63500Y116840D01*
D24*
X53594Y116840D03*
X58420Y97790D03*
X73660Y97790D03*
X88900Y97790D03*
X58420Y85090D03*
X73660Y85090D03*
X88900Y85090D03*
X58420Y72390D03*
X73660Y72390D03*
X88900Y72390D03*
D22*
X223774Y236220D02*
X231140Y236220D01*
X223774Y236220D02*
X218440Y241554D01*
D24*
X218440Y241554D03*
D22*
X281940Y257810D02*
X281940Y266700D01*
X274320Y274320D02*
X231140Y274320D01*
X274320Y274320D02*
X281940Y266700D01*
X160020Y228600D02*
X148860Y228600D01*
D24*
X165100Y233680D03*
D22*
X160020Y228600D01*
D25*
X27432Y327660D02*
X15240Y327660D01*
X45212Y309880D02*
X60960Y309880D01*
X45212Y309880D02*
X27432Y327660D01*
X34036Y279400D02*
X15240Y279400D01*
X44196Y269240D02*
X60960Y269240D01*
X44196Y269240D02*
X34036Y279400D01*
X15240Y231140D02*
X17780Y228600D01*
X60960Y228600D01*
X60960Y182880D02*
X15240Y182880D01*
X15240Y134620D02*
X60960Y134620D01*
D22*
X129286Y187198D02*
X129286Y203200D01*
X134620Y203200D01*
X141478Y222250D02*
X148860Y222250D01*
X138684Y207264D02*
X134620Y203200D01*
X138684Y207264D02*
X138684Y219456D01*
X141478Y222250D01*
D26*
X198360Y273050D02*
X214630Y273050D01*
X215900Y274320D01*
X228600Y254000D02*
X231140Y251460D01*
X228600Y254000D02*
X198360Y254000D01*
X154940Y327660D02*
X152400Y330200D01*
X152400Y347980D01*
X156210Y328930D02*
X154940Y327660D01*
X156210Y328930D02*
X175650Y328930D01*
X139700Y327660D02*
X139700Y314198D01*
X147066Y306832D02*
X168402Y306832D01*
X178308Y296926D01*
X183134Y241300D02*
X198360Y241300D01*
X147066Y306832D02*
X139700Y314198D01*
X178308Y296926D02*
X178308Y246126D01*
X183134Y241300D01*
D24*
X165100Y361950D03*
X165100Y351790D03*
X165100Y341630D03*
X142240Y363220D03*
X302260Y365252D03*
X302260Y356362D03*
X302260Y346964D03*
X302260Y338328D03*
D26*
X240030Y144390D02*
X231784Y144390D01*
X231648Y144526D01*
D24*
X231648Y144526D03*
X235458Y183388D03*
D26*
X235458Y193294D01*
X235204Y193548D01*
X176530Y144390D02*
X168030Y144390D01*
X167894Y144526D01*
D24*
X167894Y144526D03*
X208026Y192532D03*
D26*
X218948Y192532D01*
X219964Y193548D01*
X219964Y208788D02*
X219964Y214884D01*
X212598Y222250D02*
X198360Y222250D01*
X212598Y222250D02*
X219964Y214884D01*
X235204Y215900D02*
X235204Y208788D01*
X213868Y228600D02*
X198360Y228600D01*
X213868Y228600D02*
X224028Y218440D01*
X232664Y218440D01*
X235204Y215900D01*
X215392Y234950D02*
X198360Y234950D01*
X215392Y234950D02*
X226568Y223774D01*
X250444Y217170D02*
X250444Y208788D01*
X243840Y223774D02*
X226568Y223774D01*
X243840Y223774D02*
X250444Y217170D01*
D27*
X250444Y193548D02*
X294640Y193548D01*
X307848Y180340D02*
X322580Y180340D01*
X307848Y180340D02*
X294640Y193548D01*
D26*
X254762Y266700D02*
X198360Y266700D01*
X261620Y259842D02*
X261620Y251460D01*
X261620Y259842D02*
X254762Y266700D01*
X243078Y260350D02*
X198360Y260350D01*
X246380Y257048D02*
X246380Y251460D01*
X246380Y257048D02*
X243078Y260350D01*
X246380Y236220D02*
X261620Y236220D01*
X270256Y236220D01*
X274066Y232410D02*
X281940Y232410D01*
X274066Y232410D02*
X270256Y236220D01*
M02*
