G04 EAGLE Gerber RS-274X export*
G75*
%MOMM*%
%FSLAX34Y34*%
%LPD*%
%IN*%
%IPPOS*%
%AMOC8*
5,1,8,0,0,1.08239X$1,22.5*%
G01*
%ADD10C,0.254000*%


D10*
X0Y47752D02*
X77Y45981D01*
X309Y44223D01*
X692Y42493D01*
X1225Y40802D01*
X1904Y39164D01*
X2722Y37592D01*
X3675Y36097D01*
X4754Y34691D01*
X5952Y33384D01*
X7259Y32186D01*
X8665Y31107D01*
X10160Y30154D01*
X11732Y29336D01*
X13370Y28657D01*
X15061Y28124D01*
X16791Y27741D01*
X18549Y27509D01*
X20320Y27432D01*
X322380Y27432D01*
X324151Y27509D01*
X325909Y27741D01*
X327639Y28124D01*
X329330Y28657D01*
X330968Y29336D01*
X332540Y30154D01*
X334035Y31107D01*
X335441Y32186D01*
X336748Y33384D01*
X337946Y34691D01*
X339025Y36097D01*
X339978Y37592D01*
X340796Y39164D01*
X341475Y40802D01*
X342008Y42493D01*
X342391Y44223D01*
X342623Y45981D01*
X342700Y47752D01*
X342700Y414530D01*
X342623Y416301D01*
X342391Y418059D01*
X342008Y419789D01*
X341475Y421480D01*
X340796Y423118D01*
X339978Y424690D01*
X339025Y426185D01*
X337946Y427591D01*
X336748Y428898D01*
X335441Y430096D01*
X334035Y431175D01*
X332540Y432128D01*
X330968Y432946D01*
X329330Y433625D01*
X327639Y434158D01*
X325909Y434541D01*
X324151Y434773D01*
X322380Y434850D01*
X20320Y434850D01*
X18549Y434773D01*
X16791Y434541D01*
X15061Y434158D01*
X13370Y433625D01*
X11732Y432946D01*
X10160Y432128D01*
X8665Y431175D01*
X7259Y430096D01*
X5952Y428898D01*
X4754Y427591D01*
X3675Y426185D01*
X2722Y424690D01*
X1904Y423118D01*
X1225Y421480D01*
X692Y419789D01*
X309Y418059D01*
X77Y416301D01*
X0Y414530D01*
X0Y47752D01*
X28788Y416147D02*
X28723Y415325D01*
X28594Y414510D01*
X28402Y413708D01*
X28147Y412923D01*
X27831Y412161D01*
X27456Y411426D01*
X27025Y410722D01*
X26540Y410055D01*
X26004Y409427D01*
X25421Y408844D01*
X24794Y408308D01*
X24126Y407823D01*
X23422Y407392D01*
X22687Y407017D01*
X21925Y406701D01*
X21140Y406446D01*
X20338Y406254D01*
X19523Y406125D01*
X18701Y406060D01*
X17875Y406060D01*
X17053Y406125D01*
X16238Y406254D01*
X15436Y406446D01*
X14651Y406701D01*
X13889Y407017D01*
X13154Y407392D01*
X12450Y407823D01*
X11783Y408308D01*
X11155Y408844D01*
X10572Y409427D01*
X10036Y410055D01*
X9551Y410722D01*
X9120Y411426D01*
X8745Y412161D01*
X8429Y412923D01*
X8174Y413708D01*
X7982Y414510D01*
X7853Y415325D01*
X7788Y416147D01*
X7788Y416973D01*
X7853Y417795D01*
X7982Y418610D01*
X8174Y419412D01*
X8429Y420197D01*
X8745Y420959D01*
X9120Y421694D01*
X9551Y422398D01*
X10036Y423066D01*
X10572Y423693D01*
X11155Y424276D01*
X11783Y424812D01*
X12450Y425297D01*
X13154Y425728D01*
X13889Y426103D01*
X14651Y426419D01*
X15436Y426674D01*
X16238Y426866D01*
X17053Y426995D01*
X17875Y427060D01*
X18701Y427060D01*
X19523Y426995D01*
X20338Y426866D01*
X21140Y426674D01*
X21925Y426419D01*
X22687Y426103D01*
X23422Y425728D01*
X24126Y425297D01*
X24794Y424812D01*
X25421Y424276D01*
X26004Y423693D01*
X26540Y423066D01*
X27025Y422398D01*
X27456Y421694D01*
X27831Y420959D01*
X28147Y420197D01*
X28402Y419412D01*
X28594Y418610D01*
X28723Y417795D01*
X28788Y416973D01*
X28788Y416147D01*
X28788Y45307D02*
X28723Y44485D01*
X28594Y43670D01*
X28402Y42868D01*
X28147Y42083D01*
X27831Y41321D01*
X27456Y40586D01*
X27025Y39882D01*
X26540Y39215D01*
X26004Y38587D01*
X25421Y38004D01*
X24794Y37468D01*
X24126Y36983D01*
X23422Y36552D01*
X22687Y36177D01*
X21925Y35861D01*
X21140Y35606D01*
X20338Y35414D01*
X19523Y35285D01*
X18701Y35220D01*
X17875Y35220D01*
X17053Y35285D01*
X16238Y35414D01*
X15436Y35606D01*
X14651Y35861D01*
X13889Y36177D01*
X13154Y36552D01*
X12450Y36983D01*
X11783Y37468D01*
X11155Y38004D01*
X10572Y38587D01*
X10036Y39215D01*
X9551Y39882D01*
X9120Y40586D01*
X8745Y41321D01*
X8429Y42083D01*
X8174Y42868D01*
X7982Y43670D01*
X7853Y44485D01*
X7788Y45307D01*
X7788Y46133D01*
X7853Y46955D01*
X7982Y47770D01*
X8174Y48572D01*
X8429Y49357D01*
X8745Y50119D01*
X9120Y50854D01*
X9551Y51558D01*
X10036Y52226D01*
X10572Y52853D01*
X11155Y53436D01*
X11783Y53972D01*
X12450Y54457D01*
X13154Y54888D01*
X13889Y55263D01*
X14651Y55579D01*
X15436Y55834D01*
X16238Y56026D01*
X17053Y56155D01*
X17875Y56220D01*
X18701Y56220D01*
X19523Y56155D01*
X20338Y56026D01*
X21140Y55834D01*
X21925Y55579D01*
X22687Y55263D01*
X23422Y54888D01*
X24126Y54457D01*
X24794Y53972D01*
X25421Y53436D01*
X26004Y52853D01*
X26540Y52226D01*
X27025Y51558D01*
X27456Y50854D01*
X27831Y50119D01*
X28147Y49357D01*
X28402Y48572D01*
X28594Y47770D01*
X28723Y46955D01*
X28788Y46133D01*
X28788Y45307D01*
X334858Y45307D02*
X334793Y44485D01*
X334664Y43670D01*
X334472Y42868D01*
X334217Y42083D01*
X333901Y41321D01*
X333526Y40586D01*
X333095Y39882D01*
X332610Y39215D01*
X332074Y38587D01*
X331491Y38004D01*
X330864Y37468D01*
X330196Y36983D01*
X329492Y36552D01*
X328757Y36177D01*
X327995Y35861D01*
X327210Y35606D01*
X326408Y35414D01*
X325593Y35285D01*
X324771Y35220D01*
X323945Y35220D01*
X323123Y35285D01*
X322308Y35414D01*
X321506Y35606D01*
X320721Y35861D01*
X319959Y36177D01*
X319224Y36552D01*
X318520Y36983D01*
X317853Y37468D01*
X317225Y38004D01*
X316642Y38587D01*
X316106Y39215D01*
X315621Y39882D01*
X315190Y40586D01*
X314815Y41321D01*
X314499Y42083D01*
X314244Y42868D01*
X314052Y43670D01*
X313923Y44485D01*
X313858Y45307D01*
X313858Y46133D01*
X313923Y46955D01*
X314052Y47770D01*
X314244Y48572D01*
X314499Y49357D01*
X314815Y50119D01*
X315190Y50854D01*
X315621Y51558D01*
X316106Y52226D01*
X316642Y52853D01*
X317225Y53436D01*
X317853Y53972D01*
X318520Y54457D01*
X319224Y54888D01*
X319959Y55263D01*
X320721Y55579D01*
X321506Y55834D01*
X322308Y56026D01*
X323123Y56155D01*
X323945Y56220D01*
X324771Y56220D01*
X325593Y56155D01*
X326408Y56026D01*
X327210Y55834D01*
X327995Y55579D01*
X328757Y55263D01*
X329492Y54888D01*
X330196Y54457D01*
X330864Y53972D01*
X331491Y53436D01*
X332074Y52853D01*
X332610Y52226D01*
X333095Y51558D01*
X333526Y50854D01*
X333901Y50119D01*
X334217Y49357D01*
X334472Y48572D01*
X334664Y47770D01*
X334793Y46955D01*
X334858Y46133D01*
X334858Y45307D01*
X334858Y416147D02*
X334793Y415325D01*
X334664Y414510D01*
X334472Y413708D01*
X334217Y412923D01*
X333901Y412161D01*
X333526Y411426D01*
X333095Y410722D01*
X332610Y410055D01*
X332074Y409427D01*
X331491Y408844D01*
X330864Y408308D01*
X330196Y407823D01*
X329492Y407392D01*
X328757Y407017D01*
X327995Y406701D01*
X327210Y406446D01*
X326408Y406254D01*
X325593Y406125D01*
X324771Y406060D01*
X323945Y406060D01*
X323123Y406125D01*
X322308Y406254D01*
X321506Y406446D01*
X320721Y406701D01*
X319959Y407017D01*
X319224Y407392D01*
X318520Y407823D01*
X317853Y408308D01*
X317225Y408844D01*
X316642Y409427D01*
X316106Y410055D01*
X315621Y410722D01*
X315190Y411426D01*
X314815Y412161D01*
X314499Y412923D01*
X314244Y413708D01*
X314052Y414510D01*
X313923Y415325D01*
X313858Y416147D01*
X313858Y416973D01*
X313923Y417795D01*
X314052Y418610D01*
X314244Y419412D01*
X314499Y420197D01*
X314815Y420959D01*
X315190Y421694D01*
X315621Y422398D01*
X316106Y423066D01*
X316642Y423693D01*
X317225Y424276D01*
X317853Y424812D01*
X318520Y425297D01*
X319224Y425728D01*
X319959Y426103D01*
X320721Y426419D01*
X321506Y426674D01*
X322308Y426866D01*
X323123Y426995D01*
X323945Y427060D01*
X324771Y427060D01*
X325593Y426995D01*
X326408Y426866D01*
X327210Y426674D01*
X327995Y426419D01*
X328757Y426103D01*
X329492Y425728D01*
X330196Y425297D01*
X330864Y424812D01*
X331491Y424276D01*
X332074Y423693D01*
X332610Y423066D01*
X333095Y422398D01*
X333526Y421694D01*
X333901Y420959D01*
X334217Y420197D01*
X334472Y419412D01*
X334664Y418610D01*
X334793Y417795D01*
X334858Y416973D01*
X334858Y416147D01*
M02*
