G04 EAGLE Gerber RS-274X export*
G75*
%MOMM*%
%FSLAX34Y34*%
%LPD*%
%INSolderpaste Top*%
%IPPOS*%
%AMOC8*
5,1,8,0,0,1.08239X$1,22.5*%
G01*
%ADD10R,1.000000X0.330000*%
%ADD11R,1.200000X1.300000*%
%ADD12R,0.900000X0.800000*%
%ADD13R,0.800000X0.900000*%
%ADD14R,3.200000X1.800000*%
%ADD15R,2.909431X2.605869*%
%ADD16R,0.500000X0.650000*%
%ADD17R,0.500000X0.550000*%
%ADD18R,1.420000X1.660000*%
%ADD19R,0.545000X0.500000*%
%ADD20R,0.650000X0.500000*%


D10*
X148860Y279400D03*
X148860Y273050D03*
X148860Y266700D03*
X148860Y260350D03*
X148860Y254000D03*
X148860Y247650D03*
X148860Y241300D03*
X148860Y234950D03*
X148860Y228600D03*
X148860Y222250D03*
X148860Y215900D03*
X148860Y209550D03*
X198360Y279400D03*
X198360Y273050D03*
X198360Y266700D03*
X198360Y260350D03*
X198360Y254000D03*
X198360Y247650D03*
X198360Y241300D03*
X198360Y234950D03*
X198360Y228600D03*
X198360Y222250D03*
X198360Y215900D03*
X198360Y209550D03*
D11*
X60960Y368300D03*
X81280Y368300D03*
D12*
X97790Y386080D03*
X82550Y386080D03*
X63500Y330200D03*
X78740Y330200D03*
X63500Y292100D03*
X78740Y292100D03*
X63500Y251460D03*
X78740Y251460D03*
X63500Y210820D03*
X78740Y210820D03*
X63500Y165100D03*
X78740Y165100D03*
D11*
X60960Y347980D03*
X81280Y347980D03*
X60960Y309880D03*
X81280Y309880D03*
X60960Y269240D03*
X81280Y269240D03*
X60960Y228600D03*
X81280Y228600D03*
X60960Y182880D03*
X81280Y182880D03*
X60960Y134620D03*
X81280Y134620D03*
D12*
X63500Y116840D03*
X78740Y116840D03*
D13*
X129286Y171958D03*
X129286Y187198D03*
X129286Y218440D03*
X129286Y203200D03*
D12*
X215900Y274320D03*
X231140Y274320D03*
D14*
X132080Y138998D03*
X132080Y82998D03*
D13*
X231140Y236220D03*
X231140Y251460D03*
D15*
X195579Y112241D03*
D16*
X214630Y144390D03*
X201930Y144390D03*
X189230Y144390D03*
X176530Y144390D03*
D17*
X176530Y88890D03*
X189230Y88890D03*
X201930Y88890D03*
X214630Y88890D03*
D18*
X197500Y359480D03*
D19*
X231175Y367030D03*
X231175Y354330D03*
X231175Y341630D03*
X231175Y328930D03*
D18*
X197500Y336480D03*
X218100Y359480D03*
X218100Y336480D03*
D20*
X175650Y367030D03*
X175650Y354330D03*
X175650Y341630D03*
X175650Y328930D03*
D12*
X139700Y327660D03*
X154940Y327660D03*
D13*
X152400Y347980D03*
X152400Y363220D03*
D15*
X259079Y112241D03*
D16*
X278130Y144390D03*
X265430Y144390D03*
X252730Y144390D03*
X240030Y144390D03*
D17*
X240030Y88890D03*
X252730Y88890D03*
X265430Y88890D03*
X278130Y88890D03*
D13*
X235204Y193548D03*
X235204Y208788D03*
X219964Y193548D03*
X219964Y208788D03*
X250444Y193548D03*
X250444Y208788D03*
X246380Y236220D03*
X246380Y251460D03*
X261620Y236220D03*
X261620Y251460D03*
M02*
